<?xml version="1.0" encoding="utf-8"?>
<!-- Generator: Adobe Illustrator 24.1.2, SVG Export Plug-In . SVG Version: 6.00 Build 0)  -->
<svg version="1.1" id="Layer_1" xmlns="http://www.w3.org/2000/svg" xmlns:xlink="http://www.w3.org/1999/xlink" x="0px" y="0px"
	 viewBox="0 0 167 48.8" style="enable-background:new 0 0 167 48.8;" xml:space="preserve">
<style type="text/css">
	.st0{fill:url(#União_1_1_);}
	.st1{fill:url(#União_3_1_);}
	.st2{fill:url(#União_2_1_);}
	.st3{fill:url(#Caminho_45634_1_);}
	.st4{fill:url(#Caminho_45635_1_);}
	.st5{fill:url(#Caminho_45636_1_);}
	.st6{fill:#575a5c;}
</style>
<g id="Grupo_13282" transform="translate(31.273 168)">
	<g id="baseproject_square" transform="translate(0 0)">
		
			<linearGradient id="União_1_1_" gradientUnits="userSpaceOnUse" x1="-234.4276" y1="269.7917" x2="-235.1126" y2="269.0377" gradientTransform="matrix(23.38 0 0 -48.79 5466.8296 12994.2432)">
			<stop  offset="0" style="stop-color:#EEA248"/>
			<stop  offset="1" style="stop-color:#F36F45"/>
		</linearGradient>
		<path id="União_1" class="st0" d="M-29.3-119.2c-1.1,0-2-0.9-2-2v-6.8c0-1.1,0.9-2,2-2h6.8c1.1,0,2,0.9,2,2v6.8c0,1.1-0.9,2-2,2
			L-29.3-119.2z M-29.3-131.9c-1.1,0-2-0.9-2-2v-6.8c0-1.1,0.9-2,2-2h6.8c1.1,0,2,0.9,2,2v6.8c0,1.1-0.9,2-2,2L-29.3-131.9z
			 M-16.6-144.5c-1.1,0-2-0.9-2-2v-6.8c0-1.1,0.9-2,2-2h6.8c1.1,0,2,0.9,2,2v6.8c0,1.1-0.9,2-2,2H-16.6z M-29.3-144.5
			c-1.1,0-2-0.9-2-2v-6.8c0-1.1,0.9-2,2-2h6.8c1.1,0,2,0.9,2,2v6.8c0,1.1-0.9,2-2,2H-29.3z M-16.6-157.2c-1.1,0-2-0.9-2-2v-6.8
			c0-1.1,0.9-2,2-2h6.8c1.1,0,2,0.9,2,2v6.8c0,1.1-0.9,2-2,2H-16.6z M-29.3-157.2c-1.1,0-2-0.9-2-2v-6.8c0-1.1,0.9-2,2-2h6.8
			c1.1,0,2,0.9,2,2v6.8c0,1.1-0.9,2-2,2H-29.3z"/>
		
			<linearGradient id="União_3_1_" gradientUnits="userSpaceOnUse" x1="-238.1784" y1="268.7497" x2="-237.2854" y2="269.9406" gradientTransform="matrix(36.163 0 0 -48.79 8601.999 12994.2432)">
			<stop  offset="0" style="stop-color:#BDC5D0"/>
			<stop  offset="1" style="stop-color:#FFFFFF"/>
		</linearGradient>
		<path id="União_3" class="st1" d="M-16.6-119.2c-1.1,0-2-0.9-2-2v-6.8c0-1.1,0.9-2,2-2h6.8c1.1,0,2,0.9,2,2v6.8c0,1.1-0.9,2-2,2
			L-16.6-119.2z M8.7-131.9c-1.1,0-2-0.9-2-2v-6.8c0-1.1,0.9-2,2-2h6.8c1.1,0,2,0.9,2,2v6.8c0,1.1-0.9,2-2,2L8.7-131.9z
			 M-16.6-131.9c-1.1,0-2-0.9-2-2v-6.8c0-1.1,0.9-2,2-2h6.8c1.1,0,2,0.9,2,2v6.8c0,1.1-0.9,2-2,2L-16.6-131.9z M8.7-144.5
			c-1.1,0-2-0.9-2-2v-6.8c0-1.1,0.9-2,2-2h6.8c1.1,0,2,0.9,2,2v6.8c0,1.1-0.9,2-2,2H8.7z M8.7-157.2c-1.1,0-2-0.9-2-2v-6.8
			c0-1.1,0.9-2,2-2h6.8c1.1,0,2,0.9,2,2v6.8c0,1.1-0.9,2-2,2H8.7z"/>
		
			<linearGradient id="União_2_1_" gradientUnits="userSpaceOnUse" x1="-234.5264" y1="270.0432" x2="-234.7374" y2="268.8512" gradientTransform="matrix(23.38 0 0 -48.79 5492.2388 12994.2432)">
			<stop  offset="0" style="stop-color:#6C6E70"/>
			<stop  offset="1" style="stop-color:#383B3F"/>
		</linearGradient>
		<path id="União_2" class="st2" d="M8.8-119.2c-1.1,0-2-0.9-2-2v-6.8c0-1.1,0.9-2,2-2h6.8c1.1,0,2,0.9,2,2v6.8c0,1.1-0.9,2-2,2
			L8.8-119.2z M-3.9-119.2c-1.1,0-2-0.9-2-2v-6.8c0-1.1,0.9-2,2-2h6.8c1.1,0,2,0.9,2,2v6.8c0,1.1-0.9,2-2,2L-3.9-119.2z M-3.9-131.9
			c-1.1,0-2-0.9-2-2v-6.8c0-1.1,0.9-2,2-2h6.8c1.1,0,2,0.9,2,2v6.8c0,1.1-0.9,2-2,2L-3.9-131.9z M-3.9-144.5c-1.1,0-2-0.9-2-2v-6.8
			c0-1.1,0.9-2,2-2h6.8c1.1,0,2,0.9,2,2v6.8c0,1.1-0.9,2-2,2H-3.9z M-3.9-157.2c-1.1,0-2-0.9-2-2v-6.8c0-1.1,0.9-2,2-2h6.8
			c1.1,0,2,0.9,2,2v6.8c0,1.1-0.9,2-2,2H-3.9z"/>
	</g>
</g>
<g id="ProLead_logo_horizontal" transform="translate(91.931 184.201)">
	<g id="PROLEAD" transform="translate(0 0)">
		<g id="Grupo_13283">
			
				<linearGradient id="Caminho_45634_1_" gradientUnits="userSpaceOnUse" x1="-286.4954" y1="238.5909" x2="-287.9164" y2="237.8199" gradientTransform="matrix(12.4746 0 0 -17.0209 3559.6047 3890.3701)">
				<stop  offset="0" style="stop-color:#EEA248"/>
				<stop  offset="1" style="stop-color:#F36F45"/>
			</linearGradient>
			<path id="Caminho_45634" class="st3" d="M-28-156.8v6h-3.3v-17h5.7c1,0,2,0.1,3,0.4c0.8,0.2,1.5,0.6,2.1,1.1
				c0.5,0.5,1,1.1,1.2,1.7c0.5,1.4,0.5,3,0,4.5c-0.3,0.7-0.7,1.3-1.3,1.8c-0.6,0.5-1.3,0.9-2.1,1.2c-1,0.3-2,0.4-3,0.4L-28-156.8z
				 M-28-159.2h2.4c0.5,0,1.1-0.1,1.6-0.2c0.4-0.1,0.8-0.3,1.1-0.6c0.3-0.3,0.5-0.6,0.7-1c0.2-0.4,0.2-0.9,0.2-1.3
				c0-0.4-0.1-0.8-0.2-1.2c-0.1-0.4-0.4-0.7-0.7-0.9c-0.3-0.3-0.7-0.5-1.1-0.6c-0.5-0.1-1-0.2-1.6-0.2H-28V-159.2z"/>
			
				<linearGradient id="Caminho_45635_1_" gradientUnits="userSpaceOnUse" x1="-287.8817" y1="238.4375" x2="-289.3027" y2="237.6665" gradientTransform="matrix(13.65 0 0 -17.022 3933.1497 3890.6646)">
				<stop  offset="0" style="stop-color:#EEA248"/>
				<stop  offset="1" style="stop-color:#F36F45"/>
			</linearGradient>
			<path id="Caminho_45635" class="st4" d="M-12.9-157.4v6.7h-3.2v-17h5.3c1,0,2.1,0.1,3.1,0.4c0.8,0.2,1.5,0.5,2.1,1
				c0.5,0.4,0.9,0.9,1.2,1.5c0.5,1.2,0.5,2.4,0.1,3.6c-0.2,0.5-0.4,1-0.7,1.4c-0.3,0.4-0.7,0.8-1.2,1.1c-0.5,0.3-1.1,0.6-1.6,0.8
				c0.4,0.2,0.8,0.6,1.1,1l4.4,6.3h-2.9c-0.2,0-0.5,0-0.7-0.2c-0.2-0.1-0.4-0.3-0.5-0.5l-3.7-5.4c-0.1-0.2-0.3-0.3-0.5-0.4
				c-0.2-0.1-0.5-0.1-0.7-0.1H-12.9z M-12.9-159.7h2c0.5,0,1.1-0.1,1.6-0.2c0.4-0.1,0.8-0.3,1.1-0.6c0.3-0.3,0.5-0.6,0.7-0.9
				c0.1-0.4,0.2-0.8,0.2-1.2c0-0.8-0.3-1.5-0.9-2c-0.8-0.5-1.7-0.8-2.7-0.7h-2.1V-159.7z"/>
			
				<linearGradient id="Caminho_45636_1_" gradientUnits="userSpaceOnUse" x1="-291.4661" y1="238.9526" x2="-292.8871" y2="238.1816" gradientTransform="matrix(17.7206 0 0 -17.4076 5188.5801 3991.3687)">
				<stop  offset="0" style="stop-color:#EEA248"/>
				<stop  offset="1" style="stop-color:#F36F45"/>
			</linearGradient>
			<path id="Caminho_45636" class="st5" d="M15.7-159.3c0,1.2-0.2,2.4-0.6,3.5c-0.8,2.1-2.5,3.8-4.6,4.6c-2.3,0.9-4.9,0.9-7.2,0
				c-2.1-0.8-3.8-2.5-4.6-4.6c-0.9-2.2-0.9-4.7,0-6.9c0.8-2.1,2.5-3.8,4.6-4.6c1.2-0.4,2.4-0.7,3.6-0.7c1.2,0,2.5,0.2,3.6,0.7
				c1,0.4,2,1,2.8,1.8c0.8,0.8,1.4,1.7,1.8,2.8C15.5-161.7,15.8-160.5,15.7-159.3z M12.4-159.3c0-0.9-0.1-1.7-0.4-2.5
				c-0.2-0.7-0.6-1.3-1.1-1.9c-0.5-0.5-1.1-0.9-1.7-1.2c-1.5-0.5-3.1-0.5-4.6,0c-0.7,0.3-1.3,0.7-1.7,1.2c-0.5,0.5-0.9,1.2-1.1,1.9
				c-0.5,1.6-0.5,3.4,0,5c0.2,0.7,0.6,1.3,1.1,1.9c0.5,0.5,1.1,0.9,1.7,1.2c1.5,0.5,3.1,0.5,4.6,0c0.7-0.3,1.3-0.7,1.7-1.2
				c0.5-0.5,0.9-1.2,1.1-1.9C12.3-157.6,12.4-158.4,12.4-159.3L12.4-159.3z"/>
		</g>
		<g id="Grupo_13284" transform="translate(48.447 0.351)">
			<path id="Caminho_45637" class="st6" d="M-28.9-153.1h7.5v1.9h-9.8V-168h2.3L-28.9-153.1z"/>
			<path id="Caminho_45638" class="st6" d="M-8.2-168v1.9h-8.3v5.6h6.7v1.8h-6.7v5.8h8.3v1.9h-10.7V-168H-8.2z"/>
			<path id="Caminho_45639" class="st6" d="M9.4-151.1H7.6c-0.2,0-0.4,0-0.5-0.2c-0.1-0.1-0.2-0.2-0.3-0.4l-1.6-4.1h-7.8l-1.6,4.1
				c-0.1,0.1-0.2,0.3-0.3,0.4c-0.1,0.1-0.3,0.2-0.5,0.2h-1.8L0.1-168h2.4L9.4-151.1z M-1.9-157.4h6.5l-2.7-6.9
				c-0.2-0.5-0.4-1-0.5-1.6c-0.1,0.3-0.2,0.6-0.3,0.9s-0.2,0.5-0.2,0.7L-1.9-157.4z"/>
			<path id="Caminho_45640" class="st6" d="M26.7-159.6c0,1.2-0.2,2.3-0.6,3.4c-0.4,1-1,1.9-1.7,2.7c-0.8,0.8-1.7,1.3-2.7,1.7
				c-1.1,0.4-2.3,0.6-3.5,0.6h-6.5V-168h6.5c1.2,0,2.4,0.2,3.5,0.6c2,0.8,3.7,2.4,4.4,4.4C26.5-161.9,26.7-160.7,26.7-159.6z
				 M24.2-159.6c0-0.9-0.1-1.9-0.4-2.8c-0.3-0.8-0.7-1.5-1.2-2.1c-0.5-0.6-1.2-1-1.9-1.3c-0.8-0.3-1.7-0.5-2.5-0.4H14v13.2h4.1
				c0.9,0,1.7-0.1,2.5-0.4c0.7-0.3,1.4-0.7,1.9-1.3c0.6-0.6,1-1.3,1.2-2.1C24.1-157.7,24.3-158.6,24.2-159.6z"/>
		</g>
	</g>
</g>
</svg>
