<?xml version="1.0" encoding="UTF-8"?>
<svg id="_Ñëîé_1" data-name=" Ñëîé 1" xmlns="http://www.w3.org/2000/svg" xmlns:xlink="http://www.w3.org/1999/xlink" viewBox="0 0 6204.88 3032.05">
  <defs>
    <style>
      .cls-1 {
        fill: url(#Gradiente_sem_nome_9);
      }

      .cls-2 {
        fill: url(#Gradiente_sem_nome_51);
      }

      .cls-3 {
        fill: url(#Gradiente_sem_nome_22);
      }

      .cls-4, .cls-5 {
        fill: #fff;
      }

      .cls-6 {
        fill: url(#Gradiente_sem_nome_62);
      }

      .cls-7 {
        fill: #f9c470;
        opacity: .85;
      }

      .cls-7, .cls-8, .cls-9, .cls-10, .cls-11, .cls-12, .cls-13 {
        isolation: isolate;
      }

      .cls-14 {
        fill: url(#Gradiente_sem_nome_64);
      }

      .cls-15 {
        fill: url(#Gradiente_sem_nome);
      }

      .cls-16 {
        fill: #a6cded;
      }

      .cls-17 {
        fill: url(#Gradiente_sem_nome_6);
      }

      .cls-18 {
        fill: url(#Gradiente_sem_nome_39);
      }

      .cls-19 {
        fill: #00254b;
      }

      .cls-20 {
        fill: url(#Gradiente_sem_nome_28);
      }

      .cls-21 {
        fill: url(#Gradiente_sem_nome_12);
      }

      .cls-22 {
        fill: url(#Gradiente_sem_nome_37);
      }

      .cls-5, .cls-23, .cls-24 {
        fill-rule: evenodd;
      }

      .cls-8 {
        opacity: .55;
      }

      .cls-8, .cls-9 {
        fill: #1d97b1;
      }

      .cls-25 {
        fill: url(#Gradiente_sem_nome_33);
      }

      .cls-26 {
        fill: url(#Gradiente_sem_nome_44);
      }

      .cls-27 {
        fill: url(#Gradiente_sem_nome_46);
      }

      .cls-28 {
        fill: url(#Gradiente_sem_nome_14);
      }

      .cls-29 {
        fill: url(#Gradiente_sem_nome_55);
      }

      .cls-30, .cls-11 {
        opacity: .14;
      }

      .cls-9 {
        opacity: .57;
      }

      .cls-23, .cls-31 {
        fill: #d7efff;
      }

      .cls-32 {
        fill: #fda400;
      }

      .cls-33 {
        fill: url(#Gradiente_sem_nome_57);
      }

      .cls-34 {
        fill: url(#Gradiente_sem_nome_30);
      }

      .cls-35 {
        fill: url(#Gradiente_sem_nome_3);
      }

      .cls-36 {
        fill: url(#Gradiente_sem_nome_38);
      }

      .cls-37 {
        fill: url(#Gradiente_sem_nome_50);
      }

      .cls-38 {
        fill: url(#Gradiente_sem_nome_49);
      }

      .cls-39 {
        fill: url(#Gradiente_sem_nome_66);
      }

      .cls-40 {
        fill: url(#Gradiente_sem_nome_4);
      }

      .cls-41 {
        fill: url(#Gradiente_sem_nome_18);
      }

      .cls-42 {
        fill: url(#Gradiente_sem_nome_63);
      }

      .cls-43 {
        opacity: .4;
      }

      .cls-44 {
        fill: url(#Gradiente_sem_nome_32);
      }

      .cls-45 {
        fill: url(#Gradiente_sem_nome_31);
      }

      .cls-11, .cls-24, .cls-46 {
        fill: #fbf9fa;
      }

      .cls-47 {
        fill: url(#Gradiente_sem_nome_24);
      }

      .cls-48 {
        fill: url(#Gradiente_sem_nome_43);
      }

      .cls-49 {
        fill: url(#Gradiente_sem_nome_53);
      }

      .cls-50 {
        fill: url(#Gradiente_sem_nome_45);
      }

      .cls-12 {
        fill: #002965;
        opacity: .39;
      }

      .cls-51 {
        fill: #3a6ead;
      }

      .cls-52 {
        fill: url(#Gradiente_sem_nome_21);
      }

      .cls-53 {
        fill: url(#Gradiente_sem_nome_61);
      }

      .cls-13 {
        fill: #71b75e;
        opacity: .76;
      }

      .cls-54 {
        fill: url(#Gradiente_sem_nome_2);
      }

      .cls-55 {
        fill: url(#Gradiente_sem_nome_48);
      }

      .cls-56 {
        fill: url(#Gradiente_sem_nome_35);
      }

      .cls-57 {
        fill: url(#Gradiente_sem_nome_56);
      }

      .cls-58 {
        fill: url(#Gradiente_sem_nome_47);
      }

      .cls-59 {
        fill: url(#Gradiente_sem_nome_59);
      }

      .cls-60 {
        fill: url(#Gradiente_sem_nome_15);
      }

      .cls-61 {
        fill: url(#Gradiente_sem_nome_67);
      }

      .cls-62 {
        fill: url(#Gradiente_sem_nome_54);
      }

      .cls-63 {
        fill: url(#Gradiente_sem_nome_29);
      }

      .cls-64 {
        fill: url(#Gradiente_sem_nome_8);
      }

      .cls-65 {
        fill: url(#Gradiente_sem_nome_7);
      }

      .cls-66 {
        fill: url(#Gradiente_sem_nome_26);
      }

      .cls-67 {
        fill: url(#Gradiente_sem_nome_19);
      }

      .cls-68 {
        fill: #a00;
      }

      .cls-69 {
        fill: url(#Gradiente_sem_nome_13);
      }

      .cls-70 {
        fill: url(#Gradiente_sem_nome_10);
      }

      .cls-71 {
        fill: url(#Gradiente_sem_nome_17);
      }

      .cls-72 {
        fill: url(#Gradiente_sem_nome_60);
      }

      .cls-73 {
        fill: url(#Gradiente_sem_nome_23);
      }

      .cls-74 {
        fill: url(#Gradiente_sem_nome_40);
      }

      .cls-75 {
        fill: url(#Gradiente_sem_nome_11);
      }

      .cls-76 {
        fill: url(#Gradiente_sem_nome_52);
      }

      .cls-77 {
        fill: url(#Gradiente_sem_nome_58);
      }

      .cls-78 {
        fill: url(#Gradiente_sem_nome_27);
      }

      .cls-79 {
        fill: #223265;
      }

      .cls-80 {
        fill: url(#Gradiente_sem_nome_34);
      }

      .cls-81 {
        fill: #2f5b90;
      }

      .cls-82 {
        fill: url(#Gradiente_sem_nome_25);
      }

      .cls-83 {
        fill: url(#Gradiente_sem_nome_16);
      }

      .cls-84 {
        fill: #e33221;
      }

      .cls-85 {
        opacity: .2;
      }

      .cls-86 {
        fill: url(#Gradiente_sem_nome_41);
      }

      .cls-87 {
        fill: url(#Gradiente_sem_nome_42);
      }

      .cls-88 {
        fill: url(#Gradiente_sem_nome_36);
      }

      .cls-89 {
        fill: #62bdd3;
      }

      .cls-90 {
        fill: #ff624d;
      }

      .cls-91 {
        fill: url(#Gradiente_sem_nome_5);
      }

      .cls-92 {
        fill: #e8e8e9;
      }

      .cls-93 {
        fill: url(#Gradiente_sem_nome_20);
      }
    </style>
    <linearGradient id="Gradiente_sem_nome" data-name="Gradiente sem nome" x1="2666.25" y1="-5195.81" x2="3593.16" y2="-5195.81" gradientTransform="translate(0 -2880.76) scale(1 -1)" gradientUnits="userSpaceOnUse">
      <stop offset="0" stop-color="#d5ecfa"/>
      <stop offset="1" stop-color="#a6cded"/>
    </linearGradient>
    <linearGradient id="Gradiente_sem_nome_2" data-name="Gradiente sem nome 2" x1="3319.24" y1="-5389.03" x2="3441.2" y2="-5389.03" gradientTransform="translate(0 -2880.76) scale(1 -1)" gradientUnits="userSpaceOnUse">
      <stop offset="0" stop-color="#68a8dc"/>
      <stop offset="1" stop-color="#3a6ead"/>
    </linearGradient>
    <linearGradient id="Gradiente_sem_nome_3" data-name="Gradiente sem nome 3" x1="3094.28" y1="-5121.66" x2="3255.9" y2="-5121.66" gradientTransform="translate(0 -2880.76) scale(1 -1)" gradientUnits="userSpaceOnUse">
      <stop offset="0" stop-color="#68a8dc"/>
      <stop offset="1" stop-color="#3a6ead"/>
    </linearGradient>
    <linearGradient id="Gradiente_sem_nome_4" data-name="Gradiente sem nome 4" x1="2577.3" y1="-5385.11" x2="2979.42" y2="-5385.11" gradientTransform="translate(0 -2880.76) scale(1 -1)" gradientUnits="userSpaceOnUse">
      <stop offset="0" stop-color="#68a8dc"/>
      <stop offset="1" stop-color="#3a6ead"/>
    </linearGradient>
    <linearGradient id="Gradiente_sem_nome_5" data-name="Gradiente sem nome 5" x1="2734.6" y1="-5206.78" x2="3048.62" y2="-5206.78" gradientTransform="translate(0 -2880.76) scale(1 -1)" gradientUnits="userSpaceOnUse">
      <stop offset="0" stop-color="#68a8dc"/>
      <stop offset="1" stop-color="#3a6ead"/>
    </linearGradient>
    <linearGradient id="Gradiente_sem_nome_6" data-name="Gradiente sem nome 6" x1="2190.95" y1="-5658.62" x2="2306.6" y2="-5658.62" gradientTransform="translate(0 -2880.76) scale(1 -1)" gradientUnits="userSpaceOnUse">
      <stop offset="0" stop-color="#68a8dc"/>
      <stop offset="1" stop-color="#3a6ead"/>
    </linearGradient>
    <linearGradient id="Gradiente_sem_nome_7" data-name="Gradiente sem nome 7" x1="2355.68" y1="-5626.45" x2="2641.69" y2="-5626.45" gradientTransform="translate(0 -2880.76) scale(1 -1)" gradientUnits="userSpaceOnUse">
      <stop offset="0" stop-color="#68a8dc"/>
      <stop offset="1" stop-color="#3a6ead"/>
    </linearGradient>
    <linearGradient id="Gradiente_sem_nome_8" data-name="Gradiente sem nome 8" x1="2316" y1="-5159.15" x2="2767.98" y2="-5159.15" gradientTransform="translate(0 -2880.76) scale(1 -1)" gradientUnits="userSpaceOnUse">
      <stop offset="0" stop-color="#68a8dc"/>
      <stop offset="1" stop-color="#3a6ead"/>
    </linearGradient>
    <linearGradient id="Gradiente_sem_nome_9" data-name="Gradiente sem nome 9" x1="1770.77" y1="-5164.96" x2="2446.56" y2="-5164.96" gradientTransform="translate(0 -2880.76) scale(1 -1)" gradientUnits="userSpaceOnUse">
      <stop offset="0" stop-color="#68a8dc"/>
      <stop offset="1" stop-color="#3a6ead"/>
    </linearGradient>
    <linearGradient id="Gradiente_sem_nome_10" data-name="Gradiente sem nome 10" x1="2182.75" y1="-5467.09" x2="2403.72" y2="-5467.09" gradientTransform="translate(0 -2880.76) scale(1 -1)" gradientUnits="userSpaceOnUse">
      <stop offset="0" stop-color="#68a8dc"/>
      <stop offset="1" stop-color="#3a6ead"/>
    </linearGradient>
    <linearGradient id="Gradiente_sem_nome_11" data-name="Gradiente sem nome 11" x1="8248.21" y1="-3971.62" x2="8248.21" y2="-5997.03" gradientTransform="translate(7442.92 -3272.04) rotate(-179.82) scale(.73 .83) skewX(.4)" gradientUnits="userSpaceOnUse">
      <stop offset="0" stop-color="#d6ecfa"/>
      <stop offset=".29" stop-color="#cde6f7"/>
      <stop offset=".74" stop-color="#b6d8f2"/>
      <stop offset="1" stop-color="#a7cfee"/>
    </linearGradient>
    <linearGradient id="Gradiente_sem_nome_12" data-name="Gradiente sem nome 12" x1="533.45" y1="-3099.39" x2="883.33" y2="-3099.39" gradientTransform="translate(0 -2880.76) scale(1 -1)" gradientUnits="userSpaceOnUse">
      <stop offset="0" stop-color="#6aa7da"/>
      <stop offset=".35" stop-color="#67a4d7"/>
      <stop offset=".58" stop-color="#609bd0"/>
      <stop offset=".77" stop-color="#548cc4"/>
      <stop offset=".94" stop-color="#4277b3"/>
      <stop offset="1" stop-color="#3c6fad"/>
    </linearGradient>
    <linearGradient id="Gradiente_sem_nome_13" data-name="Gradiente sem nome 13" x1="533.45" y1="-3099.39" x2="883.33" y2="-3099.39" gradientTransform="translate(0 -2880.76) scale(1 -1)" gradientUnits="userSpaceOnUse">
      <stop offset="0" stop-color="#a0c4e7"/>
      <stop offset=".07" stop-color="#94bce3"/>
      <stop offset=".23" stop-color="#80b0de"/>
      <stop offset=".41" stop-color="#71a7da"/>
      <stop offset=".63" stop-color="#69a2d7"/>
      <stop offset="1" stop-color="#67a1d7"/>
    </linearGradient>
    <linearGradient id="Gradiente_sem_nome_14" data-name="Gradiente sem nome 14" x1="2858.1" y1="-2026.47" x2="2858.1" y2="-2278.1" gradientTransform="translate(-901.06 -1428.66) rotate(-9.17) scale(1 -1)" gradientUnits="userSpaceOnUse">
      <stop offset="0" stop-color="#6ba5d9"/>
      <stop offset=".81" stop-color="#4679b5"/>
      <stop offset="1" stop-color="#3d6fad"/>
    </linearGradient>
    <linearGradient id="Gradiente_sem_nome_15" data-name="Gradiente sem nome 15" x1="2665.69" y1="-4713.06" x2="2834.36" y2="-4713.06" gradientTransform="translate(-223.18 -3615.63) rotate(12.09) scale(1 -1)" gradientUnits="userSpaceOnUse">
      <stop offset="0" stop-color="#2e5b8f"/>
      <stop offset="1" stop-color="#11274a"/>
    </linearGradient>
    <linearGradient id="Gradiente_sem_nome_16" data-name="Gradiente sem nome 16" x1="8471.03" y1="-3596.29" x2="8287.21" y2="-3914.69" gradientTransform="translate(8648.37 -4089.36) rotate(166.05)" gradientUnits="userSpaceOnUse">
      <stop offset="0" stop-color="#a0c4e7"/>
      <stop offset=".41" stop-color="#9dc2e6"/>
      <stop offset=".62" stop-color="#95bde4"/>
      <stop offset=".78" stop-color="#88b5e0"/>
      <stop offset=".92" stop-color="#75aadb"/>
      <stop offset="1" stop-color="#67a1d7"/>
    </linearGradient>
    <linearGradient id="Gradiente_sem_nome_17" data-name="Gradiente sem nome 17" x1="3144.56" y1="-4407.04" x2="3268.53" y2="-4407.04" gradientTransform="translate(5328.68 -2322.04) rotate(-172.43)" gradientUnits="userSpaceOnUse">
      <stop offset="0" stop-color="#d6ecfa"/>
      <stop offset="1" stop-color="#a7cfee"/>
    </linearGradient>
    <linearGradient id="Gradiente_sem_nome_18" data-name="Gradiente sem nome 18" x1="2326.14" y1="-4673.15" x2="2469.2" y2="-4673.15" gradientTransform="translate(-897.91 -2880.76) scale(1 -1)" gradientUnits="userSpaceOnUse">
      <stop offset="0" stop-color="#a0c4e7"/>
      <stop offset="1" stop-color="#67a1d7"/>
    </linearGradient>
    <linearGradient id="Gradiente_sem_nome_19" data-name="Gradiente sem nome 19" x1="2322.58" y1="-4609.26" x2="2472.29" y2="-4609.26" gradientTransform="translate(-897.91 -2880.76) scale(1 -1)" gradientUnits="userSpaceOnUse">
      <stop offset="0" stop-color="#d6ecfa"/>
      <stop offset="1" stop-color="#a7cfee"/>
    </linearGradient>
    <linearGradient id="Gradiente_sem_nome_20" data-name="Gradiente sem nome 20" x1="2483.21" y1="-4594.96" x2="2312.44" y2="-4594.96" gradientTransform="translate(-897.91 -2880.76) scale(1 -1)" gradientUnits="userSpaceOnUse">
      <stop offset="0" stop-color="#2f5b90"/>
      <stop offset="1" stop-color="#00254b"/>
    </linearGradient>
    <linearGradient id="Gradiente_sem_nome_21" data-name="Gradiente sem nome 21" x1="1292.46" y1="-4277.57" x2="1292.46" y2="-3404.18" gradientTransform="translate(0 -2880.76) scale(1 -1)" gradientUnits="userSpaceOnUse">
      <stop offset="0" stop-color="#d5ecfa"/>
      <stop offset="1" stop-color="#a6cded"/>
    </linearGradient>
    <linearGradient id="Gradiente_sem_nome_22" data-name="Gradiente sem nome 22" x1="1292.48" y1="-3408.52" x2="1292.48" y2="-3262.01" gradientTransform="translate(0 -2880.76) scale(1 -1)" gradientUnits="userSpaceOnUse">
      <stop offset="0" stop-color="#68a8dc"/>
      <stop offset="1" stop-color="#3a6ead"/>
    </linearGradient>
    <linearGradient id="Gradiente_sem_nome_23" data-name="Gradiente sem nome 23" x1="1756.84" y1="-3299.36" x2="1789.63" y2="-3299.36" gradientTransform="translate(0 -2880.76) scale(1 -1)" gradientUnits="userSpaceOnUse">
      <stop offset="0" stop-color="#6aa7da"/>
      <stop offset="1" stop-color="#3f73af"/>
    </linearGradient>
    <linearGradient id="Gradiente_sem_nome_24" data-name="Gradiente sem nome 24" x1="1815.73" y1="-3299.36" x2="1848.53" y2="-3299.36" gradientTransform="translate(0 -2880.76) scale(1 -1)" gradientUnits="userSpaceOnUse">
      <stop offset="0" stop-color="#6aa7da"/>
      <stop offset="1" stop-color="#3f73af"/>
    </linearGradient>
    <linearGradient id="Gradiente_sem_nome_25" data-name="Gradiente sem nome 25" x1="1874.64" y1="-3299.36" x2="1907.44" y2="-3299.36" gradientTransform="translate(0 -2880.76) scale(1 -1)" gradientUnits="userSpaceOnUse">
      <stop offset="0" stop-color="#6aa7da"/>
      <stop offset="1" stop-color="#3f73af"/>
    </linearGradient>
    <linearGradient id="Gradiente_sem_nome_26" data-name="Gradiente sem nome 26" x1="718.89" y1="-3547.54" x2="1866.05" y2="-3547.54" gradientTransform="translate(0 -2880.76) scale(1 -1)" gradientUnits="userSpaceOnUse">
      <stop offset="0" stop-color="#68a8dc"/>
      <stop offset="1" stop-color="#3a6ead"/>
    </linearGradient>
    <linearGradient id="Gradiente_sem_nome_27" data-name="Gradiente sem nome 27" x1="718.89" y1="-3744.77" x2="1866.05" y2="-3744.77" gradientTransform="translate(0 -2880.76) scale(1 -1)" gradientUnits="userSpaceOnUse">
      <stop offset="0" stop-color="#68a8dc"/>
      <stop offset="1" stop-color="#3a6ead"/>
    </linearGradient>
    <linearGradient id="Gradiente_sem_nome_28" data-name="Gradiente sem nome 28" x1="718.89" y1="-3941.98" x2="1866.05" y2="-3941.98" gradientTransform="translate(0 -2880.76) scale(1 -1)" gradientUnits="userSpaceOnUse">
      <stop offset="0" stop-color="#68a8dc"/>
      <stop offset="1" stop-color="#3a6ead"/>
    </linearGradient>
    <linearGradient id="Gradiente_sem_nome_29" data-name="Gradiente sem nome 29" x1="718.89" y1="-4139.21" x2="1866.05" y2="-4139.21" gradientTransform="translate(0 -2880.76) scale(1 -1)" gradientUnits="userSpaceOnUse">
      <stop offset="0" stop-color="#68a8dc"/>
      <stop offset="1" stop-color="#3a6ead"/>
    </linearGradient>
    <linearGradient id="Gradiente_sem_nome_30" data-name="Gradiente sem nome 30" x1="6858.23" y1="-4062.25" x2="7100.17" y2="-4062.25" gradientTransform="translate(8148.97 -2242.72) rotate(-171.83)" gradientUnits="userSpaceOnUse">
      <stop offset="0" stop-color="#fad3da"/>
      <stop offset="1" stop-color="#ecafb9"/>
    </linearGradient>
    <linearGradient id="Gradiente_sem_nome_31" data-name="Gradiente sem nome 31" x1="62.21" y1="-3756.12" x2="62.21" y2="-4367.26" gradientTransform="translate(417.33 -2935.77) rotate(.9) scale(1 -1)" gradientUnits="userSpaceOnUse">
      <stop offset="0" stop-color="#fad3da"/>
      <stop offset="1" stop-color="#ecafb9"/>
    </linearGradient>
    <linearGradient id="Gradiente_sem_nome_32" data-name="Gradiente sem nome 32" x1="6000.3" y1="-3741.65" x2="6133.43" y2="-3741.65" gradientTransform="translate(6464.02 -2880.76) rotate(-180)" gradientUnits="userSpaceOnUse">
      <stop offset="0" stop-color="#a0c4e7"/>
      <stop offset=".41" stop-color="#9dc2e6"/>
      <stop offset=".62" stop-color="#95bde4"/>
      <stop offset=".78" stop-color="#88b5e0"/>
      <stop offset=".92" stop-color="#75aadb"/>
      <stop offset="1" stop-color="#67a1d7"/>
    </linearGradient>
    <linearGradient id="Gradiente_sem_nome_33" data-name="Gradiente sem nome 33" x1="6030.6" y1="-3861.14" x2="6133.09" y2="-3861.14" gradientTransform="translate(6464.02 -2880.76) rotate(-180)" gradientUnits="userSpaceOnUse">
      <stop offset="0" stop-color="#a0c4e7"/>
      <stop offset=".41" stop-color="#9dc2e6"/>
      <stop offset=".62" stop-color="#95bde4"/>
      <stop offset=".78" stop-color="#88b5e0"/>
      <stop offset=".92" stop-color="#75aadb"/>
      <stop offset="1" stop-color="#67a1d7"/>
    </linearGradient>
    <linearGradient id="Gradiente_sem_nome_34" data-name="Gradiente sem nome 34" x1="8490.53" y1="-3756.89" x2="8555.07" y2="-3756.89" gradientTransform="translate(8038.89 -3824) rotate(166.74)" gradientUnits="userSpaceOnUse">
      <stop offset="0" stop-color="#fad3da"/>
      <stop offset="1" stop-color="#ecafb9"/>
    </linearGradient>
    <linearGradient id="Gradiente_sem_nome_35" data-name="Gradiente sem nome 35" x1="8642.25" y1="-3512.35" x2="8706.99" y2="-3512.35" gradientTransform="translate(7832.54 -3953.32) rotate(164.28)" gradientUnits="userSpaceOnUse">
      <stop offset="0" stop-color="#fad3da"/>
      <stop offset="1" stop-color="#ecafb9"/>
    </linearGradient>
    <linearGradient id="Gradiente_sem_nome_36" data-name="Gradiente sem nome 36" x1="569.78" y1="-4626.01" x2="838.61" y2="-4677.98" gradientTransform="translate(241.94 -3261.35) rotate(6.36) scale(1 -1)" gradientUnits="userSpaceOnUse">
      <stop offset="0" stop-color="#2f5b90"/>
      <stop offset="1" stop-color="#00254b"/>
    </linearGradient>
    <linearGradient id="Gradiente_sem_nome_37" data-name="Gradiente sem nome 37" x1="598.52" y1="-3968.42" x2="730.69" y2="-3244.51" gradientTransform="translate(-784.8 -2011.54) rotate(-10.35) scale(1 -1)" gradientUnits="userSpaceOnUse">
      <stop offset="0" stop-color="#2f5b90"/>
      <stop offset="1" stop-color="#00254b"/>
    </linearGradient>
    <linearGradient id="Gradiente_sem_nome_38" data-name="Gradiente sem nome 38" x1="568.18" y1="-3736.95" x2="706.08" y2="-3696.03" gradientTransform="translate(-7.42 -3037.36) rotate(2.86) scale(1 -1)" gradientUnits="userSpaceOnUse">
      <stop offset="0" stop-color="#fad3da"/>
      <stop offset="1" stop-color="#ecafb9"/>
    </linearGradient>
    <linearGradient id="Gradiente_sem_nome_39" data-name="Gradiente sem nome 39" x1="5990.29" y1="-3591.14" x2="5990.29" y2="-4006.2" gradientTransform="translate(6464.02 -2880.76) rotate(-180)" gradientUnits="userSpaceOnUse">
      <stop offset="0" stop-color="#a0c4e7"/>
      <stop offset=".41" stop-color="#9dc2e6"/>
      <stop offset=".62" stop-color="#95bde4"/>
      <stop offset=".78" stop-color="#88b5e0"/>
      <stop offset=".92" stop-color="#75aadb"/>
      <stop offset="1" stop-color="#67a1d7"/>
    </linearGradient>
    <linearGradient id="Gradiente_sem_nome_40" data-name="Gradiente sem nome 40" x1="-475.56" y1="-1579.93" x2="-579.18" y2="-1579.93" gradientTransform="translate(302.35 -1056.23) rotate(-24.49) scale(1 -1)" gradientUnits="userSpaceOnUse">
      <stop offset="0" stop-color="#fad3da"/>
      <stop offset="1" stop-color="#ecafb9"/>
    </linearGradient>
    <linearGradient id="Gradiente_sem_nome_41" data-name="Gradiente sem nome 41" x1="5934.95" y1="-3613.92" x2="5934.95" y2="-3814.89" gradientTransform="translate(6464.02 -2880.76) rotate(-180)" gradientUnits="userSpaceOnUse">
      <stop offset="0" stop-color="#a0c4e7"/>
      <stop offset=".41" stop-color="#9dc2e6"/>
      <stop offset=".62" stop-color="#95bde4"/>
      <stop offset=".78" stop-color="#88b5e0"/>
      <stop offset=".92" stop-color="#75aadb"/>
      <stop offset="1" stop-color="#67a1d7"/>
    </linearGradient>
    <linearGradient id="Gradiente_sem_nome_42" data-name="Gradiente sem nome 42" x1="5807.48" y1="-3768.92" x2="5875.15" y2="-3768.92" gradientTransform="translate(6464.02 -2880.76) rotate(-180)" gradientUnits="userSpaceOnUse">
      <stop offset="0" stop-color="#a0c4e7"/>
      <stop offset=".41" stop-color="#9dc2e6"/>
      <stop offset=".62" stop-color="#95bde4"/>
      <stop offset=".78" stop-color="#88b5e0"/>
      <stop offset=".92" stop-color="#75aadb"/>
      <stop offset="1" stop-color="#67a1d7"/>
    </linearGradient>
    <linearGradient id="Gradiente_sem_nome_43" data-name="Gradiente sem nome 43" x1="5938.45" y1="-3599.02" x2="6068.93" y2="-3599.02" gradientTransform="translate(6464.02 -2880.76) rotate(-180)" gradientUnits="userSpaceOnUse">
      <stop offset="0" stop-color="#a0c4e7"/>
      <stop offset=".41" stop-color="#9dc2e6"/>
      <stop offset=".62" stop-color="#95bde4"/>
      <stop offset=".78" stop-color="#88b5e0"/>
      <stop offset=".92" stop-color="#75aadb"/>
      <stop offset="1" stop-color="#67a1d7"/>
    </linearGradient>
    <linearGradient id="Gradiente_sem_nome_44" data-name="Gradiente sem nome 44" x1="5977.52" y1="-3996.22" x2="5977.52" y2="-4019.92" gradientTransform="translate(6464.02 -2880.76) rotate(-180)" gradientUnits="userSpaceOnUse">
      <stop offset="0" stop-color="#2f5b90"/>
      <stop offset="1" stop-color="#00254b"/>
    </linearGradient>
    <linearGradient id="Gradiente_sem_nome_45" data-name="Gradiente sem nome 45" x1="-2603.58" y1="6781.44" x2="-2114.75" y2="6519.4" gradientTransform="translate(4664.07 -5460.55) rotate(-138.68) scale(1 -1)" gradientUnits="userSpaceOnUse">
      <stop offset="0" stop-color="#fad3da"/>
      <stop offset="1" stop-color="#eaafb7"/>
    </linearGradient>
    <linearGradient id="Gradiente_sem_nome_46" data-name="Gradiente sem nome 46" x1="15737.19" y1="-2277.4" x2="15319.23" y2="-2225.45" gradientTransform="translate(1749.6 -14717.66) rotate(97.08)" gradientUnits="userSpaceOnUse">
      <stop offset="0" stop-color="#2f5b90"/>
      <stop offset="1" stop-color="#00254b"/>
    </linearGradient>
    <linearGradient id="Gradiente_sem_nome_47" data-name="Gradiente sem nome 47" x1="4989" y1="-6367.89" x2="5076.72" y2="-6367.89" gradientTransform="translate(10340.92 2047.63) rotate(-126.81)" gradientUnits="userSpaceOnUse">
      <stop offset="0" stop-color="#fad3da"/>
      <stop offset="1" stop-color="#ecafb9"/>
    </linearGradient>
    <linearGradient id="Gradiente_sem_nome_48" data-name="Gradiente sem nome 48" x1="1955.66" y1="-1863.69" x2="2036.61" y2="-1863.69" gradientTransform="translate(-53.43 2595.34) rotate(-59.28) scale(1 -1)" gradientUnits="userSpaceOnUse">
      <stop offset="0" stop-color="#fad3da"/>
      <stop offset="1" stop-color="#ecafb9"/>
    </linearGradient>
    <linearGradient id="Gradiente_sem_nome_49" data-name="Gradiente sem nome 49" x1="1637.42" y1="-4752.21" x2="1331.7" y2="-3976.22" gradientTransform="translate(810.3 -2880.76) scale(1 -1)" gradientUnits="userSpaceOnUse">
      <stop offset="0" stop-color="#2f5b90"/>
      <stop offset="1" stop-color="#00254b"/>
    </linearGradient>
    <linearGradient id="Gradiente_sem_nome_50" data-name="Gradiente sem nome 50" x1="7324.41" y1="-4065.01" x2="7405.38" y2="-4065.01" gradientTransform="translate(9859.21 -2824.04) rotate(-176.2)" gradientUnits="userSpaceOnUse">
      <stop offset="0" stop-color="#dcbbc2"/>
      <stop offset="1" stop-color="#d8a1ab"/>
    </linearGradient>
    <linearGradient id="Gradiente_sem_nome_51" data-name="Gradiente sem nome 51" x1="7509.64" y1="-4270.76" x2="7217.67" y2="-4270.76" gradientTransform="translate(9859.21 -2824.04) rotate(-176.2)" gradientUnits="userSpaceOnUse">
      <stop offset="0" stop-color="#a0c4e7"/>
      <stop offset="1" stop-color="#67a1d7"/>
    </linearGradient>
    <linearGradient id="Gradiente_sem_nome_52" data-name="Gradiente sem nome 52" x1="1190.03" y1="-3795.62" x2="1280.85" y2="-3304.94" gradientTransform="translate(394.67 -2275.22) rotate(-10.49) scale(1 -1)" gradientUnits="userSpaceOnUse">
      <stop offset="0" stop-color="#2f5b90"/>
      <stop offset="1" stop-color="#00254b"/>
    </linearGradient>
    <linearGradient id="Gradiente_sem_nome_53" data-name="Gradiente sem nome 53" x1="7302.85" y1="-4080.11" x2="7426.32" y2="-4080.11" gradientTransform="translate(9859.21 -2824.04) rotate(-176.2)" gradientUnits="userSpaceOnUse">
      <stop offset="0" stop-color="#a0c4e7"/>
      <stop offset="1" stop-color="#67a1d7"/>
    </linearGradient>
    <linearGradient id="Gradiente_sem_nome_54" data-name="Gradiente sem nome 54" x1="1328.61" y1="-3479.31" x2="1213.83" y2="-3439.89" gradientTransform="translate(394.67 -2275.22) rotate(-10.49) scale(1 -1)" gradientUnits="userSpaceOnUse">
      <stop offset="0" stop-color="#2f5b90"/>
      <stop offset="1" stop-color="#00254b"/>
    </linearGradient>
    <linearGradient id="Gradiente_sem_nome_55" data-name="Gradiente sem nome 55" x1="1266.57" y1="-3344.32" x2="1093.63" y2="-3517.26" gradientTransform="translate(394.67 -2275.22) rotate(-10.49) scale(1 -1)" gradientUnits="userSpaceOnUse">
      <stop offset="0" stop-color="#2f5b90"/>
      <stop offset="1" stop-color="#00254b"/>
    </linearGradient>
    <linearGradient id="Gradiente_sem_nome_56" data-name="Gradiente sem nome 56" x1="7338.34" y1="-3963.04" x2="7446.18" y2="-3963.04" gradientTransform="translate(9859.21 -2824.04) rotate(-176.2)" gradientUnits="userSpaceOnUse">
      <stop offset="0" stop-color="#fad3da"/>
      <stop offset="1" stop-color="#ecafb9"/>
    </linearGradient>
    <linearGradient id="Gradiente_sem_nome_57" data-name="Gradiente sem nome 57" x1="7189.87" y1="-3887.33" x2="7170.46" y2="-3887.33" gradientTransform="translate(8898.71 -4146.66) rotate(172.67)" gradientUnits="userSpaceOnUse">
      <stop offset="0" stop-color="#fad3da"/>
      <stop offset="1" stop-color="#ecafb9"/>
    </linearGradient>
    <linearGradient id="Gradiente_sem_nome_58" data-name="Gradiente sem nome 58" x1="4638.25" y1="-4272.05" x2="4416.07" y2="-4838.84" gradientTransform="translate(7853.22 -1261.99) rotate(-158.59)" gradientUnits="userSpaceOnUse">
      <stop offset="0" stop-color="#a0c4e7"/>
      <stop offset=".33" stop-color="#91bae2"/>
      <stop offset=".95" stop-color="#6aa2d7"/>
      <stop offset="1" stop-color="#67a1d7"/>
    </linearGradient>
    <linearGradient id="Gradiente_sem_nome_59" data-name="Gradiente sem nome 59" x1="-2934.73" y1="6578.58" x2="-2445.86" y2="6316.51" gradientTransform="translate(5416.14 -5158.87) rotate(-130.36) scale(1 -1)" gradientUnits="userSpaceOnUse">
      <stop offset="0" stop-color="#fad3da"/>
      <stop offset="1" stop-color="#eaafb7"/>
    </linearGradient>
    <linearGradient id="Gradiente_sem_nome_60" data-name="Gradiente sem nome 60" x1="15746.82" y1="-2712.54" x2="15362.88" y2="-2606.75" gradientTransform="translate(3871.75 -14740.95) rotate(105.4)" gradientUnits="userSpaceOnUse">
      <stop offset="0" stop-color="#2f5b90"/>
      <stop offset="1" stop-color="#00254b"/>
    </linearGradient>
    <linearGradient id="Gradiente_sem_nome_61" data-name="Gradiente sem nome 61" x1="342.99" y1="-4348.17" x2="366.17" y2="-4416.03" gradientTransform="translate(280.84 -2755.79) rotate(-.46) scale(1 -1)" gradientUnits="userSpaceOnUse">
      <stop offset="0" stop-color="#2f5b90"/>
      <stop offset="1" stop-color="#00254b"/>
    </linearGradient>
    <linearGradient id="Gradiente_sem_nome_62" data-name="Gradiente sem nome 62" x1="451.95" y1="-4399.72" x2="263.43" y2="-4588.24" gradientTransform="translate(280.84 -2755.79) rotate(-.46) scale(1 -1)" gradientUnits="userSpaceOnUse">
      <stop offset="0" stop-color="#68a8dc"/>
      <stop offset="1" stop-color="#3a6ead"/>
    </linearGradient>
    <linearGradient id="Gradiente_sem_nome_63" data-name="Gradiente sem nome 63" x1="234.6" y1="-4436.83" x2="480.78" y2="-4454.63" gradientTransform="translate(280.84 -2755.79) rotate(-.46) scale(1 -1)" gradientUnits="userSpaceOnUse">
      <stop offset="0" stop-color="#68a8dc"/>
      <stop offset="1" stop-color="#3a6ead"/>
    </linearGradient>
    <linearGradient id="Gradiente_sem_nome_64" data-name="Gradiente sem nome 64" x1="368.86" y1="-4492.44" x2="346.49" y2="-4514.81" gradientTransform="translate(280.84 -2755.79) rotate(-.46) scale(1 -1)" gradientUnits="userSpaceOnUse">
      <stop offset="0" stop-color="#2f5b90"/>
      <stop offset="1" stop-color="#00254b"/>
    </linearGradient>
    <linearGradient id="Gradiente_sem_nome_66" data-name="Gradiente sem nome 66" x1="1618.47" y1="-4991.41" x2="1915.17" y2="-4991.41" gradientTransform="translate(0 -2880.76) scale(1 -1)" gradientUnits="userSpaceOnUse">
      <stop offset="0" stop-color="#68a8dc"/>
      <stop offset="1" stop-color="#3a6ead"/>
    </linearGradient>
    <linearGradient id="Gradiente_sem_nome_67" data-name="Gradiente sem nome 67" x1="3096.78" y1="-5735.57" x2="3990.75" y2="-5735.57" gradientTransform="translate(0 -2880.76) scale(1 -1)" gradientUnits="userSpaceOnUse">
      <stop offset="0" stop-color="#68a8dc"/>
      <stop offset="1" stop-color="#3a6ead"/>
    </linearGradient>
  </defs>
  <rect class="cls-51" x="3879.82" y="2618.59" width="297.77" height="91.87"/>
  <rect class="cls-51" x="5270.96" y="2618.59" width="297.77" height="91.87"/>
  <g>
    <g id="WM" class="cls-43">
      <polygon class="cls-5" points="4482.79 1447.01 4483.04 1447.04 4483 1446.86 4482.79 1447.01"/>
      <polygon class="cls-5" points="4225.33 1579.51 4225.52 1579.7 4225.58 1579.69 4225.33 1579.51"/>
      <polygon class="cls-5" points="4205.75 1582.7 4205.02 1583.28 4205.17 1583.39 4205.29 1583.37 4205.75 1582.7"/>
      <polygon class="cls-5" points="4028.19 1538.37 4027.85 1538.48 4027.96 1538.46 4028.19 1538.37"/>
      <polygon class="cls-5" points="5418.27 2228.83 5418.17 2228.83 5418.17 2228.97 5418.35 2228.96 5418.27 2228.83"/>
    </g>
    <rect class="cls-81" x="3638.69" y="1328.1" width="2170.41" height="1260.34" rx="3.67" ry="3.67"/>
    <rect class="cls-16" x="3638.69" y="1328.1" width="2170.41" height="1260.34" rx="3.67" ry="3.67"/>
  </g>
  <polygon class="cls-46" points="3639.85 2691.6 5749.92 2691.6 6146.33 2965.99 3246.5 2969.38 3639.85 2691.6"/>
  <polygon class="cls-46" points="6146.33 3024.81 3246.5 3024.81 3246.5 2969.38 6146.33 2965.99 6146.33 3024.81"/>
  <polygon class="cls-51" points="6146.33 3024.81 3246.5 3024.81 3246.5 2969.38 6146.33 2965.99 6146.33 3024.81"/>
  <polygon class="cls-19" points="3273.96 3024.81 3292.25 3040.52 6122.96 3035.9 6146.33 3024.81 3273.96 3024.81"/>
  <polygon class="cls-16" points="4425.54 2872.84 4969.33 2872.84 5040.48 2938.43 4352.35 2937.68 4425.54 2872.84"/>
  <polygon class="cls-12" points="4560.13 2995.4 4834.75 2995.4 4834.08 3020.08 4560.29 3019.89 4560.13 2995.4"/>
  <polygon class="cls-16" points="3661.04 2710.46 5716.58 2710.46 5907.06 2849 3463.29 2847.41 3661.04 2710.46"/>
  <rect class="cls-9" x="4581.1" y="1305.11" width="252.39" height="13.09" rx=".21" ry=".21"/>
  <path class="cls-8" d="m4889.6,1311.66c0,5.59-4.98,10.11-11.13,10.11s-11.13-4.53-11.13-10.11,4.98-10.11,11.13-10.11,11.13,4.53,11.13,10.11Z"/>
  <g class="cls-85">
    <path class="cls-5" d="m5684.52,1520.33l-5.64-10.19,39.8.3-10.01-21.02,1.66-11.51-20.53-7.61-4.36,14.85-108.96-14.33,7.25,21.35-17.48-15.81-3.98,9.45-43.43,5.2-23.24-9.82-27.27,7.53-14.73-3.38-7.1-7.75-56.62,3.78,5.21,2.91,5.28,17.86-38.53,5.53,2.05,11.16-7.8,2.92-17.86-9.77-11.64-17.92-26.96-.23,1.7,10.58-68.69,6.42-13.64,11.98,6.99-48.96-32.87-10.49-6.24,8.8-31.41-16.52-13.84,37.82-1.69-5.4-29.72,24.8,7.69,24.23-22.11,23.03,18.31,15.67-7.89,1.98-24.51-17.22-1.1,6.03.12-.56,4.57,4.81-10.15,1.09,1.01-4.06-11.06-6.24,16.52,48.17,12.1-2.02-6.46,28.71-16.65,3.53,9.59-23.23-24.06-49.45-22.42,20.56,4.69,16.37,12.42,9.71-56.16-7.89,11.43,20.43-29.19,4.35-1.89-6.42-29.42,24.04-24.3-16.36,8.2,22.29-21.65,13.72,2.88,8.34-14.36-4.03,3.7,11.06-33.87-28.79,35.35-15.68-57.71-17.6,7.81-4.26-47.47-2.51.84,4.17-14.93,7.1.17-.12h-1.88l-.47-.33-4.09,3.01-3.24,6.78-7.63-2.8-6.87,10.66,12.12-.67-57.07,91.96,17.28,11.36,17.97-2.01,9.15,21.61,23.62-5.38-.57-16.66,9.4-11.52-9.48-14.33,27.13-47.52,9.46,7.46-8.63,45.34,42.72,2.56-39.91,19.37,10.97-.97-.5,9.47-13.59-1.06-.84,16.9-38,12.76-8-6.26-12.51.19,7.36-12.28-10.63,1.75-12.83-9.45-5.04,28.34-69.29,44.34,17.67,31.6-46.96,4.26-2.69,31.71,18.64,15.38,57.75-37.51,3.93-11.03,13.71,1.97,17.93-8.04,45.16,32.07-19.93,14.14,16.21,7.96,10.79-21.99,9.23-1.77-39.33-37.96,44.75,25.85,18.27,34.15,13.1-6.4-8.73-18.04,13.51-3.71,13.02,13.5.6,7.39,15.25,10.75,45.07-2.49-52.06,35.66-46.08-8.21-12.24,14.84-47.01-18.28-11.88-26.17-97.42,10.04-69.89,80.41,5.77,71.32,36.5,63.36,88.38,4.06,14.26,8.32,17.07,15.76,31.44,55.68-10.54,34,39.21,103.25,67-10.43,29.06-31.5,2.83-14.29,13.81-5.75,10.47-36.31,31.53-28.83-9.22-53.3,81.67-103.05-43.88,5.52-61.47-74.83-6.43-32.2,58.77,93.57,92.98-37.92,10.49-24.15-22.95-22.6-26.39,14.26-28.43-37.93,42.78,21.56,9.66-3.01,111.61,32.95,35.42,83.6,90.63-89.27,40.33,37.24,11.49,39.25,12.49,6.6-2.81-10.97,36.09,15.38,28.22-30.39-23.93-30.98,11.97-21.11,14.85,3.73.18.17.11-.4,49.73-27.35,8.18-51.08-16.42-31.09,15.69-13.3-17.69-2.07-4.86-20.86,9.76,10.37,24.86-5.25,27.3,35.12-4.07-57.02,9.83-15.41,10.34,2.08,20.12-38.99-2.71-53.76,26.95,58.6,8.81-3.01-40.45-80.98,2.76,21.94-12.45-15.06-16.41,3.46-4.48-6.31-2.33,4.65-13.25-11.19,16.28-48.98,52.16-17,2.28,5.95,16.35-5.65-2.07-5.42,10.72-32.11,17.99,8.03,6.29-27.06,10.52,120.16,24.22,18.73,2-55.21,4.81-3.26-9.5-13.56-7.82-3.47-6.96-22.94,6.97-8.33,7.84-.8,6.7-9.32,11.56,2.71,31.21-50.3-29.76-21.64,5.78-22.57h-.02Zm-813.22,337.25l26.44-14.86,6.62,9.75,14.89-6.88-12.65-4.69,24.94-9.19-9.57,14.73,29.87,28.66-80.54-17.52h0Zm135.46,43.15l2.78-21.79-23.65-33.4,31.49-14.9-5.68,12.41,26.8,63.29-31.74-5.6h0Z"/>
    <polygon class="cls-5" points="4120.58 2071.57 4096.06 2067.65 4102.35 2031.76 4029.96 2027.68 4091.69 1971.06 4146.17 2003.48 4216.29 1888.43 4271.83 1857.25 4275.35 1868.52 4305.06 1846.75 4241.83 1838.41 4330.6 1783.55 4305.54 1720.03 4288.1 1736.49 4230.27 1703.31 4207.17 1780.31 4177.9 1782.45 4127.33 1740.58 4137.81 1691.56 4214.92 1622.61 4216.25 1613.51 4207.65 1626.36 4204.12 1605.94 4195.27 1607.55 4192.75 1595.88 4221.56 1526.66 4158.1 1622.54 4155.65 1604.99 4172.23 1591.67 4151.27 1591.68 4154.25 1603.66 4153.96 1603.47 4154.19 1603.67 4105.27 1591.47 4103.06 1598.7 4085.42 1612.98 4019.48 1551.38 4015.94 1559.3 4007.35 1537.62 3927.29 1535.21 3860.8 1484.98 3779.39 1514.56 3791.49 1549.01 3735.98 1559.81 3767.86 1574.1 3722.95 1600.59 3716.06 1653.37 3735.02 1664.97 3709.4 1682.16 3798.55 1665.25 3817.32 1640.96 3864.66 1688.56 3863.43 1701.2 3863.23 1701.03 3864.05 1713.11 3879.26 1696.39 3880.29 1710.54 3870.98 1714.98 3903.76 1803.04 3900.5 1803.04 3893.6 1796.01 3890.25 1799.64 3892.94 1805.1 3874.8 1879.85 3918.36 1976.68 3927.03 1958.17 4008.92 2061.14 4139.21 2130 4107.77 2214.63 4167.62 2288.3 4162.08 2480.56 4181.52 2498 4185.15 2526.98 4176 2535.87 4181.94 2555.84 4187.02 2566.52 4187.27 2566.32 4218.37 2556.42 4253.69 2487.43 4344.94 2378.11 4345.12 2378.3 4331.79 2327.27 4388.71 2304.08 4367.63 2177.57 4120.4 2100.16 4120.58 2071.57"/>
    <polygon class="cls-5" points="4509.85 1405.68 4510.1 1405.72 4510.06 1405.51 4509.85 1405.68"/>
    <polygon class="cls-5" points="4542.58 1595.94 4534.31 1579.16 4559.21 1534.48 4567.27 1544.53 4573.5 1490.18 4599.17 1463.52 4575.19 1458.41 4567.15 1442.86 4548.67 1448.91 4538.37 1441.95 4520.23 1442.88 4542.46 1425.49 4516.92 1416.5 4528.35 1412.04 4510.1 1405.72 4510.31 1407.32 4475.79 1439.65 4459.42 1419.73 4448.96 1434.27 4447.33 1420.86 4438.13 1435.66 4334.62 1489.81 4351.5 1496.66 4332 1503.65 4375.29 1584.19 4375.44 1584.08 4386.83 1591.42 4389.27 1606.07 4379.94 1608.59 4379.96 1609.93 4389.81 1617.62 4390.04 1617.43 4370.29 1648.78 4387.04 1712.7 4400.38 1720.91 4538.96 1624.15 4520.15 1619.38 4531.58 1585.34 4542.58 1595.94"/>
    <polygon class="cls-5" points="5515 2294.21 5485.9 2277.07 5490.17 2256.77 5461.75 2251.83 5440.48 2275.27 5427.35 2269.27 5401.94 2289.94 5392.5 2289.32 5385.6 2302.59 5339.4 2318.55 5326.35 2354.04 5326.48 2353.93 5329.31 2413.44 5454.35 2404.69 5459.06 2419.74 5476.38 2407.33 5467.77 2424.19 5476.46 2419.42 5503.29 2458.4 5545 2451.79 5592.4 2347.27 5528.87 2254.45 5515 2294.21"/>
    <polygon class="cls-5" points="4321.1 1463.38 4328.13 1463.23 4323.06 1458.73 4389.75 1429.71 4384.46 1427.48 4396.33 1400.42 4380.27 1386.08 4357.6 1389.81 4352.63 1384.36 4345.58 1384 4344.48 1388.76 4335.29 1386.26 4286.67 1401.06 4289.48 1401.1 4292.65 1422.63 4329.65 1426.03 4334.71 1431.79 4302.63 1441.11 4284.75 1437.13 4287.35 1460.76 4267.83 1462.06 4264.06 1479.47 4232.65 1489.23 4287.9 1500.09 4321.1 1463.38"/>
    <polygon class="cls-5" points="4264.44 1559.71 4264.63 1559.93 4264.69 1559.91 4264.44 1559.71"/>
    <polygon class="cls-5" points="4324.65 1643.8 4324.63 1642.35 4308.12 1623.03 4309.94 1601.37 4276.02 1562.44 4256.73 1566.71 4256.67 1566.8 4256.6 1566.74 4227.98 1573.07 4234.15 1536.94 4210.73 1554.54 4203.29 1571.42 4211.54 1577.26 4205.46 1585.22 4227.92 1595.34 4248.65 1601.24 4253.21 1590.19 4271.98 1637.22 4235.94 1662.51 4267.88 1685.84 4267.73 1685.69 4286.5 1695.13 4280.12 1677.91 4305.81 1684.66 4294.02 1651.48 4324.42 1643.67 4324.65 1643.8"/>
    <polygon class="cls-5" points="4245.79 1563.42 4245.08 1564.1 4245.23 1564.22 4245.35 1564.2 4245.79 1563.42"/>
    <polygon class="cls-5" points="4076.54 1511.89 4076.21 1512.01 4076.33 1511.99 4076.54 1511.89"/>
    <polygon class="cls-5" points="5482.46 2207.48 5502.63 2230.75 5535.58 2239.13 5538.88 2234.03 5586.67 2247.4 5579.25 2238.88 5499.98 2191.95 5480.48 2196.96 5472.62 2184.52 5457 2189.93 5475.08 2196.47 5469.21 2205.91 5482.46 2207.48"/>
    <polygon class="cls-5" points="5477.69 2099.54 5425.75 2140.49 5444.71 2163.47 5469.81 2166.87 5489.37 2137.94 5484.42 2118.49 5492.98 2110.79 5477.69 2099.54"/>
    <polygon class="cls-5" points="4937.48 2288.3 4970.44 2276.63 4981.17 2217.44 4953.71 2240.1 4937.48 2288.3"/>
    <polygon class="cls-5" points="4934.94 1593.69 4964.77 1507.33 4918.83 1542.16 4915.38 1570.24 4939.58 1606.33 4934.94 1593.69"/>
    <polygon class="cls-5" points="5532.46 1895.28 5513.58 1899.85 5499.42 1927.27 5510.21 1934.56 5523.44 1908.08 5526.56 1912.35 5530.54 1904.41 5532.4 1911.34 5538.33 1913 5559.46 1896.92 5553.46 1844.26 5544.69 1882.74 5537.02 1880.88 5532.46 1895.28"/>
    <polygon class="cls-5" points="4276.9 1422.29 4274.46 1405.64 4256.35 1428.56 4246.69 1429.86 4244.38 1465.93 4258.12 1465.66 4276.9 1422.29"/>
    <polygon class="cls-5" points="5353.15 2114.02 5359.67 2139.33 5407 2161.34 5404.23 2158.51 5408.63 2156.17 5353.15 2114.02"/>
    <polygon class="cls-5" points="4060.15 1580.42 4109.46 1579.73 4132.87 1515.96 4101.48 1544.61 4102.02 1523.11 4088.65 1528.55 4058.81 1491.83 4055.81 1536.5 4042.92 1544.97 4067.12 1555.48 4038.56 1556.66 4060.15 1580.42"/>
    <polygon class="cls-5" points="4627.02 1790.78 4632.23 1808.23 4619.08 1817.09 4619.21 1817.78 4619.79 1818.25 4661.02 1808.63 4637.48 1769.52 4639.21 1757.08 4628.83 1753.35 4623.98 1747.11 4614.71 1758.01 4629.48 1779.85 4627.02 1790.78"/>
    <polygon class="cls-5" points="4255.77 1531.09 4268.65 1514.63 4227.56 1497.29 4227.4 1497.42 4215.83 1478.52 4211.98 1513.51 4255.77 1531.09"/>
    <polygon class="cls-5" points="4100.52 1476.47 4090.85 1480.2 4111.9 1488.09 4100.58 1494.49 4141.85 1496 4155.12 1484.96 4149.17 1480.81 4147.08 1463.84 4132.25 1483.17 4113.56 1461.06 4100.52 1476.47"/>
    <polygon class="cls-5" points="4150.38 1536.29 4139.21 1534.05 4149.56 1557.83 4173.69 1527.7 4163.79 1521.94 4163.96 1522.14 4150.38 1536.29"/>
    <polygon class="cls-5" points="4109.85 1460.3 4125.19 1440.29 4090.37 1448.01 4105.65 1451.69 4109.85 1460.3"/>
    <polygon class="cls-5" points="4601.94 1801.4 4617.13 1782.06 4602.54 1774.73 4594.29 1787.76 4601.94 1801.4"/>
    <polygon class="cls-5" points="5558.96 1835.33 5572.52 1827.78 5545.25 1807.66 5547.33 1826.75 5541.31 1835.07 5558.96 1835.33"/>
    <polygon class="cls-5" points="4214.1 1436.12 4196.31 1435.09 4190.29 1445.41 4207.17 1457.97 4214.1 1436.12"/>
    <polygon class="cls-5" points="5093.79 1458.77 5095.27 1458.99 5111.85 1445.01 5112 1442.94 5110.12 1439.75 5088.4 1429.88 5087.02 1430.43 5086.35 1437.23 5088.63 1441.85 5093.79 1458.77"/>
    <polygon class="cls-5" points="5401.52 2314.52 5401.44 2314.52 5401.44 2314.69 5401.6 2314.67 5401.52 2314.52"/>
  </g>
  <path class="cls-46" d="m5869.79,2553.82v-1187.84c0-48.65-43.39-88.09-96.91-88.09h-2117.68c-53.52,0-96.91,39.44-96.91,88.09v1187.84c0,48.65,43.39,88.09,96.91,88.09h2117.68c53.52,0,96.91-39.44,96.91-88.09Zm-80.41-1119.92v1062.99c0,50.56-45.09,91.55-100.72,91.55h-1949.26c-55.62,0-100.72-40.99-100.72-91.55v-1062.99c0-50.56,45.09-91.55,100.72-91.55h1949.26c55.62,0,100.72,40.99,100.72,91.55h0Z"/>
  <polygon class="cls-11" points="3619.51 2229.54 3619.51 1323.13 5346.56 1323.13 3619.51 2229.54"/>
  <path class="cls-46" d="m5789.38,2229.54v267.35c0,50.56-45.09,91.55-100.72,91.55h-1949.26c-55.62,0-100.72-40.99-100.72-91.55v-267.35h-80.41v324.28c0,48.65,43.39,88.09,96.91,88.09h2117.68c53.52,0,96.91-39.44,96.91-88.09v-324.28h-80.41.02Z"/>
  <path class="cls-31" d="m5699.04,2552.58s7.63-41.89-51.05-53.67c-50.55-10.15-61.33,37.15-61.33,37.15,0,0,4.1-75.38-57.22-81.81-70.07-7.35-81.08,37.86-92.19,61.68-35.65-52.36-64.18-7.64-56.36,15.19,0,0-54.54-59.39-59.04-317.22,0,0-50.22-66.19-71.16-20.37,0,0-29.57,342.22-84.55,321.07s-47.98,59.58-47.98,59.58c0,0-63.37-19.02-80.26,14.26h670.35c29.42,0,55.66-12.82,74.09-32.92-34.68-22.42-83.31-2.94-83.31-2.94h0Z"/>
  <path class="cls-23" d="m4021.81,1720.51s47.12,505.26-7.85,473.84c-54.98-31.41-65.45,73.3-65.45,73.3,0,0-178.63-20.26-136.13,151.84,0,0-125.66-31.41-112.57,94.24,13.09,125.66,125.66,47.12,125.66,47.12l534.05-7.85s180.64-99.48,104.72-196.34-133.51-107.33-225.14-62.83c0,0-39.27,39.27-57.59-83.77-18.33-123.04-128.28,10.47-107.33-489.55,0,0-31.42-68.07-52.36,0h0Z"/>
  <path class="cls-24" d="m4245.79,2385.85s-60.26-135.35-212.58-55c-143.84,75.89-98.47,178.05-92.97,189.19-4.28-8.27-35.56-61.93-98.6,1.12,0,0-36.49-178.11-202.95-115.83l-7.14,102.36c0,55.69,52.29,80.75,107.98,80.75h588.75l128.49-41.09-70.61-138.32s-57.6-85.47-140.37-23.17h0Z"/>
  <path class="cls-23" d="m4626.04,1328.1c8.93,242.61,20.48,717.73-24.21,754.65-60.21,49.74-54.98,120.42-41.88,151.84,0,0-167.55-62.83-164.93,133.51,0,0-129.12,33.16-94.93,141.37-72.71-58.29-163-72.49-179.85,59.96,0,7.06.87,13.25,2.18,19.01h1120.14c10.5-1.93,79.45,0,79.45,0,0,0,80.59-93.02-71.31-143.97,0,0-17.95-199.41-219.53-165.38,88.58-14.2,94.83-165.06-42.86-165.06,0,0,1.2-173.9-184.9-109.82,0,0-98.26-194.5-97.88-676.11h-79.49Z"/>
  <path class="cls-24" d="m5222.46,2522.11s20.27-78.54-97.53-99.48c-117.81-20.94-135.99,57.59-135.99,57.59,0,0-38.85-78.41-94.11-28.73,0,0,20.27-101.43-73.77-96.56-94.05,4.87-88.94,59.84-88.94,59.84,0,0-77.76-2.87-71.54,62.7,0,0-156.14-77.68-216.68,64.14-7.54,17.67-9.45,33.19-7.32,47.11h864.12c-4.73-40.8-21.9-86.82-78.23-66.62h-.01Z"/>
  <path class="cls-24" d="m5559.46,2606.77s-8.51-64.66,54.41-62.04c62.92,2.62,44.59,21.79,44.59,21.79,0,0,23.77-138.02,150.64-35.4,126.86,102.61-249.64,75.65-249.64,75.65Z"/>
  <g>
    <polygon class="cls-84" points="4062.19 1571.22 4075.48 1798.56 4084.29 1798.39 4088.6 1570.7 4087.56 1517.27 4061.13 1517.79 4062.19 1571.22"/>
    <polygon class="cls-68" points="4080.48 1798.47 4084.58 1798.38 4088.88 1570.1 4087.83 1517.26 4074.94 1517.51 4080.48 1798.47"/>
    <rect class="cls-90" x="4061.66" y="1517.51" width="26.43" height="52.85" transform="translate(-29.66 80.66) rotate(-1.13)"/>
    <rect class="cls-84" x="4075.17" y="1517.36" width="12.92" height="52.85" transform="translate(-29.65 80.79) rotate(-1.13)"/>
    <path class="cls-32" d="m4005.27,1799.41c1.4,70.91,63.66,199.16,66.01,199.11,4.15-.08,83.2-131.12,81.8-202.03-1.01-51.25-19.17-95.49-44.57-115.59l-62.37,1.2c-25.07,20.77-41.89,65.45-40.87,117.3h0Z"/>
    <path class="cls-7" d="m4028.81,1772.65c.96,48.46,43.88,137.72,45.44,137.69,2.75-.05,53.42-91.16,52.46-139.62-.69-35.03-12.74-65.27-29.57-79.01l-41.31.79c-16.6,14.18-27.72,44.71-27.02,80.15Z"/>
    <path class="cls-4" d="m4044.77,1745.54c.67,33.99,30.3,67.03,31.39,67,1.93-.04,37.95-34.37,37.28-68.36-.48-24.57-8.94-45.78-20.74-55.42l-28.97.56c-11.64,9.95-19.44,31.36-18.95,56.22h0Z"/>
    <polygon class="cls-51" points="3945.12 1755.42 3967.58 1754.98 3978.02 1633.61 4020.02 1618.24 3977.08 1518.65 3913.4 1572.77 3945.12 1755.42"/>
    <polygon class="cls-51" points="4177.5 1630.11 4192.04 1748.62 4214.48 1748.17 4239.69 1566.77 4171.21 1509.16 4134.94 1616.42 4177.5 1630.11"/>
    <path class="cls-4" d="m3953.21,1336.09c2.63,133.11,33.02,246.35,74.56,297.58l99.22-2.03c38.72-53.64,63.96-168.62,61.36-300.18-3.59-182.03-117.47-327.41-124.07-327.28-3.74.07-114.66,149.88-111.07,331.91h0Z"/>
    <polygon class="cls-51" points="4027.23 1701.62 4127.29 1698.72 4128.19 1631.09 4027.79 1633.07 4027.23 1701.62"/>
    <circle class="cls-19" cx="4075.38" cy="1298.66" r="85.88" transform="translate(275.36 3262.1) rotate(-45)"/>
    <circle class="cls-51" cx="4075.35" cy="1298.55" r="66.2" transform="translate(-9.79 2565.95) rotate(-34.91)"/>
    <path class="cls-51" d="m3988.25,1144.44l158.35-3.12c-34.46-83.3-76.32-156.26-80.34-156.18-2.28.04-46.3,74.7-78.01,159.31h0Z"/>
  </g>
  <polygon class="cls-84" points="5251.62 1964.3 5263.4 2165.82 5271.21 2165.66 5275.04 1963.84 5274.1 1916.48 5250.69 1916.94 5251.62 1964.3"/>
  <polygon class="cls-68" points="5267.83 2165.73 5271.46 2165.66 5275.29 1963.31 5274.37 1916.47 5262.92 1916.7 5267.83 2165.73"/>
  <rect class="cls-90" x="5251.16" y="1916.66" width="23.42" height="46.85" transform="translate(-37.24 104.17) rotate(-1.13)"/>
  <rect class="cls-84" x="5263.17" y="1916.45" width="11.45" height="46.85" transform="translate(-37.23 104.28) rotate(-1.13)"/>
  <path class="cls-32" d="m5201.17,2166.57c1.24,62.85,56.42,176.53,58.51,176.49,3.68-.07,73.75-116.22,72.51-179.07-.9-45.43-17-84.64-39.51-102.45l-55.28,1.06c-22.22,18.41-37.13,58.01-36.22,103.97h0Z"/>
  <path class="cls-7" d="m5222.04,2142.84c.85,42.96,38.89,122.07,40.27,122.05,2.44-.05,47.35-80.8,46.5-123.76-.61-31.05-11.29-57.85-26.21-70.04l-36.62.7c-14.71,12.57-24.57,39.63-23.95,71.04h.01Z"/>
  <path class="cls-4" d="m5236.19,2118.82c.59,30.13,26.86,59.41,27.82,59.39,1.71-.03,33.64-30.46,33.04-60.59-.43-21.78-7.92-40.58-18.39-49.12l-25.68.49c-10.32,8.82-17.23,27.8-16.8,49.83h.01Z"/>
  <polygon class="cls-51" points="5147.87 2127.57 5167.77 2127.18 5177.02 2019.6 5214.25 2005.98 5176.19 1917.71 5119.73 1965.68 5147.87 2127.57"/>
  <polygon class="cls-51" points="5353.83 2016.5 5366.71 2121.54 5386.62 2121.15 5408.96 1960.36 5348.27 1909.29 5316.12 2004.36 5353.83 2016.5"/>
  <path class="cls-4" d="m5155.04,1755.89c2.33,117.99,29.27,218.36,66.09,263.77l87.94-1.8c34.32-47.55,56.69-149.46,54.39-266.08-3.18-161.35-104.12-290.21-109.97-290.09-3.31.07-101.63,132.85-98.45,294.2h0Z"/>
  <polygon class="cls-51" points="5220.63 2079.88 5309.33 2077.31 5310.12 2017.37 5221.13 2019.12 5220.63 2079.88"/>
  <ellipse class="cls-19" cx="5263.17" cy="1722.65" rx="76.12" ry="75.91" transform="translate(924.14 5163.77) rotate(-56.54)"/>
  <path class="cls-51" d="m5204.65,1723.87c.64,32.4,27.42,58.15,59.83,57.51,32.4-.64,58.15-27.42,57.51-59.83-.64-32.4-27.42-58.15-59.83-57.51-32.4.64-58.15,27.42-57.51,59.83Z"/>
  <path class="cls-51" d="m5186.08,1586.01l140.36-2.77c-30.54-73.84-67.65-138.51-71.21-138.44-2.02.04-41.04,66.21-69.14,141.2h0Z"/>
  <g>
    <polygon class="cls-84" points="4644.21 942.85 4661.42 1237.18 4672.83 1236.96 4678.42 942.18 4677.06 873 4642.85 873.68 4644.21 942.85"/>
    <polygon class="cls-68" points="4667.88 1237.06 4673.19 1236.95 4678.77 941.41 4677.42 873 4660.71 873.33 4667.88 1237.06"/>
    <rect class="cls-90" x="4643.53" y="873.29" width="34.21" height="68.43" transform="translate(-16.99 92.09) rotate(-1.13)"/>
    <rect class="cls-84" x="4661.02" y="873.07" width="16.72" height="68.43" transform="translate(-16.98 92.26) rotate(-1.13)"/>
    <path class="cls-32" d="m4570.52,1238.28c1.81,91.8,82.41,257.84,85.45,257.78,5.38-.11,107.72-169.75,105.9-261.55-1.31-66.35-24.82-123.62-57.71-149.64l-80.74,1.55c-32.46,26.89-54.23,84.73-52.91,151.86h.01Z"/>
    <path class="cls-7" d="m4601,1203.63c1.24,62.74,56.81,178.3,58.82,178.26,3.56-.07,69.16-118.02,67.92-180.76-.89-45.35-16.49-84.5-38.29-102.29l-53.48,1.03c-21.49,18.36-35.88,57.89-34.98,103.77h.01Z"/>
    <path class="cls-4" d="m4621.67,1168.54c.87,44.01,39.23,86.77,40.64,86.75,2.5-.05,49.13-44.49,48.26-88.5-.63-31.81-11.57-59.27-26.85-71.75l-37.51.72c-15.07,12.88-25.17,40.6-24.53,72.78h-.01Z"/>
    <polygon class="cls-51" points="4492.67 1181.33 4521.73 1180.75 4535.25 1023.62 4589.6 1003.73 4534.02 874.8 4451.58 944.86 4492.67 1181.33"/>
    <polygon class="cls-51" points="4793.5 1019.1 4812.31 1172.52 4841.38 1171.95 4874 937.1 4785.37 862.51 4738.4 1001.37 4793.5 1019.1"/>
    <path class="cls-4" d="m4503.13,638.45c3.4,172.33,42.75,318.94,96.53,385.26l128.45-2.63c50.13-69.44,82.8-218.3,79.44-388.63-4.65-235.66-152.08-423.87-160.63-423.7-4.84.1-148.44,194.04-143.79,429.71h0Z"/>
    <polygon class="cls-51" points="4598.96 1111.67 4728.48 1107.92 4729.67 1020.36 4599.69 1022.92 4598.96 1111.67"/>
    <circle class="cls-19" cx="4661.29" cy="589.99" r="111.19" transform="translate(948.07 3468.83) rotate(-45)"/>
    <circle class="cls-51" cx="4661.29" cy="589.99" r="85.71" transform="translate(948.07 3468.83) rotate(-45)"/>
    <path class="cls-51" d="m4548.48,390.33l205-4.04c-44.61-107.85-98.8-202.3-104.01-202.2-2.95.06-59.94,96.71-100.99,206.24Z"/>
    <g class="cls-10">
      <path class="cls-4" d="m4626.36,542.75v93.63h-21.25v-93.63h21.25Z"/>
      <path class="cls-4" d="m4666.5,612.35l-6.67,24.03h-21.95l28.62-93.63h27.78l29.03,93.63h-22.78l-7.22-24.03h-26.81Zm23.75-15.84l-5.83-19.87c-1.67-5.56-3.33-12.5-4.72-18.06h-.28c-1.39,5.56-2.78,12.64-4.31,18.06l-5.56,19.87h20.7Z"/>
    </g>
  </g>
  <g class="cls-10">
    <path class="cls-4" d="m4049.41,1264.81v71.54h-16.24v-71.54h16.24Z"/>
    <path class="cls-4" d="m4080.08,1317.99l-5.09,18.36h-16.77l21.87-71.54h21.23l22.18,71.54h-17.41l-5.52-18.36h-20.49Zm18.15-12.1l-4.46-15.18c-1.27-4.25-2.55-9.55-3.61-13.8h-.21c-1.06,4.25-2.12,9.66-3.29,13.8l-4.25,15.18h15.81Z"/>
  </g>
  <g class="cls-10">
    <path class="cls-4" d="m5239.88,1687.89v62.33h-14.15v-62.33h14.15Z"/>
    <path class="cls-4" d="m5266.61,1734.22l-4.44,16h-14.61l19.05-62.33h18.5l19.33,62.33h-15.17l-4.81-16h-17.85Zm15.81-10.54l-3.88-13.22c-1.11-3.7-2.22-8.32-3.14-12.02h-.19c-.92,3.7-1.85,8.42-2.87,12.02l-3.7,13.22h13.78Z"/>
  </g>
  <polygon class="cls-15" points="2666.25 1934.59 3147.55 2095.99 3139.81 2156.36 3255.9 2161.94 3420.98 2386.58 3581.61 2532.82 3593.16 2596.74 3501.56 2695.52 3328.88 2619.31 3130.62 2385.82 2935 2344.27 2678.39 2258.98 2666.25 1934.59"/>
  <path class="cls-4" d="m1860.43,1914.84l38.64-26.49,824.76,1.88,4.3,45.16,39.84,60.25,35,2.61,245.66,348.2-61.25,248.07-23.41,88.08-88.82,68.6-12.74,45.37-74.73,48.1-81.68,17.12-18.01,34.05-129.5,28.16-367.53-14.35-211.27-164.93,13.91-175.03,189.18,22.33,64.47-38.61c19.54-7.77-.19-5.69-20.68-10.45l-99.53,24.97-307.02,14-117.99-223.51"/>
  <polygon class="cls-54" points="3409.52 2552.49 3441.2 2404.98 3420.98 2386.58 3369.6 2544.98 3319.24 2607.96 3328.88 2619.31 3353.02 2629.97 3409.52 2552.49"/>
  <polygon class="cls-35" points="3094.28 2378.1 3129.71 2235.31 3147.55 2095.99 3153.6 2134.25 3255.9 2161.94 3130.62 2385.82 3094.28 2378.1"/>
  <polygon class="cls-89" points="2294.69 2675.09 2182.75 2592.01 2195.62 2550.71 2226.54 2542.95 2337.99 2499.31 2392.11 2609.7 2355.68 2665.49 2294.69 2675.09"/>
  <polygon class="cls-40" points="2577.3 2318.82 2701.88 2685.62 2592.54 2881.68 2711.45 2873.4 2755 2801.23 2801.7 2790.39 2898.24 2745.51 2898.7 2694.84 2956.41 2651.73 2979.42 2500.46 2912.29 2553.13 2686.81 2127.02 2672.23 2171.21 2862.48 2614.22 2759.07 2679.81 2582.45 2235.9 2577.3 2318.82"/>
  <polygon class="cls-91" points="2956.41 2651.73 2978.24 2506.05 2734.6 2071.5 2744.33 2000.32 3005.59 2405.61 3048.62 2346.44 3013.09 2511.42 3018.12 2596.56 2956.41 2651.73"/>
  <polygon class="cls-17" points="2306.6 2645.53 2190.95 2909.64 2232.06 2910.19 2306.6 2645.53"/>
  <polygon class="cls-65" points="2355.68 2665.49 2373.71 2654.69 2592.54 2881.68 2641.69 2808.85 2392.11 2609.7 2355.68 2665.49"/>
  <path class="cls-64" d="m2316,2530.06l21.99-30.75,316.26-349.13,73.89-214.79,39.84,60.25s-87.7,195.4-80.74,199.73-299.68,297.34-299.68,297.34l-26.68,35.73,36.03,92.96-80.9-91.33h-.01Z"/>
  <polygon class="cls-1" points="1770.77 2196.41 2079.52 2205.65 2429.81 2405.75 2446.56 2388.68 2073.54 2167.86 1781.52 2162.65 1770.77 2196.41"/>
  <polygon class="cls-70" points="2370.32 2515.63 2348.49 2487.72 2337.99 2499.31 2226.54 2542.95 2195.62 2550.71 2182.75 2592.01 2293.83 2674.7 2289.78 2683.94 2295.39 2684.95 2298.61 2674.73 2355.68 2665.49 2373.71 2654.69 2381.05 2661.81 2403.72 2618.96 2392.11 2609.7 2360.86 2528.43 2370.32 2515.63"/>
  <g>
    <g class="cls-30">
      <path class="cls-75" d="m2402.56,772.88c-79.08-23.83-172.12-59.43-191.69-145.64-16.42-72.33,29.13-142.94,37.72-216.74,8.73-75.04-24.82-154.17-83.17-196.19-58.35-42.01-138.71-44.89-199.25-7.14-73.07,45.57-116.21,142.59-197.69,166.4-54.16,15.83-112.75-6.17-158.59-41.43-45.85-35.26-82.11-82.81-121.45-126.32-72.7-80.43-159.3-149.34-258.74-182.04-99.43-32.7-212.91-25.64-299.81,35.46-31.59,22.22-58.72,52.18-79.24,86.57-34.57,57.93-106.56,73.74-159.36,34.65-9.29-6.88-18.91-13.24-28.81-19.06-56.46-33.11-132.06-45.64-180.86-.85-32.93,30.22-45.63,80.29-42.82,127,2.8,46.71,19.04,91.14,35.63,134.43,36.34,94.84,75.71,190.13,87.71,291.87,11.98,101.75-7.72,213.4-75.23,285.12-58.68,62.33-149.12,91.46-186.52,170.71-25.13,53.29-19.58,117.97-2.6,175.05,34.27,115.28,114.02,214,215.08,266.29,105.97,54.82,227.45,58.25,344.75,60.68,377.23,7.77,460.75-301.15,759.91-198.38,59.83,20.55,362.97,280.44,564.83,199.95,60.98-24.31,116.06-79.39,123.29-149.33,7.69-74.29-38.48-147.05-27.4-220.81,13.11-87.2,96.86-136.06,168.62-178.16,71.76-42.1,149.93-110.17,138.63-197.77-11.34-87.87-103.84-130.53-182.93-154.36h0Z"/>
    </g>
    <g>
      <path class="cls-21" d="m555.4,89h305.99c12.07,0,21.94,9.93,21.94,22.07v167.62c0,12.14-9.88,22.07-21.94,22.07h-215.23l-64.71,47.49,7.11-47.49h-33.16c-12.07,0-21.94-9.93-21.94-22.07V111.07c0-12.14,9.88-22.07,21.94-22.07h0Z"/>
      <path class="cls-69" d="m832.07,270.72c12.07,0,21.94-9.93,21.94-22.07V89h7.37c12.07,0,21.94,9.93,21.94,22.07v167.62c0,12.14-9.88,22.07-21.94,22.07h-215.23l-64.71,47.49,7.11-47.49h-33.16c-12.07,0-21.94-9.93-21.94-22.07v-7.98h298.62Z"/>
      <g>
        <g>
          <path class="cls-4" d="m668.03,123.22c-5.46-1.6-10.59-.51-11.45,2.44l-3.69,12.66c-5.57-.37-11.07.29-16.25,1.81l-6.35-11.59c-1.48-2.7-6.72-2.67-11.71.08-4.99,2.74-7.84,7.14-6.36,9.82l6.36,11.59c-4.09,3.58-7.59,7.85-10.29,12.74l-12.66-3.69c-2.94-.85-6.62,2.87-8.22,8.35-1.6,5.46-.51,10.59,2.45,11.45l12.66,3.69c-.37,5.58.29,11.07,1.81,16.27l-11.59,6.35c-2.7,1.48-2.65,6.73.07,11.72,2.74,4.99,7.14,7.84,9.84,6.38l11.59-6.36c3.56,4.09,7.85,7.58,12.75,10.27l-3.69,12.66c-.88,2.97,2.87,6.65,8.33,8.22,5.46,1.6,10.59.51,11.46-2.44l3.69-12.66c5.57.36,11.05-.27,16.25-1.81l6.35,11.59c1.49,2.7,6.72,2.67,11.71-.08,4.99-2.74,7.84-7.14,6.36-9.82l-6.35-11.6c4.08-3.57,7.57-7.85,10.27-12.74l12.64,3.69c2.97.86,6.64-2.87,8.24-8.35,1.6-5.45.51-10.6-2.45-11.44l-12.66-3.71c.37-5.57-.29-11.05-1.79-16.27l11.56-6.36c2.71-1.48,2.67-6.72-.07-11.7-2.74-4.99-7.13-7.85-9.84-6.38l-11.59,6.35c-3.57-4.08-7.84-7.58-12.74-10.27l3.69-12.64c.86-2.96-2.86-6.64-8.35-8.22h0Zm15.84,68.04c-3.11,18.81-20.86,31.55-39.68,28.44-18.81-3.11-31.55-20.86-28.44-39.68,3.11-18.81,20.86-31.55,39.68-28.44,18.81,3.11,31.55,20.86,28.44,39.68Z"/>
          <path class="cls-4" d="m617.96,180.38c-2.9,17.59,9.02,34.22,26.61,37.12s34.22-9.02,37.12-26.61-9.02-34.22-26.61-37.12c-17.59-2.9-34.22,9.02-37.12,26.61Zm54.44,11.85c-3.64,12.45-16.72,19.62-29.15,15.98-12.44-3.64-19.62-16.72-15.99-29.17,3.64-12.44,16.72-19.61,29.17-15.98,12.46,3.63,19.62,16.72,15.99,29.17h-.01Z"/>
        </g>
        <g>
          <path class="cls-4" d="m785.19,132.66c-5.46-1.6-10.59-.51-11.45,2.44l-3.69,12.66c-5.57-.37-11.07.29-16.25,1.81l-6.35-11.59c-1.48-2.7-6.72-2.67-11.71.08-4.99,2.74-7.84,7.14-6.36,9.82l6.36,11.59c-4.09,3.58-7.59,7.85-10.29,12.74l-12.66-3.69c-2.94-.85-6.62,2.87-8.22,8.35-1.6,5.46-.51,10.59,2.45,11.45l12.66,3.69c-.37,5.58.29,11.07,1.81,16.27l-11.59,6.35c-2.7,1.48-2.65,6.73.07,11.72,2.74,4.99,7.14,7.84,9.84,6.38l11.59-6.36c3.56,4.09,7.85,7.58,12.75,10.27l-3.69,12.66c-.88,2.97,2.87,6.65,8.33,8.22,5.46,1.6,10.59.51,11.46-2.44l3.69-12.66c5.57.36,11.05-.27,16.25-1.81l6.35,11.59c1.49,2.7,6.72,2.67,11.71-.08,4.99-2.74,7.84-7.14,6.36-9.82l-6.35-11.6c4.08-3.57,7.57-7.85,10.27-12.74l12.64,3.69c2.97.86,6.64-2.87,8.24-8.35,1.6-5.45.51-10.6-2.45-11.44l-12.66-3.71c.37-5.57-.29-11.05-1.79-16.27l11.56-6.36c2.71-1.48,2.67-6.72-.07-11.7-2.74-4.99-7.14-7.85-9.84-6.38l-11.59,6.35c-3.57-4.08-7.84-7.58-12.74-10.27l3.69-12.64c.86-2.96-2.86-6.64-8.35-8.22h0Zm15.84,68.04c-3.11,18.81-20.86,31.55-39.68,28.44-18.81-3.11-31.55-20.86-28.44-39.68s20.86-31.55,39.68-28.44c18.81,3.11,31.55,20.86,28.44,39.68Z"/>
          <path class="cls-4" d="m735.11,189.82c-2.9,17.59,9.02,34.22,26.61,37.12s34.22-9.02,37.12-26.61-9.02-34.22-26.61-37.12c-17.59-2.9-34.22,9.02-37.12,26.61Zm54.44,11.85c-3.64,12.45-16.72,19.62-29.15,15.98-12.44-3.64-19.62-16.72-15.99-29.17,3.64-12.44,16.72-19.61,29.17-15.98,12.46,3.63,19.62,16.72,15.99,29.17h-.01Z"/>
        </g>
      </g>
    </g>
    <g>
      <path class="cls-28" d="m2244.2,116.64c-98.37,12.74-138.84,142.82-65.59,207.45l1.2,57.78,47.28-29.92c194.78,46.16,218.13-255,17.1-235.3Z"/>
      <polygon class="cls-4" points="2341.14 196.25 2328.41 183.51 2241.71 270.21 2198.67 227.18 2185.93 239.92 2241.7 295.68 2241.71 295.68 2241.71 295.68 2341.14 196.25"/>
    </g>
    <g>
      <path class="cls-60" d="m1549.72,1522.08c-.53-1.14-1.22-2.19-1.87-3.2-.23-.36-.47-.74-.74-1.16l-.94-1.25c-.68-.9-1.37-1.79-2.07-2.64l-6.09-7.62c-4.6-5.84-8.2-10.86-11.34-15.8-3.6-5.64-6.55-11.44-8.78-17.24-1.08-2.74-2.02-5.76-2.89-9.21-.3-1.31-.56-2.63-.85-3.97-.38-1.86-.78-3.78-1.26-5.64-.88-3.49-1.89-6.61-3.08-9.52-1.35-3.28-3.02-6.35-4.47-8.91-3.48-5.95-7.55-11.23-12.14-15.65-4.76-4.65-10.15-8.5-15.99-11.44-2.7-1.41-5.76-2.64-9.17-3.67-2.85-.68-6.21-1.42-9.67-1.56-1.56-.14-3.2-.16-5.01-.07-1.4.05-2.91.18-4.8.4-2.94.52-6.35,1.19-9.45,2.54-6.69,2.54-11.94,7.47-14.46,13.59-.14.47-.29.93-.44,1.41-.37,1.14-.77,2.33-.83,3.56l-.33,2.64v2.48c.14,3.3.73,6.58,1.79,10.04,2.09,6.73,5.61,12.78,8.73,17.89.88,1.42,1.75,2.85,2.64,4.27,2.48,3.99,5.06,8.11,7.18,12.35l.78,3.27c.11.73.15,1.45.21,2.19.04.44.07.89.1,1.23,0,.74-.07,1.49-.12,2.22-.04.42-.07.86-.08,1.19l-.7,3.41-1.14,3.32-1.42,3.26-1.64,3.16-5.57,9.34-1.85,3.19-1.74,3.28-1.57,3.42-1.3,3.58-.93,3.73-.41,3.63v.15h0l-.03.29c-.08,1.07-.16,2.19-.11,3.2.07,1.26.21,2.42.44,3.58.48,2.37,1.29,4.62,2.38,6.69,1.08,2.05,2.46,3.99,4.15,5.76l4.67,4.67c7.17,7.47,12.2,14.02,15.84,20.62,1.09,1.97,2.02,3.91,2.8,5.84.89,2.08,1.5,4.23,1.98,6.05.56,2.46.86,4.46.96,6.28.11,2.48.01,4.47-.29,6.31-.27,1.94-.79,3.98-1.56,6.06-.7,1.87-1.6,3.78-2.74,5.66-.92,1.56-2.04,3.15-3.6,5.16l-2.09,2.39-2.28,2.31c-.1.1-.16.21-.25.31-2.65,4.54-4.43,8.17-5.72,11.75-1.64,4.49-2.45,8.92-2.42,13.2,0,2.26.25,4.53.68,6.73.07.38.15.77.26,1.15l.9,3.11c.22.74.44,1.45.7,2.19,1.61,4.17,3.82,8.11,6.55,11.7,2.65,3.3,5.9,6.35,9.6,9.04,3.16,2.26,6.88,4.31,11.38,6.28,7.22,3.04,15.31,5.09,24.72,6.27,3.64.51,6.96.81,10.1.92v26.05l-.3,17.64,3.39.51-.36-18.07c.07-3.32.12-6.98.18-10.97l.16-10.36c.03-1.45.05-3.06.07-4.75.79,0,1.59,0,2.37-.04,3.45-.16,6.74-.6,9.8-1.33,4.36-1.03,8.37-2.68,11.9-4.91,3.65-2.23,6.9-5.36,9.37-9.06,2.39-3.63,4.09-7.85,4.88-12.23.75-4.05.93-8.46.56-13.13-.31-4.04-1.09-8.25-2.41-12.89-1.22-4.23-2.76-8.32-4.6-12.14-1.37-5.17-2.04-9.47-2.12-13.43.18-2.09.33-4.17.45-6.27.25-3.63.51-7.37.99-11.03.85-6.55,2.45-11.82,4.98-16.27.81-2.19,1.61-4.36,2.42-6.54,1.46-3.91,2.91-7.84,4.31-11.79,1.75-5.14,3.84-11.98,4.39-19.25.49-7.24-.82-14-3.79-19.5l.03.03Zm-63.14-89.11c.05-.33.11-.67.16-1,.19-.99.31-1.97.38-2.93l.05-.75c.07-.74.14-1.46.14-2.19v-2.87c0-.71-.1-1.41-.18-2.08-.04-.3-.07-.57-.11-.99-.08-.75-.19-1.53-.36-2.3,1.67,1.33,3.31,2.7,4.86,4.19,4.42,4.27,8.36,9.34,11.75,15.08,1.96,3.43,3.3,6.09,4.35,8.61,1.16,2.79,2.16,5.77,3.02,9.15.48,1.82.88,3.69,1.26,5.51.29,1.34.57,2.7.9,4.08.45,1.76.93,3.43,1.44,5.01-.07.1-.11.18-.12.27,0,.01-.3,1.63-1.2,4.24-.47,1.34-1.05,2.98-1.78,4.84-.62,1.57-1.37,3.3-2.16,5.16l-.44,1c-1.07,2.44-2.18,4.83-3.32,7.14l-.38.75c-1.15,2.28-2.35,4.64-3.71,7.02-1.68,3.06-3.28,5.62-4.93,7.81-.77,1.01-1.79,2.33-2.98,3.41-.66.57-1.18.94-1.61,1.18l-.31.15c-.14.05-.34.16-.45.18-.03,0-.11.03-.19.05l-4.84-21.6c-.79-3.15-1.64-6.21-2.48-9.23-.41-1.49-.82-2.96-1.23-4.45l-1.81-6.57c-.4-1.4-.85-2.76-1.31-4.12-.25-.74-.49-1.45-.71-2.19l-2.23-6.72c.93-1.34,1.83-2.75,2.72-4.31.99-1.66,1.89-3.38,2.71-5.08.78-1.66,1.6-3.43,2.26-5.29.63-1.63,1.22-3.42,1.82-5.54l.66-2.78c.15-.63.25-1.26.37-1.87v.03Zm-28.33-26.72c3.23.12,6.44.79,9.13,1.42,3.24.97,6.1,2.11,8.74,3.48,2.93,1.46,5.72,3.16,8.37,5.08l.18,1.5c.14.83.14,1.7.15,2.68,0,.38,0,.75.03,1.14.03.56.05,1.09,0,1.63l-.19,2.79c-.03.52-.11,1.07-.21,1.59-.05.38-.11.77-.16,1.15-.1.85-.25,1.74-.47,2.67-.08.33-.15.66-.22.99-.11.56-.23,1.14-.4,1.68l-.74,2.64-.89,2.67c-.21.67-.47,1.34-.73,1.98l-.22.59c-.33.86-.68,1.7-1.04,2.54l-.25.6c-.27.64-.55,1.29-.85,1.93-1.25,2.68-2.46,5.02-3.69,7.11l-.47-1.41-1.48-3.8c-2.33-5.98-4.51-11.62-6.91-16.47l-1.42-3.11-2.63-5.12c-.41-.75-.81-1.48-1.18-2.2-.88-1.66-1.7-3.23-2.61-4.61-.44-.7-.86-1.38-1.27-2.04-.71-1.18-1.4-2.3-2.09-3.27l-1.09-1.55c-.59-.83-1.12-1.57-1.61-2.23l-1.52-1.85c3.2-.31,5.46-.36,7.76-.16l-.03-.04Zm-30.78,33.09c-.99-3.15-1.55-6.25-1.68-9.22l-.03-2.35.31-2.38c.04-1,.36-1.96.68-2.96.16-.48.31-.99.41-1.37,2.19-5.35,6.9-9.74,12.94-12.07,2.54-1.14,5.25-1.72,7.85-2.22l2.41,2.85c.47.63.97,1.35,1.53,2.18l1.08,1.55c.64.92,1.3,2,1.98,3.16.4.67.81,1.35,1.26,2.08.86,1.31,1.64,2.83,2.49,4.45.37.74.75,1.49,1.16,2.24l1.98,3.83,1.94,4.32c2.31,4.8,4.42,10.4,6.66,16.32l1.44,3.78.78,2.42h-1.35c-.63.03-1.26-.03-1.89-.08-.37-.04-.75-.07-1.11-.08-1.03-.05-2.04-.21-3-.36-.33-.04-.67-.1-1.01-.15-.66-.08-1.33-.16-2-.34l-3.01-.6-3.02-.75c-.82-.19-1.63-.42-2.44-.66l-1.35-.4c-.71-.19-1.41-.41-2.13-.66-2.16-.68-4.08-1.33-5.87-2-1.96-.71-3.9-1.42-5.81-2.2-3.61-1.46-6.81-2.87-9.75-4.3-.56-1.34-1.05-2.7-1.49-4.06l.03.03Zm11.12,21.44c-.89-1.42-1.78-2.83-2.64-4.24-2.33-3.78-4.27-7.24-5.87-10.67,2.42,1.22,5.02,2.44,7.89,3.72,4.67,2.04,8.29,3.46,11.7,4.61.73.27,1.46.51,2.2.74l1.37.44c.82.26,1.64.52,2.48.73l3.05.85,3.05.68c.71.18,1.42.29,2.15.41.34.05.67.11,1,.16,1,.19,2.07.36,3.19.44.36.03.73.07,1.08.11.7.07,1.41.15,2.09.16l2.37.04,2.07,6.39c.22.74.47,1.48.71,2.22.44,1.33.86,2.67,1.25,4.02l1.74,6.55c.44,1.66.89,3.32,1.33,5.01.77,2.83,1.53,5.71,2.26,8.61l4.46,20.62c-2.09-.4-4.28-1.03-6.44-1.87-.93-.31-1.86-.74-2.76-1.14-.52-.23-1.03-.47-1.52-.66l-4.13-2.05c-2.38-1.26-4.87-2.67-7.62-4.32-2.09-1.27-4.28-2.65-6.65-4.2-5.87-3.9-10.21-7.1-12.18-8.58l.19-.52.08-.38c.23-1.11.47-2.22.68-3.41.03-.42.05-.83.08-1.25.05-.86.14-1.71.14-2.65-.03-.41-.07-.85-.1-1.27-.07-.86-.12-1.71-.26-2.63l-.92-3.76s-.07-.16-.08-.21c-2.23-4.42-4.88-8.63-7.43-12.71h0Zm-9.23,73.95c-.19-.94-.33-1.97-.4-3.05-.04-.83,0-1.6.05-2.39l.44-4.19.82-3.38,1.19-3.32,1.46-3.22,1.67-3.16,5.54-9.39,1.82-3.2,1.71-3.3c.33-.74.66-1.48.99-2.23l.52-1.22c.16-.48.33-.96.49-1.44,2.08,1.68,6.17,4.87,11.57,8.69,2.33,1.61,4.49,3.06,6.62,4.45,2.3,1.49,4.87,3.01,7.66,4.58l4.19,2.19c.52.23,1.01.47,1.5.71.93.44,1.92.9,2.9,1.29,2.85,1.16,5.42,1.93,7.98,2.37.18.97.36,1.94.52,2.91.15.9.31,1.79.45,2.68l2.63,15.42c.68,3.6,1.16,7.35,1.61,10.97.19,1.56.38,3.12.6,4.67l2.05,16.03-1.09-.19c-1.01-.21-2.01-.47-3.02-.74-.56-.15-1.14-.3-1.71-.45-1.14-.26-2.3-.64-3.41-1.01l-1.23-.4c-1.72-.55-3.16-1.03-4.61-1.61l-1.64-.63c-.99-.37-1.98-.74-2.96-1.15l-4.56-1.93c-.99-.41-1.93-.86-2.9-1.31-.53-.25-1.07-.49-1.59-.74-1.49-.68-2.98-1.38-4.46-2.13-3.04-1.48-6.03-3.04-8.82-4.51-3.11-1.68-5.9-3.2-8.69-4.83-5.68-3.26-10.64-6.27-15.17-9.21-.29-.85-.55-1.72-.74-2.61h0Zm26.84,36.71c-.96-1.75-2.05-3.53-3.58-5.8-1.23-1.83-2.59-3.65-4.01-5.45-2.61-3.31-5.53-6.59-8.89-10.04l-4.68-4.64c-1.46-1.52-2.67-3.2-3.61-4.99-.07-.12-.11-.23-.16-.36,3.94,2.6,8.22,5.29,13,8.17,2.74,1.66,5.42,3.19,8.65,5.02,2.86,1.57,5.81,3.2,8.8,4.72,1.49.79,2.98,1.52,4.49,2.24.52.25,1.04.51,1.57.77.97.48,1.94.94,2.94,1.38l4.56,2.02c.99.42,2,.82,3.01,1.22l1.61.64c1.52.63,3.04,1.16,4.73,1.72l1.23.42c1.15.4,2.34.81,3.56,1.11.56.15,1.12.3,1.68.47,1.05.3,2.09.6,3.19.82l2.04.41.08.64,3.15,35.52.92,16.46c-.36-.11-.71-.22-1.07-.36l-1.09-.37c-.62-.19-1.22-.45-1.83-.71-.34-.15-.7-.29-1.04-.42-.83-.33-1.74-.74-2.83-1.27-.33-.15-.67-.33-1-.48-.62-.29-1.23-.57-1.82-.9l-2.79-1.46-1.35-.78c-1.4-.78-2.78-1.56-4.15-2.39-3.49-2.08-6.98-4.32-10.7-6.9-3.49-2.39-6.55-4.62-9.36-6.77.25-1.03.45-2.04.59-3.02.36-2.04.45-4.25.34-6.99-.1-2.02-.42-4.23-1.05-6.94-.49-1.85-1.16-4.25-2.16-6.55-.82-2.02-1.81-4.1-2.97-6.18l.03.03Zm46.71,113.66c.07,1.38.1,2.72.12,4.04-3.02-.14-6.22-.45-9.73-.99-4.75-.67-8.63-1.41-12.23-2.34-4.69-1.25-8.41-2.52-11.74-3.97-4.35-1.96-7.77-3.89-10.75-6.07-3.46-2.56-6.44-5.43-8.88-8.5-2.46-3.28-4.46-6.91-5.9-10.75-.21-.59-.38-1.2-.57-1.83-.11-.41-.25-.82-.38-1.23l-.44-1.44-.12-.52c-.07-.27-.11-.55-.16-.82,1.25.9,2.59,1.79,4.01,2.75,2.6,1.72,5.2,3.37,7.73,4.86,1.31.79,2.63,1.55,3.97,2.28l1.18.66c.93.52,1.89,1.04,2.83,1.52l4.09,2.07,4.13,1.89c.9.41,1.85.79,2.78,1.16.48.19.97.37,1.48.59l2.13.86,2.16.73c.51.16,1.01.34,1.5.52.94.31,1.89.64,2.85.9l4.39,1.16c.97.25,1.96.42,2.94.6.52.1,1.03.19,1.56.3l.78.14c.51.11,1,.19,1.52.26l2.28.21c.51.04,1,.1,1.5.15.94.1,1.92.22,2.91.16h.18l1.53-.04.33,10.67v.03Zm-.42-13.86l-1.53.07c-.92.1-1.81,0-2.78-.07-.52-.05-1.04-.1-1.53-.12l-2.19-.15c-.47-.05-.92-.14-1.38-.21l-.77-.12c-.52-.11-1.05-.19-1.57-.27-.93-.15-1.86-.3-2.76-.51l-4.34-1.08c-.92-.22-1.82-.52-2.71-.81-.52-.18-1.03-.36-1.53-.49l-2.11-.67-2.09-.79c-.51-.19-1-.38-1.5-.57-.89-.33-1.78-.67-2.67-1.05l-4.12-1.78-4.09-1.96c-.94-.42-1.85-.92-2.78-1.38l-1.23-.66c-1.33-.67-2.64-1.4-3.95-2.15-2.53-1.4-5.14-2.96-7.76-4.61-1.94-1.22-3.69-2.38-5.34-3.52-.16-1.31-.3-2.61-.3-3.9-.03-3.86.71-7.89,2.22-12,1.2-3.35,2.86-6.74,5.35-11.03l2.19-2.23,2.22-2.53c1.15-1.45,2.63-3.39,3.9-5.58,1.23-2.05,2.23-4.15,2.98-6.21.25-.66.45-1.33.67-1.97,2.64,2.11,5.5,4.3,8.74,6.68,3.69,2.68,7.16,5.05,10.63,7.24,1.48.96,3.01,1.87,4.5,2.75l3.82,2.15c.62.37,1.27.7,1.9,1,.33.16.64.31.97.48,1.12.59,2.07,1.04,2.96,1.41.34.14.68.3,1.01.45.66.3,1.3.59,1.98.82l1.09.38c.64.25,1.3.49,2,.7l.1.03,1.03,18.2.79,26.1v-.03Zm-3.05-102.77l-2.27-16.73c-.22-1.52-.42-3.06-.62-4.6-.49-3.68-.99-7.48-1.71-11.16l-2.74-15.42c-.15-.88-.31-1.76-.47-2.64-.14-.74-.27-1.48-.41-2.22.6-.12,1.25-.33,1.71-.57.92-.47,1.67-1.04,2.3-1.56,1.41-1.22,2.57-2.59,3.52-3.75,2.26-2.87,4.04-5.84,5.35-8.13,1.7-3.11,2.98-5.66,4.04-8.04,1.08-2.42,2.13-4.93,3.11-7.46.93-2.35,1.66-4.57,2.26-6.44.59-1.86,1.07-3.58,1.42-5.09.19-.75.33-1.44.44-2.02.16.45.33.89.51,1.33,2.31,5.92,5.38,11.83,9.08,17.58,3.22,4.98,6.87,10.03,11.56,15.9l.82,1.01-.56,4.71c-.07,1.11-.34,2.18-.63,3.31-.11.4-.21.79-.29,1.19l-.25,1.09c-.27,1.18-.53,2.28-.97,3.37l-.55,1.6c-.33.93-.64,1.87-1,2.76l-1.96,4.3c-.36.89-.82,1.71-1.33,2.59-.27.49-.56.99-.79,1.45l-1.11,2-1.25,1.96c-.31.45-.63.93-.92,1.41-.52.82-1.05,1.64-1.66,2.44l-2.72,3.72-2.93,3.61c-.57.71-1.19,1.41-1.79,2.09-.42.45-.82.93-1.25,1.4-.75.89-1.55,1.74-2.35,2.57l-.77.79c-2.04,2.13-4.19,4.23-6.62,6.43-1.68,1.52-3.9,3.45-6.2,5.21l-.03.03Zm41.48,70.29c1.25,4.51,1.97,8.62,2.23,12.52.31,4.49.1,8.71-.64,12.56-.78,4.08-2.39,8.02-4.65,11.37-2.31,3.38-5.35,6.27-8.76,8.3-3.35,2.07-7.14,3.57-11.26,4.51-2.75.63-5.71,1-8.78,1.15h0c-.92.04-1.86.04-2.82.04,0-1.35-.01-2.75-.05-4.17l-.16-10.7s.07,0,.12-.01c.14-.04.31-.1.34-.11.16-.07.3-.12.52-.23.29-.15.55-.3.81-.45.49-.3.99-.6,1.45-.93.94-.62,1.83-1.27,2.74-1.94,1.7-1.29,3.41-2.64,5.23-4.17,3.75-3.24,6.91-6.28,9.63-9.26,3.69-4.02,6.25-7.29,8.32-10.62.99-1.6,2.24-3.75,3.13-6.13.82-2.19,1.23-4.15,1.27-5.96.48,1.38.93,2.82,1.33,4.24h.01Zm-5.12-43.6c-.48,3.71-.74,7.48-.96,11.12-.14,2.09-.27,4.17-.47,6.31.04,4.24.7,8.7,2.15,14.23.9,1.93,1.72,3.93,2.48,5.99-.07-.03-.15-.05-.23-.05-.36.01-.74.4-.77.78-.07,1.85-.62,3.82-1.67,6.03-.93,1.9-2.04,3.76-3.3,5.53-2.34,3.26-5.12,6.48-8.43,9.86-3.2,3.22-6.42,6.2-9.56,8.85-1.79,1.55-3.43,2.9-5.01,4.12-.85.67-1.7,1.33-2.59,1.93-.42.31-.85.6-1.27.86l-.21.12-.21-13.46c-.07-4.01-.12-8.14-.3-12.34l-.99-17.28c1.52-.16,2.63-.89,3.61-1.56l.26-.18c1.15-.82,2.16-1.76,3.15-2.68,2.11-2.02,4.02-4.21,5.46-5.9,3.32-3.94,6.57-8.21,9.66-12.68,3.19-4.61,6.14-9.36,8.61-13.42.6-1.03,1.23-2.09,1.87-3.2-.56,2.18-.99,4.51-1.3,7.03h0Zm15.94-53.74c-.52,7.05-2.54,13.75-4.24,18.78-1.38,3.94-2.83,7.85-4.28,11.75-.53,1.44-1.04,2.85-1.56,4.27-.1.05-.19.14-.23.21-2.71,4.39-5.6,8.85-8.59,13.28-3.01,4.57-6.29,9.23-8.93,12.97l-.25.34c-2.93,4.08-5.96,8.3-9.13,12.24-1.34,1.66-3.13,3.82-5.09,5.8-.96.94-1.85,1.79-2.78,2.49-.96.73-1.75,1.15-2.34,1.29l-1.01-17.64-3.43-35.39c.14-.04.27-.11.41-.21,2.71-1.93,5.17-3.97,7.43-5.91,2.78-2.45,4.98-4.49,6.91-6.47l.77-.79c.85-.88,1.71-1.74,2.5-2.67.31-.36.64-.73.99-1.08.73-.79,1.46-1.63,2.15-2.49l2.98-3.73,2.75-3.86c.62-.85,1.16-1.78,1.7-2.65.29-.47.56-.94.88-1.41l1.25-2.08,1.11-2.13c.25-.51.51-1,.77-1.48.49-.92.99-1.86,1.37-2.85l1.82-4.49c.34-.99.63-2,.93-3.01l.47-1.56c.47-1.34.7-2.72.94-4.09l.14-.71c.05-.4.14-.79.21-1.19.21-1.18.42-2.39.42-3.63l.15-3.01,3.8,4.71c.7.83,1.35,1.7,2.01,2.56l.93,1.19c.23.37.48.74.73,1.11.64,1,1.26,1.96,1.76,3.02,2.85,5.19,4.1,11.59,3.64,18.5h-.03Z"/>
      <path class="cls-83" d="m1321.53,1501.19c22.86-9.77,41.6-8.32,53.7-6.59-5.39-7.32-10.58-14-15.39-20-24.6,4.21-41.78-3.35-52.11-3.28,19.67-5.96,36.64-4.58,47.56-2.33-4.9-5.95-9.29-11.08-13-15.3-19.11-7.33-23.53-23.38-29.78-28.35,25.56,6.14,32.81,26.65,33.66,29.37,4.35,4.58,8.58,9.14,12.64,13.68,1.71-9.65,6.28-24.61,18.55-39.07-3.58,8.29-3.31,24.79-15.01,43.04,5.76,6.57,11.23,13.08,16.42,19.54,3.06-10.9,8.71-28.69,27.4-44.56-5.65,9.06-8.03,28.69-24.85,47.79,6.12,7.74,11.83,15.42,17.14,23,3.98-13.31,11.29-35.06,34.44-54.81-7.13,11.16-10.47,35.19-31.63,58.9,6.1,8.91,11.68,17.68,16.76,26.3,4.75-15.45,13.48-40.25,40.02-62.91-8.3,12.94-12.38,40.66-36.97,68.16,5.79,10.14,10.88,20.04,15.36,29.69.04-.85-.08-1.64-.81-2.27,7.47-15.09,20.64-40.46,53.34-59.62-11,12.04-20.07,40.74-51.18,64.84,5.61,12.31,10.23,24.15,14.04,35.45,9.37-15.62,25.69-41.13,61.2-63.07-12.66,12.9-24.8,41.58-59.43,68.49,4.49,14.15,7.7,27.43,9.93,39.63,9.81-12.98,26.62-33.81,59.55-51.29-12.34,10.56-25.79,34.34-58.69,56.22,2.22,13.31,3.27,25.28,3.64,35.67,9.29-9.59,24.72-24.27,51.63-37.46-10.77,7.84-23.75,24.75-51.4,41.34.08.23.14.48.15.77h-.26c.25,13.64-.68,24.2-1.57,31.1-.29-.04-.59-.1-.88-.12.51-10.43.36-20.75-.36-30.99-24.12-.33-40.62-14.63-50.85-16.84,22.85-4.8,39.92,4.54,50.39,11.01-1.01-11.29-2.68-22.45-4.94-33.41-36,1.7-59.54-11.9-74.53-13.48,34.19-6.31,58.72,2.38,73.4,8.15-2.86-12.93-6.48-25.58-10.69-37.87-35.76,4.47-60.4-7.14-75.53-7.48,33.14-8.99,58.19-2.75,73.55,1.82-4.19-11.66-8.85-22.96-13.86-33.89-35.6,8.28-61.52-1.03-76.74.11,32.77-12.42,58.72-8.24,74.37-5.16-4.69-9.88-9.63-19.41-14.72-28.55-32.9,8.58-57.5.99-71.79,2.64,29.28-12.49,53.27-10.51,68.6-8.29-5.2-9.06-10.51-17.73-15.8-25.91-28.77,7.87-50.29,1.19-62.7,2.63,25.86-11.03,46.89-8.87,59.91-6.9-5.06-7.69-10.1-14.93-14.98-21.67-26.09,6.88-45.61.88-56.91,2.2v-.05Z"/>
      <path class="cls-71" d="m1624.47,1631.65c1.3-4.08,2.93-9.47,3.9-15.1.9-4.62,1.51-9.71,1.79-15.51.19-5.19.07-10.41-.04-15.46l-.42-17.35c-.07-4.36-.14-8.88.11-13.27.3-5.62,1.01-10.49,2.2-14.86,1.15-4.34,3.06-8.84,5.84-13.76,2.35-4.24,5.36-8.18,8.29-12l.21-.03-.08-.15c.07-.08.15-.18.22-.27.25-.33.36-.71.3-1.08-.05-.38-.25-.71-.55-.94-.31-.25-.71-.34-1.09-.29-.11.01-.21.03-.33.04l-.08-.15-.16.19c-11.18,1.75-21.84,4.05-31.7,6.84-5.62,1.59-10.77,3.24-15.72,5.06-4.79,1.72-9.54,3.8-14.11,5.83l-1.15.51-7.42,3.65c-1.59.85-3.15,1.74-4.69,2.63-.83.47-1.67.96-2.52,1.42-5.34,3.2-9.84,6.18-13.78,9.18-4.43,3.31-8.69,6.9-12.63,10.7-3.72,3.56-7.37,7.54-11.16,12.22-1.27,1.6-2.48,3.27-3.64,4.88l-1.27,1.76c-.52.86-1.05,1.68-1.59,2.49-.96,1.48-1.94,3-2.8,4.58-.36.63-.7,1.27-1.05,1.92-.97,1.75-1.98,3.56-2.79,5.45l-1.75,3.71-1.52,3.89c-.77,1.74-1.34,3.6-1.92,5.38-.25.82-.51,1.63-.78,2.44l-.3,1.09c-.62,2.26-1.26,4.6-1.72,6.95-1.05,4.88-1.71,10.26-2.01,16.4-.12,6.47.16,11.71.92,16.53.9,5.76,2.3,11.14,4.13,16.02,2.11,5.42,4.73,10.33,7.81,14.6,2.46,3.41,5.2,6.35,8.17,8.87-.67,3.06-1.31,6.17-1.93,9.43-.71,3.17-1.15,6.4-1.59,9.54-.19,1.46-.4,2.91-.63,4.36-.71,4.23-1.05,8.43-1.4,12.5l-.63,7.37c-.1,1.4-.14,2.78-.18,4.15-.03.73-.05,1.45-.08,2.16-.04,1.45-.1,2.87-.14,4.28,1.34-.16,2.68-.33,4.04-.48.05-1.2.12-2.39.18-3.63.04-.73.07-1.45.1-2.19.07-1.3.12-2.64.23-3.97l.93-9.34c.33-3.34.66-6.77,1.23-10.22.22-1.45.42-2.91.63-4.39.41-3.05.85-6.21,1.55-9.3.44-2.46.93-4.93,1.45-7.37,4.27,2.9,9.19,4.9,14.23,5.79.57.1,1.15.19,1.72.26,4.42.59,9.08.44,13.83-.48,9.58-1.86,19.25-6.4,27.99-13.15,15.77-12.07,28.32-29.93,35.34-50.28v-.03Zm-30.44,43.08c-.38-.41-.73-.86-1.08-1.34-.29-.41-.57-.79-.88-1.18-.88-1.14-1.71-2.13-2.54-3.08-1.81-2.05-3.78-3.93-5.84-5.55-2.13-1.7-4.42-3.16-6.81-4.39-1.31-.7-2.65-1.26-3.68-1.68-1.48-.56-2.7-.96-3.89-1.29-5.03-1.4-10.55-1.89-16.1-1.45-1.2.05-2.41.22-3.58.38l-.44.05c-.85.1-1.71.26-2.54.42-.48.1-.96.18-1.44.26-.88.16-1.72.38-2.57.59-.47.1-.92.22-1.37.33l-1.19.34c.03-.1.07-.21.11-.31.3-.85.6-1.7.89-2.54l2.49-7.11,2.8-6.99c1.03-2.59,2.15-5.2,3.34-7.91l4.01-1.64c.31-.14.64-.27.97-.41,1.14-.47,2.19-.9,3.34-1.16l4.53-1.26c.93-.29,1.87-.41,2.89-.56.56-.08,1.11-.16,1.66-.26.33-.05.67-.12,1.03-.16,1.2-.19,2.35-.38,3.52-.38l4.71-.22,4.62.26c1.03.01,2.26.19,3.52.4.37.05.73.12,1.09.16,1.53.23,3.08.45,4.53.89.56.15,1.12.27,1.68.41.94.22,1.92.44,2.83.77.53.19,1.07.36,1.6.53.94.31,1.92.62,2.86.97l4.34,1.81c.48.23.99.48,1.49.73.9.44,1.81.88,2.7,1.34.47.27.96.56,1.46.82.86.47,1.75.96,2.6,1.5,2.05,1.25,3.97,2.61,5.81,4.04-.57,1.29-1.15,2.56-1.78,3.8-2.33,4.76-4.87,9.18-7.58,13.15-2.67,4.08-5.8,8.1-9.3,11.98-1.49,1.68-3.09,3.34-4.79,4.95h0Zm-62.39,13.39c1.42-6.59,3.05-13.16,4.91-19.58l2.12-7.17c.07-.23.15-.47.23-.73l3.15-1.01c.42-.11.89-.23,1.35-.36.79-.22,1.59-.45,2.39-.62.42-.08.86-.19,1.3-.27.81-.18,1.66-.36,2.48-.47l.48-.07c1.11-.18,2.24-.36,3.37-.44,5.31-.55,10.51-.21,15.32,1.03,1.09.26,2.26.62,3.68,1.11,1.15.42,2.39.92,3.56,1.48,2.31,1.09,4.53,2.44,6.62,3.99,2.02,1.49,3.98,3.23,5.79,5.17.86.89,1.68,1.86,2.59,2.94.33.37.6.73.88,1.09.37.48.78.96,1.22,1.41-1.68,1.57-3.45,3.09-5.29,4.57-4.19,3.34-8.47,6.12-12.71,8.24-4.87,2.44-9.65,4.15-14.23,5.06-5.19,1.05-10.21,1.18-15.01.36-4.91-.81-9.74-2.74-13.93-5.51-.08-.07-.16-.12-.26-.19v-.04Zm-23.44-59.08c.29.9.6,1.81.97,2.68.79,2,1.61,3.73,2.52,5.29.71,1.45,1.6,2.82,2.46,4.15l.57.88c.3.42.59.81.89,1.18.88,1.16,1.78,2.38,2.79,3.5.66.77,1.29,1.49,1.97,2.19l.57.6c.48.49.99,1.01,1.53,1.49,1.35,1.25,2.83,2.5,4.5,3.79,1.87,1.37,3.43,2.41,4.94,3.28,1.01.62,1.97,1.14,2.93,1.61-.04.16-.1.31-.15.47l-2.2,7.18c-1.72,5.65-3.24,11.56-4.64,17.79-6.28-5.54-11.41-13.2-14.98-22.49-1.76-4.8-3.11-10.08-3.98-15.75-.73-4.8-.99-10.12-.83-16.24.03-.55.08-1.05.12-1.6h.01Zm12.7-32.04l1.05,3.28c.23.73.53,1.44.83,2.12.16.37.33.74.47,1.11.51,1.26,1,2.28,1.53,3.2.18.34.37.7.55,1.07.36.67.71,1.34,1.11,2l1.85,2.93c.41.66.86,1.26,1.3,1.87.23.33.47.64.7.99.63.9,1.34,1.76,2.04,2.59l.12.16c1.59,1.97,3.32,3.8,4.67,5.16,1.66,1.68,3.39,3.27,5.14,4.71.67.57,1.38,1.12,2.09,1.68l1.03.75.44.31.22.15c-1.18,2.61-2.28,5.13-3.28,7.61l-2.9,7.03-2.6,7.2c-.3.86-.62,1.71-.93,2.56-.15.38-.29.79-.42,1.18-.73-.4-1.49-.86-2.28-1.35-1.66-1.01-3.26-2.19-4.61-3.17-1.57-1.19-2.98-2.35-4.32-3.56-.41-.37-.78-.73-1.18-1.09-.29-.29-.59-.57-.89-.85-.67-.59-1.29-1.27-1.89-1.9-1.07-1.07-1.97-2.18-2.85-3.24-.3-.37-.6-.74-.9-1.09l-1.64-2.27c-.52-.67-.97-1.37-1.44-2.09l-.12-.22c-.18-.29-.37-.59-.55-.88-.33-.49-.66-1-.94-1.53l-1.35-2.5c-.56-.99-1-1.97-1.46-3.04-.3-.71-.63-1.44-.97-2.13v-.03c.38-4.02.96-7.7,1.72-11.14.48-2.3,1.12-4.6,1.76-6.83l.29-1.05c.27-.79.55-1.61.81-2.44.57-1.72,1.16-3.52,1.9-5.2l1.56-3.8,1.75-3.65c.36-.78.74-1.55,1.15-2.31l.08.88c.07,1.2.31,2.38.56,3.48.07.31.14.67.21.99.15.79.31,1.61.59,2.41h.03Zm24.78-36.24c-.03,2,.1,4.1.42,6.39.48,3.91,1.56,7.96,3.3,12.35,1.4,3.6,3.32,7.31,5.91,11.34,1.15,1.72,2.41,3.45,3.73,5.17.66.83,1.33,1.67,2.01,2.48l1.34,1.61c-2.31,3.84-4.49,7.62-6.48,11.14-3.31,6.21-6.1,11.75-8.52,16.91l-1.05-.81c-.67-.53-1.33-1.08-1.97-1.64-1.53-1.3-3.08-2.75-4.88-4.57-1.29-1.3-2.97-3.02-4.51-4.9l-.64-.77c-.51-.57-1.01-1.18-1.48-1.81-.25-.33-.49-.64-.75-.96-.44-.56-.88-1.12-1.27-1.7l-1.89-2.78c-.4-.59-.75-1.22-1.11-1.85-.19-.34-.4-.68-.6-1.03-.59-.96-1.09-1.96-1.56-2.91-.18-.36-.37-.71-.55-1.09-.34-.64-.64-1.25-.89-1.9l-1.25-3.13c-.23-.6-.41-1.22-.6-1.87-.12-.44-.26-.88-.4-1.31-.33-1-.64-2.08-.81-3.19l-.56-2.79c.16-.27.31-.56.47-.82.36-.64.73-1.27,1.08-1.92.85-1.5,1.83-2.98,2.78-4.43.53-.81,1.07-1.61,1.59-2.45.51-.67,1.03-1.37,1.53-2.09,1.08-1.45,2.19-2.97,3.32-4.39,3.75-4.58,7.36-8.5,11.03-11.94,1.16-1.11,2.39-2.15,3.61-3.22-.08.56-.18,1.14-.21,1.72-.1,1.04-.15,2.12-.16,3.16h.03Zm42.37-15.95c.18,4.93.96,10.11,2.44,16.49-.82.97-1.67,1.93-2.49,2.94-2.09,2.46-4.08,5.01-6.18,7.69l-2.22,2.83c-.88,1.22-1.75,2.39-2.63,3.58-1.86,2.52-3.82,5.13-5.61,7.88-2.53,3.58-4.94,7.33-7.25,11.05l-2.5-3.22c-1.26-1.7-2.44-3.38-3.49-5.02-2.26-3.43-4.24-7.03-5.9-10.7-.89-2.01-1.6-3.86-2.16-5.68-.57-1.85-1.16-3.83-1.57-5.88-.79-3.83-1.12-7.94-.96-12.2v-.03c2.39-2.04,4.84-4.04,7.37-5.91,3.89-2.9,8.33-5.84,13.6-8.95.85-.47,1.7-.96,2.56-1.44,1.52-.85,3.04-1.7,4.57-2.52l8.51-4.09c2.01-.86,4.08-1.75,6.13-2.61l-.68,1.66c-.18.53-.31,1.04-.44,1.56-.07.26-.14.52-.21.77-.16.55-.25,1.08-.31,1.61-.04.25-.08.48-.14.73-.16.94-.27,1.7-.29,2.41-.01.26-.04.53-.05.79-.04.52-.1,1.04-.1,1.56-.03,1.27-.07,2.98,0,4.69h0Zm52.58-29.63c-1.97,1.35-4.87,3.42-8.54,6.24-3.8,2.93-7.99,6.38-12.4,10.23-4.19,3.63-9,8.17-15.16,14.3-3.75,3.87-7.65,8.03-11.6,12.5-.25-1.5-.49-3.06-.71-4.8-.15-1.03-.26-2.07-.38-3.09l-.15-1.42c-.21-1.76-.34-3.19-.42-4.49-.29-2.8-.34-5.73-.19-8.97.03-.23.03-.49.04-.75,0-.49.03-.99.12-1.44.04-.29.08-.55.11-.83.07-.47.14-.92.22-1.38l.52-2.19.36-.93c1.86-.75,3.73-1.48,5.6-2.15,4.91-1.78,10-3.39,15.57-4.94,8.58-2.37,17.65-4.34,27.01-5.88h.01Zm-13.87,38.03c-2.28-.15-4.72-.14-7.4.04-3.48.25-6.62.7-9.62,1.38-.75.14-1.51.36-2.27.56-.37.1-.63.18-.92.23-.52.15-1.04.27-1.53.45l-2.3.74c-.51.16-1,.36-1.51.56-.26.1-.52.21-.78.29-.29.12-.53.22-.79.3-.51.19-1.01.4-1.49.62l-1.68.78c3.46-3.95,6.9-7.68,10.19-11.18,5.99-6.09,10.7-10.64,14.83-14.3,4.32-3.87,8.4-7.31,12.16-10.26,1.83-1.45,3.46-2.68,4.9-3.75-1.14,1.66-2.26,3.38-3.26,5.17-2.96,5.12-4.99,9.84-6.22,14.42-1.27,4.61-1.96,9.22-2.31,13.95h0Zm.21,44.45c-1.66-.96-3.49-1.87-5.65-2.82-1.18-.48-2.56-1.05-3.98-1.56-.51-.16-.97-.31-1.44-.48-.86-.29-1.75-.59-2.65-.82-.49-.11-.97-.25-1.45-.37-.88-.23-1.79-.48-2.71-.64-.49-.08-.99-.18-1.46-.27-.92-.16-1.82-.34-2.74-.48l-4.25-.44c-.94-.07-1.89-.08-2.8-.08-.49-.01-1-.03-1.51-.03-1.22-.07-2.46.03-3.65.12l-.66.04c-.45.05-.88.08-1.31.1-.99.05-2,.14-3,.36l-4.2.7c-.93.18-1.85.44-2.72.68-.48.14-.96.27-1.44.4l-.79.21c-1.12.3-2.27.62-3.37,1.08l-3.98,1.52c-.68.22-1.33.52-1.96.86,1.61-2.57,3.28-5.13,4.98-7.62,1.75-2.72,3.64-5.31,5.47-7.81.88-1.2,1.74-2.39,2.59-3.58.75-.96,1.52-1.96,2.28-2.96,2.01-2.63,3.91-5.1,5.91-7.48.55-.67,1.11-1.33,1.66-1.98h.03c.19.03.37.01.53-.03.14-.04.26-.08.36-.14.48-.27.93-.53,1.38-.81.89-.52,1.81-1.07,2.72-1.53l2.12-1.05c.44-.25.89-.42,1.35-.62.26-.1.52-.21.78-.34.25-.1.51-.21.77-.31.44-.21.9-.4,1.37-.56l2.23-.81c.48-.18.96-.33,1.44-.47.26-.08.53-.15.81-.25.81-.25,1.52-.47,2.24-.63,2.9-.81,6.01-1.38,9.28-1.76,2.59-.3,4.95-.41,7.14-.37-.3,5.02-.26,10.19-.15,15.64l.4,15.53c.08,4.06.12,7.96.07,11.89h-.03Zm-1.79,18.28c-.86,5.12-2.39,10.22-3.75,14.69-1.01,2.9-2.13,5.92-3.39,8.91-1.76-1.41-3.58-2.78-5.53-4.04-.85-.57-1.75-1.11-2.63-1.61-.49-.29-.97-.57-1.45-.88-.9-.51-1.83-.99-2.74-1.45-.51-.26-1-.52-1.51-.78l-4.39-1.96c-.97-.4-1.96-.75-2.91-1.09-.53-.19-1.07-.38-1.59-.57-.99-.38-2.02-.66-3.04-.92-.52-.14-1.05-.27-1.57-.42-1.56-.49-3.16-.75-4.71-1.03-.38-.05-.75-.12-1.11-.19-1.23-.22-2.48-.44-3.72-.49l-4.76-.37-4.84.12c-1.29-.03-2.56.16-3.8.34l-1.03.14c-.57.1-1.14.15-1.68.25-1.04.12-2.11.25-3.15.53l-4.64,1.19c-1.25.25-2.45.73-3.61,1.18-.33.14-.66.25-1,.38l-1.14.44c2.16-4.67,4.65-9.66,7.61-15.3,2.16-3.9,4.56-8.13,7.11-12.41l2.35-1.25c.42-.21.85-.44,1.29-.7.79-.45,1.55-.85,2.37-1.15l3.89-1.57c1.01-.47,2.02-.77,3.11-1.08l.79-.23c.47-.12.94-.27,1.44-.41.82-.26,1.68-.52,2.53-.7l4.09-.78c.92-.23,1.83-.3,2.78-.38.45-.03.89-.08,1.34-.14l.64-.05c1.14-.11,2.31-.23,3.43-.21.52.01,1.03,0,1.52,0,.88,0,1.78-.01,2.65.03l4.6.36c.73.1,1.44.21,2.16.33.49.08,1,.15,1.51.23.86.14,1.74.34,2.6.55.49.11.99.23,1.48.33.85.19,1.71.45,2.54.71.48.15.97.29,1.45.42,1.38.44,2.75.96,3.91,1.4,2.41.97,4.42,1.93,6.21,2.94v1.7c-.12,2.37-.31,4.83-.6,7.54-.1.71-.19,1.42-.29,2.13-.23,1.75-.47,3.57-.86,5.34h.03Z"/>
      <g>
        <path class="cls-41" d="m1428.32,1734.59l16.32,121.09c.62,4.53,4.91,7.94,9.99,7.94h87.56c5.02,0,9.28-3.32,9.97-7.78l19.03-124.43c.83-5.53-4.06-10.4-10.29-10.23l-122.91,3.35c-5.91.15-10.41,4.83-9.69,10.08h.01Z"/>
        <path class="cls-67" d="m1429.53,1718.72h139.99c2.67,0,4.87,2.23,4.87,4.97v9.63c0,2.74-2.19,4.97-4.86,4.97h-140c-2.67,0-4.86-2.23-4.86-4.97v-9.63c0-2.72,2.19-4.97,4.86-4.97Z"/>
        <path class="cls-93" d="m1580.84,1720.32h-161.85c-2.45,0-4.46-2.05-4.46-4.56v-3.13c0-2.52,2-4.56,4.46-4.56h161.85c2.45,0,4.46,2.04,4.46,4.54v3.15c0,2.5-2.01,4.56-4.46,4.56Z"/>
      </g>
    </g>
    <g>
      <g>
        <rect class="cls-52" x="624.92" y="523.42" width="1335.08" height="873.39"/>
        <path class="cls-3" d="m1960,527.76v-127.7c0-10.38-6.29-18.81-14.04-18.81H638.98c-7.76,0-14.04,8.43-14.04,18.81v127.7h1335.08-.01Z"/>
        <rect class="cls-4" x="718.08" y="454.5" width="1061.9" height="38.95"/>
        <g>
          <path class="cls-73" d="m1789.63,418.61c0,8.56-7.35,15.5-16.4,15.5s-16.39-6.95-16.39-15.5,7.33-15.51,16.39-15.51,16.4,6.95,16.4,15.51Z"/>
          <path class="cls-47" d="m1848.53,418.61c0,8.56-7.35,15.5-16.4,15.5s-16.39-6.95-16.39-15.5,7.33-15.51,16.39-15.51,16.4,6.95,16.4,15.51Z"/>
          <path class="cls-82" d="m1907.44,418.61c0,8.56-7.33,15.5-16.39,15.5s-16.4-6.95-16.4-15.5,7.35-15.51,16.4-15.51,16.39,6.95,16.39,15.51Z"/>
        </g>
        <path class="cls-4" d="m682.14,481.13c2.48-3.01,4.04-6.81,4.04-11.01,0-9.6-7.83-17.43-17.43-17.43s-17.43,7.81-17.43,17.43,7.81,17.42,17.43,17.42c4.19,0,8-1.55,11.01-4.02l11.25,11.25c.33.33.77.49,1.19.49s.86-.16,1.2-.49c.66-.66.66-1.74,0-2.39l-11.26-11.25h0Zm-13.39,3.04c-7.74,0-14.05-6.29-14.05-14.05s6.29-14.05,14.05-14.05,14.04,6.29,14.04,14.05-6.29,14.05-14.04,14.05Z"/>
        <rect class="cls-4" x="1807.72" y="454.51" width="37.69" height="37.69"/>
        <rect class="cls-4" x="1869.08" y="455.14" width="37.69" height="37.69"/>
      </g>
      <rect class="cls-66" x="718.89" y="617.73" width="1147.17" height="98.11" rx="49.05" ry="49.05"/>
      <circle class="cls-4" cx="819.37" cy="666.95" r="72.46"/>
      <rect class="cls-78" x="718.89" y="814.95" width="1147.17" height="98.11" rx="49.05" ry="49.05"/>
      <circle class="cls-4" cx="1103.98" cy="864.12" r="72.46"/>
      <rect class="cls-20" x="718.89" y="1012.17" width="1147.17" height="98.11" rx="49.05" ry="49.05"/>
      <circle class="cls-4" cx="1668.15" cy="1061.37" r="72.46"/>
      <rect class="cls-63" x="718.89" y="1209.39" width="1147.17" height="98.11" rx="49.05" ry="49.05"/>
      <circle class="cls-4" cx="1269.75" cy="1258.56" r="72.46"/>
    </g>
    <g>
      <g>
        <path class="cls-34" d="m791.7,692.35c-1.7-6.69-9.13-6.62-9.7-6.68-.33-.67-.71-1.16-1.08-1.68-.04-.21-.05-.44-.18-.62-1.4-2.09-6.33-6.94-9.77-2.8-.31.08-.56.14-.64.12-.99-3.84-3.41-5.08-5.75-5.28-1.27-.47-2.6-.48-3.83.38-.93.25,11.27-33.3,3.37-35.06-7.47-1.67-18.13,42.38-18.13,42.38l-1.33,4.83c-3.23,3.73-5.98,2.28-8.09,8.25-5.24,10.23,1.74,26.76,8.1,34.9-.07,3.79-1.04,7.54-3.09,10.84-17.25,27.66-79.71,126.06-85.86,119.98-8.77-8.63-42.85-12.15-66.24-36.62v92.51c23.9,15.06,48.27,25.99,58.98,26.72,67.71-19.55,123.03-183.09,123.49-185.09,1.31-5.77,5.43-14.95,8.37-17.07,11.18-8.13,12.9-26.75,15.79-31.9,2.89-5.14-3.78-18.59-4.42-18.11h.01Z"/>
        <path class="cls-45" d="m364.41,839.51c-.23,14.5-27.68,124.2-20.59,177.06,2.63,19.66,40.24,124.61,79.23,161.49,27.23,30.1,42.93,44.15,60.57,12.78,17.64-31.37-5.05-21.14-12.85-28.51-7.8-7.37-52.77-82.59-50.47-145.21.62-16.68-1.81-136.74,8.58-182.3,7.76-34.04-64.48,4.71-64.48,4.71h.01Z"/>
        <path class="cls-44" d="m426.47,988.64c9.18-80.75,29.35-161.47,36.46-195.7,3.46-16.61-4.77-38.74-17.38-49.35-26.25-22.08-73.59-15.39-98.81,81.47-3.82,14.64-26.71,87.16-10.3,162.67,29.55-1.85,86.46,1.18,90.02.89h0Z"/>
        <path class="cls-25" d="m331.81,964.96s-4.71,21.03,7.72,29.8c12.42,8.77,80.72,1.27,83.09,2.63s17.16-22.15,7.68-27.58c-9.48-5.43-70.84-12.33-98.48-4.84Z"/>
        <path class="cls-80" d="m582.23,1737.11l3.79,75.29s-12.59,10.94.23,23.59c12.81,12.64,51.39-.64,58.83-2.64,15.5-4.17-33.37-13.82-33.37-13.82l1.31-87.85-30.8,5.43Z"/>
        <path class="cls-56" d="m415.62,1723.77l1.68,83.82s-12.24,9.95,1.09,22.03c13.35,12.08,51.32-2.85,58.66-5.17,15.32-4.83-32.34-15.86-32.34-15.86l1.67-86.57-30.77,1.76h0Z"/>
        <path class="cls-88" d="m417.79,1101.89c-14.73-1.89-24.02-64.42-31.04,34.49-6.92,97.64,22.57,286.46,24.37,329.02,1.12,26.57-8.54,84.17,1.14,320.65,9.73,3.37,34.67,3.61,48.35,3.52,5.01-.04,22.71-201.47,37.92-276.32,21.96-108.11,37.69-310.48,39.68-330.58,3.61-36.91-104.06-78.69-120.41-80.77h0Z"/>
        <path class="cls-22" d="m419.72,1050.67c-14.57,3.5-32.3,75.16,15.16,190.55,41.13,99.95,82.22,209.91,99.37,245.52,10.9,22.64-7.87,56.27,36.95,296.42,19.14,1.03,31.92,3.41,51.76-.74,2.72-.57,8.88-204.38,6.2-281.39-3.87-111.23-46.24-398.34-48.99-418.26-5.05-36.58-144.27-35.98-160.44-32.08h0Z"/>
        <path class="cls-36" d="m388.97,786.51s3.48-37.5,15.5-62.96c1.63-3.46,24.85-110.17,34.34-113.91,11.03-4.34,47.9,9.36,57.75,13.15,4.87,1.89-5.72,39.37-5.03,58.1,1.55,42.48,22.27,58.87,27.1,71.06,11.46,28.91-100.73,80.21-129.64,34.56h-.01Z"/>
        <path class="cls-18" d="m402.62,712.83s-53.1,61.33-41.92,180.88c13.8,147.52,7.5,154.39,26.5,228.54.45,2.39,200.26,8.09,198.34-5.91-2.18-15.73,5.12-84.69,1.98-163.68-6.09-153.87-57.39-201.51-72.25-222.87-7.42-10.69-74.18-25.24-112.65-16.98h0Z"/>
        <g>
          <path class="cls-74" d="m452.64,532.33c32.57-4.32,58.58,14.53,71.89,46.57,13.91,33.45,6.14,94.71-31.37,93.41-49.18-1.71-82.99-82.63-78.48-107.82,3.23-17.99,10.93-28.58,37.95-32.15h0Z"/>
          <path class="cls-79" d="m535.08,519.13c-.77-4.87-1.96-9.54-3.27-13.75-2.72-8.65-11.57-13.48-19.55-10.26-10.93,4.42-28.7,6.95-51.36,5.09-60.17-4.95-96.32,75.27-49.98,121.09v.03c14.28,21.74,43.74,32.79,43.74,32.79,0,0,11.08-30.63,8.48-41.33-12.22-31.17,12.66-33.51,12.2-9.69.16-3.22,5.53.26,5.54-2.23.26-35.78,21.26-25.5,36.49-34.68,14.82-8.93,20.29-30.62,17.7-47.04v-.03Z"/>
          <path class="cls-79" d="m529.12,639.36c-.99-.37-6.46-.04-16.12-2.97-7.92-2.41-21.97-10.48-24.41-19.5-.04-.15-9.7-36.95-9.7-36.95l-4.61,8.04s-.37,78.98,6.42,83.72c15.8,11.04,26.4,15.49,36.38,4.98,11.31-11.92,14.28-36.49,12.03-37.31h.01Z"/>
        </g>
        <path class="cls-79" d="m614.61,1811.49s59.42,7.85,64.04,20.9c7.4,20.86-84.33,21.45-96.48,10.64-11.66-10.37.41-27.09.41-27.09,0,0,12.52,5.66,32.03-4.45h0Z"/>
        <path class="cls-79" d="m446.26,1804.46s59.42,7.85,64.04,20.9c7.4,20.86-84.33,21.45-96.48,10.64-11.66-10.37.41-27.09.41-27.09,0,0,12.52,5.66,32.03-4.45h0Z"/>
        <path class="cls-86" d="m649.81,851.69c-70.66-40.13-137-90.34-165.69-110.31-13.93-9.7-37.51-10.81-52.21-3.38-30.6,15.49-43.03,61.66,36.17,122.84,11.97,9.25,69.69,58.76,145.59,73.29,9.91-27.91,35-79.06,36.13-82.44Z"/>
        <path class="cls-87" d="m588.87,929.69s19.51,12.35,32.45,4.36c12.94-7.99,32.83-73.74,35.01-75.4s-13.64-24.48-22.35-17.88c-8.71,6.59-41.15,60.55-45.11,88.9h0Z"/>
        <path class="cls-48" d="m395.09,721.1l10.71-28.29s69.31,2.86,94.7,14.98c13.94,4.88,25.06,35.91,25.06,35.91,0,0-53.45-23.29-130.48-22.59h0Z"/>
      </g>
      <path class="cls-26" d="m385.49,1115.46c67.42,6.57,133.16,6.51,200.57,0l1.45,18.89c-67.39,6.39-133.51,6.36-200.91-.07l-1.11-18.83Z"/>
    </g>
    <path class="cls-50" d="m2083.53,1326.91c14.29-6.16,34.57-45.81,51.24-86.5,7.05,2.29,14.38,3.98,21.44,5.58,8.13,1.85,16.25,3.74,24.37,5.61-14.16,22.35-31.91,47.61-53.92,74.67,0,0-.69,17.53-1.74,19.83-7.93,20.02-30.47,26.71-50.06,21.66-13.79-6.63-.2-35.56,8.67-40.86h.01Z"/>
    <path class="cls-27" d="m2079.9,804.98s-9.29,85.38-22.08,131.48c-12.79,46.11-98.44,219.94-97.92,220.36,12.64,10.18,30.47,24.83,39.84,24.01,18.88-1.66,192.62-271.79,179.51-365.25-13.11-93.47-105.03-50.14-99.35-10.59h0Z"/>
    <path class="cls-58" d="m2254.65,1787.04l-2.89,63.48c22.11,27.88-43.49,32.99-53.11,27.25-13.26-6.36,30.39-24.82,30.39-24.82l3.91-78.52,21.7,12.59h0Z"/>
    <g>
      <path class="cls-79" d="m2228.27,1848.28s-58.62,10.96-62.37,23.53c-5.99,20.08,80.76,16.23,91.73,5.42,10.53-10.37-1.7-25.6-1.7-25.6,0,0-10.86,9.96-27.66-3.35Z"/>
      <path class="cls-92" d="m2223.46,1851.01s5.72,4.91,7.55,10.71c0,3.84-15.57-12.68-7.55-10.71Z"/>
      <path class="cls-92" d="m2211.41,1854.43s5.66,4.88,7.44,10.69c0,3.84-15.41-12.61-7.44-10.69Z"/>
      <path class="cls-92" d="m2200.12,1856.95s4.83,4.27,6.28,9.4c-.07,3.42-13.15-11-6.28-9.4Z"/>
    </g>
    <path class="cls-55" d="m2527.73,1787.81l26.09,63.7c-19.03,30.07,46.75,28.18,55.71,21.47,12.52-7.73-32.85-21.45-32.85-21.45l-23.09-76.25-25.86,12.53h0Z"/>
    <g>
      <path class="cls-79" d="m2577.64,1849.19s59.14,7.7,63.58,20.03c7.09,19.71-79.75,20.67-91.29,10.49-11.08-9.77.27-25.65.27-25.65,0,0,11.4,9.34,27.44-4.88h0Z"/>
      <path class="cls-92" d="m2582.59,1851.66s-5.45,5.21-6.94,11.11c.21,3.84,14.84-13.53,6.94-11.11Z"/>
      <path class="cls-92" d="m2594.81,1854.41s-5.38,5.19-6.84,11.07c.22,3.84,14.68-13.45,6.84-11.07Z"/>
      <path class="cls-92" d="m2606.23,1856.28s-4.58,4.53-5.76,9.73c.26,3.42,12.52-11.71,5.76-9.73Z"/>
    </g>
    <path class="cls-38" d="m2580.24,1819.15c-133.43-456.42-166.87-600.64-222.25-717.48-19.43-8.74-65.07-29.93-96.19-1.89-45.09-32.42-105.77-15.32-118.79-1.55-8.58,132.2,34.67,234.5,72.87,731.89,3.23.74,43.78,1.11,47.02.78,3.28-31.03,12.55-185.31,37.6-450.74.67-7.11,10.26-8.91,13.37-2.48,90.32,187.62,209.7,432.5,221.73,454.78,3.12-.93,41.96-11.41,44.67-13.33h-.01Z"/>
    <path class="cls-37" d="m2261.05,672.48l18.87,100.15s-45.26,41.07-68.17,42.08c-26.64,1.18-2.38-137.89-2.38-137.89l51.69-4.34h0Z"/>
    <path class="cls-2" d="m2102.01,791.74c11.93-23.42,99.69-64.85,99.49-56.76-.05,2.44.82,15.19,23.63,22.45,31.9,10.17,48.71-18.58,48.71-18.58,172.34,42.36,76.83,109.2,87.96,409.24.27,29.14-171.94,18.95-231.47-6.99-58.95-188.46-45.37-315.87-28.31-349.38h0Z"/>
    <path class="cls-79" d="m2237.28,748.81c2.64,3.56,23.76,23.08,23.76,23.08l-32.53,22.37s-29.59,145.81,15.17,270.79c-5.32,19.81-28.85,53.68-28.85,53.68l-40.99-34.91s7.81-165.34,38.05-293.93c.15.11-8.11-25.47-8.11-25.47l33.49-15.61h.01Z"/>
    <path class="cls-76" d="m2306.54,741.55s95.86,20.25,112.38,30.18c49.42,29.74-46.32,254.22-14.95,424.83,3.35,18.21-199.16,65.59-267.52,32.03-32.18-100.69-81.27-327.75-45.86-452.23,18.58-20.37,56.2-34.18,75.67-35.06,6.59-.3-29.99,152.38,25.69,298.26,71.96-130.72,105.99-284.19,114.59-297.99h0Z"/>
    <path class="cls-49" d="m2303.6,741.44s-8.52,23.45-44.03,45.7c-5.32-6.64-30.11-31.32-30.11-31.32l-30.28,22.34s-20.75-15.24-19.13-39.74c6.27-3.78,20.86-6.21,20.86-6.21,0,0,28.66,29.65,76.53,2.46,12.03.27,26.14,6.79,26.14,6.79h0Z"/>
    <path class="cls-62" d="m2304.16,739.47l28.94,7.51,1.22,87.19-34.05,2.59,41.59,18.07s-118.45,118.88-150.29,187.99c4.04-67.16,103.66-294.24,112.61-303.34h-.01Z"/>
    <path class="cls-29" d="m2181.44,736.19s-32.29,31.18,10.66,304.13c-6.51-11.55-68.88-174.12-71.37-187.61,3.78-1.09,38.84-7.58,38.84-7.58l-32.25-12.76s22.16-82.48,28.48-89.23c3.13-4.57,25.65-6.94,25.65-6.94h-.01Z"/>
    <path class="cls-57" d="m2219.08,564.07c4.57,2.41,70.83,36.52,50.83,118.75-4.61,39.87-61.44,60.77-89.63-1.14-24.43-53.67-11.98-144.32,38.8-117.62h0Z"/>
    <path class="cls-79" d="m2253.27,579.5c-36.57-89.28-174.65-26.23-94.66-10.67-18.81,1.4-32.83,21.27-3.45,26.88-7.57,5.84-2.26,24.11,12.94,25.56-.56-1.35.55-24.65,16.32-31.92,9.47-4.35,36.31-13.54,47.64-6.46,24.33,15.24,37.08,47.25,37.08,47.25,0,0-2.96-32.15-15.87-50.66h0Z"/>
    <path class="cls-33" d="m2262.78,619.38c18.41-30.18,29.67,17.05,8.1,21.4l-8.1-21.4Z"/>
    <g>
      <path class="cls-77" d="m1863.32,1027.75c-26.17,9.78-43.11,29.18-37.8,43.3l22.75,60.54c-22.93,14.95-42.59,33.71-58.51,54.97l-59.06-26.79c-13.75-6.22-34.24,9.34-45.76,34.82-11.57,25.45-9.77,51.13,3.93,57.34l59.09,26.76c-5.53,26.12-6.72,53.19-2.87,80.31l-60.61,22.74c-14.04,5.32-17.53,30.8-7.74,56.98,9.81,26.14,29.18,43.07,43.37,37.76l60.58-22.75c15.01,23,33.67,42.6,54.96,58.56l-26.82,59.06c-6.24,13.72,9.43,34.26,34.78,45.82,25.49,11.56,51.14,9.74,57.41-3.95l26.79-59.1c26.01,5.55,53.14,6.66,80.29,2.82l22.72,60.57c5.32,14.21,30.85,17.65,56.95,7.78,26.19-9.8,43.08-29.2,37.83-43.33l-22.77-60.57c22.89-14.98,42.62-33.64,58.51-54.98l59.08,26.83c13.78,6.21,34.23-9.33,45.78-34.8s9.8-51.14-3.91-57.34l-59.08-26.87c5.51-26.02,6.64-53.1,2.82-80.27l60.54-22.71c14.16-5.36,17.61-30.8,7.8-57-9.77-26.12-29.22-43.1-43.3-37.72l-60.61,22.71c-14.95-22.97-33.66-42.58-54.92-58.6l26.71-59.02c6.29-13.74-9.29-34.26-34.72-45.76-25.45-11.59-51.13-9.81-57.39,3.94l-26.8,59.06c-26.04-5.49-53.14-6.68-80.28-2.85l-22.74-60.51c-5.34-14.15-30.77-17.68-56.95-7.74h-.03Zm71.63,190.72c59.62-22.42,126.28,7.89,148.66,67.46,22.36,59.61-7.88,126.25-67.43,148.6-59.55,22.37-126.28-7.88-148.71-67.45-22.33-59.58,7.95-126.25,67.49-148.62Z"/>
      <path class="cls-4" d="m2125.84,1248.26c-43.21-83-145.51-115.26-228.52-72.06-83,43.21-115.26,145.51-72.06,228.52,43.21,83,145.51,115.26,228.52,72.06s115.26-145.51,72.06-228.52Zm-9.7,5.05c40.41,77.65,10.23,173.35-67.41,213.77-77.64,40.41-173.35,10.23-213.77-67.41-40.41-77.64-10.23-173.35,67.41-213.77,77.64-40.41,173.35-10.23,213.77,67.41Z"/>
    </g>
    <path class="cls-59" d="m2249.52,1304.2c15.03-4.03,40.84-40.31,63.21-78.18,6.65,3.28,13.65,6.02,20.41,8.63,7.78,3.01,15.53,6.05,23.3,9.08-17.25,20.06-38.46,42.48-64.16,66.07,0,0-3.22,17.25-4.59,19.37-10.74,18.66-34.01,22.02-52.67,14.19-12.68-8.56,4.95-35.21,14.49-39.17h.01Z"/>
    <path class="cls-72" d="m2341.65,800.55s-21.55,83.14-40.88,126.89c-19.33,43.77-129.22,203.38-128.77,203.86,11.04,11.9,26.56,28.98,35.95,29.52,18.92,1.09,229.91-241.05,230.47-335.43.56-94.37-96.67-64.82-96.77-24.85h-.01Z"/>
    <g>
      <path class="cls-53" d="m635.68,1642.05l-.1-12.53c-.1-12.35,9.88-22.48,22.22-22.57l31.54-.25c12.34-.1,22.48,9.86,22.57,22.23l.11,12.53,15.09-.12-.1-12.53c-.16-20.69-17.12-37.38-37.8-37.21l-31.54.25c-20.69.16-37.38,17.12-37.21,37.8l.1,12.53,15.1-.12h.01Z"/>
      <path class="cls-6" d="m770.82,1650.08l-193.79,1.55c-9.73.08-17.55,8.03-17.47,17.76l1.05,133.39c.07,9.73,8.02,17.55,17.76,17.47l193.81-1.53c9.73-.08,17.55-8.03,17.47-17.76l-1.07-133.39c-.07-9.73-8.02-17.55-17.76-17.48Z"/>
      <path class="cls-42" d="m779.48,1631.13l-211.42,1.68c-8.33.07-15.05,6.88-14.98,15.21l.63,79.71c.07,8.33,6.88,15.05,15.23,14.98l211.42-1.68c8.35-.07,15.05-6.88,14.98-15.21l-.63-79.71c-.07-8.33-6.88-15.05-15.23-14.98Z"/>
      <path class="cls-14" d="m674.53,1726.78c-5.77.05-10.45,4.8-10.41,10.58l.12,15.1c.04,5.77,4.8,10.45,10.56,10.4,5.76-.04,10.45-4.8,10.4-10.58l-.12-15.1c-.04-5.77-4.8-10.45-10.56-10.41h.01Z"/>
    </g>
  </g>
  <polygon class="cls-4" points="1662.59 2358.39 0 2487.72 0 1833.59 1820.97 1845.69 1662.59 2358.39"/>
  <polygon class="cls-39" points="1720.56 2375.61 1618.47 2358.39 1820.97 1845.69 1915.17 1882.89 1720.56 2375.61"/>
  <path class="cls-13" d="m3754.97,2977.25h-432.28c-24.65,0-47.06-10.08-63.31-26.33s-26.33-38.66-26.33-63.31v-138.96c0-23.1,8.86-44.23,23.34-60.17,16.43-18.08,40.1-29.47,66.31-29.47h432.28c24.65,0,47.06,10.09,63.31,26.33,16.25,16.25,26.33,38.66,26.33,63.31v138.96c0,27.64-12.68,52.47-32.52,68.95-15.54,12.91-35.47,20.7-57.13,20.7h0Z"/>
  <polygon class="cls-81" points="3925.05 2825.7 3157.51 2825.7 3094.28 2886.32 3094.28 3040 3993.46 3039.92 3993.46 2892.03 3993.46 2886.32 3925.05 2825.7"/>
  <polygon class="cls-61" points="3990.75 2883.93 3925.04 2825.7 3157.51 2825.7 3096.78 2883.93 3990.75 2883.93"/>
  <path class="cls-13" d="m3234.39,2737.73h608.86c-6.51-44.37-43.16-78.73-87.45-78.73h-433.97c-44.29,0-80.93,34.37-87.45,78.73h0Z"/>
</svg>