<?xml version="1.0" encoding="UTF-8"?>
<svg id="_Ñëîé_1" data-name="Ñëîé 1" xmlns="http://www.w3.org/2000/svg" xmlns:xlink="http://www.w3.org/1999/xlink" viewBox="0 0 249.16 268.54">
  <defs>
    <style>
      .cls-1 {
        fill: #223365;
      }

      .cls-2 {
        fill: url(#linear-gradient-2);
        opacity: .2;
      }

      .cls-3 {
        fill: url(#_Áåçûìÿííûé_ãðàäèåíò_11-6);
      }

      .cls-4, .cls-5, .cls-6 {
        fill: #fff;
      }

      .cls-7 {
        fill: url(#linear-gradient-17);
      }

      .cls-8 {
        fill: url(#_Áåçûìÿííûé_ãðàäèåíò_7-8);
      }

      .cls-9 {
        fill: url(#_Áåçûìÿííûé_ãðàäèåíò_12-2);
      }

      .cls-10 {
        fill: url(#_Áåçûìÿííûé_ãðàäèåíò_34);
      }

      .cls-11 {
        fill: url(#_Áåçûìÿííûé_ãðàäèåíò_18);
      }

      .cls-12 {
        fill: url(#linear-gradient-15);
      }

      .cls-13 {
        fill: url(#_Áåçûìÿííûé_ãðàäèåíò_16-5);
      }

      .cls-14 {
        fill: url(#_Áåçûìÿííûé_ãðàäèåíò_7);
      }

      .cls-15 {
        fill: url(#_Áåçûìÿííûé_ãðàäèåíò_11-4);
      }

      .cls-16 {
        fill: url(#linear-gradient-18);
      }

      .cls-17 {
        fill: url(#_Áåçûìÿííûé_ãðàäèåíò_12-3);
      }

      .cls-18 {
        fill: url(#linear-gradient-3);
        opacity: .15;
      }

      .cls-19 {
        fill: url(#_Áåçûìÿííûé_ãðàäèåíò_21);
      }

      .cls-20 {
        fill: url(#linear-gradient-28);
      }

      .cls-21 {
        fill: url(#linear-gradient-14);
      }

      .cls-22 {
        fill: url(#linear-gradient-20);
      }

      .cls-23 {
        fill: url(#linear-gradient-6);
      }

      .cls-24 {
        fill: url(#_Áåçûìÿííûé_ãðàäèåíò_12-4);
      }

      .cls-25 {
        fill: url(#_Áåçûìÿííûé_ãðàäèåíò_7-2);
      }

      .cls-26 {
        fill: #22367d;
        opacity: .05;
      }

      .cls-5 {
        opacity: .1;
      }

      .cls-27 {
        fill: url(#_Áåçûìÿííûé_ãðàäèåíò_13-2);
      }

      .cls-28 {
        fill: url(#linear-gradient-32);
      }

      .cls-29 {
        fill: url(#_Áåçûìÿííûé_ãðàäèåíò_13);
      }

      .cls-30 {
        fill: url(#linear-gradient-11);
      }

      .cls-31 {
        fill: url(#_Áåçûìÿííûé_ãðàäèåíò_16-8);
      }

      .cls-32 {
        fill: url(#_Áåçûìÿííûé_ãðàäèåíò_34-2);
      }

      .cls-33 {
        fill: url(#_Áåçûìÿííûé_ãðàäèåíò_11);
      }

      .cls-34 {
        fill: url(#_Áåçûìÿííûé_ãðàäèåíò_14);
      }

      .cls-35 {
        fill: url(#_Áåçûìÿííûé_ãðàäèåíò_10);
      }

      .cls-36 {
        fill: url(#_Áåçûìÿííûé_ãðàäèåíò_9);
      }

      .cls-37 {
        fill: url(#linear-gradient-10);
      }

      .cls-38 {
        fill: url(#_Áåçûìÿííûé_ãðàäèåíò_3-4);
      }

      .cls-39 {
        fill: url(#_Áåçûìÿííûé_ãðàäèåíò_16);
      }

      .cls-40 {
        fill: url(#_Áåçûìÿííûé_ãðàäèåíò_16-6);
      }

      .cls-41 {
        fill: url(#_Áåçûìÿííûé_ãðàäèåíò_8);
      }

      .cls-42 {
        fill: url(#linear-gradient-16);
      }

      .cls-43 {
        fill: url(#_Áåçûìÿííûé_ãðàäèåíò_7-7);
      }

      .cls-44 {
        fill: url(#linear-gradient-31);
      }

      .cls-45 {
        fill: url(#linear-gradient-21);
      }

      .cls-46 {
        fill: url(#_Áåçûìÿííûé_ãðàäèåíò_7-6);
      }

      .cls-47 {
        fill: url(#linear-gradient-25);
      }

      .cls-48 {
        fill: url(#linear-gradient-5);
      }

      .cls-49 {
        fill: url(#_Áåçûìÿííûé_ãðàäèåíò_3-3);
      }

      .cls-50 {
        fill: url(#_Áåçûìÿííûé_ãðàäèåíò_13-3);
      }

      .cls-51 {
        fill: url(#linear-gradient-34);
      }

      .cls-52 {
        fill: url(#_Áåçûìÿííûé_ãðàäèåíò_2);
      }

      .cls-53 {
        fill: url(#_Áåçûìÿííûé_ãðàäèåíò_16-2);
      }

      .cls-54 {
        fill: #203365;
      }

      .cls-55 {
        fill: url(#linear-gradient);
        opacity: .02;
      }

      .cls-56 {
        fill: url(#_Áåçûìÿííûé_ãðàäèåíò_11-5);
      }

      .cls-57 {
        fill: url(#linear-gradient-7);
      }

      .cls-58 {
        fill: url(#_Áåçûìÿííûé_ãðàäèåíò_11-7);
      }

      .cls-59 {
        fill: url(#_Áåçûìÿííûé_ãðàäèåíò_3-2);
      }

      .cls-60 {
        fill: url(#_Áåçûìÿííûé_ãðàäèåíò_6);
      }

      .cls-61 {
        fill: url(#_Áåçûìÿííûé_ãðàäèåíò_5);
      }

      .cls-62 {
        fill: url(#_Áåçûìÿííûé_ãðàäèåíò_11-8);
      }

      .cls-63 {
        fill: url(#linear-gradient-24);
      }

      .cls-64 {
        fill: url(#linear-gradient-9);
      }

      .cls-65 {
        fill: url(#linear-gradient-22);
      }

      .cls-66 {
        fill: url(#_Áåçûìÿííûé_ãðàäèåíò_11-2);
      }

      .cls-67 {
        fill: url(#_Áåçûìÿííûé_ãðàäèåíò_16-4);
      }

      .cls-68 {
        fill: url(#_Áåçûìÿííûé_ãðàäèåíò_7-4);
      }

      .cls-69 {
        fill: url(#_Áåçûìÿííûé_ãðàäèåíò_3);
      }

      .cls-70 {
        fill: url(#_Áåçûìÿííûé_ãðàäèåíò_16-3);
      }

      .cls-71 {
        fill: url(#_Áåçûìÿííûé_ãðàäèåíò_7-5);
      }

      .cls-72 {
        fill: url(#linear-gradient-27);
      }

      .cls-6 {
        opacity: .06;
      }

      .cls-73 {
        fill: url(#linear-gradient-33);
      }

      .cls-74 {
        fill: url(#linear-gradient-29);
      }

      .cls-75 {
        fill: url(#linear-gradient-30);
      }

      .cls-76 {
        fill: url(#_Áåçûìÿííûé_ãðàäèåíò_12);
      }

      .cls-77 {
        fill: url(#_Áåçûìÿííûé_ãðàäèåíò_17);
      }

      .cls-78 {
        fill: url(#linear-gradient-23);
      }

      .cls-79 {
        fill: url(#linear-gradient-19);
      }

      .cls-80 {
        opacity: .25;
      }

      .cls-81 {
        fill: url(#linear-gradient-4);
        opacity: .3;
      }

      .cls-82 {
        fill: url(#_Áåçûìÿííûé_ãðàäèåíò_22);
      }

      .cls-83 {
        fill: url(#linear-gradient-8);
      }

      .cls-84 {
        fill: url(#_Áåçûìÿííûé_ãðàäèåíò_16-7);
      }

      .cls-85 {
        fill: url(#_Áåçûìÿííûé_ãðàäèåíò_7-3);
      }

      .cls-86 {
        fill: url(#_Áåçûìÿííûé_ãðàäèåíò_11-3);
      }

      .cls-87 {
        fill: url(#linear-gradient-12);
      }

      .cls-88 {
        fill: url(#linear-gradient-13);
      }

      .cls-89 {
        fill: url(#linear-gradient-26);
      }

      .cls-90 {
        fill: url(#_Áåçûìÿííûé_ãðàäèåíò_23);
      }
    </style>
    <linearGradient id="linear-gradient" x1="1462.74" y1="569.97" x2="1462.74" y2="760.39" gradientTransform="translate(1984.93 -423.62) rotate(-177.57) scale(1.22 -.96) skewX(2.98)" gradientUnits="userSpaceOnUse">
      <stop offset="0" stop-color="#6aa6da"/>
      <stop offset="1" stop-color="#3c70ae"/>
    </linearGradient>
    <linearGradient id="linear-gradient-2" x1="-1683.52" y1="389.57" x2="-1595.78" y2="389.57" gradientTransform="translate(-1454.45 503.77) rotate(154.63) scale(1 -1)" gradientUnits="userSpaceOnUse">
      <stop offset="0" stop-color="#75abdc"/>
      <stop offset="1" stop-color="#406fad"/>
    </linearGradient>
    <linearGradient id="linear-gradient-3" x1="1444.06" y1="482.6" x2="1385.03" y2="584.85" gradientTransform="translate(-894.71 -835.74) rotate(23.09)" gradientUnits="userSpaceOnUse">
      <stop offset="0" stop-color="#dabdc4"/>
      <stop offset="1" stop-color="#daa4ae"/>
    </linearGradient>
    <linearGradient id="linear-gradient-4" x1="3992.84" y1="2820.15" x2="3927.42" y2="2933.45" gradientTransform="translate(212.95 -4671.36) rotate(127.74) scale(1 -1)" gradientUnits="userSpaceOnUse">
      <stop offset="0" stop-color="#a0c4e8"/>
      <stop offset="1" stop-color="#67a3d8"/>
    </linearGradient>
    <linearGradient id="linear-gradient-5" x1="445.16" y1="218.2" x2="454.32" y2="218.2" gradientTransform="translate(647.88) rotate(-180) scale(1 -1)" gradientUnits="userSpaceOnUse">
      <stop offset="0" stop-color="#d7edfa"/>
      <stop offset="1" stop-color="#a7cfee"/>
    </linearGradient>
    <linearGradient id="linear-gradient-6" x1="445.87" y1="219.41" x2="453.49" y2="219.41" gradientTransform="translate(647.88) rotate(-180) scale(1 -1)" xlink:href="#linear-gradient-4"/>
    <linearGradient id="_Áåçûìÿííûé_ãðàäèåíò_11" data-name="Áåçûìÿííûé ãðàäèåíò 11" x1="452.19" y1="200.93" x2="452.19" y2="205.26" gradientTransform="translate(647.88) rotate(-180) scale(1 -1)" gradientUnits="userSpaceOnUse">
      <stop offset="0" stop-color="#2f5b91"/>
      <stop offset=".36" stop-color="#2d598e"/>
      <stop offset=".56" stop-color="#275286"/>
      <stop offset=".73" stop-color="#1e4878"/>
      <stop offset=".87" stop-color="#103864"/>
      <stop offset="1" stop-color="#00264c"/>
    </linearGradient>
    <linearGradient id="_Áåçûìÿííûé_ãðàäèåíò_11-2" data-name="Áåçûìÿííûé ãðàäèåíò 11" x1="451.72" y1="205.6" x2="451.72" y2="210.05" xlink:href="#_Áåçûìÿííûé_ãðàäèåíò_11"/>
    <linearGradient id="_Áåçûìÿííûé_ãðàäèåíò_11-3" data-name="Áåçûìÿííûé ãðàäèåíò 11" x1="450.96" y1="209.98" x2="450.96" y2="214.56" xlink:href="#_Áåçûìÿííûé_ãðàäèåíò_11"/>
    <linearGradient id="_Áåçûìÿííûé_ãðàäèåíò_11-4" data-name="Áåçûìÿííûé ãðàäèåíò 11" x1="450.1" y1="214.99" x2="450.1" y2="219.94" xlink:href="#_Áåçûìÿííûé_ãðàäèåíò_11"/>
    <linearGradient id="_Áåçûìÿííûé_ãðàäèåíò_11-5" data-name="Áåçûìÿííûé ãðàäèåíò 11" x1="449.09" y1="220.57" x2="449.09" y2="225.68" xlink:href="#_Áåçûìÿííûé_ãðàäèåíò_11"/>
    <linearGradient id="_Áåçûìÿííûé_ãðàäèåíò_11-6" data-name="Áåçûìÿííûé ãðàäèåíò 11" x1="448.72" y1="225.14" x2="448.72" y2="230.54" xlink:href="#_Áåçûìÿííûé_ãðàäèåíò_11"/>
    <linearGradient id="_Áåçûìÿííûé_ãðàäèåíò_11-7" data-name="Áåçûìÿííûé ãðàäèåíò 11" x1="449.04" y1="231.11" x2="449.04" y2="235.13" xlink:href="#_Áåçûìÿííûé_ãðàäèåíò_11"/>
    <linearGradient id="_Áåçûìÿííûé_ãðàäèåíò_11-8" data-name="Áåçûìÿííûé ãðàäèåíò 11" x1="449.65" y1="235.86" x2="449.65" y2="239.2" xlink:href="#_Áåçûìÿííûé_ãðàäèåíò_11"/>
    <linearGradient id="_Áåçûìÿííûé_ãðàäèåíò_9" data-name="Áåçûìÿííûé ãðàäèåíò 9" x1="457.53" y1="194.76" x2="457.53" y2="252.5" gradientTransform="translate(647.88) rotate(-180) scale(1 -1)" gradientUnits="userSpaceOnUse">
      <stop offset="0" stop-color="#d7edfa"/>
      <stop offset=".04" stop-color="#d0e8f8"/>
      <stop offset=".18" stop-color="#bdddf3"/>
      <stop offset=".35" stop-color="#b0d5f0"/>
      <stop offset=".56" stop-color="#a9d0ee"/>
      <stop offset="1" stop-color="#a7cfee"/>
    </linearGradient>
    <linearGradient id="linear-gradient-7" x1="450.51" y1="224.75" x2="464.43" y2="224.75" gradientTransform="translate(647.88) rotate(-180) scale(1 -1)" gradientUnits="userSpaceOnUse">
      <stop offset="0" stop-color="#68a9dc"/>
      <stop offset="1" stop-color="#3a6eae"/>
    </linearGradient>
    <linearGradient id="_Áåçûìÿííûé_ãðàäèåíò_7" data-name="Áåçûìÿííûé ãðàäèåíò 7" x1="461.25" y1="209.25" x2="464.06" y2="209.25" gradientTransform="translate(647.88) rotate(-180) scale(1 -1)" gradientUnits="userSpaceOnUse">
      <stop offset="0" stop-color="#2f5b91"/>
      <stop offset=".09" stop-color="#254f82"/>
      <stop offset=".29" stop-color="#143d6a"/>
      <stop offset=".5" stop-color="#093059"/>
      <stop offset=".73" stop-color="#02284f"/>
      <stop offset="1" stop-color="#00264c"/>
    </linearGradient>
    <linearGradient id="_Áåçûìÿííûé_ãðàäèåíò_7-2" data-name="Áåçûìÿííûé ãðàäèåíò 7" x1="459.13" y1="213.63" x2="463.11" y2="213.63" xlink:href="#_Áåçûìÿííûé_ãðàäèåíò_7"/>
    <linearGradient id="_Áåçûìÿííûé_ãðàäèåíò_7-3" data-name="Áåçûìÿííûé ãðàäèåíò 7" x1="456.54" y1="217.69" x2="462.14" y2="217.69" xlink:href="#_Áåçûìÿííûé_ãðàäèåíò_7"/>
    <linearGradient id="_Áåçûìÿííûé_ãðàäèåíò_7-4" data-name="Áåçûìÿííûé ãðàäèåíò 7" x1="454.08" y1="222.45" x2="460.68" y2="222.45" xlink:href="#_Áåçûìÿííûé_ãðàäèåíò_7"/>
    <linearGradient id="_Áåçûìÿííûé_ãðàäèåíò_7-5" data-name="Áåçûìÿííûé ãðàäèåíò 7" x1="452.21" y1="228.01" x2="458.45" y2="228.01" xlink:href="#_Áåçûìÿííûé_ãðàäèåíò_7"/>
    <linearGradient id="_Áåçûìÿííûé_ãðàäèåíò_7-6" data-name="Áåçûìÿííûé ãðàäèåíò 7" x1="450.75" y1="232.46" x2="457.12" y2="232.46" xlink:href="#_Áåçûìÿííûé_ãðàäèåíò_7"/>
    <linearGradient id="_Áåçûìÿííûé_ãðàäèåíò_7-7" data-name="Áåçûìÿííûé ãðàäèåíò 7" x1="451" y1="237.5" x2="455.57" y2="237.5" xlink:href="#_Áåçûìÿííûé_ãðàäèåíò_7"/>
    <linearGradient id="_Áåçûìÿííûé_ãðàäèåíò_7-8" data-name="Áåçûìÿííûé ãðàäèåíò 7" x1="451.3" y1="241.68" x2="455" y2="241.68" xlink:href="#_Áåçûìÿííûé_ãðàäèåíò_7"/>
    <linearGradient id="linear-gradient-8" x1="454.76" y1="231.75" x2="466.46" y2="231.75" xlink:href="#linear-gradient-5"/>
    <linearGradient id="linear-gradient-9" x1="455.22" y1="232.55" x2="465.93" y2="232.55" gradientTransform="translate(647.88) rotate(-180) scale(1 -1)" xlink:href="#linear-gradient-4"/>
    <linearGradient id="_Áåçûìÿííûé_ãðàäèåíò_16" data-name="Áåçûìÿííûé ãðàäèåíò 16" x1="464.46" y1="222.91" x2="464.46" y2="219.85" gradientTransform="translate(647.88) rotate(-180) scale(1 -1)" gradientUnits="userSpaceOnUse">
      <stop offset="0" stop-color="#2f5b91"/>
      <stop offset=".24" stop-color="#2c588d"/>
      <stop offset=".48" stop-color="#244e81"/>
      <stop offset=".72" stop-color="#173f6d"/>
      <stop offset=".95" stop-color="#042a52"/>
      <stop offset="1" stop-color="#00264c"/>
    </linearGradient>
    <linearGradient id="_Áåçûìÿííûé_ãðàäèåíò_16-2" data-name="Áåçûìÿííûé ãðàäèåíò 16" x1="463.25" y1="226.03" x2="463.25" y2="222.91" xlink:href="#_Áåçûìÿííûé_ãðàäèåíò_16"/>
    <linearGradient id="_Áåçûìÿííûé_ãðàäèåíò_16-3" data-name="Áåçûìÿííûé ãðàäèåíò 16" x1="461.89" y1="228.9" x2="461.89" y2="225.71" xlink:href="#_Áåçûìÿííûé_ãðàäèåíò_16"/>
    <linearGradient id="_Áåçûìÿííûé_ãðàäèåíò_16-4" data-name="Áåçûìÿííûé ãðàäèåíò 16" x1="460.37" y1="232.38" x2="460.37" y2="228.9" xlink:href="#_Áåçûìÿííûé_ãðàäèåíò_16"/>
    <linearGradient id="_Áåçûìÿííûé_ãðàäèåíò_16-5" data-name="Áåçûìÿííûé ãðàäèåíò 16" x1="458.8" y1="236.21" x2="458.8" y2="232.99" xlink:href="#_Áåçûìÿííûé_ãðàäèåíò_16"/>
    <linearGradient id="_Áåçûìÿííûé_ãðàäèåíò_16-6" data-name="Áåçûìÿííûé ãðàäèåíò 16" x1="457.7" y1="239.52" x2="457.7" y2="236.34" xlink:href="#_Áåçûìÿííûé_ãðàäèåíò_16"/>
    <linearGradient id="_Áåçûìÿííûé_ãðàäèåíò_16-7" data-name="Áåçûìÿííûé ãðàäèåíò 16" x1="457.07" y1="242.81" x2="457.07" y2="240.25" xlink:href="#_Áåçûìÿííûé_ãðàäèåíò_16"/>
    <linearGradient id="_Áåçûìÿííûé_ãðàäèåíò_16-8" data-name="Áåçûìÿííûé ãðàäèåíò 16" x1="456.83" y1="245.71" x2="456.83" y2="243.33" xlink:href="#_Áåçûìÿííûé_ãðàäèåíò_16"/>
    <linearGradient id="_Áåçûìÿííûé_ãðàäèåíò_17" data-name="Áåçûìÿííûé ãðàäèåíò 17" x1="455.62" y1="249.56" x2="455.62" y2="268.24" gradientTransform="translate(647.88) rotate(-180) scale(1 -1)" gradientUnits="userSpaceOnUse">
      <stop offset="0" stop-color="#a0c4e8"/>
      <stop offset=".17" stop-color="#8fbae3"/>
      <stop offset=".47" stop-color="#79addd"/>
      <stop offset=".75" stop-color="#6ba5d9"/>
      <stop offset="1" stop-color="#67a3d8"/>
    </linearGradient>
    <linearGradient id="_Áåçûìÿííûé_ãðàäèåíò_18" data-name="Áåçûìÿííûé ãðàäèåíò 18" x1="446.74" y1="250.38" x2="464.49" y2="250.38" gradientTransform="translate(-263.36 500.76) scale(1 -1)" gradientUnits="userSpaceOnUse">
      <stop offset="0" stop-color="#d7edfa"/>
      <stop offset=".19" stop-color="#c2e0f4"/>
      <stop offset=".4" stop-color="#b3d6f1"/>
      <stop offset=".65" stop-color="#a9d0ee"/>
      <stop offset="1" stop-color="#a7cfee"/>
    </linearGradient>
    <linearGradient id="linear-gradient-10" x1="445.5" y1="247.4" x2="465.74" y2="247.4" gradientTransform="translate(-263.36 494.8) scale(1 -1)" gradientUnits="userSpaceOnUse">
      <stop offset="0" stop-color="#2f5b91"/>
      <stop offset="1" stop-color="#00264c"/>
    </linearGradient>
    <linearGradient id="_Áåçûìÿííûé_ãðàäèåíò_23" data-name="Áåçûìÿííûé ãðàäèåíò 23" x1="123.13" y1="62.75" x2="123.13" y2="285.07" gradientUnits="userSpaceOnUse">
      <stop offset="0" stop-color="#a0c4e8"/>
      <stop offset="1" stop-color="#67a3d8"/>
    </linearGradient>
    <linearGradient id="_Áåçûìÿííûé_ãðàäèåíò_13" data-name="Áåçûìÿííûé ãðàäèåíò 13" x1="185.26" y1="92.62" x2="192.29" y2="92.62" gradientUnits="userSpaceOnUse">
      <stop offset="0" stop-color="#2f5c91"/>
      <stop offset=".1" stop-color="#285081"/>
      <stop offset=".3" stop-color="#1d3e69"/>
      <stop offset=".51" stop-color="#153157"/>
      <stop offset=".73" stop-color="#11294d"/>
      <stop offset="1" stop-color="#10274a"/>
    </linearGradient>
    <linearGradient id="_Áåçûìÿííûé_ãðàäèåíò_13-2" data-name="Áåçûìÿííûé ãðàäèåíò 13" x1="182.88" y1="82.41" x2="190.8" y2="82.41" xlink:href="#_Áåçûìÿííûé_ãðàäèåíò_13"/>
    <linearGradient id="_Áåçûìÿííûé_ãðàäèåíò_13-3" data-name="Áåçûìÿííûé ãðàäèåíò 13" x1="179.04" y1="72.68" x2="187.65" y2="72.68" xlink:href="#_Áåçûìÿííûé_ãðàäèåíò_13"/>
    <linearGradient id="_Áåçûìÿííûé_ãðàäèåíò_12" data-name="Áåçûìÿííûé ãðàäèåíò 12" x1="173.83" y1="63.67" x2="182.94" y2="63.67" gradientUnits="userSpaceOnUse">
      <stop offset="0" stop-color="#2f5c91"/>
      <stop offset=".21" stop-color="#2c578b"/>
      <stop offset=".49" stop-color="#254b7a"/>
      <stop offset=".8" stop-color="#19375f"/>
      <stop offset="1" stop-color="#10274a"/>
    </linearGradient>
    <linearGradient id="_Áåçûìÿííûé_ãðàäèåíò_12-2" data-name="Áåçûìÿííûé ãðàäèåíò 12" x1="167.41" y1="55.61" x2="176.8" y2="55.61" xlink:href="#_Áåçûìÿííûé_ãðàäèåíò_12"/>
    <linearGradient id="_Áåçûìÿííûé_ãðàäèåíò_12-3" data-name="Áåçûìÿííûé ãðàäèåíò 12" x1="159.93" y1="48.71" x2="169.39" y2="48.71" xlink:href="#_Áåçûìÿííûé_ãðàäèåíò_12"/>
    <linearGradient id="_Áåçûìÿííûé_ãðàäèåíò_12-4" data-name="Áåçûìÿííûé ãðàäèåíò 12" x1="151.59" y1="43.14" x2="160.92" y2="43.14" xlink:href="#_Áåçûìÿííûé_ãðàäèåíò_12"/>
    <linearGradient id="linear-gradient-11" x1="142.59" y1="39.05" x2="151.59" y2="39.05" gradientUnits="userSpaceOnUse">
      <stop offset="0" stop-color="#69a7db"/>
      <stop offset="1" stop-color="#3b6fae"/>
    </linearGradient>
    <linearGradient id="linear-gradient-12" x1="133.16" y1="36.57" x2="141.65" y2="36.57" xlink:href="#linear-gradient-11"/>
    <linearGradient id="linear-gradient-13" x1="123.27" y1="35.66" x2="131.36" y2="35.66" xlink:href="#linear-gradient-11"/>
    <linearGradient id="linear-gradient-14" x1="113.01" y1="36.47" x2="121.45" y2="36.47" xlink:href="#linear-gradient-11"/>
    <linearGradient id="linear-gradient-15" x1="103.15" y1="38.91" x2="111.96" y2="38.91" gradientUnits="userSpaceOnUse">
      <stop offset="0" stop-color="#a0c4e6"/>
      <stop offset="1" stop-color="#68a1d6"/>
    </linearGradient>
    <linearGradient id="linear-gradient-16" x1="93.94" y1="42.96" x2="102.83" y2="42.96" xlink:href="#linear-gradient-15"/>
    <linearGradient id="linear-gradient-17" x1="85.62" y1="48.51" x2="94.32" y2="48.51" xlink:href="#linear-gradient-15"/>
    <linearGradient id="linear-gradient-18" x1="78.39" y1="55.4" x2="86.64" y2="55.4" xlink:href="#linear-gradient-15"/>
    <linearGradient id="_Áåçûìÿííûé_ãðàäèåíò_3" data-name="Áåçûìÿííûé ãðàäèåíò 3" x1="73.12" y1="66.62" x2="79.13" y2="60.61" gradientUnits="userSpaceOnUse">
      <stop offset="0" stop-color="#d5ebf9"/>
      <stop offset=".02" stop-color="#d1e9f8"/>
      <stop offset=".17" stop-color="#bedcf3"/>
      <stop offset=".35" stop-color="#b1d4f0"/>
      <stop offset=".58" stop-color="#a9cfee"/>
      <stop offset="1" stop-color="#a7ceee"/>
    </linearGradient>
    <linearGradient id="_Áåçûìÿííûé_ãðàäèåíò_3-2" data-name="Áåçûìÿííûé ãðàäèåíò 3" x1="68.02" y1="75.7" x2="74.21" y2="69.52" xlink:href="#_Áåçûìÿííûé_ãðàäèåíò_3"/>
    <linearGradient id="_Áåçûìÿííûé_ãðàäèåíò_3-3" data-name="Áåçûìÿííûé ãðàäèåíò 3" x1="64.47" y1="85.41" x2="70.64" y2="79.24" xlink:href="#_Áåçûìÿííûé_ãðàäèåíò_3"/>
    <linearGradient id="_Áåçûìÿííûé_ãðàäèåíò_3-4" data-name="Áåçûìÿííûé ãðàäèåíò 3" x1="62.57" y1="95.49" x2="68.53" y2="89.54" xlink:href="#_Áåçûìÿííûé_ãðàäèåíò_3"/>
    <linearGradient id="_Áåçûìÿííûé_ãðàäèåíò_34" data-name="Áåçûìÿííûé ãðàäèåíò 34" x1="3193.48" y1="-1341.99" x2="3208.75" y2="-1349.43" gradientTransform="translate(3635.61 -79.16) rotate(154.06) scale(.99 -1)" gradientUnits="userSpaceOnUse">
      <stop offset="0" stop-color="#356491"/>
      <stop offset=".12" stop-color="#2d5a84"/>
      <stop offset=".49" stop-color="#193f62"/>
      <stop offset=".8" stop-color="#0c2e4d"/>
      <stop offset="1" stop-color="#082946"/>
    </linearGradient>
    <linearGradient id="_Áåçûìÿííûé_ãðàäèåíò_22" data-name="Áåçûìÿííûé ãðàäèåíò 22" x1="184.88" y1="98.64" x2="192.6" y2="114.45" gradientUnits="userSpaceOnUse">
      <stop offset="0" stop-color="#a0c4e6"/>
      <stop offset=".86" stop-color="#6fa5d8"/>
      <stop offset="1" stop-color="#68a1d6"/>
    </linearGradient>
    <linearGradient id="_Áåçûìÿííûé_ãðàäèåíò_2" data-name="Áåçûìÿííûé ãðàäèåíò 2" x1="3320.45" y1="-1403.58" x2="3305.18" y2="-1396.17" gradientTransform="translate(3635.61 -79.16) rotate(154.06) scale(.99 -1)" gradientUnits="userSpaceOnUse">
      <stop offset="0" stop-color="#356491"/>
      <stop offset=".14" stop-color="#265179"/>
      <stop offset=".31" stop-color="#193f62"/>
      <stop offset=".5" stop-color="#0f3252"/>
      <stop offset=".72" stop-color="#092b49"/>
      <stop offset="1" stop-color="#082946"/>
    </linearGradient>
    <linearGradient id="_Áåçûìÿííûé_ãðàäèåíò_5" data-name="Áåçûìÿííûé ãðàäèåíò 5" x1="3300.22" y1="-1410.75" x2="3308.01" y2="-1394.81" gradientTransform="translate(3650.45 -77.47) rotate(154.06) scale(1 -1)" gradientUnits="userSpaceOnUse">
      <stop offset="0" stop-color="#2f5c91"/>
      <stop offset=".36" stop-color="#2d5a8e"/>
      <stop offset=".56" stop-color="#2a5486"/>
      <stop offset=".72" stop-color="#244978"/>
      <stop offset=".86" stop-color="#1b3b65"/>
      <stop offset=".99" stop-color="#11284c"/>
      <stop offset="1" stop-color="#10274a"/>
    </linearGradient>
    <linearGradient id="_Áåçûìÿííûé_ãðàäèåíò_34-2" data-name="Áåçûìÿííûé ãðàäèåíò 34" x1="3220.55" y1="-1420.51" x2="3235.81" y2="-1427.95" xlink:href="#_Áåçûìÿííûé_ãðàäèåíò_34"/>
    <linearGradient id="_Áåçûìÿííûé_ãðàäèåíò_21" data-name="Áåçûìÿííûé ãðàäèåíò 21" x1="3216.15" y1="-1435.01" x2="3223.94" y2="-1419.07" gradientTransform="translate(3650.45 -77.47) rotate(154.06) scale(1 -1)" gradientUnits="userSpaceOnUse">
      <stop offset="0" stop-color="#69a7db"/>
      <stop offset=".32" stop-color="#5d99cf"/>
      <stop offset=".91" stop-color="#3f74b2"/>
      <stop offset="1" stop-color="#3b6fae"/>
    </linearGradient>
    <linearGradient id="_Áåçûìÿííûé_ãðàäèåíò_14" data-name="Áåçûìÿííûé ãðàäèåíò 14" x1="-2362.65" y1="-3957.69" x2="-2382.28" y2="-3993.55" gradientTransform="translate(-4481.4 -102.65) rotate(-118.7) scale(1 -1)" gradientUnits="userSpaceOnUse">
      <stop offset="0" stop-color="#fbd5db"/>
      <stop offset=".13" stop-color="#f8ced4"/>
      <stop offset=".66" stop-color="#eeb7bf"/>
      <stop offset="1" stop-color="#ebafb8"/>
    </linearGradient>
    <linearGradient id="linear-gradient-19" x1="4667.05" y1="-489.67" x2="4680.44" y2="-489.67" gradientTransform="translate(-4567.56 -195.08) rotate(9.22)" xlink:href="#linear-gradient-15"/>
    <linearGradient id="linear-gradient-20" x1="2660.92" y1="3587.97" x2="2661.97" y2="3589.72" gradientTransform="translate(-4589.4 -513.77) rotate(-46.26) scale(1.07)" xlink:href="#linear-gradient-15"/>
    <linearGradient id="_Áåçûìÿííûé_ãðàäèåíò_6" data-name="Áåçûìÿííûé ãðàäèåíò 6" x1="341.83" y1="73.09" x2="341.83" y2="103.82" gradientTransform="translate(476.5) rotate(-180) scale(1 -1)" gradientUnits="userSpaceOnUse">
      <stop offset="0" stop-color="#a0c4e6"/>
      <stop offset=".33" stop-color="#9dc2e5"/>
      <stop offset=".56" stop-color="#93bce2"/>
      <stop offset=".77" stop-color="#83b2dd"/>
      <stop offset=".96" stop-color="#6da4d7"/>
      <stop offset="1" stop-color="#68a1d6"/>
    </linearGradient>
    <linearGradient id="_Áåçûìÿííûé_ãðàäèåíò_8" data-name="Áåçûìÿííûé ãðàäèåíò 8" x1="366.5" y1="-272.07" x2="362.09" y2="-328.21" gradientTransform="translate(-303.04 234.35) rotate(19.12)" gradientUnits="userSpaceOnUse">
      <stop offset="0" stop-color="#2f5c91"/>
      <stop offset=".4" stop-color="#2e5a8e"/>
      <stop offset=".6" stop-color="#2a5487"/>
      <stop offset=".74" stop-color="#254b7a"/>
      <stop offset=".87" stop-color="#1d3d68"/>
      <stop offset=".98" stop-color="#122b50"/>
      <stop offset="1" stop-color="#10274a"/>
    </linearGradient>
    <linearGradient id="linear-gradient-21" x1="6452.86" y1="217.4" x2="6457.11" y2="217.4" gradientTransform="translate(-6368.08 -12.88) rotate(-.85)" gradientUnits="userSpaceOnUse">
      <stop offset="0" stop-color="#fbd5db"/>
      <stop offset="1" stop-color="#ebafb8"/>
    </linearGradient>
    <linearGradient id="linear-gradient-22" x1="5846.37" y1="-1136.74" x2="5858.87" y2="-1107.34" gradientTransform="translate(-5723.5 -1162.77) rotate(23.02)" gradientUnits="userSpaceOnUse">
      <stop offset="0" stop-color="#2f5c90"/>
      <stop offset="1" stop-color="#11274a"/>
    </linearGradient>
    <linearGradient id="linear-gradient-23" x1="2435.17" y1="-2015.51" x2="2439.73" y2="-2015.51" gradientTransform="translate(-2995.4 -451.31) rotate(49.79)" xlink:href="#linear-gradient-21"/>
    <linearGradient id="linear-gradient-24" x1="924.48" y1="4386.99" x2="893.45" y2="4399.66" gradientTransform="translate(-4295.2 -725.23) rotate(-67.8)" xlink:href="#linear-gradient-22"/>
    <linearGradient id="linear-gradient-25" x1="5110.34" y1="-2783.35" x2="5116.22" y2="-2785.09" gradientTransform="translate(-5618.91 -909.07) rotate(38.2)" gradientUnits="userSpaceOnUse">
      <stop offset="0" stop-color="#d9bac1"/>
      <stop offset="1" stop-color="#d9a0aa"/>
    </linearGradient>
    <linearGradient id="linear-gradient-26" x1="-4471.16" y1="-289.82" x2="-4472.41" y2="-282.3" gradientTransform="translate(-4333.45 -392.25) rotate(-170.52) scale(1 -1)" xlink:href="#linear-gradient-21"/>
    <linearGradient id="linear-gradient-27" x1="5605.73" y1="-5569.98" x2="5620.34" y2="-5569.98" gradientTransform="translate(-7161.71 -2435) rotate(62.2) scale(1 .95)" xlink:href="#linear-gradient-15"/>
    <linearGradient id="linear-gradient-28" x1="-5667.31" y1="645.26" x2="-5663.5" y2="645.26" gradientTransform="translate(-5575.74 -177.53) rotate(175.96) scale(1 -1)" xlink:href="#linear-gradient-15"/>
    <linearGradient id="linear-gradient-29" x1="4494.06" y1="-689.03" x2="4497.44" y2="-683.47" gradientTransform="translate(-4394.76 -541.79) rotate(16.55)" xlink:href="#linear-gradient-22"/>
    <linearGradient id="_Áåçûìÿííûé_ãðàäèåíò_10" data-name="Áåçûìÿííûé ãðàäèåíò 10" x1="-2631.15" y1="-3789.3" x2="-2602.96" y2="-3774.2" gradientTransform="translate(-4457.33 -330.95) rotate(-119.79) scale(1 -1)" gradientUnits="userSpaceOnUse">
      <stop offset="0" stop-color="#fbd5db"/>
      <stop offset=".49" stop-color="#f4c4cb"/>
      <stop offset="1" stop-color="#ebafb8"/>
    </linearGradient>
    <linearGradient id="linear-gradient-30" x1="4687.89" y1="-177.05" x2="4701.75" y2="-177.05" gradientTransform="translate(-4547.78 -419.86) rotate(8.13)" xlink:href="#linear-gradient-15"/>
    <linearGradient id="linear-gradient-31" x1="2430.51" y1="3769.79" x2="2431.6" y2="3771.59" gradientTransform="translate(-4574.5 -737.58) rotate(-47.35) scale(1.07)" xlink:href="#linear-gradient-15"/>
    <linearGradient id="linear-gradient-32" x1="24.66" y1="32.63" x2="24.66" y2="40.5" gradientUnits="userSpaceOnUse">
      <stop offset="0" stop-color="#d7edf9"/>
      <stop offset="1" stop-color="#a8ceec"/>
    </linearGradient>
    <linearGradient id="linear-gradient-33" x1="213.38" y1="45.92" x2="213.38" y2="56.16" xlink:href="#linear-gradient-32"/>
    <linearGradient id="linear-gradient-34" x1="647.63" y1="0" x2="647.63" y2="6.01" gradientTransform="translate(732.8) rotate(-180) scale(.76 -1)" xlink:href="#linear-gradient-32"/>
  </defs>
  <path class="cls-55" d="m115.2,62.07c-3.07,6.58-7.71,14.37-19.29,16.55-9.72,1.83-19.31-1.37-29.27-1.55-10.13-.19-20.73,3.08-26.29,8.11-5.56,5.02-5.81,11.56-.62,16.2,6.27,5.61,19.42,8.43,22.77,14.87,2.23,4.28-.64,9.18-5.31,13.15-4.67,3.96-11.02,7.23-16.81,10.72-10.71,6.45-19.85,13.95-24.08,22.24-4.23,8.29-3.09,17.44,5.3,24.06,3.05,2.41,7.13,4.4,11.8,5.82,7.87,2.4,10.12,8.13,4.95,12.68-.91.8-1.75,1.63-2.52,2.47-4.36,4.81-5.92,11.02.2,14.67,4.13,2.46,10.9,3.14,17.19,2.59,6.29-.55,12.25-2.18,18.05-3.82,12.72-3.6,25.49-7.46,39.18-9.14,13.69-1.68,28.77-.86,38.55,4.12,8.5,4.32,12.58,11.46,23.33,13.94,7.22,1.67,15.93.77,23.59-1.01,15.47-3.58,28.64-10.73,35.51-19.29,7.2-8.97,7.46-18.85,7.58-28.37.39-30.64-17.35-27.91-19.55-58.47-2.18-30.29,17.73-20.86,15.81-39-.73-6.91-9.24-18.8-18.68-18.9-10.02-.11-19.75,4.14-29.71,3.75-11.77-.46-18.5-6.91-24.3-12.43-5.8-5.53-15.11-11.39-26.89-9.87-11.82,1.53-17.41,9.33-20.48,15.9Z"/>
  <ellipse class="cls-26" cx="131.35" cy="263.28" rx="82.03" ry="5.26"/>
  <path class="cls-2" d="m209.5,166.24c.9-1.23,2.06-2.86,3.04-4.67.83-1.47,1.62-3.13,2.39-5.08.66-1.76,1.23-3.56,1.79-5.3l1.87-5.99c.48-1.5.98-3.06,1.58-4.53.75-1.89,1.55-3.46,2.45-4.8.88-1.34,2.03-2.63,3.52-3.96,1.27-1.15,2.71-2.11,4.11-3.04l.07.02v-.06s.06-.04.09-.07c.12-.08.2-.19.22-.33.03-.14,0-.28-.07-.4-.07-.12-.19-.21-.33-.24-.04,0-.07-.02-.11-.02v-.07s-.09.05-.09.05c-3.87-.84-7.64-1.43-11.2-1.75-2.03-.18-3.91-.27-5.75-.29-1.77-.03-3.57.07-5.31.17l-.44.02-2.86.3c-.62.09-1.23.19-1.84.29-.33.05-.66.11-1,.16-2.12.41-3.95.85-5.59,1.37-1.84.56-3.65,1.24-5.39,2.03-1.63.73-3.3,1.63-5.09,2.74-.6.38-1.19.8-1.76,1.2l-.63.44c-.27.23-.54.44-.81.65-.48.38-.99.78-1.45,1.2-.19.17-.38.35-.57.52-.52.47-1.06.96-1.55,1.5l-1.01,1.05-.95,1.13c-.45.5-.86,1.06-1.25,1.6-.18.24-.36.49-.54.73l-.23.34c-.47.7-.95,1.42-1.37,2.16-.91,1.54-1.75,3.29-2.57,5.36-.79,2.2-1.3,4.03-1.62,5.78-.37,2.09-.54,4.11-.51,6.02.06,2.13.36,4.15.87,6.01.41,1.48.97,2.84,1.65,4.09-.57.96-1.15,1.94-1.72,2.98-.6,1-1.12,2.05-1.63,3.06-.24.48-.47.95-.71,1.41-.73,1.36-1.33,2.75-1.91,4.1l-1.06,2.44c-.2.47-.37.93-.54,1.39-.09.25-.18.49-.28.73-.18.49-.36.97-.54,1.45.46.12.92.24,1.38.36.16-.4.32-.8.48-1.22.1-.24.19-.49.29-.73.17-.44.34-.89.54-1.33l1.39-3.08c.49-1.1,1-2.24,1.59-3.34.24-.47.48-.94.72-1.42.49-.99,1-2.02,1.59-2.99.43-.78.88-1.56,1.34-2.34,1.07,1.54,2.45,2.86,4,3.82.18.11.35.21.54.32,1.39.77,2.93,1.32,4.6,1.62,3.36.6,7.06.29,10.72-.89,6.58-2.1,12.77-6.59,17.44-12.65Zm-14.99,10.82c-.07-.19-.14-.39-.2-.6-.05-.17-.1-.35-.15-.51-.15-.5-.31-.95-.48-1.38-.36-.94-.78-1.83-1.28-2.65-.51-.85-1.09-1.66-1.73-2.38-.35-.41-.73-.77-1.02-1.05-.42-.38-.77-.68-1.12-.94-1.49-1.13-3.24-2.01-5.12-2.58-.4-.13-.82-.24-1.22-.33l-.15-.04c-.29-.08-.59-.13-.88-.18-.17-.03-.33-.06-.5-.09-.31-.05-.61-.09-.91-.13-.16-.02-.33-.04-.49-.07l-.43-.04s.05-.06.07-.09c.2-.25.39-.5.59-.76l1.64-2.11,1.73-2.03c.64-.75,1.31-1.51,2.01-2.28l1.51-.05c.12,0,.24,0,.37-.01.42-.02.83-.03,1.23.03l1.63.15c.34.02.67.1,1.01.18.19.05.38.09.58.13.11.03.23.05.35.08.42.09.82.17,1.2.32l1.57.53,1.49.69c.33.14.72.36,1.11.59.11.07.22.13.34.2.48.28.96.55,1.39.88.17.12.33.24.5.36.28.2.58.4.84.63.15.13.31.26.46.39.28.23.56.46.82.7l1.22,1.18c.13.14.27.29.4.44.25.27.49.53.73.81.12.15.25.31.39.47.23.27.46.56.67.85.53.69,1,1.41,1.44,2.13-.33.37-.67.73-1.03,1.07-1.32,1.33-2.67,2.52-4.01,3.52-1.35,1.05-2.85,2.03-4.45,2.9-.69.38-1.41.74-2.14,1.07Zm-22.04-3.46c1.23-2.07,2.53-4.11,3.89-6.07l1.53-2.18c.05-.07.11-.15.16-.22l1.15.06c.15.02.32.03.48.05.29.03.57.06.86.1.15.03.3.05.46.07.29.04.59.09.87.16l.16.04c.38.08.78.17,1.16.29,1.81.5,3.47,1.29,4.91,2.32.33.23.67.51,1.08.86.33.3.67.62.99.97.63.67,1.21,1.42,1.71,2.22.49.78.93,1.62,1.3,2.52.18.41.34.85.51,1.34.06.17.11.33.16.49.06.21.14.43.23.64-.74.32-1.49.61-2.27.88-1.77.61-3.49,1-5.13,1.18-1.88.21-3.65.18-5.26-.1-1.82-.31-3.49-.91-4.97-1.81-1.52-.91-2.88-2.19-3.93-3.69-.02-.03-.04-.07-.06-.1Zm-.84-23.24c0,.35-.01.69,0,1.04.03.79.1,1.49.21,2.14.07.58.2,1.17.33,1.74l.09.37c.05.18.1.35.15.52.15.51.31,1.04.51,1.55.13.35.25.68.4,1.01l.12.28c.1.24.2.48.33.71.3.6.64,1.22,1.04,1.88.46.71.85,1.27,1.24,1.76.26.34.52.64.78.93-.03.05-.07.09-.1.14l-1.56,2.18c-1.22,1.71-2.4,3.54-3.58,5.49-1.42-2.7-2.22-5.99-2.31-9.63-.02-1.87.15-3.85.52-5.9.32-1.74.85-3.59,1.61-5.67.07-.18.15-.35.23-.53Zm7.89-9.33l-.03,1.26c-.01.28,0,.56.03.83,0,.15.02.29.03.44.02.5.06.91.13,1.29.02.14.04.29.06.43.04.28.08.55.13.82l.26,1.24c.06.27.14.54.21.81.04.14.08.28.12.42.1.39.23.78.36,1.15l.02.07c.29.88.65,1.73.93,2.37.35.79.74,1.55,1.14,2.27.15.29.32.56.49.84l.25.4.11.16.05.08c-.69.74-1.34,1.47-1.96,2.18l-1.77,2.04-1.69,2.13c-.2.26-.4.51-.6.75-.09.12-.19.23-.28.35-.19-.23-.39-.49-.59-.76-.43-.56-.82-1.17-1.15-1.68-.38-.61-.71-1.19-1.01-1.77-.1-.18-.18-.35-.26-.53-.06-.13-.13-.27-.19-.4-.15-.29-.28-.6-.4-.9-.22-.5-.39-1-.56-1.48-.06-.16-.11-.33-.17-.49l-.28-.99c-.1-.3-.16-.59-.22-.9l-.02-.1c-.02-.12-.05-.24-.08-.37-.05-.21-.1-.43-.13-.64l-.15-1.03c-.07-.41-.1-.81-.13-1.23-.02-.29-.04-.57-.07-.86h0c.6-1.34,1.21-2.53,1.86-3.6.42-.72.9-1.43,1.37-2.11l.22-.33c.18-.23.37-.48.55-.72.39-.52.79-1.06,1.23-1.54l.95-1.1,1-1.02c.21-.22.42-.43.65-.64l-.08.31c-.12.42-.17.85-.22,1.26-.01.12-.03.25-.05.37-.04.29-.08.59-.09.9Zm12.34-9.21c-.24.68-.44,1.41-.61,2.24-.29,1.4-.41,2.93-.35,4.66.04,1.41.24,2.93.63,4.64.18.74.39,1.5.62,2.25.12.37.24.74.37,1.1l.25.73c-1.21,1.02-2.36,2.03-3.42,2.98-1.81,1.7-3.37,3.24-4.76,4.69l-.25-.41c-.16-.27-.31-.54-.46-.82-.35-.64-.69-1.34-1.07-2.19-.27-.61-.63-1.42-.91-2.26l-.12-.34c-.1-.27-.19-.54-.27-.81-.04-.14-.09-.28-.13-.42-.08-.25-.16-.5-.22-.75l-.3-1.19c-.06-.25-.11-.51-.15-.77-.02-.14-.05-.29-.08-.43-.08-.41-.13-.82-.17-1.2-.01-.14-.03-.29-.05-.44-.03-.26-.07-.51-.07-.76l-.05-1.24c0-.24,0-.47.02-.72,0-.17.02-.34.02-.5.01-.38.03-.79.1-1.2l.14-1.02c.08-.07.16-.15.25-.22.19-.17.39-.34.58-.52.45-.41.95-.79,1.42-1.15.27-.21.54-.42.81-.63.24-.16.49-.34.75-.51.52-.36,1.06-.73,1.6-1.08,1.76-1.08,3.4-1.95,5.01-2.66.51-.23,1.04-.43,1.56-.64-.09.18-.19.37-.27.57-.15.34-.3.7-.42,1.07Zm15.77,0c-.52,1.71-.86,3.59-1.11,5.96-.39.23-.77.45-1.16.68-.97.57-1.92,1.18-2.92,1.83l-1.05.68c-.43.3-.85.59-1.28.89-.91.62-1.85,1.27-2.76,1.98-1.25.9-2.48,1.87-3.67,2.85l-.45-1.43c-.22-.74-.41-1.47-.56-2.17-.34-1.47-.57-2.95-.69-4.42-.06-.8-.08-1.53-.05-2.23.02-.7.06-1.46.17-2.22.18-1.41.55-2.86,1.1-4.3,0,0,0,0,0,0,1.02-.39,2.06-.76,3.11-1.07,1.61-.5,3.42-.93,5.51-1.31.33-.05.67-.1,1.01-.16.6-.1,1.2-.19,1.8-.27l3.27-.3c.76-.04,1.54-.08,2.32-.11l-.42.48c-.12.16-.22.31-.32.47-.05.08-.1.16-.16.24-.11.16-.2.34-.29.51-.04.08-.08.16-.13.24-.17.3-.29.55-.38.78-.04.09-.07.18-.11.26-.07.17-.15.34-.21.52-.16.43-.37,1.01-.55,1.6Zm20.71-3.36c-.81.21-1.99.54-3.53,1.04-1.59.51-3.36,1.15-5.26,1.9-1.8.7-3.9,1.63-6.63,2.94-1.68.84-3.45,1.76-5.26,2.78.09-.55.19-1.12.32-1.74.07-.37.15-.74.23-1.11l.11-.51c.14-.63.26-1.14.38-1.59.23-.99.55-2.01.98-3.1.03-.08.07-.16.1-.25.07-.17.13-.33.21-.48.05-.09.09-.18.14-.27.07-.15.15-.3.23-.45l.42-.68.23-.27c.7-.02,1.39-.03,2.09-.01,1.82.03,3.68.13,5.68.32,3.09.29,6.3.79,9.55,1.47Zm-8.97,11.23c-.73-.35-1.54-.66-2.44-.94-1.17-.36-2.25-.62-3.32-.77-.26-.05-.54-.07-.81-.1-.13-.01-.23-.02-.33-.03-.19-.02-.37-.04-.56-.05l-.84-.04c-.18-.01-.37,0-.56,0-.1,0-.19,0-.29,0-.1,0-.2,0-.3,0-.19,0-.38,0-.56.02l-.64.05c1.6-.91,3.16-1.74,4.65-2.51,2.68-1.32,4.75-2.26,6.54-2.98,1.86-.77,3.61-1.42,5.18-1.94.77-.26,1.45-.47,2.04-.65-.56.42-1.13.86-1.67,1.35-1.57,1.37-2.78,2.73-3.72,4.13-.95,1.41-1.71,2.91-2.37,4.48Zm-5.1,15.24c-.43-.54-.93-1.09-1.53-1.7-.33-.32-.72-.69-1.13-1.05-.15-.12-.28-.23-.42-.35-.25-.21-.51-.43-.78-.62-.15-.1-.29-.21-.43-.31-.26-.19-.53-.39-.82-.57-.15-.09-.3-.19-.45-.28-.28-.18-.56-.35-.84-.52l-1.35-.7c-.3-.15-.61-.27-.91-.39-.16-.07-.33-.13-.49-.2-.4-.18-.81-.31-1.22-.43l-.22-.07c-.15-.04-.3-.09-.45-.14-.33-.1-.67-.21-1.02-.27l-1.46-.3c-.33-.06-.66-.09-.98-.12-.17-.02-.35-.03-.52-.05l-.28-.03c-.4-.04-.81-.08-1.23-.06h-1.48c-.25,0-.5.02-.74.04.83-.67,1.67-1.33,2.52-1.96.89-.7,1.81-1.35,2.7-1.97.42-.3.85-.59,1.26-.89.36-.23.73-.48,1.09-.72.97-.64,1.88-1.24,2.81-1.8.26-.16.51-.31.77-.47,0,0,0,0,.01,0,.06.03.12.05.18.06.04,0,.09,0,.13,0,.19-.03.37-.06.54-.1.35-.07.71-.13,1.07-.17l.82-.09c.17-.03.35-.03.52-.04.1,0,.2,0,.3-.01.09,0,.19,0,.29-.01.17,0,.34-.02.51-.01h.83c.18,0,.35.02.52.04.1,0,.2.02.3.02.29.02.55.03.81.07,1.04.1,2.13.3,3.25.59.88.23,1.67.5,2.39.79-.68,1.68-1.27,3.46-1.86,5.33l-1.67,5.36c-.44,1.4-.88,2.74-1.36,4.08Zm-2.7,6.02c-.88,1.64-1.97,3.19-2.94,4.55-.67.86-1.39,1.75-2.15,2.61-.41-.71-.85-1.42-1.35-2.1-.21-.31-.44-.61-.67-.89-.13-.16-.25-.32-.37-.48-.24-.29-.49-.57-.73-.85-.13-.15-.27-.31-.4-.46l-1.21-1.24c-.27-.26-.55-.51-.84-.75-.15-.13-.3-.26-.45-.4-.28-.26-.59-.49-.89-.71-.16-.12-.32-.23-.47-.35-.45-.36-.95-.66-1.43-.95-.12-.07-.23-.14-.34-.21-.38-.24-.76-.47-1.16-.65l-1.52-.74-1.61-.58c-.42-.17-.86-.28-1.29-.38l-.35-.08c-.2-.04-.39-.09-.58-.14-.35-.09-.72-.18-1.09-.22l-1.66-.19c-.44-.07-.89-.07-1.32-.07-.12,0-.25,0-.37,0h-.42c1.25-1.31,2.65-2.7,4.27-4.25,1.16-1.06,2.44-2.19,3.78-3.33l.92-.12c.16-.02.33-.04.5-.07.31-.05.61-.09.91-.09l1.46-.04c.38-.03.75,0,1.14.03l.29.02c.17.02.34.03.52.04.3.02.61.04.92.09l1.43.26c.33.04.63.13.96.23.15.04.3.09.45.13l.22.06c.39.11.78.22,1.15.38.17.07.33.13.5.19.29.11.58.22.87.35l1.47.72c.23.13.45.26.67.39.16.09.31.18.47.27.27.16.53.34.79.52.15.1.3.21.45.3.26.17.51.38.76.57.14.11.28.22.43.33.4.33.79.68,1.12.98.68.65,1.23,1.23,1.7,1.81-.07.19-.13.39-.21.58-.31.79-.66,1.61-1.07,2.5-.11.22-.23.46-.34.69-.28.57-.57,1.16-.9,1.72Z"/>
  <path class="cls-18" d="m238.33,166.35c-1.98-3.27-6.7,1.99-8.42,5.13-2.04,1.59-4,3.19-5.88,4.79,2.54-6.43-1.05-12.46-4.06-10-2.54,2.07-.12,3.41,1.27,6.55.59,1.32.78,3.57.84,5.13-2.33,2.03-4.55,4.05-6.66,6.08,2.09-8.23-3.23-15.94-6.61-12.82-2.87,2.66.36,4.43,2.56,8.51.91,1.68,1.47,4.51,1.78,6.52-2.32,2.32-4.5,4.63-6.55,6.92,1.75-10.63-6.03-19.67-9.8-15.27-3.16,3.69,1.04,5.39,4.3,10.08,1.37,1.98,2.47,5.48,3.12,7.91-2.73,3.21-5.2,6.38-7.44,9.5.21-13.15-10.86-22.51-14.54-16.49-3.07,5.03,2.25,6.22,7.02,11.17,1.98,2.06,3.93,5.94,5.16,8.7-2.62,3.89-4.88,7.69-6.82,11.36-.73-14.9-13.45-23.87-17.13-16.49-3.09,6.19,2.89,6.79,8.48,11.77,2.35,2.1,4.79,6.34,6.33,9.34-1.56,3.26-2.86,6.4-3.97,9.39-2.01-11.08-12.27-16.2-14.2-10.23-1.61,5,2.8,4.68,7.39,7.68,1.93,1.26,4.13,4.1,5.56,6.13-2.92,8.85-4.01,16.14-4.41,21.02l.53.15c1.04-7.18,2.91-14.1,5.36-20.7,2.11.04,4.89.23,6.7.88,4.74,1.72,7.3,4.89,9.41,1.4,2.5-4.14-6.96-8.7-15.1-4.94,1.43-3.57,3.03-7.04,4.75-10.4,3.03.16,7.29.58,9.92,1.72,6.43,2.79,9.59,7.58,13.07,2.61,4.19-5.99-8.94-13.33-21.11-7.87,2.31-4.21,4.81-8.24,7.41-12.05,2.74.59,6.33,1.55,8.49,2.9,5.59,3.5,7.88,8.38,11.78,4.27,4.62-4.88-6.18-13.36-17.99-10.43,2.34-3.27,4.73-6.36,7.13-9.28,2.37.5,5.57,1.34,7.47,2.53,4.79,2.99,6.75,7.18,10.09,3.66,3.94-4.15-5.18-11.35-15.23-8.98,2.07-2.42,4.12-4.71,6.12-6.84,1.96.31,4.84.9,6.53,1.86,3.97,2.26,5.68,5.58,8.27,2.62,3.06-3.5-4.58-9.04-12.65-6.73,2.01-2.08,3.94-4,5.77-5.74,1.43-.1,3.6-.16,4.94.28,3.08,1,4.67,3.16,6.19.55,1.63-2.8-3.21-5.36-8.24-3.55,1.85-1.71,3.54-3.2,5.01-4.47,2.5-.56,10.07-2.56,8.07-5.85Z"/>
  <path class="cls-81" d="m19.64,222.6c4.22-8.09,9.75-11.99,13.51-14.27-3.11-.89-6.03-1.64-8.69-2.28-5.92,6.88-12.37,8.63-15.23,11.03,4.17-6.26,9.19-9.76,12.73-11.62-2.67-.61-5.02-1.09-6.98-1.46-6.94,2.26-11.69-1.39-14.53-1.4,8.47-4.09,15,.22,15.83.81,2.22.33,4.4.69,6.53,1.07-1.64-3.2-3.66-8.61-3.43-15.64.82,3.24,4.53,7.98,5.29,15.99,3.05.58,6.01,1.22,8.87,1.91-1.55-3.88-3.89-10.35-2.18-19.27.42,3.93,4.07,10.2,3.6,19.62,3.41.85,6.69,1.77,9.83,2.75-1.82-4.79-4.57-12.8-2.47-23.87.48,4.89,4.83,12.65,4.15,24.41,3.66,1.19,7.14,2.46,10.45,3.8-2.07-5.58-5.1-14.81-2.69-27.51.53,5.68,5.5,14.68,4.7,28.34,3.84,1.62,7.44,3.33,10.81,5.1-.18-.25-.38-.46-.72-.47-1.24-6.11-3.15-16.52,1.73-29.62-.41,6.03,3.37,16.47.02,30.65,4.27,2.29,8.16,4.67,11.7,7.09-.83-6.7-1.89-17.88,3.16-32.43-.68,6.66,2.24,17.8-1.48,33.6,4.36,3.09,8.18,6.21,11.48,9.25-.13-6.04-.02-15.96,5.3-28.62-1.11,5.91.37,15.93-3.97,29.86,3.55,3.37,6.47,6.61,8.86,9.55.48-4.93,1.54-12.75,6.13-22.78-1.27,4.76-1.17,12.67-5.22,23.85.07.05.14.11.21.19-.02.02-.05.04-.07.06,3.07,3.92,5.13,7.21,6.4,9.42-.09.05-.18.11-.27.16-2.15-3.15-4.47-6.12-6.91-8.93-6.79,5.45-14.53,5.08-17.87,6.79,5.3-6.65,12.12-7.86,16.45-8.38-2.77-3.05-5.69-5.91-8.72-8.59-9.65,8.77-19.2,10.23-23.72,13.21,8.13-9.7,16.87-12.81,22.23-14.51-3.64-3.11-7.44-5.95-11.31-8.57-8.97,9.53-18.39,11.81-22.68,15.19,7.25-10.23,15.59-14.18,20.88-16.38-3.73-2.43-7.52-4.65-11.32-6.68-8.09,10.59-17.36,13.85-21.34,17.67,6.4-11.15,14.54-15.9,19.58-18.6-3.48-1.8-6.95-3.44-10.38-4.93-7.28,10.06-15.8,13.51-19.41,17.28,5.4-10.37,12.52-15.31,17.28-18.19-3.44-1.45-6.82-2.74-10.1-3.91-6.28,8.91-13.74,11.91-16.88,15.18,4.77-9.16,11.1-13.36,15.16-15.78-3.1-1.07-6.1-2.02-8.94-2.86-5.75,8-12.51,10.74-15.37,13.73Z"/>
  <g>
    <g>
      <path class="cls-48" d="m197.69,243.16s7.61-15.69,4.1-28.37c-3.5-12.68-6.08-21.8-4.91-26.96-2.5,5.29-4.36,17.87-2.7,25.99,1.93,9.41,2.47,23.63.5,29.81-1.98,6.17.7,7.14,3-.47Z"/>
      <path class="cls-23" d="m197.48,242.61s6.92-14.78,3.65-26.29c-3.27-11.51-5.67-19.78-4.85-24.66-1.92,5.1-2.59,17.61-.98,25.02,1.87,8.59,1.79,19.16.33,25.04-1.46,5.89.16,8.13,1.85.88Z"/>
      <path class="cls-33" d="m196.77,200.93l-1.02,2.5-1.14-1.8s.46,2.78,1.29,3.55c.83.77.87-4.25.87-4.25Z"/>
      <path class="cls-66" d="m197.6,205.6l-.86,2.88-2.06-2.34s.86,2.93,2.06,3.81c1.2.88.86-4.35.86-4.35Z"/>
      <path class="cls-86" d="m198.79,209.98l-.79,3.23-3.16-2.92s1.41,3.12,3.12,4.14c1.71,1.02.83-4.45.83-4.45Z"/>
      <path class="cls-15" d="m200.21,214.99l-1.43,3.19-3.5-3.02s1.81,4.65,4.26,4.77c1.08.05.67-4.94.67-4.94Z"/>
      <path class="cls-56" d="m201.3,221.25l-1.91,2.64-3.12-3.33s1.14,4.55,3.6,5.11c.98.22,1.43-4.42,1.43-4.42Z"/>
      <path class="cls-3" d="m201.67,226.81l-2.18,1.81-2.83-3.48s1.57,3.54,3.16,5.35c.48.54,1.86-3.68,1.86-3.68Z"/>
      <path class="cls-58" d="m200.68,231.79l-1.94,1.82-1.75-2.49s.76,2.72,1.76,3.99c.3.38,1.92-3.32,1.92-3.32Z"/>
      <path class="cls-62" d="m199.75,236.11l-1.77,1.76-1.26-2.01s.41,2.3,1.14,3.32c.22.31,1.89-3.07,1.89-3.07Z"/>
    </g>
    <g>
      <path class="cls-36" d="m195.44,247.02s6.19-15.74-.45-27.32c-6.64-11.59-11.48-19.91-11.05-24.94-2.01,5.3-1.86,17.42,1.69,24.91,4.11,8.68,7.48,22.07,6.27,28.15-1.21,6.08,2.21,6.67,3.53-.8Z"/>
      <path class="cls-57" d="m195.08,246.52s5.54-14.8-.6-25.31c-6.14-10.5-10.6-18.05-10.55-22.77-1.34,5.06.22,16.97,3.58,23.79,3.89,7.91,5.8,17.92,5.17,23.66-.64,5.74,1.75,7.67,2.4.62Z"/>
      <path class="cls-14" d="m186.3,207.16l-.76,2.49-1.72-1.57s1.09,2.57,2.23,3.21c1.14.64.24-4.13.24-4.13Z"/>
      <path class="cls-25" d="m188.19,211.49l-.49,2.82-2.93-1.97s1.6,2.67,3.21,3.36c1.61.69.21-4.22.21-4.22Z"/>
      <path class="cls-85" d="m190.45,215.49l-.34,3.15-4.37-2.39s2.3,2.79,4.55,3.55c2.26.76.16-4.31.16-4.31Z"/>
      <path class="cls-68" d="m193.12,220.07l-1.12,3.18-4.8-2.44s3.07,4.19,6.05,4.02c1.31-.08-.13-4.76-.13-4.76Z"/>
      <path class="cls-71" d="m195.63,225.87l-1.8,2.72-4.4-2.78s2.24,4.17,5.32,4.41c1.22.09.88-4.35.88-4.35Z"/>
      <path class="cls-46" d="m197.13,231.08l-2.29,1.97-4.07-2.96s2.57,3.16,4.82,4.69c.68.46,1.54-3.7,1.54-3.7Z"/>
      <path class="cls-43" d="m196.88,235.91l-1.99,1.95-2.58-2.15s1.44,2.48,2.89,3.57c.43.33,1.69-3.37,1.69-3.37Z"/>
      <path class="cls-8" d="m196.58,240.11l-1.8,1.87-1.9-1.75s.93,2.13,2.01,3c.32.26,1.69-3.12,1.69-3.12Z"/>
    </g>
    <g>
      <path class="cls-83" d="m191.78,248.43s3.73-11.82-1.26-19.91c-4.99-8.09-8.62-13.9-8.5-17.59-1.2,3.97-.68,12.81,2.04,18.08,3.14,6.11,5.93,15.69,5.31,20.19-.62,4.5,1.75,4.75,2.41-.77Z"/>
      <path class="cls-64" d="m191.52,248.09s3.31-11.1-1.3-18.43c-4.6-7.33-7.95-12.59-8.07-16.03-.75,3.76.75,12.36,3.3,17.16,2.96,5.56,4.63,12.75,4.39,16.98-.24,4.22,1.47,5.5,1.68.32Z"/>
      <path class="cls-39" d="m184.08,219.85l-.44,1.86-1.24-1.05s.84,1.82,1.65,2.22c.81.4.02-3.02.02-3.02Z"/>
      <path class="cls-53" d="m185.54,222.91l-.24,2.09-2.09-1.28s1.2,1.86,2.33,2.28c1.14.42,0-3.09,0-3.09Z"/>
      <path class="cls-70" d="m187.24,225.71l-.13,2.31-3.1-1.5s1.68,1.91,3.27,2.34c1.59.43-.04-3.15-.04-3.15Z"/>
      <path class="cls-67" d="m189.24,228.9l-.66,2.38-3.4-1.52s2.26,2.89,4.32,2.6c.9-.13-.26-3.46-.26-3.46Z"/>
      <path class="cls-13" d="m191.18,232.99l-1.15,2.09-3.13-1.79s1.69,2.92,3.82,2.93c.85,0,.46-3.22.46-3.22Z"/>
      <path class="cls-40" d="m192.39,236.71l-1.51,1.56-2.92-1.94s1.88,2.17,3.49,3.16c.48.3.93-2.78.93-2.78Z"/>
      <path class="cls-84" d="m192.39,240.25l-1.31,1.53-1.86-1.43s1.08,1.73,2.12,2.45c.31.21,1.05-2.55,1.05-2.55Z"/>
      <path class="cls-31" d="m192.33,243.33l-1.18,1.46-1.37-1.18s.72,1.5,1.49,2.08c.23.17,1.06-2.37,1.06-2.37Z"/>
    </g>
    <polygon class="cls-77" points="185.75 264.92 183.62 249.56 200.91 250.08 199.09 264.92 185.75 264.92"/>
    <rect class="cls-11" x="183.39" y="249.22" width="17.75" height="2.33" rx="1.15" ry="1.15" transform="translate(384.52 500.76) rotate(-180)"/>
    <rect class="cls-37" x="182.14" y="245.41" width="20.25" height="3.98" rx="1.97" ry="1.97" transform="translate(384.52 494.8) rotate(180)"/>
  </g>
  <path class="cls-90" d="m60.69,113.05c-1.33,6.9-1.84,14.31-1.25,22.03.19,2.51,2.26,8.71,3.72,14.25.77,2.92-4.91,13.95-10.04,19.38-2.88,3.05-2.57,6.39-1.67,8.8.76,2.05,2.43,3.59,4.45,4.21l1.84.56c3.17.97,5.23,4.16,4.93,7.61-.09,1.05-.28,2.17-.6,3.31-.67,2.38-.8,3.02.47,4.7.95,1.26,1.36,2.85,1.32,4.46,0,.14,0,.28,0,.41.03,1.53.58,3.01,1.51,4.2,1.29,1.65,3.25,4.89,1.96,8.07-1.76,4.34-2,8.94,2.29,15.15.37.54,5.66,7.39,11.05,6.39,1.96-.36,7.26-1.42,13.98-3.12-.19,5.04-.66,9.06-1.46,11.75-1.41,4.7-1.61,11.93-1.82,18.07h87.28l-3.17-19.82s-4.94-18.44-6.95-34.29c-2.02-15.86,20.33-56.21,20.33-56.21,5.12-12.65,7.51-26.7,6.25-39.9H60.69Z"/>
  <g>
    <path class="cls-29" d="m186.07,97.06l-.05-.98-.07-.97c-.05-.65-.11-1.29-.17-1.93-.14-1.29-.31-2.57-.52-3.85l6.01-1.15c.26,1.4.47,2.82.64,4.23.09.71.16,1.42.23,2.13l.09,1.07.07,1.06-6.23.39Z"/>
    <path class="cls-27" d="m184.87,87.21l-.2-.96-.21-.95c-.15-.63-.3-1.26-.47-1.88-.33-1.25-.7-2.49-1.11-3.71l5.61-2.09c.47,1.34.9,2.7,1.28,4.07.19.68.38,1.37.55,2.06.09.35.17.69.25,1.04l.23,1.03-5.93,1.38Z"/>
    <path class="cls-50" d="m182.16,77.68l-.35-.92-.36-.9c-.24-.6-.49-1.19-.75-1.78-.52-1.18-1.08-2.34-1.67-3.48l5.07-2.93c.67,1.24,1.3,2.51,1.89,3.79.3.64.58,1.29.86,1.94.14.33.27.65.41.98l.39.98-5.49,2.3Z"/>
    <path class="cls-76" d="m178.02,68.72l-.48-.85-.49-.83c-.33-.55-.67-1.09-1.02-1.63-.7-1.08-1.43-2.13-2.19-3.16l4.43-3.64c.85,1.11,1.67,2.25,2.45,3.42.39.58.77,1.17,1.15,1.77.19.3.37.6.55.9l.53.9-4.93,3.11Z"/>
    <path class="cls-9" d="m172.54,60.56l-.61-.75-.61-.74c-.41-.49-.83-.97-1.26-1.44-.85-.95-1.74-1.87-2.64-2.76l3.71-4.21c1.01.96,1.99,1.94,2.93,2.96.47.51.94,1.03,1.4,1.55.23.26.46.53.68.79l.66.8-4.26,3.79Z"/>
    <path class="cls-17" d="m165.87,53.41l-.72-.64-.72-.63c-.48-.41-.97-.82-1.46-1.22-.99-.79-2-1.56-3.04-2.28l2.93-4.63c1.14.77,2.25,1.59,3.34,2.43.55.42,1.08.86,1.62,1.3l.79.67.78.67-3.53,4.33Z"/>
    <path class="cls-24" d="m158.18,47.45l-.81-.52-.81-.5c-.54-.33-1.08-.65-1.63-.96-1.1-.62-2.22-1.2-3.35-1.75l2.12-4.91c1.24.57,2.47,1.19,3.67,1.84.6.33,1.2.66,1.79,1.01.3.17.59.35.88.53l.87.54-2.74,4.72Z"/>
    <path class="cls-30" d="m149.68,42.85l-.88-.37-.87-.36c-.58-.23-1.17-.46-1.76-.67-1.18-.43-2.37-.81-3.58-1.16l1.29-5.04c1.31.36,2.61.75,3.9,1.2.64.22,1.29.45,1.92.69.32.12.64.25.95.37l.94.38-1.92,4.96Z"/>
    <path class="cls-87" d="m140.56,39.75l-.92-.22-.92-.2c-.61-.13-1.23-.25-1.84-.36-1.23-.22-2.47-.4-3.72-.54l.48-5.03c1.35.13,2.69.3,4.03.52.67.11,1.34.23,2,.36.33.07.67.13,1,.21l.98.22-1.09,5.05Z"/>
    <path class="cls-88" d="m131.07,38.22l-.95-.06-.94-.05c-.63-.03-1.25-.04-1.88-.05-.63,0-1.25,0-1.88.01-.63.01-1.25.04-1.89.07l-.27-4.87c.66-.05,1.35-.09,2.02-.11.68-.03,1.35-.04,2.03-.05.68,0,1.35,0,2.03.02l1.01.03,1,.05-.29,5.01Z"/>
    <path class="cls-21" d="m121.45,38.29l-.95.09-.94.11c-.62.08-1.24.16-1.87.26-1.24.2-2.48.43-3.7.71l-.99-4.6c1.32-.32,2.64-.6,3.97-.83.67-.12,1.33-.22,2-.32l1.01-.13,1-.12.46,4.82Z"/>
    <path class="cls-12" d="m111.96,39.97l-.92.25-.91.26c-.6.18-1.2.37-1.8.57-1.2.4-2.38.84-3.55,1.32l-1.63-4.22c1.25-.54,2.51-1.03,3.79-1.49.64-.23,1.28-.44,1.93-.65.32-.1.65-.2.97-.3l.97-.28,1.15,4.52Z"/>
    <path class="cls-42" d="m102.83,43.22l-.87.4-.86.41c-.57.28-1.13.57-1.69.87-1.12.6-2.22,1.24-3.3,1.91l-2.17-3.75c1.15-.74,2.32-1.44,3.5-2.1.59-.33,1.19-.65,1.8-.96.3-.16.61-.31.91-.46l.91-.44,1.77,4.12Z"/>
    <path class="cls-7" d="m94.32,47.98l-.8.55-.78.55c-.52.37-1.03.76-1.54,1.15-1.01.78-2.01,1.6-2.97,2.44l-2.62-3.21c1.02-.92,2.06-1.81,3.13-2.66.54-.43,1.08-.84,1.63-1.25.27-.2.55-.41.83-.61l.83-.59,2.29,3.62Z"/>
    <path class="cls-16" d="m86.64,54.11l-.7.67-.69.68c-.46.46-.9.92-1.35,1.39-.88.94-1.74,1.91-2.56,2.91l-2.95-2.62c.86-1.08,1.76-2.13,2.68-3.14.46-.51.93-1.01,1.41-1.5l.72-.74.73-.72,2.71,3.07Z"/>
    <path class="cls-69" d="m79.98,61.46l-.59.78-.58.79c-.38.53-.75,1.06-1.12,1.6-.73,1.08-1.43,2.18-2.09,3.31l-3.18-2.01c.69-1.21,1.41-2.39,2.17-3.55.38-.58.77-1.15,1.16-1.72l.6-.85.61-.83,3.02,2.48Z"/>
    <path class="cls-59" d="m74.53,69.84l-.47.87-.45.87c-.3.58-.58,1.17-.86,1.77-.55,1.19-1.07,2.39-1.56,3.62l-3.3-1.39c.49-1.3,1.02-2.59,1.59-3.86.28-.63.58-1.26.88-1.89l.46-.93.47-.92,3.22,1.86Z"/>
    <path class="cls-49" d="m70.42,79.03l-.33.94-.31.94c-.2.63-.39,1.26-.58,1.89-.36,1.27-.69,2.55-.98,3.84l-3.31-.78c.28-1.37.61-2.73.97-4.07.18-.67.38-1.34.58-2.01.1-.33.21-.67.31-1l.33-.99,3.31,1.24Z"/>
    <path class="cls-38" d="m67.79,88.8l-.18.98-.16.98c-.1.65-.19,1.31-.28,1.97-.16,1.31-.29,2.63-.37,3.96l-3.23-.2c.07-1.4.18-2.79.33-4.18.08-.69.16-1.39.26-2.08.05-.35.1-.69.15-1.04l.17-1.03,3.3.63Z"/>
  </g>
  <g>
    <path class="cls-10" d="m181.87,110.41c2.04,4.39,7.09,6.22,11.28,4.09,4.19-2.13,5.93-7.41,3.88-11.8-2.04-4.39-7.09-6.22-11.28-4.09-4.19,2.13-5.93,7.41-3.88,11.8Z"/>
    <path class="cls-82" d="m196.37,102.67c-2.05-4.41-7.13-6.24-11.34-4.1-4.22,2.14-5.97,7.45-3.92,11.86,2.05,4.41,7.13,6.24,11.35,4.1,4.22-2.14,5.97-7.45,3.92-11.86Z"/>
    <path class="cls-5" d="m181.98,110.44c-2.05-4.41-.3-9.71,3.92-11.86,1.06-.54,2.17-.82,3.27-.88-1.38-.07-2.8.21-4.14.88-4.22,2.14-5.97,7.45-3.92,11.86,1.54,3.3,4.78,5.16,8.08,4.98-2.99-.16-5.81-1.97-7.21-4.98Z"/>
    <g>
      <g>
        <path class="cls-1" d="m186.16,103.92c0,.55-.43,1-.96,1s-.96-.45-.96-1,.43-1,.96-1,.96.45.96,1Z"/>
        <path class="cls-1" d="m193.21,103.92c0,.55-.43,1-.96,1s-.96-.45-.96-1,.43-1,.96-1,.96.45.96,1Z"/>
      </g>
      <path class="cls-1" d="m184.7,107.68c2.38,2.17,5.68,2.17,8.06,0,.24.27.49.54.73.82-2.79,2.58-6.74,2.58-9.53,0,.24-.27.49-.54.73-.82Z"/>
    </g>
    <path class="cls-6" d="m193.53,99.22l-12.43,11.19c.28.59.54,1.02.86,1.48l12.83-11.56c-.38-.4-.81-.79-1.27-1.11Z"/>
    <path class="cls-6" d="m196.03,102.01l-12.66,11.41c.63.55,1.32.95,2.1,1.31l11.49-10.38c-.21-.85-.51-1.61-.93-2.35Z"/>
  </g>
  <g>
    <path class="cls-52" d="m58.48,110.43c2.04,4.39,7.09,6.22,11.28,4.09,4.19-2.13,5.93-7.41,3.88-11.8-2.04-4.39-7.09-6.22-11.28-4.09-4.19,2.13-5.93,7.41-3.88,11.8Z"/>
    <path class="cls-61" d="m57.71,110.45c2.05,4.41,7.13,6.24,11.35,4.1,4.22-2.14,5.97-7.45,3.92-11.86-2.05-4.41-7.13-6.24-11.34-4.1-4.22,2.14-5.97,7.45-3.92,11.86Z"/>
    <path class="cls-5" d="m58.58,110.46c-2.05-4.41-.3-9.71,3.92-11.86,1.06-.54,2.17-.82,3.27-.88-1.38-.07-2.8.21-4.14.88-4.22,2.14-5.97,7.45-3.92,11.86,1.54,3.3,4.78,5.16,8.08,4.98-2.99-.16-5.81-1.97-7.21-4.98Z"/>
    <g>
      <path class="cls-4" d="m69.51,110.85c-2.38-2.17-5.68-2.17-8.06,0-.24-.27-.49-.54-.73-.82,2.79-2.58,6.74-2.58,9.53,0-.24.27-.49.54-.73.82Z"/>
      <g>
        <g>
          <polygon class="cls-4" points="63.59 103.24 61.58 105.35 60.87 104.6 62.88 102.5 63.59 103.24"/>
          <polygon class="cls-4" points="63.59 104.6 61.58 102.5 60.87 103.24 62.88 105.35 63.59 104.6"/>
        </g>
        <g>
          <polygon class="cls-4" points="70.09 103.24 68.07 105.35 67.36 104.6 69.37 102.5 70.09 103.24"/>
          <polygon class="cls-4" points="70.09 104.6 68.07 102.5 67.36 103.24 69.37 105.35 70.09 104.6"/>
        </g>
      </g>
    </g>
    <path class="cls-6" d="m70.13,99.24l-12.43,11.19c.28.59.54,1.02.86,1.48l12.83-11.56c-.38-.4-.81-.79-1.27-1.11Z"/>
    <path class="cls-6" d="m72.64,102.03l-12.66,11.41c.63.55,1.32.95,2.1,1.31l11.49-10.38c-.21-.85-.51-1.61-.93-2.35Z"/>
  </g>
  <g>
    <path class="cls-32" d="m123.46,51.83c2.04,4.39,7.09,6.22,11.28,4.09,4.19-2.13,5.93-7.41,3.88-11.8-2.04-4.39-7.09-6.22-11.28-4.09-4.19,2.13-5.93,7.41-3.88,11.8Z"/>
    <path class="cls-19" d="m122.7,51.85c2.05,4.41,7.13,6.24,11.35,4.1,4.22-2.14,5.97-7.45,3.92-11.86-2.05-4.41-7.13-6.24-11.34-4.1-4.22,2.14-5.97,7.45-3.92,11.86Z"/>
    <path class="cls-5" d="m123.57,51.86c-2.05-4.41-.3-9.71,3.92-11.86,1.06-.54,2.17-.82,3.27-.88-1.38-.07-2.8.21-4.14.88-4.22,2.14-5.97,7.45-3.92,11.86,1.54,3.3,4.78,5.16,8.08,4.98-2.99-.16-5.81-1.97-7.21-4.98Z"/>
    <g>
      <g>
        <ellipse class="cls-4" cx="126.91" cy="45.26" rx=".97" ry="1.01"/>
        <ellipse class="cls-4" cx="134.02" cy="45.26" rx=".97" ry="1.01"/>
      </g>
      <rect class="cls-4" x="126.09" y="50.58" width="8.75" height="1.1"/>
    </g>
    <path class="cls-6" d="m135.12,40.64l-12.43,11.19c.28.59.54,1.02.86,1.48l12.83-11.56c-.38-.4-.81-.79-1.27-1.11Z"/>
    <path class="cls-6" d="m137.63,43.43l-12.66,11.41c.63.55,1.32.95,2.1,1.31l11.49-10.38c-.21-.85-.51-1.61-.93-2.35Z"/>
  </g>
  <g>
    <g>
      <path class="cls-34" d="m127.33,68.75c1.92.27,8.03-1.15,9.67-1.67,0,0,.66-.41.85-.72.09-.14.3-.23.71-.37.58-.2,1.46-.23,1.61.39.07.28-.12.97-.33,1.49-.28.71-1.06,1.02-1.47,1.11-.14.03-1.1-.15-1.1-.15-6.21,3.27-10.52,3.74-10.52,3.74,0,0-3.28-3.7.57-3.82Z"/>
      <path class="cls-79" d="m120.28,67.74s3.76.7,5.88.72c2.12.03,4.89-.2,4.91-.17.27.7-.03,2.81-.18,3.22-.31.83-7.58,2.64-11.4.83-3.82-1.81-.82-5.38.8-4.61Z"/>
      <path class="cls-22" d="m130.12,68.24s.25,3.31.08,3.59c-.17.28-.02.6.35.28.37-.31.76-.09,1-.45.24-.35.12-3.01-.05-3.4-.16-.39-.68.04-.68.04,0,0-.32-.55-.71-.07Z"/>
    </g>
    <g>
      <ellipse class="cls-60" cx="134.67" cy="88.45" rx="14.7" ry="15.36"/>
      <g>
        <polygon class="cls-1" points="122.06 92.78 121.47 92.98 121.44 92.9 122.04 92.7 122.06 92.78"/>
        <rect class="cls-1" x="134.68" y="73.93" width=".08" height=".65"/>
        <rect class="cls-1" x="134.63" y="102.33" width=".08" height=".65"/>
        <polygon class="cls-1" points="147.3 84.16 147.89 83.96 147.92 84.05 147.32 84.25 147.3 84.16"/>
        <polygon class="cls-1" points="136.13 74.01 136.21 74.02 136.15 74.66 136.06 74.65 136.13 74.01"/>
        <polygon class="cls-1" points="133.33 102.26 133.27 102.9 133.18 102.89 133.25 102.25 133.33 102.26"/>
        <polygon class="cls-1" points="137.44 74.88 137.56 74.25 137.65 74.26 137.52 74.9 137.44 74.88"/>
        <polygon class="cls-1" points="131.96 102.03 131.83 102.67 131.74 102.65 131.87 102.02 131.96 102.03"/>
        <polygon class="cls-1" points="138.78 75.26 138.97 74.64 139.05 74.67 138.86 75.28 138.78 75.26"/>
        <polygon class="cls-1" points="130.61 101.66 130.42 102.28 130.34 102.25 130.53 101.64 130.61 101.66"/>
        <polygon class="cls-1" points="140.07 75.78 140.33 75.18 140.4 75.22 140.15 75.81 140.07 75.78"/>
        <polygon class="cls-1" points="129.31 101.15 129.06 101.74 128.98 101.7 129.24 101.11 129.31 101.15"/>
        <polygon class="cls-1" points="141.31 76.44 141.62 75.87 141.7 75.92 141.39 76.48 141.31 76.44"/>
        <polygon class="cls-1" points="128.07 100.49 127.76 101.05 127.69 101.01 128 100.45 128.07 100.49"/>
        <polygon class="cls-1" points="142.48 77.23 142.84 76.7 142.91 76.75 142.55 77.28 142.48 77.23"/>
        <polygon class="cls-1" points="126.91 99.7 126.54 100.23 126.47 100.18 126.84 99.65 126.91 99.7"/>
        <polygon class="cls-1" points="143.56 78.14 143.97 77.66 144.04 77.72 143.62 78.2 143.56 78.14"/>
        <polygon class="cls-1" points="125.82 98.79 125.41 99.28 125.34 99.22 125.76 98.73 125.82 98.79"/>
        <polygon class="cls-1" points="144.54 79.17 145 78.73 145.06 78.8 144.6 79.23 144.54 79.17"/>
        <polygon class="cls-1" points="124.84 97.77 124.37 98.2 124.32 98.14 124.78 97.7 124.84 97.77"/>
        <polygon class="cls-1" points="145.41 80.3 145.92 79.91 145.97 79.99 145.46 80.37 145.41 80.3"/>
        <polygon class="cls-1" points="123.96 96.64 123.46 97.03 123.41 96.95 123.91 96.57 123.96 96.64"/>
        <polygon class="cls-1" points="146.17 81.51 146.71 81.19 146.75 81.27 146.21 81.59 146.17 81.51"/>
        <polygon class="cls-1" points="123.2 95.43 122.66 95.75 122.62 95.68 123.16 95.35 123.2 95.43"/>
        <polygon class="cls-1" points="146.8 82.81 147.37 82.54 147.4 82.62 146.83 82.89 146.8 82.81"/>
        <polygon class="cls-1" points="122.56 94.14 122 94.4 121.96 94.32 122.53 94.05 122.56 94.14"/>
        <polygon class="cls-1" points="147.66 85.57 148.27 85.43 148.28 85.52 147.68 85.65 147.66 85.57"/>
        <polygon class="cls-1" points="121.7 91.38 121.09 91.51 121.07 91.43 121.68 91.29 121.7 91.38"/>
        <polygon class="cls-1" points="147.88 87 148.49 86.93 148.5 87.02 147.88 87.09 147.88 87"/>
        <polygon class="cls-1" points="121.48 89.94 120.86 90.01 120.85 89.92 121.47 89.86 121.48 89.94"/>
        <rect class="cls-1" x="147.95" y="88.45" width=".62" height=".09"/>
        <rect class="cls-1" x="120.78" y="88.41" width=".62" height=".09"/>
        <polygon class="cls-1" points="147.88 89.9 148.49 89.97 148.48 90.06 147.87 89.99 147.88 89.9"/>
        <polygon class="cls-1" points="121.47 87.04 120.85 86.98 120.86 86.89 121.48 86.96 121.47 87.04"/>
        <polygon class="cls-1" points="147.66 91.33 148.27 91.47 148.25 91.56 147.64 91.42 147.66 91.33"/>
        <polygon class="cls-1" points="121.68 85.61 121.07 85.47 121.09 85.39 121.7 85.52 121.68 85.61"/>
        <polygon class="cls-1" points="147.3 92.74 147.89 92.94 147.86 93.02 147.27 92.82 147.3 92.74"/>
        <polygon class="cls-1" points="122.04 84.2 121.44 84 121.47 83.92 122.06 84.12 122.04 84.2"/>
        <polygon class="cls-1" points="147.37 94.36 147.33 94.44 146.77 94.17 146.8 94.09 147.37 94.36"/>
        <polygon class="cls-1" points="121.96 82.58 122 82.5 122.56 82.76 122.53 82.85 121.96 82.58"/>
        <polygon class="cls-1" points="146.71 95.71 146.67 95.79 146.13 95.46 146.17 95.39 146.71 95.71"/>
        <polygon class="cls-1" points="123.2 81.47 123.16 81.55 122.62 81.22 122.66 81.15 123.2 81.47"/>
        <polygon class="cls-1" points="145.92 96.99 145.87 97.06 145.36 96.68 145.41 96.6 145.92 96.99"/>
        <polygon class="cls-1" points="123.96 80.26 123.91 80.33 123.41 79.95 123.46 79.87 123.96 80.26"/>
        <polygon class="cls-1" points="145 98.17 144.94 98.23 144.48 97.8 144.54 97.73 145 98.17"/>
        <polygon class="cls-1" points="124.84 79.13 124.78 79.2 124.32 78.76 124.38 78.7 124.84 79.13"/>
        <polygon class="cls-1" points="143.97 99.24 143.91 99.3 143.49 98.82 143.56 98.76 143.97 99.24"/>
        <polygon class="cls-1" points="125.82 78.11 125.76 78.17 125.34 77.68 125.41 77.62 125.82 78.11"/>
        <polygon class="cls-1" points="142.84 100.2 142.77 100.25 142.41 99.72 142.48 99.67 142.84 100.2"/>
        <polygon class="cls-1" points="126.91 77.2 126.84 77.25 126.47 76.72 126.54 76.67 126.91 77.2"/>
        <polygon class="cls-1" points="141.62 101.03 141.55 101.07 141.24 100.51 141.31 100.46 141.62 101.03"/>
        <polygon class="cls-1" points="128.07 76.41 128 76.45 127.69 75.89 127.76 75.85 128.07 76.41"/>
        <polygon class="cls-1" points="140.33 101.72 140.25 101.75 140 101.16 140.07 101.12 140.33 101.72"/>
        <polygon class="cls-1" points="129.31 75.75 129.24 75.79 128.98 75.2 129.06 75.16 129.31 75.75"/>
        <polygon class="cls-1" points="138.97 102.26 138.89 102.29 138.7 101.67 138.78 101.64 138.97 102.26"/>
        <polygon class="cls-1" points="130.61 75.24 130.53 75.26 130.34 74.65 130.42 74.62 130.61 75.24"/>
        <polygon class="cls-1" points="137.56 102.65 137.48 102.67 137.35 102.04 137.44 102.02 137.56 102.65"/>
        <polygon class="cls-1" points="131.96 74.87 131.87 74.88 131.74 74.25 131.83 74.23 131.96 74.87"/>
        <polygon class="cls-1" points="136.13 102.89 136.04 102.9 135.98 102.25 136.06 102.25 136.13 102.89"/>
        <polygon class="cls-1" points="133.33 74.64 133.25 74.65 133.18 74.01 133.27 74 133.33 74.64"/>
      </g>
    </g>
    <g>
      <path class="cls-41" d="m126.28,90.97c1.22,4.8,5.93,7.65,10.52,6.38,4.59-1.28,7.32-6.2,6.1-10.99-.22-.86-.55-1.66-.98-2.38,2.59-14.49,8.79-40.04,8.79-40.04,0,0-11.93,23.62-19.19,36.34-4.06,1.62-6.38,6.22-5.24,10.7Z"/>
      <path class="cls-1" d="m133.81,94.97c-3.33-.4-5.73-3.55-5.34-7.04.38-3.49,3.4-5.99,6.73-5.58,3.33.4,5.73,3.55,5.34,7.04-.38,3.49-3.4,5.99-6.73,5.59Z"/>
    </g>
    <path class="cls-45" d="m91.28,106.62l-3.19,2.84s-.18.26-.02,1.05c.08.4.92.62,1.22.78.62.33-.06-1.02-.06-1.02l3-2.43-.95-1.22Z"/>
    <path class="cls-65" d="m114.09,85.62c.32-1.38-2.95-9.04-6.05-7.9-4.75,1.75-2.8,10.85-3.16,11.38-8.24,12.33-16,19.19-16,19.19,0,0,1.62,1.27,1.7,1.25,13.48-6.26,21.84-16.93,23.5-23.93Z"/>
    <g>
      <path class="cls-54" d="m89.48,110.15c-.98-.11-1.31-.81-1.31-.81,0,0-.88.29-.73,1,.15.74,3.46,3.27,3.75,2.28.18-.62-1.7-2.48-1.7-2.48Z"/>
      <path class="cls-4" d="m89.47,110.2s-.35.05-.58.23c-.1.16.94-.1.58-.23Z"/>
      <path class="cls-4" d="m89.85,110.67s-.35.05-.57.24c-.1.16.93-.1.57-.24Z"/>
      <path class="cls-4" d="m90.23,111.08s-.3.04-.49.21c-.09.14.8-.09.49-.21Z"/>
    </g>
    <path class="cls-78" d="m117.17,106.22l-2,4.07s-.45.37-.19.83c.45.8,2.25.55,2.63.59.79.07-1.22-1.03-1.22-1.03l2.72-3.9-1.93-.55Z"/>
    <g>
      <path class="cls-54" d="m116.66,110.36c-1.03.56-1.5-.12-1.5-.12,0,0-.81.71-.36,1.4.47.72,5.03,1.88,4.92.7-.07-.74-3.06-1.98-3.06-1.98Z"/>
      <path class="cls-4" d="m116.89,110.57s-.35.21-.51.51c-.04.21.96-.53.51-.51Z"/>
      <path class="cls-4" d="m117.49,110.89s-.35.21-.51.51c-.04.21.95-.53.51-.51Z"/>
      <path class="cls-4" d="m118.06,111.15s-.3.18-.43.45c-.03.19.81-.47.43-.45Z"/>
    </g>
    <path class="cls-63" d="m107.44,77.53c-1.63,1.83-4.14,5.03,3,11.74.19.18,5.38,3.93,9.82,7.96-1.76,3.89-3.16,5.34-5.05,11.82.43.42,1.69,1,2.18,1.2,2.48-3.04,5.79-7.59,7.85-12.28.55-1.26.52-1.75,0-3.02-1.77-4.39-5.76-7.81-7.84-9.95-1.39-1.43-3.88-3.9-3.88-3.9,0,0-3.35-6.61-6.07-3.57Z"/>
    <path class="cls-47" d="m118.27,65.59s.47-.22,1.47-.78c.14-.08,3.9-2.19,4.31-2.07.48.13,1.29.57,1.55.95.12.19-1.11,1.2-1.52,1.86-.93,1.5-.97,2.6-1.09,3.14-.27,1.28-4.79-.79-4.73-3.09Z"/>
    <path class="cls-89" d="m124.1,58.55c-.2.1-2.98,1.23-2.21,5.04.09.88,3.12,4.55,4.3.35.98-3.49.18-6.56-2.09-5.39Z"/>
    <path class="cls-54" d="m127.33,58.74s-.02,0-.02,0c0,0,0,0,.02,0,.16-.08,1.31-.67.78-1.9-.57-.72-.71.17-1.79.35-1.64.27-3.02-.75-4.28.98-1.26,1.72-1.2,3.31-.12,5.57.17-.37.39-1.14.39-1.14,0,0-.33-1.63.62-1.47.36.06.21,1.01.21,1.01l.43-.26s-.12-2.25,1.21-1.73c1.62.63,2.87.46,3.43-1.18.19-.68-.74-.28-.88-.22Z"/>
    <path class="cls-72" d="m120.3,64.31s-2.94.26-6.73,3.45c-2.77,2.33-8.72,11.33-6.5,12.04,4.21,1.36,5.99,3.67,8.41,2.95.64-.19,2.65-2.27,5.32-5.75,2.6-3.39,2.41-5.17,2.8-8.86-.22.17-1.48-.1-3.29-3.84Z"/>
    <path class="cls-20" d="m120.63,64.13c.1.12.71,3.08,2.93,4.01.07.16-1.17,1.26-1.17,1.26,0,0-2.58-1.98-2.91-4.97,0-.07,1.15-.31,1.15-.31Z"/>
    <path class="cls-74" d="m106.5,78.44l-.46.81s7.6,4.71,9.6,3.46c.05-.03-5.43-1.17-9.14-4.27Z"/>
    <path class="cls-35" d="m128.19,67.05c1.99.24,8.28-1.33,9.97-1.89,0,0,.68-.44.86-.75.09-.15.3-.24.73-.39.6-.21,1.51-.27,1.68.37.08.29-.11.99-.31,1.53-.28.73-1.07,1.06-1.5,1.17-.14.03-1.14-.14-1.14-.14-6.36,3.47-10.81,4.03-10.81,4.03,0,0-3.48-3.74.51-3.93Z"/>
    <path class="cls-75" d="m120.88,66.15s3.9.65,6.1.63c2.2-.01,5.06-.29,5.07-.26.3.71.03,2.88-.12,3.31-.3.86-7.79,2.85-11.78,1.06-3.99-1.79-.96-5.5.73-4.74Z"/>
    <path class="cls-44" d="m131.07,66.48s.33,3.39.16,3.68c-.17.29,0,.61.37.29.38-.33.79-.11,1.02-.48.24-.37.06-3.09-.12-3.49-.17-.4-.7.06-.7.06,0,0-.34-.56-.73-.06Z"/>
  </g>
  <g class="cls-80">
    <path class="cls-28" d="m43.46,35.69c-.95-.13-4.26-.15-4.98.12-1.08-.86-1.51-1.5-3.7-1.95-2.8-.58-4.77-.1-5.99.32-1.79-1.27-3.58-1.55-7.28-1.55-3.29,0-5.19.66-7.06,1.7-.48-.05-2.99,0-3.5.04-5.51.33-18.21,3.5-5.51,5.27,2.6.36,5.5.04,5.98,0,1.86,1.04,8.13,1.22,9.91-.05,1.21.42,4.85.94,8.84.91,2.63-.02,7.21-.31,8.29-1.17.72.28,1.67.39,2.7.44,3.04.15,15.27-2.38,2.28-4.09Z"/>
  </g>
  <g class="cls-80">
    <path class="cls-73" d="m228.16,49.9c-.75-.16-3.35-.2-3.91.16-.85-1.12-1.19-1.96-2.91-2.54-2.2-.75-3.75-.13-4.71.42-1.4-1.65-2.82-2.02-5.72-2.02-2.59,0-4.08.85-5.55,2.21-.38-.07-2.35,0-2.75.05-4.33.43-14.32,4.56-4.33,6.86,2.04.47,4.33.06,4.71,0,1.46,1.36,6.39,1.59,7.8-.06.95.54,3.81,1.23,6.95,1.19,2.07-.02,5.67-.4,6.52-1.52.56.36,1.32.51,2.12.58,2.39.19,12.01-3.09,1.79-5.32Z"/>
  </g>
  <g class="cls-80">
    <path class="cls-51" d="m232.02,1.32c.23-.02,1.35-.07,1.56-.03.83-.8,1.68-1.3,3.15-1.3,1.65,0,2.45.21,3.25,1.18.54-.32,1.42-.69,2.67-.25.98.34,1.17.83,1.65,1.49.32-.21,1.8-.19,2.22-.09,5.8,1.3.34,3.23-1.02,3.12-.46-.04-.89-.13-1.21-.34-.48.66-2.53.88-3.7.89-1.78.02-3.41-.38-3.95-.7-.8.97-3.6.83-4.43.04-.22.04-1.51.28-2.67,0-5.67-1.35,0-3.77,2.46-4.02Z"/>
  </g>
</svg>