<?xml version="1.0" encoding="UTF-8"?>
<svg id="Layer_1" data-name="Layer 1" xmlns="http://www.w3.org/2000/svg" xmlns:xlink="http://www.w3.org/1999/xlink" viewBox="0 0 272.7 230.29">
  <defs>
    <style>
      .cls-1 {
        fill: url(#linear-gradient-2);
      }

      .cls-2 {
        fill: url(#_Áåçûìÿííûé_ãðàäèåíò_22);
        opacity: .03;
      }

      .cls-3 {
        fill: url(#linear-gradient-17);
      }

      .cls-4 {
        fill: url(#_Áåçûìÿííûé_ãðàäèåíò_18-10);
      }

      .cls-5 {
        fill: url(#_Áåçûìÿííûé_ãðàäèåíò_7-8);
      }

      .cls-6 {
        fill: url(#_Áåçûìÿííûé_ãðàäèåíò_12-2);
      }

      .cls-7 {
        fill: url(#_Áåçûìÿííûé_ãðàäèåíò_8-3);
      }

      .cls-8 {
        fill: url(#_Áåçûìÿííûé_ãðàäèåíò_4);
      }

      .cls-9 {
        fill: url(#_Áåçûìÿííûé_ãðàäèåíò_18-8);
      }

      .cls-10 {
        fill: url(#_Áåçûìÿííûé_ãðàäèåíò_18);
      }

      .cls-11 {
        fill: url(#linear-gradient-15);
      }

      .cls-12 {
        opacity: .04;
      }

      .cls-12, .cls-13, .cls-14, .cls-15 {
        fill: #223265;
      }

      .cls-16 {
        fill: url(#_Áåçûìÿííûé_ãðàäèåíò_7);
      }

      .cls-17 {
        fill: url(#linear-gradient-18);
      }

      .cls-18 {
        fill: url(#_Áåçûìÿííûé_ãðàäèåíò_21);
      }

      .cls-19 {
        fill: url(#_Áåçûìÿííûé_ãðàäèåíò_21-11);
      }

      .cls-20 {
        fill: url(#linear-gradient-28);
      }

      .cls-21 {
        fill: url(#linear-gradient-14);
      }

      .cls-22 {
        fill: url(#linear-gradient-20);
      }

      .cls-23 {
        fill: url(#linear-gradient-6);
      }

      .cls-24 {
        fill: url(#_Áåçûìÿííûé_ãðàäèåíò_21-13);
      }

      .cls-25 {
        fill: url(#_Áåçûìÿííûé_ãðàäèåíò_21-7);
      }

      .cls-26 {
        fill: url(#_Áåçûìÿííûé_ãðàäèåíò_7-2);
      }

      .cls-27 {
        fill: url(#_Áåçûìÿííûé_ãðàäèåíò_18-2);
      }

      .cls-28 {
        fill: url(#_Áåçûìÿííûé_ãðàäèåíò_18-5);
      }

      .cls-29 {
        fill: url(#_Áåçûìÿííûé_ãðàäèåíò_18-4);
      }

      .cls-13 {
        opacity: .7;
      }

      .cls-30 {
        fill: url(#linear-gradient-32);
      }

      .cls-31 {
        fill: url(#_Áåçûìÿííûé_ãðàäèåíò_13);
      }

      .cls-32 {
        fill: url(#linear-gradient-11);
      }

      .cls-14, .cls-33 {
        font-family: SegoeUI-Bold, 'Segoe UI';
        font-size: 7.81px;
        font-weight: 700;
      }

      .cls-34 {
        fill: url(#_Áåçûìÿííûé_ãðàäèåíò_11);
      }

      .cls-35 {
        fill: url(#_Áåçûìÿííûé_ãðàäèåíò_10);
      }

      .cls-36 {
        fill: url(#_Áåçûìÿííûé_ãðàäèåíò_9);
      }

      .cls-37 {
        fill: url(#linear-gradient-10);
      }

      .cls-38 {
        fill: url(#_Áåçûìÿííûé_ãðàäèåíò_21-5);
      }

      .cls-33 {
        fill: #a8dff3;
      }

      .cls-39 {
        fill: url(#_Áåçûìÿííûé_ãðàäèåíò_16);
      }

      .cls-40 {
        fill: url(#_Áåçûìÿííûé_ãðàäèåíò_8-5);
      }

      .cls-41 {
        fill: url(#_Áåçûìÿííûé_ãðàäèåíò_18-7);
      }

      .cls-42 {
        fill: url(#_Áåçûìÿííûé_ãðàäèåíò_8);
      }

      .cls-43 {
        fill: url(#linear-gradient-16);
      }

      .cls-44 {
        fill: #2b2867;
      }

      .cls-45 {
        fill: url(#_Áåçûìÿííûé_ãðàäèåíò_8-8);
      }

      .cls-46 {
        fill: url(#_Áåçûìÿííûé_ãðàäèåíò_21-8);
      }

      .cls-47 {
        fill: url(#_Áåçûìÿííûé_ãðàäèåíò_7-7);
      }

      .cls-48 {
        fill: url(#linear-gradient-31);
      }

      .cls-49 {
        fill: url(#_Áåçûìÿííûé_ãðàäèåíò_21-2);
      }

      .cls-50 {
        fill: #f2f9fa;
      }

      .cls-51 {
        fill: url(#linear-gradient-21);
      }

      .cls-52 {
        fill: url(#_Áåçûìÿííûé_ãðàäèåíò_21-4);
      }

      .cls-53 {
        fill: url(#_Áåçûìÿííûé_ãðàäèåíò_7-6);
      }

      .cls-54 {
        fill: url(#linear-gradient-25);
      }

      .cls-55 {
        fill: url(#_Áåçûìÿííûé_ãðàäèåíò_8-4);
      }

      .cls-56 {
        fill: url(#linear-gradient-5);
      }

      .cls-57 {
        fill: url(#_Áåçûìÿííûé_ãðàäèåíò_21-10);
      }

      .cls-58 {
        fill: url(#_Áåçûìÿííûé_ãðàäèåíò_8-7);
      }

      .cls-59 {
        fill: url(#linear-gradient-34);
      }

      .cls-60 {
        fill: url(#_Áåçûìÿííûé_ãðàäèåíò_16-2);
      }

      .cls-61 {
        fill: url(#linear-gradient-7);
      }

      .cls-62 {
        fill: #daeaf8;
      }

      .cls-63 {
        fill: url(#_Áåçûìÿííûé_ãðàäèåíò_18-9);
      }

      .cls-64 {
        fill: url(#linear-gradient-24);
      }

      .cls-65 {
        fill: url(#_Áåçûìÿííûé_ãðàäèåíò_21-3);
      }

      .cls-66 {
        fill: url(#_Áåçûìÿííûé_ãðàäèåíò_8-6);
      }

      .cls-67 {
        fill: url(#linear-gradient-9);
      }

      .cls-68 {
        fill: url(#_Áåçûìÿííûé_ãðàäèåíò_21-12);
      }

      .cls-69 {
        fill: url(#linear-gradient-22);
      }

      .cls-70 {
        fill: url(#_Áåçûìÿííûé_ãðàäèåíò_21-6);
      }

      .cls-71 {
        fill: url(#linear-gradient-3);
      }

      .cls-72 {
        fill: url(#_Áåçûìÿííûé_ãðàäèåíò_7-4);
      }

      .cls-73 {
        fill: url(#_Áåçûìÿííûé_ãðàäèåíò_3);
      }

      .cls-74 {
        fill: url(#linear-gradient);
      }

      .cls-75 {
        fill: url(#_Áåçûìÿííûé_ãðàäèåíò_7-5);
      }

      .cls-76 {
        fill: url(#_Áåçûìÿííûé_ãðàäèåíò_21-9);
      }

      .cls-77 {
        fill: url(#_Áåçûìÿííûé_ãðàäèåíò_8-2);
      }

      .cls-78 {
        fill: url(#linear-gradient-27);
      }

      .cls-79 {
        fill: url(#_Áåçûìÿííûé_ãðàäèåíò_18-3);
      }

      .cls-80 {
        fill: url(#linear-gradient-33);
      }

      .cls-81 {
        fill: url(#linear-gradient-29);
      }

      .cls-82 {
        fill: url(#linear-gradient-30);
      }

      .cls-83 {
        fill: url(#_Áåçûìÿííûé_ãðàäèåíò_12);
      }

      .cls-84 {
        fill: url(#linear-gradient-23);
      }

      .cls-85 {
        fill: url(#linear-gradient-19);
      }

      .cls-86 {
        fill: url(#linear-gradient-4);
      }

      .cls-87 {
        fill: url(#linear-gradient-8);
      }

      .cls-88 {
        fill: url(#_Áåçûìÿííûé_ãðàäèåíò_7-3);
      }

      .cls-89 {
        fill: url(#_Áåçûìÿííûé_ãðàäèåíò_18-6);
      }

      .cls-90 {
        fill: url(#linear-gradient-12);
      }

      .cls-91 {
        fill: url(#linear-gradient-13);
      }

      .cls-92 {
        fill: url(#linear-gradient-26);
      }

      .cls-93 {
        fill: #e9e9ea;
      }
    </style>
    <linearGradient id="_Áåçûìÿííûé_ãðàäèåíò_22" data-name="Áåçûìÿííûé ãðàäèåíò 22" x1="-1299.19" y1="-4155.07" x2="-1306.98" y2="-4029.97" gradientTransform="translate(2202.23 5998.93) rotate(-2.23) scale(1.41 1.46)" gradientUnits="userSpaceOnUse">
      <stop offset="0" stop-color="#6ba7da"/>
      <stop offset=".43" stop-color="#69a4d8"/>
      <stop offset=".63" stop-color="#639dd2"/>
      <stop offset=".79" stop-color="#5890c7"/>
      <stop offset=".93" stop-color="#497db9"/>
      <stop offset="1" stop-color="#3e70ae"/>
    </linearGradient>
    <linearGradient id="_Áåçûìÿííûé_ãðàäèåíò_18" data-name="Áåçûìÿííûé ãðàäèåíò 18" x1="177.65" y1="81.76" x2="177.65" y2="89.6" gradientUnits="userSpaceOnUse">
      <stop offset="0" stop-color="#2f5b91"/>
      <stop offset=".36" stop-color="#2d598e"/>
      <stop offset=".56" stop-color="#275286"/>
      <stop offset=".73" stop-color="#1e4878"/>
      <stop offset=".87" stop-color="#103864"/>
      <stop offset="1" stop-color="#00264c"/>
    </linearGradient>
    <linearGradient id="_Áåçûìÿííûé_ãðàäèåíò_18-2" data-name="Áåçûìÿííûé ãðàäèåíò 18" x1="177.65" y1="77.67" x2="177.65" y2="82.87" xlink:href="#_Áåçûìÿííûé_ãðàäèåíò_18"/>
    <linearGradient id="linear-gradient" x1="177.65" y1="88.96" x2="177.65" y2="222.15" gradientUnits="userSpaceOnUse">
      <stop offset="0" stop-color="#68a9dc"/>
      <stop offset="1" stop-color="#3a6eae"/>
    </linearGradient>
    <linearGradient id="_Áåçûìÿííûé_ãðàäèåíò_16" data-name="Áåçûìÿííûé ãðàäèåíò 16" x1="177.65" y1="98.47" x2="177.65" y2="212.64" gradientUnits="userSpaceOnUse">
      <stop offset="0" stop-color="#d7edfa"/>
      <stop offset=".05" stop-color="#cce6f7"/>
      <stop offset=".16" stop-color="#bbdbf3"/>
      <stop offset=".29" stop-color="#afd4f0"/>
      <stop offset=".48" stop-color="#a8d0ee"/>
      <stop offset="1" stop-color="#a7cfee"/>
    </linearGradient>
    <linearGradient id="linear-gradient-2" x1="2096.25" y1="5530.35" x2="2096.25" y2="5544.16" gradientTransform="translate(5604.74 2186.08) rotate(-89.71) scale(1 -1)" gradientUnits="userSpaceOnUse">
      <stop offset="0" stop-color="#6ba7da"/>
      <stop offset="1" stop-color="#4074b0"/>
    </linearGradient>
    <linearGradient id="linear-gradient-3" x1="-852.61" y1="4086.33" x2="-852.61" y2="4090.63" gradientTransform="translate(4107.95 -875.8) rotate(-90.67) scale(1 -1)" gradientUnits="userSpaceOnUse">
      <stop offset="0" stop-color="#a0c4e6"/>
      <stop offset="1" stop-color="#68a1d6"/>
    </linearGradient>
    <linearGradient id="linear-gradient-4" x1="-852.61" y1="4090.62" x2="-852.61" y2="4094.92" xlink:href="#linear-gradient-3"/>
    <linearGradient id="linear-gradient-5" x1="-856.78" y1="3861.35" x2="-856.78" y2="3865.64" xlink:href="#linear-gradient-3"/>
    <linearGradient id="linear-gradient-6" x1="-856.79" y1="3865.64" x2="-856.79" y2="3869.93" xlink:href="#linear-gradient-3"/>
    <linearGradient id="linear-gradient-7" x1="95.44" y1="148.19" x2="95.44" y2="155.56" gradientTransform="matrix(1, 0, 0, 1, 0, 0)" xlink:href="#linear-gradient-3"/>
    <linearGradient id="_Áåçûìÿííûé_ãðàäèåíò_21" data-name="Áåçûìÿííûé ãðàäèåíò 21" x1="33.18" y1="172.26" x2="44.96" y2="172.26" gradientUnits="userSpaceOnUse">
      <stop offset="0" stop-color="#2f5b91"/>
      <stop offset=".28" stop-color="#2c588d"/>
      <stop offset=".5" stop-color="#265083"/>
      <stop offset=".71" stop-color="#1a4473"/>
      <stop offset=".9" stop-color="#0a315b"/>
      <stop offset="1" stop-color="#00264c"/>
    </linearGradient>
    <linearGradient id="_Áåçûìÿííûé_ãðàäèåíò_21-2" data-name="Áåçûìÿííûé ãðàäèåíò 21" x1="33.71" y1="208.67" x2="53.6" y2="208.67" xlink:href="#_Áåçûìÿííûé_ãðàäèåíò_21"/>
    <linearGradient id="_Áåçûìÿííûé_ãðàäèåíò_21-3" data-name="Áåçûìÿííûé ãðàäèåíò 21" x1="33.79" y1="212.44" x2="53.68" y2="212.44" xlink:href="#_Áåçûìÿííûé_ãðàäèåíò_21"/>
    <linearGradient id="_Áåçûìÿííûé_ãðàäèåíò_21-4" data-name="Áåçûìÿííûé ãðàäèåíò 21" x1="33.58" y1="202.44" x2="53.47" y2="202.44" xlink:href="#_Áåçûìÿííûé_ãðàäèåíò_21"/>
    <linearGradient id="_Áåçûìÿííûé_ãðàäèåíò_21-5" data-name="Áåçûìÿííûé ãðàäèåíò 21" x1="33.66" y1="206.21" x2="53.55" y2="206.21" xlink:href="#_Áåçûìÿííûé_ãðàäèåíò_21"/>
    <linearGradient id="_Áåçûìÿííûé_ãðàäèåíò_21-6" data-name="Áåçûìÿííûé ãðàäèåíò 21" x1="33.5" y1="196.22" x2="53.4" y2="196.22" xlink:href="#_Áåçûìÿííûé_ãðàäèåíò_21"/>
    <linearGradient id="_Áåçûìÿííûé_ãðàäèåíò_21-7" data-name="Áåçûìÿííûé ãðàäèåíò 21" x1="33.58" y1="199.99" x2="53.47" y2="199.99" xlink:href="#_Áåçûìÿííûé_ãðàäèåíò_21"/>
    <linearGradient id="_Áåçûìÿííûé_ãðàäèåíò_21-8" data-name="Áåçûìÿííûé ãðàäèåíò 21" x1="33.38" y1="189.99" x2="53.27" y2="189.99" xlink:href="#_Áåçûìÿííûé_ãðàäèåíò_21"/>
    <linearGradient id="_Áåçûìÿííûé_ãðàäèåíò_21-9" data-name="Áåçûìÿííûé ãðàäèåíò 21" x1="33.46" y1="193.76" x2="53.35" y2="193.76" xlink:href="#_Áåçûìÿííûé_ãðàäèåíò_21"/>
    <linearGradient id="_Áåçûìÿííûé_ãðàäèåíò_21-10" data-name="Áåçûìÿííûé ãðàäèåíò 21" x1="33.3" y1="183.76" x2="53.19" y2="183.76" xlink:href="#_Áåçûìÿííûé_ãðàäèåíò_21"/>
    <linearGradient id="_Áåçûìÿííûé_ãðàäèåíò_21-11" data-name="Áåçûìÿííûé ãðàäèåíò 21" x1="33.38" y1="187.53" x2="53.27" y2="187.53" xlink:href="#_Áåçûìÿííûé_ãðàäèåíò_21"/>
    <linearGradient id="_Áåçûìÿííûé_ãðàäèåíò_21-12" data-name="Áåçûìÿííûé ãðàäèåíò 21" x1="33.18" y1="177.53" x2="53.07" y2="177.53" xlink:href="#_Áåçûìÿííûé_ãðàäèåíò_21"/>
    <linearGradient id="_Áåçûìÿííûé_ãðàäèåíò_21-13" data-name="Áåçûìÿííûé ãðàäèåíò 21" x1="33.25" y1="181.3" x2="53.15" y2="181.3" xlink:href="#_Áåçûìÿííûé_ãðàäèåíò_21"/>
    <linearGradient id="_Áåçûìÿííûé_ãðàäèåíò_12" data-name="Áåçûìÿííûé ãðàäèåíò 12" x1="44.13" y1="215.22" x2="44.13" y2="223.96" gradientUnits="userSpaceOnUse">
      <stop offset="0" stop-color="#69a7db"/>
      <stop offset=".02" stop-color="#66a3d8"/>
      <stop offset=".23" stop-color="#538cc5"/>
      <stop offset=".45" stop-color="#457bb8"/>
      <stop offset=".69" stop-color="#3d72b0"/>
      <stop offset="1" stop-color="#3b6fae"/>
    </linearGradient>
    <linearGradient id="_Áåçûìÿííûé_ãðàäèåíò_13" data-name="Áåçûìÿííûé ãðàäèåíò 13" x1="44.13" y1="221.39" x2="44.13" y2="225.93" gradientUnits="userSpaceOnUse">
      <stop offset="0" stop-color="#2f5b91"/>
      <stop offset=".06" stop-color="#295489"/>
      <stop offset=".28" stop-color="#17406e"/>
      <stop offset=".51" stop-color="#0a315b"/>
      <stop offset=".75" stop-color="#02284f"/>
      <stop offset="1" stop-color="#00264c"/>
    </linearGradient>
    <linearGradient id="_Áåçûìÿííûé_ãðàäèåíò_12-2" data-name="Áåçûìÿííûé ãðàäèåíò 12" x1="260.03" y1="127.15" x2="260.03" y2="132.47" gradientTransform="translate(-190.25 -6.67) rotate(9.22)" xlink:href="#_Áåçûìÿííûé_ãðàäèåíò_12"/>
    <linearGradient id="_Áåçûìÿííûé_ãðàäèåíò_11" data-name="Áåçûìÿííûé ãðàäèåíò 11" x1="260.03" y1="129.64" x2="260.03" y2="138.34" gradientTransform="translate(-190.25 -6.67) rotate(9.22)" gradientUnits="userSpaceOnUse">
      <stop offset="0" stop-color="#2f5b91"/>
      <stop offset=".48" stop-color="#2d598f"/>
      <stop offset=".66" stop-color="#295488"/>
      <stop offset=".78" stop-color="#214b7c"/>
      <stop offset=".88" stop-color="#153e6b"/>
      <stop offset=".97" stop-color="#062d55"/>
      <stop offset="1" stop-color="#00264c"/>
    </linearGradient>
    <linearGradient id="linear-gradient-8" x1="-8751.52" y1="8.57" x2="-8724.59" y2="8.57" gradientTransform="translate(-8621.56) rotate(-180) scale(1 -1)" gradientUnits="userSpaceOnUse">
      <stop offset="0" stop-color="#6ba7da"/>
      <stop offset="1" stop-color="#3e70ae"/>
    </linearGradient>
    <linearGradient id="linear-gradient-9" x1="-468.22" y1="1022.41" x2="-458.06" y2="1022.41" gradientTransform="translate(579.28 -1014.54) rotate(-.02)" gradientUnits="userSpaceOnUse">
      <stop offset="0" stop-color="#375d90"/>
      <stop offset="1" stop-color="#082a47"/>
    </linearGradient>
    <linearGradient id="_Áåçûìÿííûé_ãðàäèåíò_9" data-name="Áåçûìÿííûé ãðàäèåíò 9" x1="34.64" y1="158.9" x2="46.16" y2="158.9" gradientUnits="userSpaceOnUse">
      <stop offset="0" stop-color="#a0c4e8"/>
      <stop offset=".44" stop-color="#9dc2e7"/>
      <stop offset=".64" stop-color="#96bee5"/>
      <stop offset=".79" stop-color="#89b7e1"/>
      <stop offset=".92" stop-color="#77acdc"/>
      <stop offset="1" stop-color="#67a3d8"/>
    </linearGradient>
    <linearGradient id="linear-gradient-10" x1="-167.52" y1="128.63" x2="-144.52" y2="128.63" gradientTransform="translate(311.55 -105.58) rotate(-1.95)" gradientUnits="userSpaceOnUse">
      <stop offset="0" stop-color="#2f5b91"/>
      <stop offset="1" stop-color="#00264c"/>
    </linearGradient>
    <linearGradient id="linear-gradient-11" x1="505.48" y1="-513.28" x2="499.85" y2="-512.46" gradientTransform="translate(478.72 -665.13) rotate(67.04) scale(1.21 -1.03) skewX(8.01)" gradientUnits="userSpaceOnUse">
      <stop offset="0" stop-color="#fbd4da"/>
      <stop offset="1" stop-color="#edb0ba"/>
    </linearGradient>
    <linearGradient id="linear-gradient-12" x1="420.7" y1="-534.48" x2="429.39" y2="-534.48" gradientTransform="translate(498.55 -578.77) rotate(66.03) scale(1 -1)" gradientUnits="userSpaceOnUse">
      <stop offset="0" stop-color="#77b1e0"/>
      <stop offset="1" stop-color="#3a6eae"/>
    </linearGradient>
    <linearGradient id="linear-gradient-13" x1="-296.16" y1="116.58" x2="-291.25" y2="116.58" gradientTransform="translate(319.01 -216.34) rotate(-46.91)" xlink:href="#linear-gradient-11"/>
    <linearGradient id="linear-gradient-14" x1="-165.38" y1="91.1" x2="-156.73" y2="91.1" gradientTransform="translate(300.41 -7.56) rotate(4.93)" xlink:href="#linear-gradient-11"/>
    <linearGradient id="linear-gradient-15" x1="-161.38" y1="82.15" x2="-123.08" y2="82.15" gradientTransform="translate(300.41 -7.56) rotate(4.93)" xlink:href="#linear-gradient-10"/>
    <linearGradient id="linear-gradient-16" x1="-310.16" y1="90.35" x2="-291.15" y2="90.35" gradientTransform="translate(319.01 -216.34) rotate(-46.91)" xlink:href="#linear-gradient-10"/>
    <linearGradient id="linear-gradient-17" x1="-247.21" y1="66.99" x2="-238.42" y2="66.99" gradientTransform="translate(389.07 -99.52) rotate(-14.71)" xlink:href="#linear-gradient-11"/>
    <linearGradient id="linear-gradient-18" x1="-206.45" y1="91.15" x2="-187.89" y2="94.07" gradientTransform="translate(342.8 -87.93) rotate(-10.7)" xlink:href="#linear-gradient-12"/>
    <linearGradient id="linear-gradient-19" x1="-141.49" y1="128.93" x2="-140.46" y2="128.93" gradientTransform="translate(311.55 -105.58) rotate(-1.95)" xlink:href="#linear-gradient-12"/>
    <linearGradient id="linear-gradient-20" x1="-192.51" y1="81.55" x2="-186.52" y2="82.49" gradientTransform="translate(342.8 -87.93) rotate(-10.7)" xlink:href="#linear-gradient-12"/>
    <linearGradient id="linear-gradient-21" x1="-163.65" y1="134.12" x2="-140.67" y2="134.12" xlink:href="#linear-gradient-10"/>
    <linearGradient id="linear-gradient-22" x1="-54.39" y1="-58.5" x2="-67.66" y2="-45.23" gradientTransform="translate(131.03 117.96) rotate(60.82)" xlink:href="#linear-gradient-10"/>
    <linearGradient id="linear-gradient-23" x1="-70.01" y1="-55.92" x2="-52.14" y2="-54.63" gradientTransform="translate(131.03 117.96) rotate(60.82)" xlink:href="#linear-gradient-10"/>
    <linearGradient id="linear-gradient-24" x1="-60.23" y1="-51.97" x2="-61.8" y2="-50.4" gradientTransform="translate(131.03 117.96) rotate(60.82)" xlink:href="#linear-gradient-10"/>
    <linearGradient id="linear-gradient-25" x1="-338.9" y1="-175.44" x2="-334.71" y2="-185.92" gradientTransform="translate(553.53 9.92) rotate(-29.83)" gradientUnits="userSpaceOnUse">
      <stop offset="0" stop-color="#edb0ba"/>
      <stop offset="1" stop-color="#fbd4da"/>
    </linearGradient>
    <linearGradient id="linear-gradient-26" x1="613.54" y1="-412.67" x2="607.92" y2="-411.85" gradientTransform="translate(578.19 -661.94) rotate(86.71) scale(1.21 -1.03) skewX(8.01)" xlink:href="#linear-gradient-11"/>
    <linearGradient id="linear-gradient-27" x1="568.61" y1="-433.04" x2="577.67" y2="-433.04" gradientTransform="translate(567.21 -572.53) rotate(85.7) scale(1 -1)" xlink:href="#linear-gradient-12"/>
    <linearGradient id="linear-gradient-28" x1="808.86" y1="195.81" x2="814.93" y2="195.81" gradientTransform="translate(1054.17) rotate(-180) scale(1 -1)" gradientUnits="userSpaceOnUse">
      <stop offset="0" stop-color="#d7edfa"/>
      <stop offset="1" stop-color="#a7cfee"/>
    </linearGradient>
    <linearGradient id="linear-gradient-29" x1="809.33" y1="196.61" x2="814.37" y2="196.61" gradientTransform="translate(1054.17) rotate(-180) scale(1 -1)" gradientUnits="userSpaceOnUse">
      <stop offset="0" stop-color="#a0c4e8"/>
      <stop offset="1" stop-color="#67a3d8"/>
    </linearGradient>
    <linearGradient id="_Áåçûìÿííûé_ãðàäèåíò_18-3" data-name="Áåçûìÿííûé ãðàäèåíò 18" x1="813.51" y1="184.46" x2="813.51" y2="187.31" gradientTransform="translate(1054.17) rotate(-180) scale(1 -1)" xlink:href="#_Áåçûìÿííûé_ãðàäèåíò_18"/>
    <linearGradient id="_Áåçûìÿííûé_ãðàäèåíò_18-4" data-name="Áåçûìÿííûé ãðàäèåíò 18" x1="813.2" y1="187.53" x2="813.2" y2="190.46" gradientTransform="translate(1054.17) rotate(-180) scale(1 -1)" xlink:href="#_Áåçûìÿííûé_ãðàäèåíò_18"/>
    <linearGradient id="_Áåçûìÿííûé_ãðàäèåíò_18-5" data-name="Áåçûìÿííûé ãðàäèåíò 18" x1="812.7" y1="190.41" x2="812.7" y2="193.42" gradientTransform="translate(1054.17) rotate(-180) scale(1 -1)" xlink:href="#_Áåçûìÿííûé_ãðàäèåíò_18"/>
    <linearGradient id="_Áåçûìÿííûé_ãðàäèåíò_18-6" data-name="Áåçûìÿííûé ãðàäèåíò 18" x1="812.13" y1="193.71" x2="812.13" y2="196.96" gradientTransform="translate(1054.17) rotate(-180) scale(1 -1)" xlink:href="#_Áåçûìÿííûé_ãðàäèåíò_18"/>
    <linearGradient id="_Áåçûìÿííûé_ãðàäèåíò_18-7" data-name="Áåçûìÿííûé ãðàäèåíò 18" x1="811.46" y1="197.38" x2="811.46" y2="200.74" gradientTransform="translate(1054.17) rotate(-180) scale(1 -1)" xlink:href="#_Áåçûìÿííûé_ãðàäèåíò_18"/>
    <linearGradient id="_Áåçûìÿííûé_ãðàäèåíò_18-8" data-name="Áåçûìÿííûé ãðàäèåíò 18" x1="811.22" y1="200.38" x2="811.22" y2="203.93" gradientTransform="translate(1054.17) rotate(-180) scale(1 -1)" xlink:href="#_Áåçûìÿííûé_ãðàäèåíò_18"/>
    <linearGradient id="_Áåçûìÿííûé_ãðàäèåíò_18-9" data-name="Áåçûìÿííûé ãðàäèåíò 18" x1="811.43" y1="204.31" x2="811.43" y2="206.95" gradientTransform="translate(1054.17) rotate(-180) scale(1 -1)" xlink:href="#_Áåçûìÿííûé_ãðàäèåíò_18"/>
    <linearGradient id="_Áåçûìÿííûé_ãðàäèåíò_18-10" data-name="Áåçûìÿííûé ãðàäèåíò 18" x1="811.83" y1="207.43" x2="811.83" y2="209.63" gradientTransform="translate(1054.17) rotate(-180) scale(1 -1)" xlink:href="#_Áåçûìÿííûé_ãðàäèåíò_18"/>
    <linearGradient id="_Áåçûìÿííûé_ãðàäèåíò_10" data-name="Áåçûìÿííûé ãðàäèåíò 10" x1="817.05" y1="180.4" x2="817.05" y2="218.37" gradientTransform="translate(1054.17) rotate(-180) scale(1 -1)" gradientUnits="userSpaceOnUse">
      <stop offset="0" stop-color="#d7edfa"/>
      <stop offset=".04" stop-color="#d0e8f8"/>
      <stop offset=".18" stop-color="#bdddf3"/>
      <stop offset=".35" stop-color="#b0d5f0"/>
      <stop offset=".56" stop-color="#a9d0ee"/>
      <stop offset="1" stop-color="#a7cfee"/>
    </linearGradient>
    <linearGradient id="linear-gradient-30" x1="812.4" y1="200.13" x2="821.61" y2="200.13" gradientTransform="translate(1054.17) rotate(-180) scale(1 -1)" xlink:href="#linear-gradient"/>
    <linearGradient id="_Áåçûìÿííûé_ãðàäèåíò_8" data-name="Áåçûìÿííûé ãðàäèåíò 8" x1="819.51" y1="189.93" x2="821.37" y2="189.93" gradientTransform="translate(1054.17) rotate(-180) scale(1 -1)" gradientUnits="userSpaceOnUse">
      <stop offset="0" stop-color="#2f5b91"/>
      <stop offset=".09" stop-color="#254f82"/>
      <stop offset=".29" stop-color="#143d6a"/>
      <stop offset=".5" stop-color="#093059"/>
      <stop offset=".73" stop-color="#02284f"/>
      <stop offset="1" stop-color="#00264c"/>
    </linearGradient>
    <linearGradient id="_Áåçûìÿííûé_ãðàäèåíò_8-2" data-name="Áåçûìÿííûé ãðàäèåíò 8" x1="818.11" y1="192.81" x2="820.75" y2="192.81" xlink:href="#_Áåçûìÿííûé_ãðàäèåíò_8"/>
    <linearGradient id="_Áåçûìÿííûé_ãðàäèåíò_8-3" data-name="Áåçûìÿííûé ãðàäèåíò 8" x1="816.39" y1="195.48" x2="820.1" y2="195.48" xlink:href="#_Áåçûìÿííûé_ãðàäèåíò_8"/>
    <linearGradient id="_Áåçûìÿííûé_ãðàäèåíò_8-4" data-name="Áåçûìÿííûé ãðàäèåíò 8" x1="814.76" y1="198.61" x2="819.13" y2="198.61" xlink:href="#_Áåçûìÿííûé_ãðàäèåíò_8"/>
    <linearGradient id="_Áåçûìÿííûé_ãðàäèåíò_8-5" data-name="Áåçûìÿííûé ãðàäèåíò 8" x1="813.53" y1="202.27" x2="817.66" y2="202.27" xlink:href="#_Áåçûìÿííûé_ãðàäèåíò_8"/>
    <linearGradient id="_Áåçûìÿííûé_ãðàäèåíò_8-6" data-name="Áåçûìÿííûé ãðàäèåíò 8" x1="812.56" y1="205.19" x2="816.77" y2="205.19" xlink:href="#_Áåçûìÿííûé_ãðàäèåíò_8"/>
    <linearGradient id="_Áåçûìÿííûé_ãðàäèåíò_8-7" data-name="Áåçûìÿííûé ãðàäèåíò 8" x1="812.73" y1="208.51" x2="815.75" y2="208.51" xlink:href="#_Áåçûìÿííûé_ãðàäèåíò_8"/>
    <linearGradient id="_Áåçûìÿííûé_ãðàäèåíò_8-8" data-name="Áåçûìÿííûé ãðàäèåíò 8" x1="812.93" y1="211.26" x2="815.38" y2="211.26" xlink:href="#_Áåçûìÿííûé_ãðàäèåíò_8"/>
    <linearGradient id="linear-gradient-31" x1="815.22" y1="204.73" x2="822.96" y2="204.73" xlink:href="#linear-gradient-28"/>
    <linearGradient id="linear-gradient-32" x1="815.52" y1="205.26" x2="822.61" y2="205.26" xlink:href="#linear-gradient-29"/>
    <linearGradient id="_Áåçûìÿííûé_ãðàäèåíò_7" data-name="Áåçûìÿííûé ãðàäèåíò 7" x1="821.64" y1="198.92" x2="821.64" y2="196.91" gradientTransform="translate(1054.17) rotate(-180) scale(1 -1)" gradientUnits="userSpaceOnUse">
      <stop offset="0" stop-color="#2f5b91"/>
      <stop offset=".24" stop-color="#2c588d"/>
      <stop offset=".48" stop-color="#244e81"/>
      <stop offset=".72" stop-color="#173f6d"/>
      <stop offset=".95" stop-color="#042a52"/>
      <stop offset="1" stop-color="#00264c"/>
    </linearGradient>
    <linearGradient id="_Áåçûìÿííûé_ãðàäèåíò_7-2" data-name="Áåçûìÿííûé ãðàäèåíò 7" x1="820.84" y1="200.97" x2="820.84" y2="198.91" xlink:href="#_Áåçûìÿííûé_ãðàäèåíò_7"/>
    <linearGradient id="_Áåçûìÿííûé_ãðàäèåíò_7-3" data-name="Áåçûìÿííûé ãðàäèåíò 7" x1="819.93" y1="202.85" x2="819.93" y2="200.75" xlink:href="#_Áåçûìÿííûé_ãðàäèåíò_7"/>
    <linearGradient id="_Áåçûìÿííûé_ãðàäèåíò_7-4" data-name="Áåçûìÿííûé ãðàäèåíò 7" x1="818.93" y1="205.15" x2="818.93" y2="202.85" xlink:href="#_Áåçûìÿííûé_ãðàäèåíò_7"/>
    <linearGradient id="_Áåçûìÿííûé_ãðàäèåíò_7-5" data-name="Áåçûìÿííûé ãðàäèåíò 7" x1="817.89" y1="207.66" x2="817.89" y2="205.55" xlink:href="#_Áåçûìÿííûé_ãðàäèåíò_7"/>
    <linearGradient id="_Áåçûìÿííûé_ãðàäèåíò_7-6" data-name="Áåçûìÿííûé ãðàäèåíò 7" x1="817.16" y1="209.84" x2="817.16" y2="207.75" xlink:href="#_Áåçûìÿííûé_ãðàäèåíò_7"/>
    <linearGradient id="_Áåçûìÿííûé_ãðàäèåíò_7-7" data-name="Áåçûìÿííûé ãðàäèåíò 7" x1="816.75" y1="212" x2="816.75" y2="210.32" xlink:href="#_Áåçûìÿííûé_ãðàäèåíò_7"/>
    <linearGradient id="_Áåçûìÿííûé_ãðàäèåíò_7-8" data-name="Áåçûìÿííûé ãðàäèåíò 7" x1="816.58" y1="213.91" x2="816.58" y2="212.34" xlink:href="#_Áåçûìÿííûé_ãðàäèåíò_7"/>
    <linearGradient id="_Áåçûìÿííûé_ãðàäèåíò_4" data-name="Áåçûìÿííûé ãðàäèåíò 4" x1="815.78" y1="216.44" x2="815.78" y2="228.72" gradientTransform="translate(1054.17) rotate(-180) scale(1 -1)" gradientUnits="userSpaceOnUse">
      <stop offset="0" stop-color="#a0c4e8"/>
      <stop offset=".17" stop-color="#8fbae3"/>
      <stop offset=".47" stop-color="#79addd"/>
      <stop offset=".75" stop-color="#6ba5d9"/>
      <stop offset="1" stop-color="#67a3d8"/>
    </linearGradient>
    <linearGradient id="_Áåçûìÿííûé_ãðàäèåíò_3" data-name="Áåçûìÿííûé ãðàäèåíò 3" x1="809.91" y1="216.98" x2="821.66" y2="216.98" gradientTransform="translate(-577.39 433.96) scale(1 -1)" gradientUnits="userSpaceOnUse">
      <stop offset="0" stop-color="#d7edfa"/>
      <stop offset=".19" stop-color="#c2e0f4"/>
      <stop offset=".4" stop-color="#b3d6f1"/>
      <stop offset=".65" stop-color="#a9d0ee"/>
      <stop offset="1" stop-color="#a7cfee"/>
    </linearGradient>
    <linearGradient id="linear-gradient-33" x1="809.08" y1="215.02" x2="822.48" y2="215.02" gradientTransform="translate(-577.39 430.04) scale(1 -1)" xlink:href="#linear-gradient-10"/>
    <linearGradient id="_Áåçûìÿííûé_ãðàäèåíò_16-2" data-name="Áåçûìÿííûé ãðàäèåíò 16" x1="156.9" y1="156.61" x2="198.4" y2="156.61" xlink:href="#_Áåçûìÿííûé_ãðàäèåíò_16"/>
    <linearGradient id="linear-gradient-34" x1="177.7" y1="150.64" x2="177.7" y2="160.37" gradientTransform="matrix(1, 0, 0, 1, 0, 0)" xlink:href="#linear-gradient-29"/>
  </defs>
  <ellipse class="cls-12" cx="136.35" cy="224.44" rx="136.35" ry="5.84"/>
  <path class="cls-2" d="m242.51,99.51c-8.51-2.43-18.54-6.11-20.77-15.39-1.87-7.79,2.9-15.5,3.7-23.49.82-8.13-2.9-16.62-9.22-21.05-6.32-4.43-14.93-4.6-21.36-.41-7.76,5.06-12.23,15.62-20.92,18.34-5.78,1.81-12.09-.46-17.06-4.19-4.97-3.73-8.93-8.8-13.21-13.43-7.92-8.56-17.3-15.85-28.01-19.2-10.71-3.35-22.85-2.38-32.07,4.38-3.35,2.46-6.21,5.75-8.36,9.5-3.61,6.32-11.3,8.16-17.02,4.04-1.01-.73-2.05-1.4-3.12-2.01-6.1-3.47-14.22-4.69-19.38.24-3.48,3.33-4.76,8.76-4.39,13.8.37,5.04,2.18,9.81,4.03,14.46,4.04,10.18,8.41,20.41,9.85,31.38,1.44,10.97-.49,23.07-7.61,30.95-6.19,6.84-15.84,10.16-19.72,18.79-2.61,5.8-1.91,12.78,0,18.92,3.85,12.39,12.55,22.92,23.46,28.38,11.44,5.73,24.78,7.25,37.35,7.3,40.43.15,38.75-7.58,64.45-20.33,28.29-14.03,40.79,17.92,77.18,16.7,11.31-.38,20.2-9.41,20.87-16.99.71-8.04-12.25-15.2-11.17-23.19,1.27-9.45,10.17-14.88,17.79-19.56,7.62-4.68,15.89-12.18,14.54-21.62-1.35-9.47-11.33-13.91-19.84-16.35Z"/>
  <g>
    <rect class="cls-10" x="175.99" y="81.76" width="3.32" height="7.83"/>
    <rect class="cls-13" x="175.99" y="82.7" width="3.32" height="3.45"/>
    <path class="cls-27" d="m182.8,77.67h-10.3c-.47,0-.84.39-.84.88v3.45c0,.48.38.88.84.88h10.3c.47,0,.84-.39.84-.88v-3.45c0-.48-.38-.88-.84-.88Z"/>
  </g>
  <ellipse class="cls-74" cx="177.65" cy="155.56" rx="64.13" ry="66.6"/>
  <ellipse class="cls-39" cx="177.65" cy="155.56" rx="54.97" ry="57.08"/>
  <ellipse class="cls-50" cx="177.65" cy="155.56" rx="50.33" ry="52.27"/>
  <path class="cls-1" d="m83.25,59.21l2.32,2.43s0,0,0,0c0,0,.02.02.02.03.02.03.03.06.04.09,0,0,0,0,0,0,0,.01,0,.03,0,.04,0,0,0,0,0,0,0,0,0,0,0,.01,0,0,0,.01,0,.02,0,0,0,0,0,0,0,.01,0,.02,0,.03,0,0,0,.01,0,.02,0,0,0,0,0,.01-.01.03-.03.07-.06.09,0,0-.02.02-.03.02l-2.32,2.39c-.1.1-.25.1-.35,0-.1-.1-.09-.26,0-.36l1.93-1.98-12.72-.07c-.14,0-.25-.12-.24-.26,0-.14.11-.25.25-.25l12.73.07-1.91-2c-.09-.1-.09-.26,0-.36.1-.1.25-.1.35,0Z"/>
  <g>
    <polygon class="cls-71" points="27.67 21.32 32 24.53 27.74 27.84 27.67 21.32"/>
    <polygon class="cls-86" points="23.38 21.38 27.71 24.58 23.45 27.89 23.38 21.38"/>
  </g>
  <g>
    <polygon class="cls-56" points="252.68 22.87 257.01 26.07 252.76 29.38 252.68 22.87"/>
    <polygon class="cls-23" points="248.39 22.92 252.72 26.12 248.47 29.43 248.39 22.92"/>
  </g>
  <polygon class="cls-61" points="103.96 151.82 99.06 148.19 99.08 149.89 86.93 149.89 86.93 153.86 99.13 153.86 99.15 155.56 103.96 151.82"/>
  <g>
    <g>
      <path class="cls-18" d="m37.87,167.79h-1.5c-.34.71-.76,1.47-1.16,2.19-1.49,2.69-2.91,5.24-1.37,6.58.13.11.28.16.44.16.19,0,.38-.09.52-.25.24-.3.2-.74-.08-.99-.67-.58.68-3.02,1.67-4.8.56-1.01,1.1-1.98,1.49-2.89Z"/>
      <path class="cls-49" d="m51.78,209.32c-.94.29-3.01.59-6.02.31-.93-.11-4.66-.79-5.7-1.07-3.09-.77-4.84-1.7-5.01-2.15,0,0-.01-.14-.05-.14-.26-.02-1.28.02-1.28.02-.19,1.3,1.72,2.3,3.89,3.02,1.1.37,1.01.49,5.65,1.32,1.01.18,9.95,1.44,10.34-1.29l-.1-.02h-1.72Z"/>
      <path class="cls-65" d="m52.34,215.37s.02-.07.03-.08c-.37.49-3.64.98-8.83.18-5.19-.79-8.19-2.24-8.41-2.82,0,0,0-.03,0-.07.21-.59,3.17-2.11,8.33-3.04,5.17-.93,7.94-.71,8.32-.23,0,0,.6.04.74,0l1.08.02v-.15c-.22-1.31-2.38-1.64-4.68-1.61-2.5.03-5.17.49-5.7.59-1,.18-9.66,1.82-9.44,4.48-.12,2.66,8.54,4.06,9.55,4.22,1.02.16,9.95,1.44,10.34-1.29l-1.34-.21Z"/>
      <path class="cls-52" d="m51.65,203.09c-.94.29-3.01.59-6.02.31-.93-.11-4.66-.79-5.7-1.07-3.09-.77-4.84-1.7-5.01-2.15,0,0-.01-.14-.05-.14-.26-.02-1.28.02-1.28.02-.19,1.3,1.72,2.3,3.89,3.02,1.1.37,1.01.49,5.65,1.32,1.01.18,9.95,1.44,10.34-1.29l-.1-.02h-1.72Z"/>
      <path class="cls-38" d="m52.21,209.14s.02-.07.03-.08c-.37.49-3.64.98-8.83.18-5.19-.79-8.19-2.24-8.41-2.82,0,0,0-.03,0-.07.21-.59,3.17-2.11,8.33-3.04,5.17-.93,7.94-.71,8.32-.23,0,0,.6.04.74,0l1.08.02v-.15c-.22-1.31-2.38-1.64-4.68-1.61-2.5.03-5.17.49-5.7.59-1,.18-9.66,1.82-9.44,4.48-.12,2.66,8.54,4.06,9.55,4.22,1.02.16,9.95,1.44,10.34-1.29l-1.34-.21Z"/>
      <path class="cls-70" d="m51.58,196.87c-.94.29-3.01.59-6.02.31-.93-.11-4.66-.79-5.7-1.07-3.09-.77-4.84-1.7-5.01-2.15,0,0-.01-.14-.05-.14-.26-.02-1.28.02-1.28.02-.19,1.3,1.72,2.3,3.89,3.02,1.1.37,1.01.49,5.65,1.32,1.01.18,9.95,1.44,10.34-1.29l-.1-.02h-1.72Z"/>
      <path class="cls-25" d="m52.14,202.91s.02-.07.03-.08c-.37.49-3.64.98-8.83.18-5.19-.79-8.19-2.24-8.41-2.82,0,0,0-.03,0-.07.21-.59,3.17-2.11,8.33-3.04,5.17-.93,7.94-.71,8.32-.23,0,0,.6.04.74,0l1.08.02v-.15c-.22-1.31-2.38-1.64-4.68-1.61-2.5.03-5.17.49-5.7.59-1,.18-9.66,1.82-9.44,4.48-.12,2.66,8.54,4.06,9.55,4.22,1.02.16,9.95,1.44,10.34-1.29l-1.34-.21Z"/>
      <path class="cls-46" d="m51.45,190.64c-.94.29-3.01.59-6.02.31-.93-.11-4.66-.79-5.7-1.07-3.09-.77-4.84-1.7-5.01-2.15,0,0-.01-.14-.05-.14-.26-.02-1.28.02-1.28.02-.19,1.3,1.72,2.3,3.89,3.02,1.1.37,1.01.49,5.65,1.32,1.01.18,9.95,1.44,10.34-1.29l-.1-.02h-1.72Z"/>
      <path class="cls-76" d="m52.01,196.69s.02-.07.03-.08c-.37.49-3.64.98-8.83.18-5.19-.79-8.19-2.24-8.41-2.82,0,0,0-.03,0-.07.21-.59,3.17-2.11,8.33-3.04,5.17-.93,7.94-.71,8.32-.23,0,0,.6.04.74,0l1.08.02v-.15c-.22-1.31-2.38-1.64-4.68-1.61-2.5.03-5.17.49-5.7.59-1,.18-9.66,1.82-9.44,4.48-.12,2.66,8.54,4.06,9.55,4.22,1.02.16,9.95,1.44,10.34-1.29l-1.34-.21Z"/>
      <path class="cls-57" d="m51.37,184.41c-.94.29-3.01.59-6.02.31-.93-.11-4.66-.79-5.7-1.07-3.09-.77-4.84-1.7-5.01-2.15,0,0-.01-.14-.05-.14-.26-.02-1.28.02-1.28.02-.19,1.3,1.72,2.3,3.89,3.02,1.1.37,1.01.49,5.65,1.32,1.01.18,9.95,1.44,10.34-1.29l-.1-.02h-1.72Z"/>
      <path class="cls-19" d="m51.93,190.46s.02-.07.03-.08c-.37.49-3.64.98-8.83.18-5.19-.79-8.19-2.24-8.41-2.82,0,0,0-.03,0-.07.21-.59,3.17-2.11,8.33-3.04,5.17-.93,7.94-.71,8.32-.23,0,0,.6.04.74,0l1.08.02v-.15c-.22-1.31-2.38-1.64-4.68-1.61-2.5.03-5.17.49-5.7.59-1,.18-9.66,1.82-9.44,4.48-.12,2.66,8.54,4.06,9.55,4.22,1.02.16,9.95,1.44,10.34-1.29l-1.34-.21Z"/>
      <path class="cls-68" d="m51.25,178.18c-.94.29-3.01.59-6.02.31-.93-.11-4.66-.79-5.7-1.07-3.09-.77-4.84-1.7-5.01-2.15,0,0-.01-.14-.05-.14-.26-.02-1.28.02-1.28.02-.19,1.3,1.72,2.3,3.89,3.02,1.1.37,1.01.49,5.65,1.32,1.01.18,9.95,1.44,10.34-1.29l-.1-.02h-1.72Z"/>
      <path class="cls-24" d="m51.81,184.23s.02-.07.03-.08c-.37.49-3.64.98-8.83.18-5.19-.79-8.19-2.24-8.41-2.82,0,0,0-.03,0-.07.21-.59,3.17-2.11,8.33-3.04,5.17-.93,7.94-.71,8.32-.23,0,0,.6.04.74,0l1.08.02v-.15c-.22-1.31-2.38-1.64-4.68-1.61-2.5.03-5.17.49-5.7.59-1,.18-9.66,1.82-9.44,4.48-.12,2.66,8.54,4.06,9.55,4.22,1.02.16,9.95,1.44,10.34-1.29l-1.34-.21Z"/>
    </g>
    <path class="cls-83" d="m60.29,221.38l-3.58-5.43c-.3-.45-.79-.72-1.31-.72h-22.52c-.52,0-1.02.27-1.31.72l-3.59,5.43c-.72,1.1.03,2.59,1.31,2.59h29.69c1.28,0,2.04-1.49,1.31-2.59Z"/>
    <path class="cls-31" d="m60.63,221.39H27.63c-.75,0-1.37.86-1.37,1.93v.69c0,1.06.61,1.93,1.37,1.93h33c.75,0,1.37-.86,1.37-1.93v-.69c0-1.06-.61-1.93-1.37-1.93Z"/>
    <g>
      <path class="cls-6" d="m64.99,166.34c-.14-1.47-8.46-4.04-18.94-5.84-10.69-1.83-19.56-2.14-19.77-.69-.06.39,7.14,4.04,18.94,5.94,11.48,1.85,19.33,1.03,19.73.67l.04-.08Z"/>
      <path class="cls-34" d="m64.99,166.34c-3.21.61-7.57.73-12.55.31-.02,0-.04,0-.06,0-.15-.01-.3-.03-.45-.04-.03,0-.06,0-.09,0-.14-.01-.29-.03-.43-.04-.03,0-.07,0-.1-.01-.14-.01-.29-.03-.44-.04-.03,0-.06,0-.1-.01-.18-.02-.35-.04-.53-.06,0,0,0,0-.01,0-.23-.03-.46-.05-.69-.08-.03,0-.07,0-.1-.01-.2-.02-.41-.05-.61-.08-.05,0-.1-.01-.16-.02-.19-.02-.38-.05-.56-.08-.06,0-.13-.02-.19-.03-.18-.02-.35-.05-.53-.08-.07-.01-.15-.02-.22-.03-.17-.03-.34-.05-.51-.08-.08-.01-.16-.02-.24-.04-.16-.03-.33-.05-.5-.08-.09-.01-.17-.03-.26-.04-.14-.02-.29-.05-.43-.07-.14-.02-.29-.05-.43-.07-.09-.01-.17-.03-.26-.04-.17-.03-.33-.06-.49-.09-.08-.01-.16-.03-.24-.04-.17-.03-.34-.06-.51-.09-.07-.01-.15-.03-.22-.04-.18-.03-.35-.07-.53-.1-.06-.01-.13-.03-.19-.04-.19-.04-.37-.08-.56-.11-.05-.01-.1-.02-.15-.03-.2-.04-.4-.08-.6-.13-.03,0-.07-.01-.1-.02-.23-.05-.46-.1-.68-.15,0,0,0,0-.01,0-.17-.04-.35-.08-.52-.12-.03,0-.06-.01-.09-.02-.14-.03-.28-.07-.43-.1-.03,0-.07-.02-.1-.02-.14-.03-.28-.07-.42-.1-.03,0-.06-.01-.09-.02-.15-.04-.29-.07-.44-.11-.02,0-.04,0-.06-.01-4.85-1.24-8.95-2.78-11.81-4.41l-.18,1.25s-.02.09-.03.13l-.54,3.76s0,.09,0,.13c0,.35.16.67.45.86.02.02.05.03.07.04,2.97,1.58,7.1,3.07,11.92,4.26,0,0,.02,0,.03,0,.22.05.44.11.66.16.02,0,.04,0,.06.01.21.05.43.1.64.15.03,0,.06.01.09.02.21.05.41.09.62.14.04,0,.08.02.11.02.2.04.4.09.6.13.04,0,.09.02.13.03.2.04.39.08.59.12.05.01.1.02.16.03.19.04.38.07.57.11.06.01.12.02.18.03.18.03.37.07.55.1.07.01.14.03.2.04.18.03.35.06.53.09.08.01.15.03.23.04.13.02.26.04.38.06.13.02.26.04.38.07.08.01.15.02.23.04.18.03.36.06.53.09.07.01.14.02.2.03.19.03.37.06.56.08.06,0,.12.02.18.03.19.03.38.06.58.08.05,0,.1.01.16.02.2.03.4.05.6.08.05,0,.09.01.14.02.2.03.41.05.61.08.04,0,.08,0,.12.01.21.03.42.05.63.07.03,0,.06,0,.09,0,.22.02.44.05.65.07.02,0,.04,0,.06,0,.23.02.45.05.68.07.01,0,.02,0,.03,0,4.93.46,9.3.41,12.6-.12.03,0,.06-.01.08-.02.33-.08.59-.34.69-.67.01-.04.02-.09.03-.13l.64-3.74s.01-.09.01-.13l.21-1.24Z"/>
    </g>
  </g>
  <g>
    <path class="cls-87" d="m104.64.7c3.08-2.54,23.2,2.65,23.5,2.97.78.82.05,3.72-.86,6.39l2.68,7.07-4.73-1.67c-.11.32-.41.55-.76.55h-18.18c-.43,0-5.9-11.81-1.65-15.32Z"/>
    <g>
      <path class="cls-62" d="m115.4,4.67c-2.4,0-4.34,1.99-4.34,4.44,0,2.45,1.95,4.44,4.35,4.44,2.4,0,4.34-1.99,4.34-4.44,0-2.45-1.95-4.44-4.35-4.44Z"/>
      <path class="cls-67" d="m121.46,4.44c-.22-.23-.59-.23-.81,0l-5.73,5.96-2.47-2.56c-.22-.23-.59-.23-.81,0-.22.23-.22.61,0,.84l2.87,2.98c.11.12.26.18.41.17.15,0,.3-.06.41-.17l6.13-6.37c.22-.23.22-.61,0-.84Z"/>
    </g>
  </g>
  <path class="cls-36" d="m41.25,164.2s-.92-3.33-2.53-.46c0,0,1.33-3.8-2.12-1.18,0,0,1.56-1.91,1.19-2.41-.37-.5-1.77-.21-2.85.04,0,0,2.34-1.05,2.01-1.39-.33-.34-1.48-.97-2.33-1.14,0,0,2.68.12,2.4-.51-.28-.63-.81-1.95-1.27-2.23-.01,0,2.3,1.37,2.79.73.38-.49.28-1.51.23-2.01-.02-.27.67.93,1.5,1.38.31.17.66.16.99,0,.24-.11.44-.28.63-.46.21-.2.59-.55.68-.83,0,0-1.27,4.02,2.39,2.66,0,0-2.77,2.82.33,3.47,3.1.64-3.37-.74-1.36,2.53,0,0-2.96-2.41-2.7,1.82Z"/>
  <g>
    <path class="cls-37" d="m170.51,24.67s-16.75,3.16-21.93,5.94c-.08.67.58,1.28.58,1.28,0,0,17.06-6.05,22.21-6.72.17-.08-.86-.5-.86-.5Z"/>
    <path class="cls-32" d="m190.51,22.55c.11-.08,4.08-2.46,4.91-3.01.2-.13.21-.88.61-1.39.36-.46.79-.99,1.13-.71.57.46,1.41-1.71,2.29.49.52,1.32-.38,2.47-2.51,3.29-.38.15-3.54,2.72-3.81,2.74-1.41-1.38-2.61-1.4-2.61-1.4Z"/>
    <path class="cls-90" d="m170.42,27.7c-1.23.84-1.54,2.08-.9,3.85.26.73,1.42,2.07,2.54,2.08,6.41.09,16.67-2.87,24.06-11.57-.32-1.94-1.32-2.46-1.32-2.46,0,0-5.7,3.05-13.45,5.41-2.86.87-7.51.35-10.93,2.69Z"/>
    <path class="cls-91" d="m199.08,77.03l4.7,3.58s.08.98,1.24.66c1.16-.32,2.6-2.08,2.73-2.59.29-1.07-2.82.49-2.82.49l-4.31-4.08-1.55,1.93Z"/>
    <g>
      <path class="cls-44" d="m205.01,79.03s3.68-2.44,4.51-1.93c1.32.8-3.51,5.09-4.63,5.06-1.08-.03-1.19-1.51-1.19-1.51,0,0,1.08-.01,1.31-1.62Z"/>
      <path class="cls-93" d="m205.41,78.93s-.06.57.13.99c.19.21.2-1.51-.13-.99Z"/>
      <path class="cls-93" d="m206.22,78.5s-.06.56.14.98c.19.21.19-1.5-.14-.98Z"/>
      <path class="cls-93" d="m206.95,78.05s-.04.49.13.85c.17.19.15-1.29-.13-.85Z"/>
    </g>
    <path class="cls-21" d="m136.53,68.49l-6.02-1.02s-.68-1.03-1.57-.19c-.89.84-1.37,3.09-1.27,3.61.22,1.09,2.22-1.58,2.22-1.58l5.63,1.78,1-2.61Z"/>
    <g>
      <path class="cls-44" d="m129.96,69.27s-2.18,3.93-3.13,3.88c-1.53-.08.83-6.2,1.85-6.72.97-.49,1.73.77,1.73.77,0,0-.95.53-.44,2.07Z"/>
      <path class="cls-93" d="m129.65,69.54s-.2-.53-.56-.81c-.27-.1.5,1.44.56.81Z"/>
      <path class="cls-93" d="m129.12,70.32s-.2-.53-.56-.8c-.27-.1.5,1.42.56.8Z"/>
      <path class="cls-93" d="m128.68,71.07s-.18-.45-.5-.69c-.24-.08.44,1.22.5.69Z"/>
    </g>
    <path class="cls-11" d="m165.54,48.33c-5.06-1.91-7.28,6.4-15.37,21.52-7.33-1.24-12.13-1.72-17.34-2.38-.34.75-.95,2.55-1.15,3.25,4.76,2.12,13.1,5.49,19.73,6.38,1.78.24,3.58-.24,5.06-1.31,4.53-3.28,8.19-8.71,10.25-12.21,1.17-1.99,4.81-9.14,4.81-9.14,0,0-.92-4.19-5.98-6.1Z"/>
    <path class="cls-43" d="m201.89,79.84l1.85-2.61c-3.96-4.71-9.61-11.9-11.64-13.57-3.43-2.82-20.65-11.18-20.65-11.18,0,0-7.63-3.87-8.8-4.81-1.5-1.2-3.28-.84-4.05,1.69-.5,1.65-1.49,2.99.16,7.88,2.43,7.21,15.3,8.26,29.08,12.83,5.1,3.78,10.49,7.66,14.05,9.76Z"/>
    <path class="cls-3" d="m167.65,30.72s.28-.75.92-2.4c1.38-3.57,1.68-6.56,2.26-6.85.67-.34,2.66-.63,3.31-.46.32.09-.11,2.5.05,3.66.37,2.64.94,4.92.69,5.82-.52,1.89-5.1,2.89-7.23.23Z"/>
    <path class="cls-17" d="m174.85,27.96c-.2.04-3.63-.19-5.6-2.67-1.96-.25-3.63,1.49-3.63,1.49,0,0-8.8,6.75-8.45,24.19.09,4.43,9.35,2.84,9.69,2.75,1.78-.48,5.18-.66,6.45-3.12,1.99-3.85,2.17-13.03,2.13-16.62-.06-5.41-.6-6.02-.6-6.02Z"/>
    <path class="cls-15" d="m173.89,30.27l.69-2.28.44-.13s.53,2.24.36,3.54c-.04.31-.42.24-.42.24l-1.08-1.37Z"/>
    <path class="cls-15" d="m174.86,31.18s-2.16,9.03-14.9,10.11c-.39.5-2.02,1.81-2.02,1.81l2.75,1.91s14.32.07,14.66-13.75c-.19-.36-.5-.07-.5-.07Z"/>
    <path class="cls-15" d="m157.75,52.62l.1,1.12s6.75,2.29,13.92-.94c-.03.11.07-.66.07-.66,0,0-6.79,2.19-14.09.48Z"/>
    <path class="cls-85" d="m174.46,26.16s.47,1.18.24,1.88c.21.2.93,1.93.93,1.93,0,0-.07-2.95-1.17-3.81Z"/>
    <path class="cls-22" d="m169.38,24.89l-.7.3s1.95,5.05,4.88,5.62c-.02.03,1.3-2.91,1.26-2.9-2.66.23-5.44-3.02-5.44-3.02Z"/>
    <path class="cls-51" d="m152.9,42.75s19.97-4.99,22.38-16.18c.27-2.15-3.21-1.96-3.21-1.96l.05.42s3.17-.14,2.43,1.92c-1.95,5.45-13.78,13.54-21.73,14.4-.05-.05.08,1.4.08,1.4Z"/>
    <g>
      <path class="cls-69" d="m155.04,42.56l-6.62-12.32c-.33-.62-1.09-.84-1.68-.49l-8.16,4.73c-.6.35-.81,1.13-.48,1.74l6.62,12.32c.33.62,1.08.84,1.68.49l8.16-4.73c.6-.35.81-1.13.48-1.75Z"/>
      <path class="cls-84" d="m156.49,42.45l-7.23-13.44c-.29-.53-.93-.72-1.44-.42l-4.88,2.83c-.51.3-.69.97-.41,1.5l7.23,13.44c.28.53.93.72,1.44.42l4.88-2.83c.51-.3.69-.97.41-1.5Z"/>
      <path class="cls-64" d="m147.08,39.1c-.2-.37-.65-.5-1-.29l-.92.54c-.35.2-.48.67-.28,1.04.2.37.65.5,1,.29l.92-.54c.35-.2.48-.67.28-1.04Z"/>
    </g>
    <path class="cls-54" d="m169.49,16.09c-.22.27-3.45,3.46-.28,8.23.61,1.15,6.8,4.38,6.13-2.08-.56-5.37-3.35-9.1-5.85-6.15Z"/>
    <path class="cls-15" d="m170.46,21.93l.45-.6s-1.41-3.01.71-3.09c2.58-.1,5.06-1.16,3.59-4.12-.62-.92-.85.71-.85.71,0,0,.57-2.18-.95-3.66-1.18-.65-.79,1.47-2.18,2.36-2.12,1.35-3.68.53-4.47,3.64-.79,3.11.17,5.25,2.89,7.71.02-.61-.08-1.8-.08-1.8,0,0-1.35-2.04.05-2.38.53-.13.84,1.26.84,1.26Z"/>
    <path class="cls-92" d="m187.21,30.15c.13-.04,4.8-.89,5.8-1.13.23-.06.5-.76,1.06-1.1.5-.31,1.11-.65,1.34-.28.4.63,1.96-1.12,2.06,1.25.07,1.42-1.2,2.19-3.55,2.23-.43,0-4.37,1.32-4.64,1.25-.91-1.79-2.07-2.23-2.07-2.23Z"/>
    <path class="cls-78" d="m165.91,28c-1.49.36-2.2,1.42-2.17,3.31.01.78.82,2.19,1.77,2.85,4.31,2.97,17.21,3.11,27.34-2.51.34-1.94-.46-2.77-.46-2.77,0,0-6.58.89-14.92.41-3.08-.18-7.44-2.28-11.56-1.28Z"/>
  </g>
  <g>
    <g>
      <path class="cls-15" d="m56.72,111.33l.68.45c.48-.79.98-1.58,1.49-2.35l-.67-.47c-.5.78-1.01,1.58-1.5,2.37Z"/>
      <path class="cls-15" d="m53.88,116.17l.7.42c.45-.81.91-1.62,1.38-2.42l-.69-.44c-.47.8-.94,1.62-1.39,2.44Z"/>
      <path class="cls-15" d="m59.76,106.63l.66.49c.52-.76,1.05-1.53,1.59-2.28l-.65-.5c-.54.76-1.08,1.53-1.6,2.3Z"/>
      <path class="cls-15" d="m51.26,121.14l.72.39c.41-.83.84-1.67,1.28-2.49l-.71-.4c-.44.83-.87,1.67-1.29,2.51Z"/>
      <path class="cls-15" d="m70.09,93.44l.59.58c.61-.68,1.24-1.37,1.87-2.04l-.58-.59c-.63.67-1.27,1.36-1.89,2.05Z"/>
      <path class="cls-15" d="m73.91,89.38l.57.6c.64-.65,1.3-1.31,1.96-1.95l-.55-.62c-.66.64-1.33,1.3-1.97,1.96Z"/>
      <path class="cls-15" d="m66.46,97.67l.62.55c.58-.71,1.18-1.42,1.78-2.12l-.61-.56c-.6.7-1.21,1.42-1.79,2.14Z"/>
      <path class="cls-15" d="m63.01,102.07l.64.52c.55-.74,1.12-1.48,1.69-2.2l-.63-.53c-.57.73-1.14,1.48-1.7,2.22Z"/>
      <path class="cls-15" d="m40.33,153.18l.8.17c.18-.92.38-1.84.58-2.76l-.79-.19c-.2.92-.4,1.85-.58,2.78Z"/>
      <path class="cls-15" d="m39.35,158.76l.8.13c.14-.92.3-1.86.46-2.78l-.8-.15c-.16.93-.32,1.87-.46,2.8Z"/>
      <path class="cls-15" d="m41.56,147.64l.79.21c.22-.91.46-1.83.7-2.73l-.78-.23c-.24.91-.48,1.83-.7,2.74Z"/>
      <path class="cls-15" d="m48.86,126.25l.74.35c.38-.85.77-1.71,1.17-2.55l-.73-.37c-.4.85-.79,1.71-1.17,2.57Z"/>
      <path class="cls-15" d="m43.03,142.17l.78.24c.26-.89.54-1.8.82-2.69l-.77-.26c-.28.9-.56,1.81-.82,2.71Z"/>
      <path class="cls-15" d="m46.68,131.46l.75.32c.34-.87.69-1.74,1.05-2.6l-.75-.34c-.36.86-.72,1.75-1.06,2.62Z"/>
      <path class="cls-15" d="m44.74,136.77l.77.28c.3-.88.62-1.77.94-2.65l-.76-.3c-.32.88-.64,1.78-.94,2.67Z"/>
      <path class="cls-15" d="m125.48,58.33l.22.81c.87-.26,1.75-.5,2.63-.74l-.2-.82c-.88.24-1.77.49-2.65.74Z"/>
      <path class="cls-15" d="m136.16,55.74l.15.83c.89-.17,1.79-.33,2.69-.48l-.13-.83c-.9.15-1.81.32-2.71.49Z"/>
      <path class="cls-15" d="m130.79,56.91l.18.82c.88-.21,1.78-.42,2.66-.61l-.17-.83c-.89.19-1.79.4-2.68.62Z"/>
      <path class="cls-15" d="m120.23,60l.26.8c.86-.3,1.73-.59,2.59-.86l-.24-.81c-.87.28-1.75.57-2.61.87Z"/>
      <path class="cls-15" d="m147.09,55.02c.9-.09,1.81-.16,2.71-.23l-.06-.84c-.91.06-1.82.14-2.73.23l.07.84Z"/>
      <path class="cls-15" d="m141.58,54.83l.11.84c.89-.13,1.8-.25,2.7-.35l-.09-.84c-.9.11-1.81.23-2.71.36Z"/>
      <path class="cls-15" d="m77.9,85.5l.54.63c.67-.62,1.36-1.25,2.05-1.86l-.53-.64c-.69.61-1.38,1.24-2.06,1.87Z"/>
      <path class="cls-15" d="m115.07,61.92l.29.79c.84-.34,1.7-.67,2.55-.98l-.27-.79c-.86.32-1.72.65-2.57.99Z"/>
      <path class="cls-15" d="m86.38,78.32l.48.68c.72-.56,1.46-1.12,2.2-1.66l-.47-.69c-.74.54-1.49,1.11-2.21,1.67Z"/>
      <path class="cls-15" d="m82.06,81.81l.51.65c.7-.59,1.41-1.18,2.12-1.76l-.5-.67c-.72.58-1.44,1.17-2.14,1.77Z"/>
      <path class="cls-15" d="m110,64.08l.33.77c.83-.38,1.67-.75,2.51-1.1l-.31-.78c-.84.36-1.69.73-2.52,1.11Z"/>
      <path class="cls-15" d="m90.84,75.04l.45.7c.75-.52,1.51-1.05,2.27-1.55l-.44-.71c-.76.51-1.53,1.04-2.29,1.56Z"/>
      <path class="cls-15" d="m105.04,66.48l.36.76c.81-.41,1.64-.83,2.45-1.22l-.34-.76c-.82.4-1.65.81-2.47,1.23Z"/>
      <path class="cls-15" d="m100.18,69.11l.39.74c.79-.45,1.6-.9,2.4-1.33l-.38-.75c-.8.44-1.62.89-2.41,1.34Z"/>
      <path class="cls-15" d="m95.44,71.96l.42.72c.77-.49,1.56-.98,2.34-1.45l-.41-.73c-.78.47-1.58.96-2.35,1.45Z"/>
    </g>
    <polygon class="cls-15" points="151.39 54.22 149.67 55.37 149.5 53.39 151.39 54.22"/>
  </g>
  <g>
    <g>
      <path class="cls-20" d="m241.98,212.23s5.04-10.32,2.72-18.65c-2.32-8.34-4.02-14.34-3.25-17.73-1.66,3.48-2.88,11.75-1.78,17.09,1.27,6.19,1.64,15.54.33,19.6-1.31,4.06.46,4.7,1.99-.31Z"/>
      <path class="cls-81" d="m241.84,211.87s4.58-9.72,2.42-17.29c-2.17-7.57-3.75-13.01-3.21-16.22-1.27,3.36-1.72,11.58-.65,16.46,1.24,5.65,1.18,12.6.22,16.47-.96,3.87.11,5.35,1.22.58Z"/>
      <path class="cls-79" d="m241.37,184.46l-.68,1.65-.75-1.19s.31,1.83.85,2.34c.55.51.58-2.8.58-2.8Z"/>
      <path class="cls-29" d="m241.92,187.53l-.57,1.89-1.37-1.54s.57,1.93,1.37,2.51c.79.58.57-2.86.57-2.86Z"/>
      <path class="cls-28" d="m242.71,190.41l-.53,2.12-2.09-1.92s.93,2.05,2.07,2.72c1.13.67.55-2.93.55-2.93Z"/>
      <path class="cls-89" d="m243.65,193.71l-.95,2.1-2.32-1.98s1.2,3.06,2.82,3.14c.71.03.45-3.25.45-3.25Z"/>
      <path class="cls-41" d="m244.37,197.83l-1.26,1.74-2.07-2.19s.75,2.99,2.38,3.36c.65.15.94-2.91.94-2.91Z"/>
      <path class="cls-9" d="m244.62,201.48l-1.45,1.19-1.87-2.29s1.04,2.33,2.09,3.52c.31.36,1.23-2.42,1.23-2.42Z"/>
      <path class="cls-63" d="m243.96,204.75l-1.28,1.2-1.16-1.64s.5,1.79,1.17,2.63c.2.25,1.27-2.18,1.27-2.18Z"/>
      <path class="cls-4" d="m243.34,207.6l-1.17,1.16-.83-1.32s.27,1.51.76,2.18c.15.2,1.25-2.02,1.25-2.02Z"/>
    </g>
    <g>
      <path class="cls-35" d="m240.49,214.77s4.1-10.35-.3-17.97c-4.4-7.62-7.6-13.1-7.31-16.4-1.33,3.48-1.23,11.46,1.12,16.38,2.72,5.71,4.95,14.52,4.15,18.51-.8,4,1.46,4.39,2.34-.52Z"/>
      <path class="cls-82" d="m240.25,214.44s3.66-9.74-.4-16.64c-4.06-6.91-7.02-11.87-6.98-14.97-.89,3.33.15,11.16,2.37,15.65,2.58,5.2,3.84,11.78,3.42,15.56-.42,3.78,1.16,5.05,1.59.41Z"/>
      <path class="cls-42" d="m234.44,188.56l-.5,1.64-1.14-1.03s.72,1.69,1.48,2.11c.76.42.16-2.71.16-2.71Z"/>
      <path class="cls-77" d="m235.69,191.4l-.32,1.86-1.94-1.3s1.06,1.76,2.13,2.21c1.07.45.14-2.77.14-2.77Z"/>
      <path class="cls-7" d="m237.19,194.04l-.23,2.07-2.89-1.57s1.52,1.84,3.02,2.34c1.49.5.1-2.84.1-2.84Z"/>
      <path class="cls-55" d="m238.96,197.05l-.74,2.09-3.18-1.61s2.03,2.76,4.01,2.64c.87-.05-.09-3.13-.09-3.13Z"/>
      <path class="cls-40" d="m240.62,200.86l-1.19,1.79-2.91-1.83s1.48,2.74,3.52,2.9c.81.06.58-2.86.58-2.86Z"/>
      <path class="cls-66" d="m241.61,204.29l-1.52,1.3-2.7-1.95s1.7,2.08,3.19,3.08c.45.3,1.02-2.43,1.02-2.43Z"/>
      <path class="cls-58" d="m241.45,207.46l-1.32,1.28-1.71-1.42s.95,1.63,1.91,2.35c.29.21,1.12-2.22,1.12-2.22Z"/>
      <path class="cls-45" d="m241.25,210.23l-1.19,1.23-1.26-1.15s.62,1.4,1.33,1.98c.21.17,1.12-2.05,1.12-2.05Z"/>
    </g>
    <g>
      <path class="cls-48" d="m238.07,215.7s2.47-7.77-.83-13.09c-3.3-5.32-5.7-9.14-5.62-11.57-.8,2.61-.45,8.42,1.35,11.89,2.08,4.02,3.93,10.32,3.51,13.28-.41,2.96,1.16,3.12,1.6-.51Z"/>
      <path class="cls-30" d="m237.89,215.47s2.19-7.3-.86-12.12c-3.05-4.82-5.26-8.28-5.34-10.55-.5,2.47.49,8.13,2.19,11.29,1.96,3.66,3.06,8.39,2.91,11.17-.16,2.78.97,3.62,1.11.21Z"/>
      <path class="cls-16" d="m232.97,196.91l-.29,1.22-.82-.69s.56,1.2,1.09,1.46c.54.26.02-1.99.02-1.99Z"/>
      <path class="cls-26" d="m233.94,198.91l-.16,1.37-1.39-.84s.79,1.23,1.55,1.5c.75.27,0-2.03,0-2.03Z"/>
      <path class="cls-88" d="m235.06,200.75l-.08,1.52-2.05-.99s1.11,1.26,2.16,1.54c1.05.28-.03-2.07-.03-2.07Z"/>
      <path class="cls-72" d="m236.39,202.85l-.44,1.57-2.25-1s1.5,1.9,2.86,1.71c.6-.08-.17-2.28-.17-2.28Z"/>
      <path class="cls-75" d="m237.67,205.55l-.76,1.37-2.07-1.18s1.12,1.92,2.53,1.92c.56,0,.3-2.12.3-2.12Z"/>
      <path class="cls-53" d="m238.48,207.99l-1,1.03-1.93-1.28s1.25,1.43,2.31,2.08c.32.19.62-1.83.62-1.83Z"/>
      <path class="cls-47" d="m238.47,210.32l-.86,1.01-1.23-.94s.71,1.14,1.4,1.61c.21.14.69-1.68.69-1.68Z"/>
      <path class="cls-5" d="m238.43,212.34l-.78.96-.91-.77s.48.99.99,1.37c.15.11.7-1.56.7-1.56Z"/>
    </g>
    <polygon class="cls-8" points="234.08 226.54 232.67 216.44 244.11 216.78 242.91 226.54 234.08 226.54"/>
    <rect class="cls-73" x="232.51" y="216.22" width="11.75" height="1.53" rx=".76" ry=".76" transform="translate(476.78 433.96) rotate(-180)"/>
    <rect class="cls-80" x="231.69" y="213.71" width="13.4" height="2.62" rx="1.31" ry="1.31" transform="translate(476.78 430.04) rotate(-180)"/>
  </g>
  <g>
    <g>
      <polygon class="cls-60" points="198.4 135.04 177.66 149.05 156.9 135.1 170.31 156.68 156.95 178.05 177.62 164.19 198.3 178.18 184.94 156.69 198.4 135.04"/>
      <polygon class="cls-15" points="177.65 112.59 170.41 148.09 136.26 155.69 170.4 163.33 177.61 198.53 184.93 163.25 219.04 155.78 185.03 148.17 177.65 112.59"/>
    </g>
    <ellipse class="cls-59" cx="177.7" cy="155.51" rx="4.69" ry="4.87"/>
  </g>
  <text class="cls-14" transform="translate(174.2 110.79) scale(.96 1)"><tspan x="0" y="0">N</tspan></text>
  <text class="cls-14" transform="translate(129.14 157.76) scale(.96 1)"><tspan x="0" y="0">O</tspan></text>
  <text class="cls-14" transform="translate(221.95 157.76) scale(.96 1)"><tspan x="0" y="0">L</tspan></text>
  <text class="cls-14" transform="translate(175.17 205.89) scale(.96 1)"><tspan x="0" y="0">S</tspan></text>
  <text class="cls-33" transform="translate(199.39 183.65) scale(.96 1)"><tspan x="0" y="0">SE</tspan></text>
  <text class="cls-33" transform="translate(145.72 182.65) scale(.96 1)"><tspan x="0" y="0">SO</tspan></text>
  <text class="cls-33" transform="translate(198.4 132.27) scale(.96 1)"><tspan x="0" y="0">NE</tspan></text>
  <text class="cls-33" transform="translate(145.25 132.43) scale(.96 1)"><tspan x="0" y="0">NO</tspan></text>
</svg>