<?xml version="1.0" encoding="UTF-8"?>
<svg id="Layer_1" data-name="Layer 1" xmlns="http://www.w3.org/2000/svg" xmlns:xlink="http://www.w3.org/1999/xlink" viewBox="0 0 208.12 247.91">
  <defs>
    <style>
      .cls-1 {
        fill: url(#_Áåçûìÿííûé_ãðàäèåíò_22-8);
      }

      .cls-2 {
        fill: url(#linear-gradient-2);
      }

      .cls-3 {
        fill: url(#linear-gradient-17);
      }

      .cls-4 {
        fill: url(#_Áåçûìÿííûé_ãðàäèåíò_37-5);
      }

      .cls-5 {
        fill: url(#_Áåçûìÿííûé_ãðàäèåíò_7-8);
      }

      .cls-6 {
        fill: url(#_Áåçûìÿííûé_ãðàäèåíò_8-3);
      }

      .cls-7 {
        fill: url(#_Áåçûìÿííûé_ãðàäèåíò_4);
      }

      .cls-8 {
        fill: url(#_Áåçûìÿííûé_ãðàäèåíò_37-3);
      }

      .cls-9 {
        fill: url(#_Áåçûìÿííûé_ãðàäèåíò_18);
      }

      .cls-10 {
        fill: url(#linear-gradient-15);
      }

      .cls-11 {
        opacity: .04;
      }

      .cls-11, .cls-12 {
        fill: #223265;
      }

      .cls-13 {
        fill: url(#_Áåçûìÿííûé_ãðàäèåíò_16-5);
      }

      .cls-14 {
        fill: url(#_Áåçûìÿííûé_ãðàäèåíò_7);
      }

      .cls-15 {
        fill: url(#linear-gradient-18);
      }

      .cls-16 {
        letter-spacing: -.11em;
      }

      .cls-17 {
        fill: url(#linear-gradient-28);
      }

      .cls-18 {
        fill: url(#linear-gradient-14);
      }

      .cls-19 {
        fill: url(#linear-gradient-20);
      }

      .cls-20 {
        fill: url(#linear-gradient-6);
      }

      .cls-21 {
        letter-spacing: -.1em;
      }

      .cls-22 {
        fill: url(#_Áåçûìÿííûé_ãðàäèåíò_7-2);
      }

      .cls-23 {
        letter-spacing: -.09em;
      }

      .cls-24 {
        fill: url(#_Áåçûìÿííûé_ãðàäèåíò_6-5);
      }

      .cls-24, .cls-25, .cls-26, .cls-27, .cls-28, .cls-29 {
        opacity: .2;
      }

      .cls-30 {
        letter-spacing: .01em;
      }

      .cls-31 {
        fill: url(#linear-gradient-32);
      }

      .cls-32 {
        fill: url(#linear-gradient-11);
      }

      .cls-33 {
        letter-spacing: .03em;
      }

      .cls-34 {
        fill: url(#_Áåçûìÿííûé_ãðàäèåíò_16-8);
      }

      .cls-35 {
        fill: url(#_Áåçûìÿííûé_ãðàäèåíò_5);
      }

      .cls-35, .cls-36 {
        opacity: .5;
      }

      .cls-37 {
        fill: url(#_Áåçûìÿííûé_ãðàäèåíò_9);
      }

      .cls-38 {
        fill: url(#linear-gradient-10);
      }

      .cls-39 {
        fill: #fff;
        font-family: SegoeUI-Bold, 'Segoe UI';
        font-size: 14.04px;
        font-weight: 700;
      }

      .cls-40 {
        fill: url(#_Áåçûìÿííûé_ãðàäèåíò_37-2);
      }

      .cls-41 {
        fill: url(#_Áåçûìÿííûé_ãðàäèåíò_22-2);
      }

      .cls-41, .cls-42, .cls-43 {
        opacity: .86;
      }

      .cls-44 {
        fill: url(#_Áåçûìÿííûé_ãðàäèåíò_16);
      }

      .cls-45 {
        fill: url(#_Áåçûìÿííûé_ãðàäèåíò_8-5);
      }

      .cls-46 {
        fill: url(#_Áåçûìÿííûé_ãðàäèåíò_16-6);
      }

      .cls-36 {
        fill: url(#_Áåçûìÿííûé_ãðàäèåíò_12);
      }

      .cls-47 {
        fill: url(#_Áåçûìÿííûé_ãðàäèåíò_8);
      }

      .cls-48 {
        fill: url(#linear-gradient-16);
      }

      .cls-49 {
        fill: url(#_Áåçûìÿííûé_ãðàäèåíò_8-8);
      }

      .cls-50 {
        fill: url(#_Áåçûìÿííûé_ãðàäèåíò_7-7);
      }

      .cls-51 {
        fill: url(#linear-gradient-31);
      }

      .cls-42 {
        fill: url(#_Áåçûìÿííûé_ãðàäèåíò_3);
      }

      .cls-52 {
        fill: url(#linear-gradient-21);
      }

      .cls-53 {
        fill: url(#_Áåçûìÿííûé_ãðàäèåíò_7-6);
      }

      .cls-54 {
        fill: url(#_Áåçûìÿííûé_ãðàäèåíò_22-4);
      }

      .cls-55 {
        fill: url(#linear-gradient-25);
      }

      .cls-56 {
        fill: url(#_Áåçûìÿííûé_ãðàäèåíò_8-4);
      }

      .cls-57 {
        fill: url(#linear-gradient-5);
      }

      .cls-58 {
        fill: url(#_Áåçûìÿííûé_ãðàäèåíò_22-7);
      }

      .cls-59 {
        fill: url(#_Áåçûìÿííûé_ãðàäèåíò_10);
        opacity: .03;
      }

      .cls-60 {
        fill: url(#_Áåçûìÿííûé_ãðàäèåíò_22-3);
      }

      .cls-61 {
        fill: url(#_Áåçûìÿííûé_ãðàäèåíò_8-7);
      }

      .cls-43 {
        fill: url(#_Áåçûìÿííûé_ãðàäèåíò_22);
      }

      .cls-62 {
        fill: url(#_Áåçûìÿííûé_ãðàäèåíò_2);
      }

      .cls-63 {
        fill: url(#_Áåçûìÿííûé_ãðàäèåíò_16-2);
      }

      .cls-64 {
        fill: url(#_Áåçûìÿííûé_ãðàäèåíò_37-6);
      }

      .cls-65 {
        fill: url(#_Áåçûìÿííûé_ãðàäèåíò_22-5);
      }

      .cls-66 {
        fill: url(#_Áåçûìÿííûé_ãðàäèåíò_37);
      }

      .cls-67 {
        fill: url(#linear-gradient-7);
      }

      .cls-68 {
        fill: url(#linear-gradient-24);
      }

      .cls-69 {
        fill: url(#_Áåçûìÿííûé_ãðàäèåíò_8-6);
      }

      .cls-70 {
        letter-spacing: 0em;
      }

      .cls-71 {
        fill: url(#linear-gradient-9);
      }

      .cls-72 {
        fill: url(#linear-gradient-22);
      }

      .cls-73 {
        fill: url(#linear-gradient-3);
      }

      .cls-74 {
        fill: url(#_Áåçûìÿííûé_ãðàäèåíò_16-4);
      }

      .cls-75 {
        fill: url(#_Áåçûìÿííûé_ãðàäèåíò_7-4);
      }

      .cls-76 {
        fill: url(#_Áåçûìÿííûé_ãðàäèåíò_16-3);
      }

      .cls-77 {
        fill: url(#linear-gradient);
      }

      .cls-78 {
        fill: url(#_Áåçûìÿííûé_ãðàäèåíò_7-5);
      }

      .cls-79 {
        fill: url(#_Áåçûìÿííûé_ãðàäèåíò_8-2);
      }

      .cls-80 {
        fill: url(#_Áåçûìÿííûé_ãðàäèåíò_37-4);
      }

      .cls-81 {
        fill: url(#linear-gradient-27);
      }

      .cls-82 {
        fill: url(#linear-gradient-33);
      }

      .cls-83 {
        fill: url(#_Áåçûìÿííûé_ãðàäèåíò_37-7);
      }

      .cls-25 {
        fill: url(#_Áåçûìÿííûé_ãðàäèåíò_6-6);
      }

      .cls-84 {
        fill: url(#linear-gradient-29);
      }

      .cls-85 {
        fill: url(#linear-gradient-30);
      }

      .cls-86 {
        fill: url(#_Áåçûìÿííûé_ãðàäèåíò_17);
      }

      .cls-87 {
        fill: url(#_Áåçûìÿííûé_ãðàäèåíò_22-6);
      }

      .cls-88 {
        fill: url(#linear-gradient-23);
      }

      .cls-89 {
        fill: url(#linear-gradient-19);
      }

      .cls-90 {
        fill: url(#linear-gradient-4);
      }

      .cls-26 {
        fill: url(#_Áåçûìÿííûé_ãðàäèåíò_6-3);
      }

      .cls-91 {
        fill: url(#linear-gradient-8);
      }

      .cls-92 {
        fill: url(#_Áåçûìÿííûé_ãðàäèåíò_16-7);
      }

      .cls-93 {
        fill: url(#_Áåçûìÿííûé_ãðàäèåíò_7-3);
      }

      .cls-27 {
        fill: url(#_Áåçûìÿííûé_ãðàäèåíò_6-4);
      }

      .cls-94 {
        fill: url(#linear-gradient-12);
      }

      .cls-95 {
        fill: url(#linear-gradient-13);
      }

      .cls-96 {
        fill: url(#linear-gradient-26);
      }

      .cls-97 {
        fill: #e9e9ea;
      }

      .cls-28 {
        fill: url(#_Áåçûìÿííûé_ãðàäèåíò_6);
      }

      .cls-29 {
        fill: url(#_Áåçûìÿííûé_ãðàäèåíò_6-2);
      }
    </style>
    <linearGradient id="_Áåçûìÿííûé_ãðàäèåíò_10" data-name="Áåçûìÿííûé ãðàäèåíò 10" x1="-2644.61" y1="-3605.94" x2="-2654.2" y2="-3451.83" gradientTransform="translate(2682.51 4654.86) rotate(-2.22) scale(.91 1.31)" gradientUnits="userSpaceOnUse">
      <stop offset="0" stop-color="#6ba7da"/>
      <stop offset=".43" stop-color="#69a4d8"/>
      <stop offset=".63" stop-color="#639dd2"/>
      <stop offset=".79" stop-color="#5890c7"/>
      <stop offset=".93" stop-color="#497db9"/>
      <stop offset="1" stop-color="#3e70ae"/>
    </linearGradient>
    <linearGradient id="linear-gradient" x1="-132.56" y1="147.52" x2="-157.23" y2="172.19" gradientTransform="translate(293.03 73.39) rotate(.06)" gradientUnits="userSpaceOnUse">
      <stop offset="0" stop-color="#2f5b91"/>
      <stop offset="1" stop-color="#00264c"/>
    </linearGradient>
    <linearGradient id="linear-gradient-2" x1="-159.82" y1="151.79" x2="-129.97" y2="153.95" xlink:href="#linear-gradient"/>
    <linearGradient id="linear-gradient-3" x1="-148.27" y1="138.9" x2="-145.11" y2="148.13" xlink:href="#linear-gradient"/>
    <linearGradient id="linear-gradient-4" x1="-133.89" y1="147.51" x2="-158.56" y2="172.17" gradientTransform="translate(293.03 73.39) rotate(.06)" gradientUnits="userSpaceOnUse">
      <stop offset="0" stop-color="#68a9dc"/>
      <stop offset="1" stop-color="#3a6eae"/>
    </linearGradient>
    <linearGradient id="linear-gradient-5" x1="-161.15" y1="151.78" x2="-131.3" y2="153.93" xlink:href="#linear-gradient-4"/>
    <linearGradient id="linear-gradient-6" x1="-144.69" y1="159.7" x2="-147.76" y2="162.77" xlink:href="#linear-gradient"/>
    <linearGradient id="linear-gradient-7" x1="-2294.39" y1="-3314.85" x2="-2287.53" y2="-3309.77" gradientTransform="translate(-2159.02 -3218.45) rotate(-69.87) scale(1 -1)" gradientUnits="userSpaceOnUse">
      <stop offset="0" stop-color="#fbd4da"/>
      <stop offset="1" stop-color="#edb0ba"/>
    </linearGradient>
    <linearGradient id="linear-gradient-8" x1="-297.9" y1="451.36" x2="-330.89" y2="486.13" gradientTransform="translate(635.44 -182.05) rotate(27.55)" xlink:href="#linear-gradient"/>
    <linearGradient id="linear-gradient-9" x1="4879.69" y1="-12074.21" x2="4885.83" y2="-12069.66" gradientTransform="translate(11184.62 -6639.63) rotate(-143.22)" xlink:href="#linear-gradient-7"/>
    <linearGradient id="linear-gradient-10" x1="7427.52" y1="-7760.66" x2="7460.36" y2="-7795.28" gradientTransform="translate(10500.77 -2569.97) rotate(119.37) scale(1 -1)" xlink:href="#linear-gradient"/>
    <linearGradient id="linear-gradient-11" x1="-425.77" y1="438.46" x2="-415.92" y2="438.46" gradientTransform="translate(619.14 -95.84) rotate(13.03)" xlink:href="#linear-gradient-7"/>
    <linearGradient id="linear-gradient-12" x1="-420.16" y1="388.57" x2="-452.7" y2="388.57" gradientTransform="translate(619.14 -95.84) rotate(13.03)" xlink:href="#linear-gradient"/>
    <linearGradient id="linear-gradient-13" x1="-438.32" y1="66.01" x2="-428.01" y2="66.01" gradientTransform="translate(507.79 342.57) rotate(22.81)" xlink:href="#linear-gradient-7"/>
    <linearGradient id="linear-gradient-14" x1="-440.51" y1="606.23" x2="-478.09" y2="606.23" gradientTransform="translate(783.54 -132.84) rotate(28.35)" xlink:href="#linear-gradient"/>
    <linearGradient id="linear-gradient-15" x1="-252.65" y1="2.07" x2="-243.14" y2="2.07" gradientTransform="translate(350.67 55.38) rotate(-6.04)" gradientUnits="userSpaceOnUse">
      <stop offset="0" stop-color="#ddbcc2"/>
      <stop offset="1" stop-color="#d9a2ab"/>
    </linearGradient>
    <linearGradient id="linear-gradient-16" x1="-231.54" y1="32.63" x2="-265.89" y2="32.63" gradientTransform="translate(350.67 55.38) rotate(-6.04)" gradientUnits="userSpaceOnUse">
      <stop offset="0" stop-color="#d7edfa"/>
      <stop offset="1" stop-color="#a7cfee"/>
    </linearGradient>
    <linearGradient id="linear-gradient-17" x1="-469.59" y1="111.83" x2="-458.15" y2="111.83" gradientTransform="translate(571.98)" xlink:href="#linear-gradient"/>
    <linearGradient id="linear-gradient-18" x1="1081.31" y1="214.22" x2="1037.99" y2="199.35" gradientTransform="translate(1183.9 66.99) rotate(-171.76) scale(1 -1)" xlink:href="#linear-gradient"/>
    <linearGradient id="linear-gradient-19" x1="-255.11" y1="6.4" x2="-240.88" y2="6.4" xlink:href="#linear-gradient-16"/>
    <linearGradient id="linear-gradient-20" x1="1072.13" y1="196.51" x2="1059.34" y2="192.12" gradientTransform="translate(1183.9 66.99) rotate(-171.76) scale(1 -1)" xlink:href="#linear-gradient"/>
    <linearGradient id="linear-gradient-21" x1="1067.17" y1="178.76" x2="1043.14" y2="202.79" gradientTransform="translate(1183.9 66.99) rotate(-171.76) scale(1 -1)" xlink:href="#linear-gradient"/>
    <linearGradient id="linear-gradient-22" x1="1488.44" y1="-3.4" x2="1499.22" y2="-3.4" gradientTransform="translate(1596.31 -40.92) rotate(175.56) scale(1 -1)" xlink:href="#linear-gradient-7"/>
    <linearGradient id="linear-gradient-23" x1="1500.75" y1="-3.14" x2="1498.54" y2="-3.14" gradientTransform="translate(1596.31 -40.92) rotate(175.56) scale(1 -1)" xlink:href="#linear-gradient-7"/>
    <linearGradient id="linear-gradient-24" x1="557.66" y1="206.03" x2="564.26" y2="206.03" gradientTransform="translate(604.08) rotate(-180) scale(1 -1)" xlink:href="#linear-gradient-16"/>
    <linearGradient id="linear-gradient-25" x1="558.17" y1="207.03" x2="563.66" y2="207.03" gradientTransform="translate(604.08) rotate(-180) scale(1 -1)" gradientUnits="userSpaceOnUse">
      <stop offset="0" stop-color="#a0c4e8"/>
      <stop offset="1" stop-color="#67a3d8"/>
    </linearGradient>
    <linearGradient id="_Áåçûìÿííûé_ãðàäèåíò_8" data-name="Áåçûìÿííûé ãðàäèåíò 8" x1="562.72" y1="191.74" x2="562.72" y2="195.33" gradientTransform="translate(604.08) rotate(-180) scale(1 -1)" gradientUnits="userSpaceOnUse">
      <stop offset="0" stop-color="#2f5b91"/>
      <stop offset=".36" stop-color="#2d598e"/>
      <stop offset=".56" stop-color="#275286"/>
      <stop offset=".73" stop-color="#1e4878"/>
      <stop offset=".87" stop-color="#103864"/>
      <stop offset="1" stop-color="#00264c"/>
    </linearGradient>
    <linearGradient id="_Áåçûìÿííûé_ãðàäèåíò_8-2" data-name="Áåçûìÿííûé ãðàäèåíò 8" x1="562.38" y1="195.61" x2="562.38" y2="199.29" xlink:href="#_Áåçûìÿííûé_ãðàäèåíò_8"/>
    <linearGradient id="_Áåçûìÿííûé_ãðàäèåíò_8-3" data-name="Áåçûìÿííûé ãðàäèåíò 8" x1="561.83" y1="199.24" x2="561.83" y2="203.02" xlink:href="#_Áåçûìÿííûé_ãðàäèåíò_8"/>
    <linearGradient id="_Áåçûìÿííûé_ãðàäèåíò_8-4" data-name="Áåçûìÿííûé ãðàäèåíò 8" x1="561.21" y1="203.38" x2="561.21" y2="207.47" xlink:href="#_Áåçûìÿííûé_ãðàäèåíò_8"/>
    <linearGradient id="_Áåçûìÿííûé_ãðàäèåíò_8-5" data-name="Áåçûìÿííûé ãðàäèåíò 8" x1="560.49" y1="207.99" x2="560.49" y2="212.22" xlink:href="#_Áåçûìÿííûé_ãðàäèåíò_8"/>
    <linearGradient id="_Áåçûìÿííûé_ãðàäèåíò_8-6" data-name="Áåçûìÿííûé ãðàäèåíò 8" x1="560.22" y1="211.78" x2="560.22" y2="216.24" xlink:href="#_Áåçûìÿííûé_ãðàäèåíò_8"/>
    <linearGradient id="_Áåçûìÿííûé_ãðàäèåíò_8-7" data-name="Áåçûìÿííûé ãðàäèåíò 8" x1="560.45" y1="216.71" x2="560.45" y2="220.04" xlink:href="#_Áåçûìÿííûé_ãðàäèåíò_8"/>
    <linearGradient id="_Áåçûìÿííûé_ãðàäèåíò_8-8" data-name="Áåçûìÿííûé ãðàäèåíò 8" x1="560.89" y1="220.64" x2="560.89" y2="223.4" xlink:href="#_Áåçûìÿííûé_ãðàäèåíò_8"/>
    <linearGradient id="_Áåçûìÿííûé_ãðàäèåíò_9" data-name="Áåçûìÿííûé ãðàäèåíò 9" x1="566.57" y1="186.64" x2="566.57" y2="234.4" gradientTransform="translate(604.08) rotate(-180) scale(1 -1)" gradientUnits="userSpaceOnUse">
      <stop offset="0" stop-color="#d7edfa"/>
      <stop offset=".04" stop-color="#d0e8f8"/>
      <stop offset=".18" stop-color="#bdddf3"/>
      <stop offset=".35" stop-color="#b0d5f0"/>
      <stop offset=".56" stop-color="#a9d0ee"/>
      <stop offset="1" stop-color="#a7cfee"/>
    </linearGradient>
    <linearGradient id="linear-gradient-26" x1="561.51" y1="211.45" x2="571.54" y2="211.45" gradientTransform="translate(604.08) rotate(-180) scale(1 -1)" xlink:href="#linear-gradient-4"/>
    <linearGradient id="_Áåçûìÿííûé_ãðàäèåíò_7" data-name="Áåçûìÿííûé ãðàäèåíò 7" x1="569.25" y1="198.63" x2="571.27" y2="198.63" gradientTransform="translate(604.08) rotate(-180) scale(1 -1)" gradientUnits="userSpaceOnUse">
      <stop offset="0" stop-color="#2f5b91"/>
      <stop offset=".09" stop-color="#254f82"/>
      <stop offset=".29" stop-color="#143d6a"/>
      <stop offset=".5" stop-color="#093059"/>
      <stop offset=".73" stop-color="#02284f"/>
      <stop offset="1" stop-color="#00264c"/>
    </linearGradient>
    <linearGradient id="_Áåçûìÿííûé_ãðàäèåíò_7-2" data-name="Áåçûìÿííûé ãðàäèåíò 7" x1="567.72" y1="202.25" x2="570.59" y2="202.25" xlink:href="#_Áåçûìÿííûé_ãðàäèåíò_7"/>
    <linearGradient id="_Áåçûìÿííûé_ãðàäèåíò_7-3" data-name="Áåçûìÿííûé ãðàäèåíò 7" x1="565.85" y1="205.61" x2="569.89" y2="205.61" xlink:href="#_Áåçûìÿííûé_ãðàäèåíò_7"/>
    <linearGradient id="_Áåçûìÿííûé_ãðàäèåíò_7-4" data-name="Áåçûìÿííûé ãðàäèåíò 7" x1="564.08" y1="209.55" x2="568.84" y2="209.55" xlink:href="#_Áåçûìÿííûé_ãðàäèåíò_7"/>
    <linearGradient id="_Áåçûìÿííûé_ãðàäèåíò_7-5" data-name="Áåçûìÿííûé ãðàäèåíò 7" x1="562.73" y1="214.15" x2="567.23" y2="214.15" xlink:href="#_Áåçûìÿííûé_ãðàäèåíò_7"/>
    <linearGradient id="_Áåçûìÿííûé_ãðàäèåíò_7-6" data-name="Áåçûìÿííûé ãðàäèåíò 7" x1="561.68" y1="217.82" x2="566.27" y2="217.82" xlink:href="#_Áåçûìÿííûé_ãðàäèåíò_7"/>
    <linearGradient id="_Áåçûìÿííûé_ãðàäèåíò_7-7" data-name="Áåçûìÿííûé ãðàäèåíò 7" x1="561.86" y1="221.99" x2="565.16" y2="221.99" xlink:href="#_Áåçûìÿííûé_ãðàäèåíò_7"/>
    <linearGradient id="_Áåçûìÿííûé_ãðàäèåíò_7-8" data-name="Áåçûìÿííûé ãðàäèåíò 7" x1="562.08" y1="225.45" x2="564.75" y2="225.45" xlink:href="#_Áåçûìÿííûé_ãðàäèåíò_7"/>
    <linearGradient id="linear-gradient-27" x1="564.57" y1="217.24" x2="573" y2="217.24" gradientTransform="translate(604.08) rotate(-180) scale(1 -1)" xlink:href="#linear-gradient-16"/>
    <linearGradient id="linear-gradient-28" x1="564.9" y1="217.9" x2="572.62" y2="217.9" xlink:href="#linear-gradient-25"/>
    <linearGradient id="_Áåçûìÿííûé_ãðàäèåíò_16" data-name="Áåçûìÿííûé ãðàäèåíò 16" x1="571.56" y1="209.93" x2="571.56" y2="207.4" gradientTransform="translate(604.08) rotate(-180) scale(1 -1)" gradientUnits="userSpaceOnUse">
      <stop offset="0" stop-color="#2f5b91"/>
      <stop offset=".24" stop-color="#2c588d"/>
      <stop offset=".48" stop-color="#244e81"/>
      <stop offset=".72" stop-color="#173f6d"/>
      <stop offset=".95" stop-color="#042a52"/>
      <stop offset="1" stop-color="#00264c"/>
    </linearGradient>
    <linearGradient id="_Áåçûìÿííûé_ãðàäèåíò_16-2" data-name="Áåçûìÿííûé ãðàäèåíò 16" x1="570.69" y1="212.51" x2="570.69" y2="209.92" xlink:href="#_Áåçûìÿííûé_ãðàäèåíò_16"/>
    <linearGradient id="_Áåçûìÿííûé_ãðàäèåíò_16-3" data-name="Áåçûìÿííûé ãðàäèåíò 16" x1="569.7" y1="214.88" x2="569.7" y2="212.24" xlink:href="#_Áåçûìÿííûé_ãðàäèåíò_16"/>
    <linearGradient id="_Áåçûìÿííûé_ãðàäèåíò_16-4" data-name="Áåçûìÿííûé ãðàäèåíò 16" x1="568.61" y1="217.76" x2="568.61" y2="214.88" xlink:href="#_Áåçûìÿííûé_ãðàäèåíò_16"/>
    <linearGradient id="_Áåçûìÿííûé_ãðàäèåíò_16-5" data-name="Áåçûìÿííûé ãðàäèåíò 16" x1="567.48" y1="220.93" x2="567.48" y2="218.27" xlink:href="#_Áåçûìÿííûé_ãðàäèåíò_16"/>
    <linearGradient id="_Áåçûìÿííûé_ãðàäèåíò_16-6" data-name="Áåçûìÿííûé ãðàäèåíò 16" x1="566.69" y1="223.66" x2="566.69" y2="221.03" xlink:href="#_Áåçûìÿííûé_ãðàäèåíò_16"/>
    <linearGradient id="_Áåçûìÿííûé_ãðàäèåíò_16-7" data-name="Áåçûìÿííûé ãðàäèåíò 16" x1="566.24" y1="226.38" x2="566.24" y2="224.27" xlink:href="#_Áåçûìÿííûé_ãðàäèåíò_16"/>
    <linearGradient id="_Áåçûìÿííûé_ãðàäèåíò_16-8" data-name="Áåçûìÿííûé ãðàäèåíò 16" x1="566.06" y1="228.78" x2="566.06" y2="226.82" xlink:href="#_Áåçûìÿííûé_ãðàäèåíò_16"/>
    <linearGradient id="_Áåçûìÿííûé_ãðàäèåíò_17" data-name="Áåçûìÿííûé ãðàäèåíò 17" x1="565.19" y1="231.97" x2="565.19" y2="247.41" gradientTransform="translate(604.08) rotate(-180) scale(1 -1)" gradientUnits="userSpaceOnUse">
      <stop offset="0" stop-color="#a0c4e8"/>
      <stop offset=".17" stop-color="#8fbae3"/>
      <stop offset=".47" stop-color="#79addd"/>
      <stop offset=".75" stop-color="#6ba5d9"/>
      <stop offset="1" stop-color="#67a3d8"/>
    </linearGradient>
    <linearGradient id="_Áåçûìÿííûé_ãðàäèåíò_18" data-name="Áåçûìÿííûé ãðàäèåíò 18" x1="558.8" y1="232.65" x2="571.58" y2="232.65" gradientTransform="translate(-526.3 465.29) scale(1 -1)" gradientUnits="userSpaceOnUse">
      <stop offset="0" stop-color="#d7edfa"/>
      <stop offset=".19" stop-color="#c2e0f4"/>
      <stop offset=".4" stop-color="#b3d6f1"/>
      <stop offset=".65" stop-color="#a9d0ee"/>
      <stop offset="1" stop-color="#a7cfee"/>
    </linearGradient>
    <linearGradient id="linear-gradient-29" x1="557.9" y1="230.18" x2="572.48" y2="230.18" gradientTransform="translate(-526.3 460.37) scale(1 -1)" xlink:href="#linear-gradient"/>
    <linearGradient id="_Áåçûìÿííûé_ãðàäèåíò_2" data-name="Áåçûìÿííûé ãðàäèåíò 2" x1="8037.01" y1="27.49" x2="8037.01" y2="80.25" gradientTransform="translate(-7874.06)" gradientUnits="userSpaceOnUse">
      <stop offset="0" stop-color="#75abdc"/>
      <stop offset=".09" stop-color="#689cd0"/>
      <stop offset=".24" stop-color="#5688c0"/>
      <stop offset=".42" stop-color="#4979b5"/>
      <stop offset=".64" stop-color="#4271ae"/>
      <stop offset="1" stop-color="#406fad"/>
    </linearGradient>
    <linearGradient id="_Áåçûìÿííûé_ãðàäèåíò_12" data-name="Áåçûìÿííûé ãðàäèåíò 12" x1="8037.02" y1="27.5" x2="8037.02" y2="80.25" gradientTransform="translate(-7874.06)" gradientUnits="userSpaceOnUse">
      <stop offset="0" stop-color="#a0c4e6"/>
      <stop offset=".01" stop-color="#9ec2e5"/>
      <stop offset=".23" stop-color="#86b3de"/>
      <stop offset=".45" stop-color="#75a9d9"/>
      <stop offset=".7" stop-color="#6ba3d6"/>
      <stop offset="1" stop-color="#68a1d6"/>
    </linearGradient>
    <linearGradient id="_Áåçûìÿííûé_ãðàäèåíò_22" data-name="Áåçûìÿííûé ãðàäèåíò 22" x1="162.14" y1="2.65" x2="162.14" y2="18.02" gradientUnits="userSpaceOnUse">
      <stop offset="0" stop-color="#d7edfa"/>
      <stop offset=".36" stop-color="#d4ebf9"/>
      <stop offset=".6" stop-color="#cbe5f7"/>
      <stop offset=".81" stop-color="#bcdcf3"/>
      <stop offset="1" stop-color="#a7cfee"/>
    </linearGradient>
    <linearGradient id="linear-gradient-30" x1="179.93" y1="6.99" x2="179.93" y2="20.98" gradientTransform="matrix(1, 0, 0, 1, 0, 0)" xlink:href="#linear-gradient-25"/>
    <linearGradient id="linear-gradient-31" x1="385.4" y1="896.97" x2="385.4" y2="904.15" gradientTransform="translate(1048.09 -441.89) rotate(83)" xlink:href="#linear-gradient-25"/>
    <linearGradient id="_Áåçûìÿííûé_ãðàäèåíò_22-2" data-name="Áåçûìÿííûé ãðàäèåíò 22" x1="202.23" y1="17.99" x2="202.23" y2="27.37" xlink:href="#_Áåçûìÿííûé_ãðàäèåíò_22"/>
    <linearGradient id="linear-gradient-32" x1="123.5" y1="14.64" x2="123.5" y2="24.03" gradientTransform="matrix(1, 0, 0, 1, 0, 0)" xlink:href="#linear-gradient-25"/>
    <linearGradient id="linear-gradient-33" x1="169.12" y1="600.16" x2="169.12" y2="606.16" gradientTransform="translate(-448.55 -205.59) rotate(-50.27)" xlink:href="#linear-gradient-25"/>
    <linearGradient id="_Áåçûìÿííûé_ãðàäèåíò_3" data-name="Áåçûìÿííûé ãðàäèåíò 3" x1="143.6" y1="0" x2="143.6" y2="13.99" gradientUnits="userSpaceOnUse">
      <stop offset="0" stop-color="#d7edfa"/>
      <stop offset=".05" stop-color="#cde7f7"/>
      <stop offset=".17" stop-color="#bcdcf3"/>
      <stop offset=".31" stop-color="#b0d4f0"/>
      <stop offset=".51" stop-color="#a8d0ee"/>
      <stop offset="1" stop-color="#a7cfee"/>
    </linearGradient>
    <linearGradient id="_Áåçûìÿííûé_ãðàäèåíò_22-3" data-name="Áåçûìÿííûé ãðàäèåíò 22" x1="796.18" y1="-1108.23" x2="796.18" y2="-1103.19" gradientTransform="translate(-1104.97 435.91) rotate(36.21)" xlink:href="#_Áåçûìÿííûé_ãðàäèåíò_22"/>
    <linearGradient id="_Áåçûìÿííûé_ãðàäèåíò_6" data-name="Áåçûìÿííûé ãðàäèåíò 6" x1="796.19" y1="-1107.8" x2="796.19" y2="-1103.64" gradientTransform="translate(-1104.97 435.91) rotate(36.21)" gradientUnits="userSpaceOnUse">
      <stop offset="0" stop-color="#69a7db"/>
      <stop offset=".02" stop-color="#66a4d8"/>
      <stop offset=".23" stop-color="#538cc6"/>
      <stop offset=".45" stop-color="#457cb8"/>
      <stop offset=".69" stop-color="#3d72b0"/>
      <stop offset="1" stop-color="#3b6fae"/>
    </linearGradient>
    <linearGradient id="_Áåçûìÿííûé_ãðàäèåíò_22-4" data-name="Áåçûìÿííûé ãðàäèåíò 22" x1="377.23" y1="-152.54" x2="377.23" y2="-147.29" gradientTransform="translate(-224.99 91.51) rotate(9.73)" xlink:href="#_Áåçûìÿííûé_ãðàäèåíò_22"/>
    <linearGradient id="_Áåçûìÿííûé_ãðàäèåíò_6-2" data-name="Áåçûìÿííûé ãðàäèåíò 6" x1="377.23" y1="-152.08" x2="377.23" y2="-147.76" gradientTransform="translate(-224.99 91.51) rotate(9.73)" xlink:href="#_Áåçûìÿííûé_ãðàäèåíò_6"/>
    <linearGradient id="_Áåçûìÿííûé_ãðàäèåíò_22-5" data-name="Áåçûìÿííûé ãðàäèåíò 22" x1="-195.04" y1="477.91" x2="-195.04" y2="483.08" gradientTransform="translate(255.35 -494.75) rotate(-10.84)" xlink:href="#_Áåçûìÿííûé_ãðàäèåíò_22"/>
    <linearGradient id="_Áåçûìÿííûé_ãðàäèåíò_6-3" data-name="Áåçûìÿííûé ãðàäèåíò 6" x1="-195.04" y1="478.37" x2="-195.04" y2="482.63" gradientTransform="translate(255.35 -494.75) rotate(-10.84)" xlink:href="#_Áåçûìÿííûé_ãðàäèåíò_6"/>
    <linearGradient id="_Áåçûìÿííûé_ãðàäèåíò_22-6" data-name="Áåçûìÿííûé ãðàäèåíò 22" x1="53.01" y1="1408.74" x2="53.01" y2="1413.13" gradientTransform="translate(1599.84 -163.36) rotate(83.95)" xlink:href="#_Áåçûìÿííûé_ãðàäèåíò_22"/>
    <linearGradient id="_Áåçûìÿííûé_ãðàäèåíò_6-4" data-name="Áåçûìÿííûé ãðàäèåíò 6" x1="53.01" y1="1409.12" x2="53.01" y2="1412.74" gradientTransform="translate(1599.84 -163.36) rotate(83.95)" xlink:href="#_Áåçûìÿííûé_ãðàäèåíò_6"/>
    <linearGradient id="_Áåçûìÿííûé_ãðàäèåíò_22-7" data-name="Áåçûìÿííûé ãðàäèåíò 22" x1="-994.88" y1="953.77" x2="-994.88" y2="958.8" gradientTransform="translate(470.43 -1325.06) rotate(-32.15)" xlink:href="#_Áåçûìÿííûé_ãðàäèåíò_22"/>
    <linearGradient id="_Áåçûìÿííûé_ãðàäèåíò_6-5" data-name="Áåçûìÿííûé ãðàäèåíò 6" x1="-994.89" y1="954.21" x2="-994.89" y2="958.36" gradientTransform="translate(470.43 -1325.06) rotate(-32.15)" xlink:href="#_Áåçûìÿííûé_ãðàäèåíò_6"/>
    <linearGradient id="_Áåçûìÿííûé_ãðàäèåíò_22-8" data-name="Áåçûìÿííûé ãðàäèåíò 22" x1="-1137" y1="1199.03" x2="-1137" y2="1203.67" gradientTransform="translate(-314.8 -1560.23) rotate(-58.74)" xlink:href="#_Áåçûìÿííûé_ãðàäèåíò_22"/>
    <linearGradient id="_Áåçûìÿííûé_ãðàäèåíò_6-6" data-name="Áåçûìÿííûé ãðàäèåíò 6" x1="-1137.01" y1="1199.43" x2="-1137.01" y2="1203.26" gradientTransform="translate(-314.8 -1560.23) rotate(-58.74)" xlink:href="#_Áåçûìÿííûé_ãðàäèåíò_6"/>
    <linearGradient id="_Áåçûìÿííûé_ãðàäèåíò_4" data-name="Áåçûìÿííûé ãðàäèåíò 4" x1="5457.99" y1="61.35" x2="5457.99" y2="118.25" gradientTransform="translate(5500.04) rotate(-180) scale(1 -1)" gradientUnits="userSpaceOnUse">
      <stop offset="0" stop-color="#75abdc"/>
      <stop offset=".41" stop-color="#73a8da"/>
      <stop offset=".61" stop-color="#6ca1d4"/>
      <stop offset=".77" stop-color="#6093c9"/>
      <stop offset=".91" stop-color="#4f81bb"/>
      <stop offset="1" stop-color="#406fad"/>
    </linearGradient>
    <linearGradient id="_Áåçûìÿííûé_ãðàäèåíò_5" data-name="Áåçûìÿííûé ãðàäèåíò 5" x1="5458" y1="61.37" x2="5458" y2="118.25" gradientTransform="translate(5500.04) rotate(-180) scale(1 -1)" gradientUnits="userSpaceOnUse">
      <stop offset="0" stop-color="#a0c4e6"/>
      <stop offset=".29" stop-color="#9cc1e5"/>
      <stop offset=".54" stop-color="#92bbe2"/>
      <stop offset=".78" stop-color="#80b0dd"/>
      <stop offset="1" stop-color="#68a1d6"/>
    </linearGradient>
    <linearGradient id="_Áåçûìÿííûé_ãðàäèåíò_37" data-name="Áåçûìÿííûé ãðàäèåíò 37" x1="-152.05" y1="482.91" x2="-146.22" y2="482.91" gradientTransform="translate(338.58 -352.19) rotate(13.63)" gradientUnits="userSpaceOnUse">
      <stop offset="0" stop-color="#2f5b91"/>
      <stop offset=".23" stop-color="#1d4778"/>
      <stop offset=".52" stop-color="#0d355f"/>
      <stop offset=".78" stop-color="#032951"/>
      <stop offset="1" stop-color="#00264c"/>
    </linearGradient>
    <linearGradient id="_Áåçûìÿííûé_ãðàäèåíò_37-2" data-name="Áåçûìÿííûé ãðàäèåíò 37" x1="0" y1="84.25" x2="7.42" y2="84.25" gradientTransform="matrix(1, 0, 0, 1, 0, 0)" xlink:href="#_Áåçûìÿííûé_ãðàäèåíò_37"/>
    <linearGradient id="_Áåçûìÿííûé_ãðàäèåíò_37-3" data-name="Áåçûìÿííûé ãðàäèåíò 37" x1="-129.58" y1="274.18" x2="-125.09" y2="274.18" gradientTransform="translate(193.22 -203.42) rotate(9.57)" xlink:href="#_Áåçûìÿííûé_ãðàäèåíò_37"/>
    <linearGradient id="_Áåçûìÿííûé_ãðàäèåíò_37-4" data-name="Áåçûìÿííûé ãðàäèåíò 37" x1="-228.61" y1="553.71" x2="-223.4" y2="553.71" gradientTransform="translate(446.56 -401.54) rotate(20.27)" xlink:href="#_Áåçûìÿííûé_ãðàäèåíò_37"/>
    <linearGradient id="_Áåçûìÿííûé_ãðàäèåíò_37-5" data-name="Áåçûìÿííûé ãðàäèåíò 37" x1="-264.72" y1="1146.34" x2="-259.64" y2="1146.34" gradientTransform="translate(993.79 -667.77) rotate(39.75)" xlink:href="#_Áåçûìÿííûé_ãðàäèåíò_37"/>
    <linearGradient id="_Áåçûìÿííûé_ãðàäèåíò_37-6" data-name="Áåçûìÿííûé ãðàäèåíò 37" x1="295.87" y1="-209.71" x2="300.26" y2="-209.71" gradientTransform="translate(-229.69 331.29) rotate(-14.34)" xlink:href="#_Áåçûìÿííûé_ãðàäèåíò_37"/>
    <linearGradient id="_Áåçûìÿííûé_ãðàäèåíò_37-7" data-name="Áåçûìÿííûé ãðàäèåíò 37" x1="-209.42" y1="706.01" x2="-204.33" y2="706.01" gradientTransform="translate(531.42 -526.18) rotate(21.73)" xlink:href="#_Áåçûìÿííûé_ãðàäèåíò_37"/>
  </defs>
  <path class="cls-59" d="m176.5,104.22c-5.88-2.81-12.81-7.02-14.43-17.36-1.37-8.67,1.83-17.18,2.3-26.05.48-9.02-2.16-18.49-6.55-23.5-4.39-5.01-10.31-5.3-14.69-.73-5.28,5.52-8.25,17.2-14.19,20.11-3.95,1.94-8.32-.67-11.77-4.87-3.45-4.2-6.23-9.89-9.22-15.09-5.53-9.61-12.06-17.83-19.45-21.69-7.39-3.86-15.73-2.94-22,4.45-2.28,2.69-4.21,6.3-5.65,10.45-2.42,6.98-7.69,8.92-11.66,4.27-.7-.82-1.42-1.58-2.16-2.27-4.23-3.94-9.82-5.39-13.32.02-2.36,3.65-3.18,9.67-2.88,15.28.31,5.61,1.6,10.93,2.92,16.12,2.88,11.36,5.99,22.78,7.1,34.99,1.11,12.21-.1,25.63-4.92,34.28-4.19,7.52-10.78,11.08-13.36,20.62-1.73,6.41-1.18,14.18.19,21.02,2.78,13.82,8.86,25.62,16.42,31.83,7.92,6.51,17.11,8.37,25.75,8.59,27.8.68,26.56-7.93,44.1-21.76,19.31-15.23,28.22,20.43,53.23,19.54,7.77-.27,13.79-10.2,14.17-18.6.4-8.92-8.57-17.04-7.92-25.9.77-10.48,6.84-16.4,12.03-21.5,5.19-5.1,10.8-13.33,9.78-23.84-1.03-10.54-7.93-15.6-13.81-18.41Z"/>
  <ellipse class="cls-11" cx="100.85" cy="244.07" rx="91.76" ry="3.84"/>
  <g>
    <g>
      <path class="cls-77" d="m159.68,220.87l-23.38-.03c-1.17,0-2.13,1.14-2.13,2.55l-.02,19.31c0,1.41.95,2.55,2.12,2.55l23.38.03c1.17,0,2.13-1.14,2.13-2.55l.02-19.31c0-1.41-.95-2.55-2.12-2.55Z"/>
      <path class="cls-2" d="m160.74,218.14l-25.51-.03c-1.01,0-1.82.98-1.82,2.18v11.54c-.01,1.21.8,2.19,1.81,2.19l25.51.03c1.01,0,1.82-.98,1.82-2.18v-11.54c.01-1.21-.8-2.19-1.81-2.19Z"/>
    </g>
    <g>
      <path class="cls-73" d="m142.05,219.52v-1.82c0-1.79,1.22-3.24,2.71-3.24h3.81c1.49,0,2.7,1.46,2.7,3.25v1.82s1.82,0,1.82,0v-1.81c0-3-2.02-5.43-4.52-5.44h-3.81c-2.5,0-4.53,2.42-4.53,5.42v1.82s1.82,0,1.82,0Z"/>
      <path class="cls-90" d="m158.34,220.86l-23.38-.03c-1.17,0-2.13,1.14-2.13,2.55l-.02,19.31c0,1.41.95,2.55,2.12,2.55l23.38.03c1.17,0,2.13-1.14,2.13-2.55l.02-19.31c0-1.41-.95-2.55-2.12-2.55Z"/>
      <path class="cls-57" d="m159.41,218.13l-25.51-.03c-1.01,0-1.82.98-1.82,2.18v11.54c-.01,1.21.8,2.19,1.81,2.19l25.51.03c1.01,0,1.82-.98,1.82-2.18v-11.54c.01-1.21-.8-2.19-1.81-2.19Z"/>
      <path class="cls-20" d="m146.64,231.84c-.7,0-1.27.68-1.27,1.52v2.19c0,.84.57,1.52,1.26,1.52.7,0,1.27-.68,1.27-1.52v-2.19c0-.84-.57-1.52-1.26-1.52Z"/>
    </g>
  </g>
  <path class="cls-67" d="m160.65,77.59s4.45-2.59,4.99-3.2c.54-.62,2.31-6.19,1.75-7.29-.55-1.1-3.05,1.86-4.14,1.38-1.1-.48-5.43,4.66-6.36,7.13-.93,2.47,3.76,1.97,3.76,1.97Z"/>
  <path class="cls-91" d="m116.5,90c-.7,2.53-.17,8.11,7.17,10.11,5.83,1.59,14.53-1.74,18.23-3.28,13.14-5.47,19.85-18.56,19.85-18.85-.64-1.42-3.35-5.87-3.51-5.71-16.13,16.47-27.04,14-32.21,13.89-1.97-.04-7.88-2.17-9.54,3.84Z"/>
  <path class="cls-71" d="m48.91,107.9s-4.9.75-5.64.59c-.74-.16-4.75-3.67-4.78-4.96-.03-1.28,3.4-.43,4.1-1.56.7-1.12,6.67.35,8.57,1.81,1.91,1.46-2.25,4.11-2.25,4.11Z"/>
  <path class="cls-38" d="m92.22,90.19c1.73,1.66,3.83,6.68-1.41,13.17-4.16,5.15-12.96,8.06-16.77,9.2-13.5,4.03-25.07-2.55-25.21-2.79-.11-1.61.14-7.11.34-7.08,21,3.24,29.03-5.98,33.31-9.46,1.63-1.32,5.61-6.98,9.74-3.03Z"/>
  <path class="cls-32" d="m106.83,229.54l-.04,11.84s-.76.98.91,2.05c1.67,1.07,5.16.57,5.85.06,1.44-1.06-3.77-2.97-3.77-2.97l.07-11.87-3.02.89Z"/>
  <path class="cls-94" d="m110.57,238.26c6.7-63.59,6.98-86.64,6.96-96.01-.01-4.94-.34-5.66-.34-5.66-2.67-3.29-10.88-13.72-18.01,6.53-2.72,14.5,6.35,90.53,6.84,95.36.37.04,4.18-.11,4.55-.22Z"/>
  <g>
    <path class="cls-12" d="m109.76,240.33c-1.94,1.85-3.2.48-3.2.48,0,0-1.41,2.12-.19,3.55,1.27,1.49,11.3,1.99,10.6-.79-.44-1.74-7.22-3.24-7.22-3.24Z"/>
    <path class="cls-97" d="m110.32,240.7s-.66.68-.87,1.49c0,.53,1.8-1.77.87-1.49Z"/>
    <path class="cls-97" d="m111.71,241.17s-.65.68-.86,1.48c0,.53,1.78-1.76.86-1.48Z"/>
    <path class="cls-97" d="m113.02,241.52s-.56.59-.72,1.31c0,.48,1.52-1.53.72-1.31Z"/>
  </g>
  <path class="cls-95" d="m80.48,227.96l-1.71,11.66s-.89.81.61,2.2c1.5,1.4,5,1.62,5.75,1.25,1.57-.75-3.29-3.7-3.29-3.7l1.75-11.68-3.1.26Z"/>
  <g>
    <path class="cls-12" d="m81.85,239.19c-2.17,1.43-3.22-.18-3.22-.18,0,0-1.69,1.8-.69,3.46,1.04,1.73,10.85,4.27,10.56,1.38-.18-1.8-6.65-4.66-6.65-4.66Z"/>
    <path class="cls-97" d="m82.34,239.67s-.75.54-1.07,1.29c-.07.53,2.02-1.37,1.07-1.29Z"/>
    <path class="cls-97" d="m83.65,240.42s-.74.54-1.05,1.29c-.07.53,2-1.37,1.05-1.29Z"/>
    <path class="cls-97" d="m84.89,241.02s-.63.47-.9,1.14c-.06.47,1.71-1.2.9-1.14Z"/>
  </g>
  <path class="cls-18" d="m82.99,237.74c20.47-59.2,26.41-81.61,28.45-90.66,1.08-4.76.92-5.57.92-5.57-1.85-4.02-6.47-21.64-17.8-4.37-1.37,3.09-5.75,8.45-5.42,23.14.03,1.28-10.29,71.57-10.75,75.25.35.16,4.21,2.19,4.59,2.21Z"/>
  <path class="cls-10" d="m102.38,72.16l-2.17,17.11s5.39,5.42,8.03,5.44c3.07.02-.25-20.12-.25-20.12l-5.61-2.43Z"/>
  <path class="cls-48" d="m120.77,91.55c-1.48-3.17-11.76-8.41-11.7-7.3.02.34-.03,2.1-2.62,3.23-3.62,1.58-5.69-2.3-5.69-2.3-3.69-.22-6.93,3.99-8.39,7.02-3.39,7.01-.74,14.99.13,49.95.1,4.02,19.86,1.68,26.59-2.22,5.93-26.33,3.79-43.85,1.68-48.38Z"/>
  <path class="cls-3" d="m105.02,86.36c-.29.51-2.63,3.31-2.63,3.31l3.84,2.91s4.06,19.97-.52,37.46c.7,2.7,3.56,7.25,3.56,7.25l4.56-5.04s-1.65-22.78-5.7-40.37c-.02.02.82-3.56.82-3.56l-3.92-1.97Z"/>
  <path class="cls-15" d="m97.02,85.74s-8.26,2.7-8.52,3.12c-1.72,2.77,2.63,22.98-.69,60.16-.89,2.32,23.26,8.21,30.97,3.21,3.79-22.46,8.13-49.4,3.49-66.4-1.88-1.23-6.87-.87-9.12-.89-.76,0,4.14,20.87-1.61,41.31-8.87-17.66-13.48-38.65-14.53-40.51Z"/>
  <path class="cls-89" d="m97.35,85.7s1.09,3.19,5.27,6.07c.58-.94,3.32-4.49,3.32-4.49l3.58,2.92s2.32-2.22,2.02-5.59c-.74-.49-2.43-.74-2.43-.74,0,0-3.16,4.25-8.79.76-1.38.1-2.98,1.08-2.98,1.08Z"/>
  <path class="cls-19" d="m98.11,85.11l-4.12,1.52.25,12.04,3.93.17-4.7,2.72s14.16,15.77,18.14,25.13c.11-10.26-12.42-40.38-13.49-41.59Z"/>
  <path class="cls-52" d="m111.11,84.25s4.13,4.2.43,42.11c.7-1.63,8.25-24.31,8.48-26.18-.44-.13-5.62-.94-5.62-.94l4.68-2.45s-3.89-11.18-4.65-12.08c-.88-.46-3.32-.46-3.32-.46Z"/>
  <path class="cls-72" d="m105.01,61.73c-.42.43-6.35,5.42-2.38,15.21,1.39,4.89,7.36,10.15,9.19-2.46,1.08-7.47-2.1-17.5-6.81-12.75Z"/>
  <path class="cls-12" d="m102.42,66.01s-.01.03,0,.06v-.06Z"/>
  <path class="cls-12" d="m101.56,64.55s.02-.06.03-.09c0,.03-.02.06-.03.09Z"/>
  <path class="cls-12" d="m106.57,57.17c-5.25,1.57-9.97,9.21-5.02,14.46l.86-5.56s0-.06,0-.06v.06c0,.18.31.63,3.86-.47,4.74-1.48,5.23,2.17,5.77,4.03.54.34,3.24-1.75,2.01-5.08-.01-.03-.03-.06-.03-.09,0,.03.02.06.03.09.31.67,2.19,1.06,1.69-1.19-.52-2.36-4.53-7.58-9.18-6.19Z"/>
  <path class="cls-88" d="m101.94,70.98s-2.39-1.95-2.14.96c.19,2.3,2.2,2.01,2.2,2.01l-.06-2.97Z"/>
  <g>
    <g>
      <path class="cls-68" d="m42.8,226.67s5.48-12.97,2.96-23.46c-2.52-10.49-4.38-18.03-3.54-22.3-1.8,4.37-3.14,14.78-1.94,21.49,1.39,7.78,1.78,19.54.36,24.65-1.42,5.11.51,5.91,2.16-.39Z"/>
      <path class="cls-55" d="m42.65,226.22s4.99-12.23,2.63-21.74c-2.36-9.52-4.08-16.36-3.5-20.4-1.38,4.22-1.87,14.56-.7,20.69,1.35,7.11,1.29,15.84.24,20.71-1.05,4.87.12,6.72,1.33.73Z"/>
      <path class="cls-47" d="m42.14,191.74l-.74,2.07-.82-1.49s.33,2.3.93,2.94c.59.64.63-3.52.63-3.52Z"/>
      <path class="cls-79" d="m42.74,195.61l-.62,2.38-1.49-1.93s.62,2.42,1.49,3.15c.86.73.62-3.6.62-3.6Z"/>
      <path class="cls-6" d="m43.6,199.24l-.57,2.67-2.28-2.41s1.02,2.58,2.25,3.43c1.23.84.6-3.68.6-3.68Z"/>
      <path class="cls-56" d="m44.62,203.38l-1.03,2.64-2.52-2.49s1.3,3.85,3.07,3.95c.78.04.48-4.09.48-4.09Z"/>
      <path class="cls-45" d="m45.41,208.56l-1.37,2.19-2.25-2.75s.82,3.76,2.6,4.22c.7.18,1.03-3.66,1.03-3.66Z"/>
      <path class="cls-69" d="m45.67,213.16l-1.57,1.5-2.04-2.88s1.13,2.93,2.27,4.42c.34.45,1.34-3.04,1.34-3.04Z"/>
      <path class="cls-61" d="m44.96,217.27l-1.4,1.5-1.26-2.06s.55,2.25,1.27,3.3c.22.32,1.39-2.75,1.39-2.75Z"/>
      <path class="cls-49" d="m44.29,220.85l-1.28,1.45-.91-1.66s.3,1.9.82,2.74c.16.25,1.36-2.54,1.36-2.54Z"/>
    </g>
    <g>
      <path class="cls-37" d="m41.18,229.87s4.46-13.02-.32-22.6c-4.78-9.58-8.27-16.47-7.96-20.62-1.45,4.38-1.34,14.41,1.22,20.6,2.96,7.18,5.39,18.26,4.52,23.28-.87,5.02,1.59,5.52,2.55-.66Z"/>
      <path class="cls-96" d="m40.92,229.46s3.99-12.24-.43-20.93c-4.42-8.69-7.64-14.93-7.6-18.83-.96,4.18.16,14.03,2.58,19.68,2.8,6.54,4.18,14.82,3.72,19.57-.46,4.75,1.26,6.35,1.73.51Z"/>
      <path class="cls-14" d="m34.6,196.9l-.54,2.06-1.24-1.3s.78,2.13,1.61,2.65c.82.53.17-3.41.17-3.41Z"/>
      <path class="cls-22" d="m35.96,200.48l-.35,2.34-2.11-1.63s1.15,2.21,2.31,2.78c1.16.57.15-3.49.15-3.49Z"/>
      <path class="cls-93" d="m37.59,203.79l-.25,2.6-3.15-1.98s1.65,2.31,3.28,2.94c1.63.63.11-3.57.11-3.57Z"/>
      <path class="cls-75" d="m39.51,207.58l-.81,2.63-3.46-2.02s2.21,3.47,4.36,3.32c.95-.06-.09-3.94-.09-3.94Z"/>
      <path class="cls-78" d="m41.32,212.37l-1.3,2.25-3.17-2.3s1.61,3.45,3.83,3.65c.88.08.63-3.6.63-3.6Z"/>
      <path class="cls-53" d="m42.4,216.69l-1.65,1.63-2.93-2.45s1.85,2.62,3.48,3.88c.49.38,1.11-3.06,1.11-3.06Z"/>
      <path class="cls-50" d="m42.22,220.68l-1.43,1.61-1.86-1.78s1.03,2.05,2.08,2.96c.31.27,1.22-2.79,1.22-2.79Z"/>
      <path class="cls-5" d="m42,224.15l-1.3,1.55-1.37-1.45s.67,1.76,1.45,2.48c.23.22,1.22-2.58,1.22-2.58Z"/>
    </g>
    <g>
      <path class="cls-81" d="m38.55,231.03s2.68-9.77-.91-16.47c-3.59-6.69-6.21-11.5-6.12-14.55-.87,3.29-.49,10.59,1.47,14.95,2.26,5.05,4.27,12.98,3.82,16.7-.45,3.72,1.26,3.93,1.74-.64Z"/>
      <path class="cls-17" d="m38.36,230.75s2.38-9.18-.93-15.24c-3.31-6.06-5.72-10.41-5.81-13.26-.54,3.11.54,10.23,2.38,14.19,2.13,4.6,3.34,10.55,3.16,14.04-.17,3.49,1.06,4.55,1.21.27Z"/>
      <path class="cls-44" d="m33,207.4l-.31,1.54-.89-.87s.6,1.5,1.19,1.84c.58.33.02-2.5.02-2.5Z"/>
      <path class="cls-63" d="m34.05,209.92l-.17,1.73-1.51-1.06s.86,1.54,1.68,1.89c.82.34,0-2.55,0-2.55Z"/>
      <path class="cls-76" d="m35.28,212.24l-.09,1.91-2.23-1.24s1.21,1.58,2.35,1.94c1.14.36-.03-2.61-.03-2.61Z"/>
      <path class="cls-74" d="m36.72,214.88l-.48,1.97-2.45-1.26s1.63,2.39,3.11,2.15c.65-.11-.18-2.86-.18-2.86Z"/>
      <path class="cls-13" d="m38.11,218.27l-.83,1.72-2.26-1.48s1.22,2.42,2.75,2.42c.61,0,.33-2.67.33-2.67Z"/>
      <path class="cls-46" d="m38.99,221.35l-1.09,1.29-2.1-1.6s1.36,1.79,2.52,2.61c.35.24.67-2.3.67-2.3Z"/>
      <path class="cls-92" d="m38.99,224.27l-.94,1.27-1.34-1.18s.78,1.43,1.52,2.03c.22.18.76-2.11.76-2.11Z"/>
      <path class="cls-34" d="m38.94,226.82l-.85,1.21-.99-.97s.52,1.24,1.08,1.72c.17.14.76-1.96.76-1.96Z"/>
    </g>
    <polygon class="cls-86" points="34.2 244.67 32.67 231.97 45.12 232.4 43.82 244.67 34.2 244.67"/>
    <rect class="cls-9" x="32.5" y="231.68" width="12.79" height="1.92" rx=".96" ry=".96" transform="translate(77.79 465.29) rotate(180)"/>
    <rect class="cls-84" x="31.6" y="228.54" width="14.59" height="3.29" rx="1.64" ry="1.64" transform="translate(77.79 460.37) rotate(180)"/>
  </g>
  <g>
    <path class="cls-62" d="m137.01,27.49h51.89c2.05,0,3.72,2.02,3.72,4.49v34.11c0,2.47-1.67,4.49-3.72,4.49h-36.5l-10.97,9.66,1.21-9.66h-5.62c-2.05,0-3.72-2.02-3.72-4.49V31.98c0-2.47,1.67-4.49,3.72-4.49Z"/>
    <path class="cls-36" d="m185.45,66.44c2.05,0,3.72-2.02,3.72-4.49V27.84c0-.11,0-.22-.01-.33,1.93.16,3.46,2.11,3.46,4.47v34.11c0,2.47-1.67,4.49-3.72,4.49h-36.5l-10.97,9.66,1.21-9.66h-5.62c-1.95,0-3.56-1.84-3.71-4.16.09,0,.17.02.26.02h51.89Z"/>
  </g>
  <polygon class="cls-43" points="162.77 17.16 161.49 18.02 160.58 2.65 163.7 3.32 162.77 17.16"/>
  <polygon class="cls-85" points="177.48 20.97 176.01 20.98 181.39 6.99 183.85 9.38 177.48 20.97"/>
  <polygon class="cls-51" points="197.36 49.05 197.24 47.96 204.82 50.88 203.78 52.88 197.36 49.05"/>
  <polygon class="cls-41" points="197.61 27.37 196.35 26.45 207.08 17.99 208.12 21.58 197.61 27.37"/>
  <polygon class="cls-31" points="128.13 24.03 129.38 23.11 118.66 14.64 117.62 18.23 128.13 24.03"/>
  <polygon class="cls-82" points="128.23 48.73 128.39 47.34 118.61 50.91 119.92 53.5 128.23 48.73"/>
  <polygon class="cls-42" points="146.05 13.98 147.51 13.99 142.14 0 139.68 2.39 146.05 13.98"/>
  <g>
    <path class="cls-60" d="m192.73,15.2c.06,0,.09-.1.05-.15l-1.01-1.25s-.02-.05-.02-.08l.29-1.71c.01-.07-.05-.13-.11-.1l-1.3.76s-.05.01-.07,0l-1.26-.86c-.05-.04-.12.02-.11.09l.2,1.72s0,.06-.02.08l-1.07,1.18c-.05.05-.02.14.04.16l1.43.3s.05.02.06.05l.6,1.58c.03.07.11.07.14,0l.68-1.54s.03-.04.06-.05l1.44-.2Z"/>
    <path class="cls-28" d="m192.37,14.99c.05,0,.07-.08.04-.13l-.83-1.03s-.02-.04-.02-.07l.24-1.41c.01-.06-.04-.11-.09-.08l-1.08.63s-.04.01-.06,0l-1.04-.71s-.1.01-.09.08l.17,1.42s0,.05-.02.07l-.88.97s-.02.12.03.13l1.18.25s.04.02.05.04l.5,1.31c.02.06.09.06.11,0l.56-1.27s.03-.04.05-.04l1.19-.16Z"/>
  </g>
  <g>
    <path class="cls-54" d="m174.45,7.47c.05-.04.04-.14-.02-.16l-1.37-.58s-.04-.03-.05-.06l-.38-1.68c-.02-.07-.09-.09-.13-.03l-.88,1.38s-.04.04-.06.04l-1.45-.09c-.06,0-.1.08-.07.14l.82,1.44s.02.06,0,.08l-.52,1.63c-.02.07.03.14.09.12l1.39-.49s.05,0,.07.02l1.13,1.1s.12,0,.12-.07l.04-1.74s.01-.06.03-.07l1.22-.95Z"/>
    <path class="cls-29" d="m174.05,7.47s.04-.11-.01-.13l-1.13-.48s-.03-.03-.04-.05l-.31-1.39c-.01-.06-.08-.08-.11-.03l-.73,1.14s-.03.03-.05.03l-1.2-.08c-.05,0-.08.07-.05.12l.68,1.18s.01.05,0,.07l-.43,1.34c-.02.06.03.12.08.1l1.15-.41s.04,0,.06.01l.93.9s.1,0,.1-.06l.03-1.44s.01-.05.03-.06l1-.78Z"/>
  </g>
  <g>
    <path class="cls-65" d="m156.23,12.9c.04-.06,0-.15-.06-.14l-1.45.03s-.05-.01-.06-.04l-.84-1.42c-.04-.06-.12-.05-.13.03l-.42,1.67s-.03.05-.05.06l-1.38.53c-.06.02-.07.12-.02.16l1.19,1s.03.05.03.08v1.74c-.01.08.06.12.11.07l1.16-1.05s.05-.02.07-.01l1.38.55c.06.02.12-.04.1-.12l-.47-1.65s0-.06.01-.08l.86-1.4Z"/>
    <path class="cls-26" d="m155.85,13.07s0-.12-.05-.12l-1.2.03s-.04-.01-.05-.03l-.7-1.17c-.03-.05-.1-.04-.11.02l-.35,1.37s-.02.04-.04.05l-1.14.43s-.06.1-.02.13l.98.82s.03.04.03.06v1.44c0,.06.05.1.09.06l.96-.87s.04-.02.06-.01l1.14.45s.1-.04.08-.1l-.39-1.36s0-.05,0-.07l.71-1.16Z"/>
  </g>
  <g>
    <path class="cls-87" d="m202.9,40.71s.12.01.13-.06l.09-1.74s.02-.06.04-.07l1.25-.89c.05-.04.05-.13-.01-.16l-1.35-.65s-.04-.04-.05-.06l-.32-1.7c-.01-.07-.09-.1-.13-.04l-.93,1.34s-.04.04-.07.03l-1.45-.16c-.06,0-.1.08-.07.14l.77,1.47s.02.06,0,.08l-.57,1.6c-.02.07.03.14.09.12l1.41-.43s.05,0,.07.02l1.09,1.15Z"/>
    <path class="cls-27" d="m202.79,40.25s.1.01.1-.05l.08-1.43s.01-.05.03-.06l1.03-.74s.04-.11,0-.13l-1.11-.53s-.03-.03-.04-.05l-.26-1.4c-.01-.06-.08-.08-.11-.03l-.77,1.1s-.03.03-.05.03l-1.19-.13c-.05,0-.09.06-.06.11l.64,1.21s.01.05,0,.07l-.47,1.32c-.02.06.02.12.07.1l1.16-.35s.04,0,.06.02l.9.95Z"/>
  </g>
  <g>
    <path class="cls-58" d="m138.54,12.18c.02-.07-.04-.14-.1-.11l-1.34.66s-.05,0-.07,0l-1.22-.95c-.05-.04-.12,0-.12.08l.11,1.74s0,.06-.03.08l-1.13,1.09s-.03.14.03.16l1.41.41s.04.03.05.06l.52,1.63c.02.07.1.08.14.02l.76-1.48s.04-.04.06-.04l1.45-.09c.06,0,.09-.09.05-.15l-.94-1.33s-.02-.05-.02-.08l.38-1.68Z"/>
    <path class="cls-24" d="m138.25,12.5c.01-.06-.04-.11-.08-.09l-1.11.55s-.04,0-.06,0l-1-.78s-.1,0-.1.07l.09,1.43s0,.05-.02.06l-.93.9s-.03.12.02.13l1.16.34s.04.02.04.05l.43,1.34c.02.06.08.07.11.01l.63-1.22s.03-.03.05-.04l1.2-.07c.05,0,.08-.08.04-.12l-.77-1.09s-.02-.04-.01-.07l.31-1.39Z"/>
  </g>
  <g>
    <path class="cls-1" d="m122.79,32.66c-.01-.07-.09-.1-.13-.04l-.95,1.31s-.04.03-.07.03l-1.44-.2c-.06,0-.11.07-.07.14l.75,1.49s.01.06,0,.08l-.6,1.58c-.03.07.02.14.09.13l1.41-.39s.05,0,.07.02l1.07,1.18c.05.05.12.02.13-.06l.13-1.73s.02-.06.04-.07l1.26-.86c.05-.04.05-.13,0-.16l-1.34-.68s-.04-.04-.04-.07l-.29-1.71Z"/>
    <path class="cls-25" d="m122.64,33.11c-.01-.06-.07-.08-.11-.03l-.79,1.08s-.03.03-.05.03l-1.19-.16c-.05,0-.09.06-.06.11l.62,1.23s.01.05,0,.07l-.5,1.31c-.02.06.02.12.07.1l1.17-.32s.04,0,.06.02l.88.97s.1.01.1-.05l.11-1.43s.01-.05.03-.06l1.04-.71s.04-.11,0-.13l-1.1-.56s-.03-.03-.04-.05l-.24-1.41Z"/>
  </g>
  <g>
    <path class="cls-7" d="m68.3,61.35H15.81c-2.07,0-3.76,2.04-3.76,4.54v34.5c0,2.5,1.69,4.54,3.76,4.54h36.92l9.63,13.31.25-13.31h5.69c2.07,0,3.76-2.04,3.76-4.54v-34.5c0-2.5-1.69-4.54-3.76-4.54Z"/>
    <path class="cls-35" d="m19.3,100.75c-2.07,0-3.76-2.04-3.76-4.54v-34.5c0-.11,0-.22.01-.34-1.95.16-3.5,2.13-3.5,4.53v34.5c0,2.5,1.69,4.54,3.76,4.54h36.92l9.63,13.31.25-13.31h5.69c1.98,0,3.61-1.86,3.75-4.21-.09,0-.17.02-.26.02H19.3Z"/>
  </g>
  <polygon class="cls-66" points="82.38 84 75.64 87.07 79.43 83.25 77.19 81.3 82.99 76.68 79.7 81.63 82.38 84"/>
  <polygon class="cls-40" points="6.2 80.88 7.42 89.93 4.92 84.4 2.76 86.77 0 78.57 3.58 83.73 6.2 80.88"/>
  <polygon class="cls-8" points="24.57 44.58 21.93 51.96 22.24 46.46 19.72 47 20.88 39.37 21.52 45.21 24.57 44.58"/>
  <polygon class="cls-80" points="45.75 38.97 41.61 46.36 42.9 40.44 40.05 40.41 42.63 32.39 42.32 38.9 45.75 38.97"/>
  <polygon class="cls-4" points="62.01 46.63 56.63 51.43 59.21 46.86 56.8 45.8 61.01 39.9 59.11 45.33 62.01 46.63"/>
  <polygon class="cls-64" points="8.83 52.07 8.91 59.69 7.42 54.77 5.4 56.41 3.97 49.26 6.39 54.02 8.83 52.07"/>
  <polygon class="cls-83" points="80.08 54.44 74.38 57.78 77.44 54.07 75.35 52.58 80.12 47.97 77.56 52.63 80.08 54.44"/>
  <text class="cls-39" transform="translate(21.41 79.15) scale(.83 1)"><tspan x="0" y="0">ÁR</tspan><tspan class="cls-30" x="19.04" y="0">E</tspan><tspan x="26.71" y="0">AS</tspan><tspan class="cls-21" x="0" y="16.85">“</tspan><tspan class="cls-33" x="5.52" y="16.85">A</tspan><tspan x="15.79" y="16.85">,B,C..</tspan><tspan class="cls-23" x="48.77" y="16.85">.</tspan><tspan x="51.31" y="16.85">”</tspan></text>
  <text class="cls-39" transform="translate(137.25 43.76) scale(.83 1)"><tspan x="0" y="0">CA</tspan><tspan class="cls-70" x="18.63" y="0">R</tspan><tspan x="27.66" y="0">GOS</tspan><tspan x="0" y="16.85">“</tspan><tspan class="cls-33" x="6.92" y="16.85">X</tspan><tspan x="16.53" y="16.85">,</tspan><tspan class="cls-16" x="20.33" y="16.85">Y</tspan><tspan x="27.3" y="16.85">,Z..</tspan><tspan class="cls-23" x="47.23" y="16.85">.</tspan><tspan x="49.77" y="16.85">”</tspan></text>
</svg>